<?xml version="1.0" encoding="utf-8" standalone="no"?>
<!DOCTYPE svg PUBLIC "-//W3C//DTD SVG 1.1//EN"
  "http://www.w3.org/Graphics/SVG/1.1/DTD/svg11.dtd">
<svg xmlns:xlink="http://www.w3.org/1999/xlink" width="864pt" height="432pt" viewBox="0 0 864 432" xmlns="http://www.w3.org/2000/svg" version="1.1">
 <metadata>
  <rdf:RDF xmlns:dc="http://purl.org/dc/elements/1.1/" xmlns:cc="http://creativecommons.org/ns#" xmlns:rdf="http://www.w3.org/1999/02/22-rdf-syntax-ns#">
   <cc:Work>
    <dc:type rdf:resource="http://purl.org/dc/dcmitype/StillImage"/>
    <dc:date>2025-04-30T16:57:21.290438</dc:date>
    <dc:format>image/svg+xml</dc:format>
    <dc:creator>
     <cc:Agent>
      <dc:title>Matplotlib v3.10.1, https://matplotlib.org/</dc:title>
     </cc:Agent>
    </dc:creator>
   </cc:Work>
  </rdf:RDF>
 </metadata>
 <defs>
  <style type="text/css">*{stroke-linejoin: round; stroke-linecap: butt}</style>
 </defs>
 <g id="figure_1">
  <g id="patch_1">
   <path d="M 0 432 
L 864 432 
L 864 0 
L 0 0 
L 0 432 
z
" style="fill: none"/>
  </g>
  <g id="axes_1">
   <g id="patch_2">
    <path d="M 81.26 343.58625 
L 825.6 343.58625 
L 825.6 38.4 
L 81.26 38.4 
L 81.26 343.58625 
z
" style="fill: none"/>
   </g>
   <g id="matplotlib.axis_1">
    <g id="xtick_1">
     <g id="line2d_1">
      <path d="M 115.093636 343.58625 
L 115.093636 38.4 
" clip-path="url(#p5a4527e672)" style="fill: none; stroke: #cccccc; stroke-width: 0.8; stroke-linecap: round"/>
     </g>
     <g id="text_1">
      <!-- −2.0 -->
      <g style="fill: #262626" transform="translate(97.849761 365.08625) scale(0.176 -0.176)">
       <defs>
        <path id="Roboto-Regular-2212" d="M 3134 2509 
L 3134 2034 
L 525 2034 
L 525 2509 
L 3134 2509 
z
" transform="scale(0.015625)"/>
        <path id="Roboto-Regular-32" d="M 3359 475 
L 3359 0 
L 381 0 
L 381 416 
L 1925 2134 
Q 2306 2566 2439 2819 
Q 2572 3072 2572 3328 
Q 2572 3663 2364 3900 
Q 2156 4138 1778 4138 
Q 1322 4138 1097 3878 
Q 872 3619 872 3213 
L 294 3213 
Q 294 3788 672 4200 
Q 1050 4613 1778 4613 
Q 2422 4613 2786 4278 
Q 3150 3944 3150 3397 
Q 3150 2997 2903 2592 
Q 2656 2188 2297 1797 
L 1078 475 
L 3359 475 
z
" transform="scale(0.015625)"/>
        <path id="Roboto-Regular-2e" d="M 450 306 
Q 450 453 542 554 
Q 634 656 809 656 
Q 984 656 1076 554 
Q 1169 453 1169 306 
Q 1169 163 1076 62 
Q 984 -38 809 -38 
Q 634 -38 542 62 
Q 450 163 450 306 
z
" transform="scale(0.015625)"/>
        <path id="Roboto-Regular-30" d="M 3234 1944 
Q 3234 825 2848 381 
Q 2463 -63 1800 -63 
Q 1156 -63 764 368 
Q 372 800 359 1872 
L 359 2638 
Q 359 3753 750 4183 
Q 1141 4613 1794 4613 
Q 2447 4613 2834 4195 
Q 3222 3778 3234 2709 
L 3234 1944 
z
M 2653 2734 
Q 2653 3503 2434 3822 
Q 2216 4141 1794 4141 
Q 1388 4141 1167 3831 
Q 947 3522 941 2778 
L 941 1850 
Q 941 1088 1164 750 
Q 1388 413 1800 413 
Q 2222 413 2436 745 
Q 2650 1078 2653 1825 
L 2653 2734 
z
" transform="scale(0.015625)"/>
       </defs>
       <use xlink:href="#Roboto-Regular-2212"/>
       <use xlink:href="#Roboto-Regular-32" transform="translate(57.177734 0)"/>
       <use xlink:href="#Roboto-Regular-2e" transform="translate(113.378906 0)"/>
       <use xlink:href="#Roboto-Regular-30" transform="translate(139.746094 0)"/>
      </g>
     </g>
    </g>
    <g id="xtick_2">
     <g id="line2d_2">
      <path d="M 199.677727 343.58625 
L 199.677727 38.4 
" clip-path="url(#p5a4527e672)" style="fill: none; stroke: #cccccc; stroke-width: 0.8; stroke-linecap: round"/>
     </g>
     <g id="text_2">
      <!-- −1.5 -->
      <g style="fill: #262626" transform="translate(182.433852 365.08625) scale(0.176 -0.176)">
       <defs>
        <path id="Roboto-Regular-31" d="M 2278 4575 
L 2278 0 
L 1700 0 
L 1700 3853 
L 534 3428 
L 534 3950 
L 2188 4575 
L 2278 4575 
z
" transform="scale(0.015625)"/>
        <path id="Roboto-Regular-35" d="M 1109 2166 
L 647 2284 
L 875 4550 
L 3209 4550 
L 3209 4016 
L 1366 4016 
L 1228 2778 
Q 1572 2975 1988 2975 
Q 2616 2975 2980 2561 
Q 3344 2147 3344 1450 
Q 3344 797 2987 367 
Q 2631 -63 1903 -63 
Q 1350 -63 947 248 
Q 544 559 481 1197 
L 1031 1197 
Q 1141 413 1903 413 
Q 2313 413 2538 691 
Q 2763 969 2763 1444 
Q 2763 1872 2527 2164 
Q 2291 2456 1853 2456 
Q 1563 2456 1413 2378 
Q 1263 2300 1109 2166 
z
" transform="scale(0.015625)"/>
       </defs>
       <use xlink:href="#Roboto-Regular-2212"/>
       <use xlink:href="#Roboto-Regular-31" transform="translate(57.177734 0)"/>
       <use xlink:href="#Roboto-Regular-2e" transform="translate(113.378906 0)"/>
       <use xlink:href="#Roboto-Regular-35" transform="translate(139.746094 0)"/>
      </g>
     </g>
    </g>
    <g id="xtick_3">
     <g id="line2d_3">
      <path d="M 284.261818 343.58625 
L 284.261818 38.4 
" clip-path="url(#p5a4527e672)" style="fill: none; stroke: #cccccc; stroke-width: 0.8; stroke-linecap: round"/>
     </g>
     <g id="text_3">
      <!-- −1.0 -->
      <g style="fill: #262626" transform="translate(267.017943 365.08625) scale(0.176 -0.176)">
       <use xlink:href="#Roboto-Regular-2212"/>
       <use xlink:href="#Roboto-Regular-31" transform="translate(57.177734 0)"/>
       <use xlink:href="#Roboto-Regular-2e" transform="translate(113.378906 0)"/>
       <use xlink:href="#Roboto-Regular-30" transform="translate(139.746094 0)"/>
      </g>
     </g>
    </g>
    <g id="xtick_4">
     <g id="line2d_4">
      <path d="M 368.845909 343.58625 
L 368.845909 38.4 
" clip-path="url(#p5a4527e672)" style="fill: none; stroke: #cccccc; stroke-width: 0.8; stroke-linecap: round"/>
     </g>
     <g id="text_4">
      <!-- −0.5 -->
      <g style="fill: #262626" transform="translate(351.602034 365.08625) scale(0.176 -0.176)">
       <use xlink:href="#Roboto-Regular-2212"/>
       <use xlink:href="#Roboto-Regular-30" transform="translate(57.177734 0)"/>
       <use xlink:href="#Roboto-Regular-2e" transform="translate(113.378906 0)"/>
       <use xlink:href="#Roboto-Regular-35" transform="translate(139.746094 0)"/>
      </g>
     </g>
    </g>
    <g id="xtick_5">
     <g id="line2d_5">
      <path d="M 453.43 343.58625 
L 453.43 38.4 
" clip-path="url(#p5a4527e672)" style="fill: none; stroke: #cccccc; stroke-width: 0.8; stroke-linecap: round"/>
     </g>
     <g id="text_5">
      <!-- 0.0 -->
      <g style="fill: #262626" transform="translate(441.21725 365.08625) scale(0.176 -0.176)">
       <use xlink:href="#Roboto-Regular-30"/>
       <use xlink:href="#Roboto-Regular-2e" transform="translate(56.201172 0)"/>
       <use xlink:href="#Roboto-Regular-30" transform="translate(82.568359 0)"/>
      </g>
     </g>
    </g>
    <g id="xtick_6">
     <g id="line2d_6">
      <path d="M 538.014091 343.58625 
L 538.014091 38.4 
" clip-path="url(#p5a4527e672)" style="fill: none; stroke: #cccccc; stroke-width: 0.8; stroke-linecap: round"/>
     </g>
     <g id="text_6">
      <!-- 0.5 -->
      <g style="fill: #262626" transform="translate(525.801341 365.08625) scale(0.176 -0.176)">
       <use xlink:href="#Roboto-Regular-30"/>
       <use xlink:href="#Roboto-Regular-2e" transform="translate(56.201172 0)"/>
       <use xlink:href="#Roboto-Regular-35" transform="translate(82.568359 0)"/>
      </g>
     </g>
    </g>
    <g id="xtick_7">
     <g id="line2d_7">
      <path d="M 622.598182 343.58625 
L 622.598182 38.4 
" clip-path="url(#p5a4527e672)" style="fill: none; stroke: #cccccc; stroke-width: 0.8; stroke-linecap: round"/>
     </g>
     <g id="text_7">
      <!-- 1.0 -->
      <g style="fill: #262626" transform="translate(610.385432 365.08625) scale(0.176 -0.176)">
       <use xlink:href="#Roboto-Regular-31"/>
       <use xlink:href="#Roboto-Regular-2e" transform="translate(56.201172 0)"/>
       <use xlink:href="#Roboto-Regular-30" transform="translate(82.568359 0)"/>
      </g>
     </g>
    </g>
    <g id="xtick_8">
     <g id="line2d_8">
      <path d="M 707.182273 343.58625 
L 707.182273 38.4 
" clip-path="url(#p5a4527e672)" style="fill: none; stroke: #cccccc; stroke-width: 0.8; stroke-linecap: round"/>
     </g>
     <g id="text_8">
      <!-- 1.5 -->
      <g style="fill: #262626" transform="translate(694.969523 365.08625) scale(0.176 -0.176)">
       <use xlink:href="#Roboto-Regular-31"/>
       <use xlink:href="#Roboto-Regular-2e" transform="translate(56.201172 0)"/>
       <use xlink:href="#Roboto-Regular-35" transform="translate(82.568359 0)"/>
      </g>
     </g>
    </g>
    <g id="xtick_9">
     <g id="line2d_9">
      <path d="M 791.766364 343.58625 
L 791.766364 38.4 
" clip-path="url(#p5a4527e672)" style="fill: none; stroke: #cccccc; stroke-width: 0.8; stroke-linecap: round"/>
     </g>
     <g id="text_9">
      <!-- 2.0 -->
      <g style="fill: #262626" transform="translate(779.553614 365.08625) scale(0.176 -0.176)">
       <use xlink:href="#Roboto-Regular-32"/>
       <use xlink:href="#Roboto-Regular-2e" transform="translate(56.201172 0)"/>
       <use xlink:href="#Roboto-Regular-30" transform="translate(82.568359 0)"/>
      </g>
     </g>
    </g>
    <g id="text_10">
     <!-- $\bar{\delta}$ -->
     <g style="fill: #262626" transform="translate(447.478 387.19325) scale(0.192 -0.192)">
      <defs>
       <path id="DejaVuSans-304" d="M -2522 4769 
L -653 4769 
L -653 4306 
L -2522 4306 
L -2522 4769 
z
" transform="scale(0.015625)"/>
       <path id="DejaVuSans-Oblique-3b4" d="M 3472 4053 
Q 3197 4272 2450 4272 
Q 1659 4272 1588 3906 
Q 1531 3619 2328 3469 
Q 2953 3353 3253 3003 
Q 3616 2581 3447 1716 
Q 3284 888 2763 400 
Q 2238 -91 1488 -91 
Q 741 -91 406 400 
Q 72 888 241 1747 
Q 363 2384 891 2900 
Q 1097 3100 1353 3213 
Q 913 3459 1000 3900 
Q 1166 4750 2544 4750 
Q 3234 4750 3566 4531 
L 3472 4053 
z
M 1753 3056 
Q 1525 2966 1306 2738 
Q 969 2384 847 1747 
Q 722 1113 919 756 
Q 1119 397 1584 397 
Q 2044 397 2381 759 
Q 2722 1122 2838 1716 
Q 2956 2338 2731 2638 
Q 2491 2959 2103 2994 
Q 1906 3013 1753 3056 
z
" transform="scale(0.015625)"/>
      </defs>
      <use xlink:href="#DejaVuSans-304" transform="translate(62.70166 19.484375)"/>
      <use xlink:href="#DejaVuSans-Oblique-3b4" transform="translate(0 0.046875)"/>
     </g>
    </g>
   </g>
   <g id="matplotlib.axis_2">
    <g id="ytick_1">
     <g id="line2d_10">
      <path d="M 81.26 329.714148 
L 825.6 329.714148 
" clip-path="url(#p5a4527e672)" style="fill: none; stroke: #cccccc; stroke-width: 0.8; stroke-linecap: round"/>
     </g>
     <g id="text_11">
      <!-- −1.0 -->
      <g style="fill: #262626" transform="translate(38.47225 336.314148) scale(0.176 -0.176)">
       <use xlink:href="#Roboto-Regular-2212"/>
       <use xlink:href="#Roboto-Regular-31" transform="translate(57.177734 0)"/>
       <use xlink:href="#Roboto-Regular-2e" transform="translate(113.378906 0)"/>
       <use xlink:href="#Roboto-Regular-30" transform="translate(139.746094 0)"/>
      </g>
     </g>
    </g>
    <g id="ytick_2">
     <g id="line2d_11">
      <path d="M 81.26 263.880627 
L 825.6 263.880627 
" clip-path="url(#p5a4527e672)" style="fill: none; stroke: #cccccc; stroke-width: 0.8; stroke-linecap: round"/>
     </g>
     <g id="text_12">
      <!-- −0.5 -->
      <g style="fill: #262626" transform="translate(38.47225 270.480627) scale(0.176 -0.176)">
       <use xlink:href="#Roboto-Regular-2212"/>
       <use xlink:href="#Roboto-Regular-30" transform="translate(57.177734 0)"/>
       <use xlink:href="#Roboto-Regular-2e" transform="translate(113.378906 0)"/>
       <use xlink:href="#Roboto-Regular-35" transform="translate(139.746094 0)"/>
      </g>
     </g>
    </g>
    <g id="ytick_3">
     <g id="line2d_12">
      <path d="M 81.26 198.047106 
L 825.6 198.047106 
" clip-path="url(#p5a4527e672)" style="fill: none; stroke: #cccccc; stroke-width: 0.8; stroke-linecap: round"/>
     </g>
     <g id="text_13">
      <!-- 0.0 -->
      <g style="fill: #262626" transform="translate(48.5345 204.647106) scale(0.176 -0.176)">
       <use xlink:href="#Roboto-Regular-30"/>
       <use xlink:href="#Roboto-Regular-2e" transform="translate(56.201172 0)"/>
       <use xlink:href="#Roboto-Regular-30" transform="translate(82.568359 0)"/>
      </g>
     </g>
    </g>
    <g id="ytick_4">
     <g id="line2d_13">
      <path d="M 81.26 132.213585 
L 825.6 132.213585 
" clip-path="url(#p5a4527e672)" style="fill: none; stroke: #cccccc; stroke-width: 0.8; stroke-linecap: round"/>
     </g>
     <g id="text_14">
      <!-- 0.5 -->
      <g style="fill: #262626" transform="translate(48.5345 138.813585) scale(0.176 -0.176)">
       <use xlink:href="#Roboto-Regular-30"/>
       <use xlink:href="#Roboto-Regular-2e" transform="translate(56.201172 0)"/>
       <use xlink:href="#Roboto-Regular-35" transform="translate(82.568359 0)"/>
      </g>
     </g>
    </g>
    <g id="ytick_5">
     <g id="line2d_14">
      <path d="M 81.26 66.380063 
L 825.6 66.380063 
" clip-path="url(#p5a4527e672)" style="fill: none; stroke: #cccccc; stroke-width: 0.8; stroke-linecap: round"/>
     </g>
     <g id="text_15">
      <!-- 1.0 -->
      <g style="fill: #262626" transform="translate(48.5345 72.980063) scale(0.176 -0.176)">
       <use xlink:href="#Roboto-Regular-31"/>
       <use xlink:href="#Roboto-Regular-2e" transform="translate(56.201172 0)"/>
       <use xlink:href="#Roboto-Regular-30" transform="translate(82.568359 0)"/>
      </g>
     </g>
    </g>
   </g>
   <g id="line2d_15">
    <path d="M 115.093636 52.272102 
L 137.139584 55.891679 
L 157.749022 59.649097 
L 177.015551 63.536933 
L 195.026676 67.545698 
L 211.864199 71.663857 
L 227.604591 75.877893 
L 242.319342 80.172419 
L 256.075281 84.530403 
L 268.934886 88.933473 
L 280.95656 93.362254 
L 292.194904 97.796811 
L 302.70096 102.21706 
L 312.522442 106.603258 
L 321.703958 110.936419 
L 330.287207 115.198673 
L 338.311174 119.373682 
L 349.377532 125.441134 
L 359.380083 131.238749 
L 368.42109 136.735748 
L 379.138495 143.563158 
L 388.504714 149.796955 
L 398.569817 156.757247 
L 410.09508 165.028659 
L 422.489682 174.22888 
L 437.117158 185.389624 
L 453.566421 197.940926 
L 477.870243 179.155481 
L 491.301517 169.049057 
L 503.016481 160.504557 
L 514.124763 152.690666 
L 522.880682 146.754718 
L 532.899742 140.222816 
L 541.351638 134.938289 
L 550.702424 129.338309 
L 561.0477 123.446816 
L 568.548826 119.373682 
L 576.572793 115.198673 
L 585.156042 110.936419 
L 594.337558 106.603258 
L 604.15904 102.21706 
L 614.665096 97.796811 
L 625.90344 93.362254 
L 637.925114 88.933473 
L 650.784719 84.530403 
L 664.540658 80.172419 
L 679.255409 75.877893 
L 694.995801 71.663857 
L 711.833324 67.545698 
L 729.844449 63.536933 
L 749.110978 59.649097 
L 769.720416 55.891679 
L 791.766364 52.272102 
L 791.766364 52.272102 
" clip-path="url(#p5a4527e672)" style="fill: none; stroke: #4c72b0; stroke-width: 2; stroke-linecap: round"/>
   </g>
   <g id="line2d_16">
    <path d="M 115.093636 171.713697 
L 137.139584 168.759808 
L 157.749022 165.576712 
L 177.015551 162.168895 
L 195.026676 158.545849 
L 211.864199 154.722418 
L 227.604591 150.71895 
L 242.319342 146.561136 
L 256.075281 142.279584 
L 268.934886 137.909023 
L 280.95656 133.487294 
L 292.194904 129.05404 
L 302.70096 124.649313 
L 312.522442 120.312174 
L 326.067868 114.012406 
L 338.311174 108.054002 
L 359.380083 97.467745 
L 376.592986 88.897789 
L 386.280128 84.302035 
L 394.745974 80.522713 
L 402.144498 77.462704 
L 408.610261 75.016124 
L 414.260861 73.079638 
L 420.333093 71.23407 
L 426.390449 69.660121 
L 432.071034 68.446064 
L 437.117158 67.593108 
L 442.168789 66.960954 
L 447.289252 66.553323 
L 452.290655 66.386044 
L 453.429983 66.380063 
L 453.470565 329.714148 
L 453.537761 329.714101 
L 458.79656 329.581776 
L 463.608672 329.239197 
L 468.6799 328.652796 
L 473.397219 327.905026 
L 478.707658 326.838582 
L 484.370318 325.452293 
L 490.046884 323.821399 
L 495.329291 322.103942 
L 501.373746 319.924868 
L 508.290183 317.18486 
L 516.204396 313.778199 
L 525.260326 309.601675 
L 535.622677 304.568366 
L 554.035347 295.313439 
L 572.493234 286.097704 
L 585.156042 280.014949 
L 594.337558 275.782038 
L 604.15904 271.444898 
L 614.665096 267.040171 
L 625.90344 262.606917 
L 637.925114 258.185188 
L 650.784719 253.814628 
L 664.540658 249.533075 
L 679.255409 245.375261 
L 694.995801 241.371793 
L 703.272763 239.436171 
L 711.833324 237.548362 
L 720.687203 235.710737 
L 729.844449 233.925316 
L 739.315458 232.193788 
L 749.110978 230.517499 
L 769.720416 227.334403 
L 791.766364 224.380514 
L 791.766364 224.380514 
" clip-path="url(#p5a4527e672)" style="fill: none; stroke: #dd8452; stroke-width: 2; stroke-linecap: round"/>
   </g>
   <g id="line2d_17">
    <path d="M 115.093636 219.113832 
L 126.302274 220.717874 
L 137.139584 222.407194 
L 147.617869 224.181329 
L 157.749022 226.039029 
L 167.544542 227.978252 
L 177.015551 229.996051 
L 186.172797 232.08855 
L 195.026676 234.250905 
L 203.587237 236.477271 
L 211.864199 238.760806 
L 219.866955 241.093657 
L 235.085889 245.871147 
L 249.313159 250.728732 
L 262.613383 255.573498 
L 280.95656 262.594839 
L 302.70096 270.958787 
L 312.522442 274.501234 
L 321.703958 277.515214 
L 330.287207 279.946467 
L 334.366766 280.932227 
L 338.311174 281.761302 
L 342.124909 282.43275 
L 345.8123 282.946926 
L 349.377532 283.305311 
L 352.824653 283.510551 
L 356.157576 283.566303 
L 359.380083 283.477103 
L 362.495833 283.248366 
L 365.508362 282.886151 
L 368.42109 282.397136 
L 371.237323 281.788464 
L 373.960258 281.067604 
L 376.592986 280.242359 
L 379.138495 279.320623 
L 383.979318 277.219558 
L 388.504714 274.827693 
L 392.735237 272.205931 
L 396.690098 269.41116 
L 400.387262 266.495216 
L 403.843519 263.504215 
L 407.074567 260.478348 
L 411.530709 255.947603 
L 415.558483 251.50667 
L 420.333093 245.838468 
L 424.505749 240.550374 
L 429.79943 233.436859 
L 435.382227 225.512242 
L 441.782937 216.006729 
L 450.50361 202.599718 
L 453.430017 198.047132 
L 453.497239 198.151773 
L 465.476135 216.609885 
L 472.096158 226.408794 
L 477.870243 234.551984 
L 482.354251 240.550374 
L 486.526907 245.838468 
L 491.301517 251.50667 
L 495.329291 255.947603 
L 499.785433 260.478348 
L 503.016481 263.504215 
L 506.472738 266.495216 
L 510.169902 269.41116 
L 514.124763 272.205931 
L 518.355286 274.827693 
L 522.880682 277.219558 
L 527.721505 279.320623 
L 530.267014 280.242359 
L 532.899742 281.067604 
L 535.622677 281.788464 
L 538.43891 282.397136 
L 541.351638 282.886151 
L 544.364167 283.248366 
L 547.479917 283.477103 
L 550.702424 283.566303 
L 554.035347 283.510551 
L 557.482468 283.305311 
L 561.0477 282.946926 
L 564.735091 282.43275 
L 568.548826 281.761302 
L 572.493234 280.932227 
L 576.572793 279.946467 
L 585.156042 277.515214 
L 594.337558 274.501234 
L 604.15904 270.958787 
L 620.189622 264.817745 
L 644.246617 255.573498 
L 657.546841 250.728732 
L 671.774111 245.871147 
L 686.993045 241.093657 
L 694.995801 238.760806 
L 703.272763 236.477271 
L 711.833324 234.250905 
L 720.687203 232.08855 
L 729.844449 229.996051 
L 739.315458 227.978252 
L 749.110978 226.039029 
L 759.242131 224.181329 
L 769.720416 222.407194 
L 780.557726 220.717874 
L 791.766364 219.113832 
L 791.766364 219.113832 
" clip-path="url(#p5a4527e672)" style="fill: none; stroke: #55a868; stroke-width: 2; stroke-linecap: round"/>
   </g>
   <g id="patch_3">
    <path d="M 81.26 343.58625 
L 81.26 38.4 
" style="fill: none; stroke: #cccccc; stroke-linejoin: miter; stroke-linecap: square"/>
   </g>
   <g id="patch_4">
    <path d="M 825.6 343.58625 
L 825.6 38.4 
" style="fill: none; stroke: #cccccc; stroke-linejoin: miter; stroke-linecap: square"/>
   </g>
   <g id="patch_5">
    <path d="M 81.26 343.58625 
L 825.6 343.58625 
" style="fill: none; stroke: #cccccc; stroke-linejoin: miter; stroke-linecap: square"/>
   </g>
   <g id="patch_6">
    <path d="M 81.26 38.4 
L 825.6 38.4 
" style="fill: none; stroke: #cccccc; stroke-linejoin: miter; stroke-linecap: square"/>
   </g>
   <g id="legend_1">
    <g id="patch_7">
     <path d="M 629.36 151.392 
L 813.28 151.392 
Q 816.8 151.392 816.8 147.872 
L 816.8 50.72 
Q 816.8 47.2 813.28 47.2 
L 629.36 47.2 
Q 625.84 47.2 625.84 50.72 
L 625.84 147.872 
Q 625.84 151.392 629.36 151.392 
z
" style="fill: #ffffff; opacity: 0.8; stroke: #cccccc; stroke-width: 0.8; stroke-linejoin: miter"/>
    </g>
    <g id="line2d_18">
     <path d="M 632.88 61.401 
L 650.48 61.401 
L 668.08 61.401 
" style="fill: none; stroke: #4c72b0; stroke-width: 2; stroke-linecap: round"/>
    </g>
    <g id="text_16">
     <!-- $\arctan{\left| \bar{\delta} \right|}$ -->
     <g style="fill: #262626" transform="translate(682.16 67.561) scale(0.176 -0.176)">
      <defs>
       <path id="DejaVuSans-61" d="M 2194 1759 
Q 1497 1759 1228 1600 
Q 959 1441 959 1056 
Q 959 750 1161 570 
Q 1363 391 1709 391 
Q 2188 391 2477 730 
Q 2766 1069 2766 1631 
L 2766 1759 
L 2194 1759 
z
M 3341 1997 
L 3341 0 
L 2766 0 
L 2766 531 
Q 2569 213 2275 61 
Q 1981 -91 1556 -91 
Q 1019 -91 701 211 
Q 384 513 384 1019 
Q 384 1609 779 1909 
Q 1175 2209 1959 2209 
L 2766 2209 
L 2766 2266 
Q 2766 2663 2505 2880 
Q 2244 3097 1772 3097 
Q 1472 3097 1187 3025 
Q 903 2953 641 2809 
L 641 3341 
Q 956 3463 1253 3523 
Q 1550 3584 1831 3584 
Q 2591 3584 2966 3190 
Q 3341 2797 3341 1997 
z
" transform="scale(0.015625)"/>
       <path id="DejaVuSans-72" d="M 2631 2963 
Q 2534 3019 2420 3045 
Q 2306 3072 2169 3072 
Q 1681 3072 1420 2755 
Q 1159 2438 1159 1844 
L 1159 0 
L 581 0 
L 581 3500 
L 1159 3500 
L 1159 2956 
Q 1341 3275 1631 3429 
Q 1922 3584 2338 3584 
Q 2397 3584 2469 3576 
Q 2541 3569 2628 3553 
L 2631 2963 
z
" transform="scale(0.015625)"/>
       <path id="DejaVuSans-63" d="M 3122 3366 
L 3122 2828 
Q 2878 2963 2633 3030 
Q 2388 3097 2138 3097 
Q 1578 3097 1268 2742 
Q 959 2388 959 1747 
Q 959 1106 1268 751 
Q 1578 397 2138 397 
Q 2388 397 2633 464 
Q 2878 531 3122 666 
L 3122 134 
Q 2881 22 2623 -34 
Q 2366 -91 2075 -91 
Q 1284 -91 818 406 
Q 353 903 353 1747 
Q 353 2603 823 3093 
Q 1294 3584 2113 3584 
Q 2378 3584 2631 3529 
Q 2884 3475 3122 3366 
z
" transform="scale(0.015625)"/>
       <path id="DejaVuSans-74" d="M 1172 4494 
L 1172 3500 
L 2356 3500 
L 2356 3053 
L 1172 3053 
L 1172 1153 
Q 1172 725 1289 603 
Q 1406 481 1766 481 
L 2356 481 
L 2356 0 
L 1766 0 
Q 1100 0 847 248 
Q 594 497 594 1153 
L 594 3053 
L 172 3053 
L 172 3500 
L 594 3500 
L 594 4494 
L 1172 4494 
z
" transform="scale(0.015625)"/>
       <path id="DejaVuSans-6e" d="M 3513 2113 
L 3513 0 
L 2938 0 
L 2938 2094 
Q 2938 2591 2744 2837 
Q 2550 3084 2163 3084 
Q 1697 3084 1428 2787 
Q 1159 2491 1159 1978 
L 1159 0 
L 581 0 
L 581 3500 
L 1159 3500 
L 1159 2956 
Q 1366 3272 1645 3428 
Q 1925 3584 2291 3584 
Q 2894 3584 3203 3211 
Q 3513 2838 3513 2113 
z
" transform="scale(0.015625)"/>
       <path id="DejaVuSans-7c" d="M 1344 4891 
L 1344 -1509 
L 813 -1509 
L 813 4891 
L 1344 4891 
z
" transform="scale(0.015625)"/>
      </defs>
      <use xlink:href="#DejaVuSans-61" transform="translate(0 0.046875)"/>
      <use xlink:href="#DejaVuSans-72" transform="translate(61.279297 0.046875)"/>
      <use xlink:href="#DejaVuSans-63" transform="translate(102.392578 0.046875)"/>
      <use xlink:href="#DejaVuSans-74" transform="translate(157.373047 0.046875)"/>
      <use xlink:href="#DejaVuSans-61" transform="translate(196.582031 0.046875)"/>
      <use xlink:href="#DejaVuSans-6e" transform="translate(257.861328 0.046875)"/>
      <use xlink:href="#DejaVuSans-7c" transform="translate(337.475911 21.125) scale(0.95375)"/>
      <use xlink:href="#DejaVuSans-304" transform="translate(432.31075 19.484375)"/>
      <use xlink:href="#DejaVuSans-Oblique-3b4" transform="translate(369.609089 0.046875)"/>
      <use xlink:href="#DejaVuSans-7c" transform="translate(430.79073 21.125) scale(0.95375)"/>
     </g>
    </g>
    <g id="line2d_19">
     <path d="M 632.88 91.024 
L 650.48 91.024 
L 668.08 91.024 
" style="fill: none; stroke: #dd8452; stroke-width: 2; stroke-linecap: round"/>
    </g>
    <g id="text_17">
     <!-- $-\frac{d}{d \bar{\delta}}\left( \arctan{\left| \bar{\delta} \right|} \right)$ -->
     <g style="fill: #262626" transform="translate(682.16 97.184) scale(0.176 -0.176)">
      <defs>
       <path id="DejaVuSans-2212" d="M 678 2272 
L 4684 2272 
L 4684 1741 
L 678 1741 
L 678 2272 
z
" transform="scale(0.015625)"/>
       <path id="DejaVuSans-Oblique-64" d="M 2675 525 
Q 2444 222 2128 65 
Q 1813 -91 1428 -91 
Q 903 -91 598 267 
Q 294 625 294 1247 
Q 294 1766 478 2236 
Q 663 2706 1013 3078 
Q 1244 3325 1534 3454 
Q 1825 3584 2144 3584 
Q 2481 3584 2739 3421 
Q 2997 3259 3138 2956 
L 3513 4863 
L 4091 4863 
L 3144 0 
L 2566 0 
L 2675 525 
z
M 891 1350 
Q 891 897 1095 644 
Q 1300 391 1663 391 
Q 1931 391 2161 520 
Q 2391 650 2566 903 
Q 2750 1166 2856 1509 
Q 2963 1853 2963 2188 
Q 2963 2622 2758 2865 
Q 2553 3109 2194 3109 
Q 1922 3109 1687 2981 
Q 1453 2853 1288 2613 
Q 1106 2353 998 2009 
Q 891 1666 891 1350 
z
" transform="scale(0.015625)"/>
       <path id="DejaVuSans-28" d="M 1984 4856 
Q 1566 4138 1362 3434 
Q 1159 2731 1159 2009 
Q 1159 1288 1364 580 
Q 1569 -128 1984 -844 
L 1484 -844 
Q 1016 -109 783 600 
Q 550 1309 550 2009 
Q 550 2706 781 3412 
Q 1013 4119 1484 4856 
L 1984 4856 
z
" transform="scale(0.015625)"/>
       <path id="DejaVuSans-29" d="M 513 4856 
L 1013 4856 
Q 1481 4119 1714 3412 
Q 1947 2706 1947 2009 
Q 1947 1309 1714 600 
Q 1481 -109 1013 -844 
L 513 -844 
Q 928 -128 1133 580 
Q 1338 1288 1338 2009 
Q 1338 2731 1133 3434 
Q 928 4138 513 4856 
z
" transform="scale(0.015625)"/>
      </defs>
      <use xlink:href="#DejaVuSans-2212" transform="translate(0 0.01875)"/>
      <use xlink:href="#DejaVuSans-Oblique-64" transform="translate(104.789062 44.810938) scale(0.7)"/>
      <use xlink:href="#DejaVuSans-Oblique-64" transform="translate(83.789062 -53.201562) scale(0.7)"/>
      <use xlink:href="#DejaVuSans-304" transform="translate(172.507568 -39.592187) scale(0.7)"/>
      <use xlink:href="#DejaVuSans-Oblique-3b4" transform="translate(128.222656 -53.201562) scale(0.7)"/>
      <use xlink:href="#DejaVuSans-28" transform="translate(183.549805 0.01875)"/>
      <use xlink:href="#DejaVuSans-61" transform="translate(222.563477 0.01875)"/>
      <use xlink:href="#DejaVuSans-72" transform="translate(283.842773 0.01875)"/>
      <use xlink:href="#DejaVuSans-63" transform="translate(324.956055 0.01875)"/>
      <use xlink:href="#DejaVuSans-74" transform="translate(379.936523 0.01875)"/>
      <use xlink:href="#DejaVuSans-61" transform="translate(419.145508 0.01875)"/>
      <use xlink:href="#DejaVuSans-6e" transform="translate(480.424805 0.01875)"/>
      <use xlink:href="#DejaVuSans-7c" transform="translate(560.039387 21.096875) scale(0.95375)"/>
      <use xlink:href="#DejaVuSans-304" transform="translate(654.874226 19.45625)"/>
      <use xlink:href="#DejaVuSans-Oblique-3b4" transform="translate(592.172566 0.01875)"/>
      <use xlink:href="#DejaVuSans-7c" transform="translate(653.354207 21.096875) scale(0.95375)"/>
      <use xlink:href="#DejaVuSans-29" transform="translate(685.487385 0.01875)"/>
      <path d="M 83.789062 18.815625 
L 83.789062 25.065625 
L 171.049805 25.065625 
L 171.049805 18.815625 
L 83.789062 18.815625 
z
"/>
     </g>
    </g>
    <g id="line2d_20">
     <path d="M 632.88 128.512 
L 650.48 128.512 
L 668.08 128.512 
" style="fill: none; stroke: #55a868; stroke-width: 2; stroke-linecap: round"/>
    </g>
    <g id="text_18">
     <!-- $\frac{d^2}{d \bar{\delta}^2}\left( \arctan{\left| \bar{\delta} \right|} \right)$ -->
     <g style="fill: #262626" transform="translate(682.16 134.672) scale(0.176 -0.176)">
      <defs>
       <path id="DejaVuSans-32" d="M 1228 531 
L 3431 531 
L 3431 0 
L 469 0 
L 469 531 
Q 828 903 1448 1529 
Q 2069 2156 2228 2338 
Q 2531 2678 2651 2914 
Q 2772 3150 2772 3378 
Q 2772 3750 2511 3984 
Q 2250 4219 1831 4219 
Q 1534 4219 1204 4116 
Q 875 4013 500 3803 
L 500 4441 
Q 881 4594 1212 4672 
Q 1544 4750 1819 4750 
Q 2544 4750 2975 4387 
Q 3406 4025 3406 3419 
Q 3406 3131 3298 2873 
Q 3191 2616 2906 2266 
Q 2828 2175 2409 1742 
Q 1991 1309 1228 531 
z
" transform="scale(0.015625)"/>
      </defs>
      <use xlink:href="#DejaVuSans-Oblique-64" transform="translate(19 44.835938) scale(0.7)"/>
      <use xlink:href="#DejaVuSans-32" transform="translate(68.64699 71.632813) scale(0.49)"/>
      <use xlink:href="#DejaVuSans-Oblique-64" transform="translate(0 -53.176562) scale(0.7)"/>
      <use xlink:href="#DejaVuSans-304" transform="translate(88.718506 -39.567187) scale(0.7)"/>
      <use xlink:href="#DejaVuSans-Oblique-3b4" transform="translate(44.433594 -53.176562) scale(0.7)"/>
      <use xlink:href="#DejaVuSans-32" transform="translate(87.930664 -26.379687) scale(0.49)"/>
      <use xlink:href="#DejaVuSans-28" transform="translate(133.52002 0.04375)"/>
      <use xlink:href="#DejaVuSans-61" transform="translate(172.533691 0.04375)"/>
      <use xlink:href="#DejaVuSans-72" transform="translate(233.812988 0.04375)"/>
      <use xlink:href="#DejaVuSans-63" transform="translate(274.92627 0.04375)"/>
      <use xlink:href="#DejaVuSans-74" transform="translate(329.906738 0.04375)"/>
      <use xlink:href="#DejaVuSans-61" transform="translate(369.115723 0.04375)"/>
      <use xlink:href="#DejaVuSans-6e" transform="translate(430.39502 0.04375)"/>
      <use xlink:href="#DejaVuSans-7c" transform="translate(510.009602 21.121875) scale(0.95375)"/>
      <use xlink:href="#DejaVuSans-304" transform="translate(604.844441 19.48125)"/>
      <use xlink:href="#DejaVuSans-Oblique-3b4" transform="translate(542.142781 0.04375)"/>
      <use xlink:href="#DejaVuSans-7c" transform="translate(603.324421 21.121875) scale(0.95375)"/>
      <use xlink:href="#DejaVuSans-29" transform="translate(635.4576 0.04375)"/>
      <path d="M 0 18.840625 
L 0 25.090625 
L 121.02002 25.090625 
L 121.02002 18.840625 
L 0 18.840625 
z
"/>
     </g>
    </g>
   </g>
  </g>
 </g>
 <defs>
  <clipPath id="p5a4527e672">
   <rect x="81.26" y="38.4" width="744.34" height="305.18625"/>
  </clipPath>
 </defs>
</svg>
