<?xml version="1.0" encoding="utf-8" standalone="no"?>
<!DOCTYPE svg PUBLIC "-//W3C//DTD SVG 1.1//EN"
  "http://www.w3.org/Graphics/SVG/1.1/DTD/svg11.dtd">
<svg xmlns:xlink="http://www.w3.org/1999/xlink" width="864pt" height="432pt" viewBox="0 0 864 432" xmlns="http://www.w3.org/2000/svg" version="1.1">
 <metadata>
  <rdf:RDF xmlns:dc="http://purl.org/dc/elements/1.1/" xmlns:cc="http://creativecommons.org/ns#" xmlns:rdf="http://www.w3.org/1999/02/22-rdf-syntax-ns#">
   <cc:Work>
    <dc:type rdf:resource="http://purl.org/dc/dcmitype/StillImage"/>
    <dc:date>2024-11-26T15:03:36.432728</dc:date>
    <dc:format>image/svg+xml</dc:format>
    <dc:creator>
     <cc:Agent>
      <dc:title>Matplotlib v3.9.2, https://matplotlib.org/</dc:title>
     </cc:Agent>
    </dc:creator>
   </cc:Work>
  </rdf:RDF>
 </metadata>
 <defs>
  <style type="text/css">*{stroke-linejoin: round; stroke-linecap: butt}</style>
 </defs>
 <g id="figure_1">
  <g id="patch_1">
   <path d="M 0 432 
L 864 432 
L 864 0 
L 0 0 
L 0 432 
z
" style="fill: none"/>
  </g>
  <g id="axes_1">
   <g id="patch_2">
    <path d="M 81.26 343.58625 
L 825.6 343.58625 
L 825.6 38.4 
L 81.26 38.4 
L 81.26 343.58625 
z
" style="fill: none"/>
   </g>
   <g id="matplotlib.axis_1">
    <g id="xtick_1">
     <g id="line2d_1">
      <path d="M 115.093636 343.58625 
L 115.093636 38.4 
" clip-path="url(#p372254321c)" style="fill: none; stroke: #cccccc; stroke-width: 0.8; stroke-linecap: round"/>
     </g>
     <g id="text_1">
      <!-- −2.0 -->
      <g style="fill: #262626" transform="translate(97.849761 365.08625) scale(0.176 -0.176)">
       <defs>
        <path id="Roboto-Regular-2212" d="M 3134 2509 
L 3134 2034 
L 525 2034 
L 525 2509 
L 3134 2509 
z
" transform="scale(0.015625)"/>
        <path id="Roboto-Regular-32" d="M 3359 475 
L 3359 0 
L 381 0 
L 381 416 
L 1925 2134 
Q 2306 2566 2439 2819 
Q 2572 3072 2572 3328 
Q 2572 3663 2364 3900 
Q 2156 4138 1778 4138 
Q 1322 4138 1097 3878 
Q 872 3619 872 3213 
L 294 3213 
Q 294 3788 672 4200 
Q 1050 4613 1778 4613 
Q 2422 4613 2786 4278 
Q 3150 3944 3150 3397 
Q 3150 2997 2903 2592 
Q 2656 2188 2297 1797 
L 1078 475 
L 3359 475 
z
" transform="scale(0.015625)"/>
        <path id="Roboto-Regular-2e" d="M 450 306 
Q 450 453 542 554 
Q 634 656 809 656 
Q 984 656 1076 554 
Q 1169 453 1169 306 
Q 1169 163 1076 62 
Q 984 -38 809 -38 
Q 634 -38 542 62 
Q 450 163 450 306 
z
" transform="scale(0.015625)"/>
        <path id="Roboto-Regular-30" d="M 3234 1944 
Q 3234 825 2848 381 
Q 2463 -63 1800 -63 
Q 1156 -63 764 368 
Q 372 800 359 1872 
L 359 2638 
Q 359 3753 750 4183 
Q 1141 4613 1794 4613 
Q 2447 4613 2834 4195 
Q 3222 3778 3234 2709 
L 3234 1944 
z
M 2653 2734 
Q 2653 3503 2434 3822 
Q 2216 4141 1794 4141 
Q 1388 4141 1167 3831 
Q 947 3522 941 2778 
L 941 1850 
Q 941 1088 1164 750 
Q 1388 413 1800 413 
Q 2222 413 2436 745 
Q 2650 1078 2653 1825 
L 2653 2734 
z
" transform="scale(0.015625)"/>
       </defs>
       <use xlink:href="#Roboto-Regular-2212"/>
       <use xlink:href="#Roboto-Regular-32" x="57.177734"/>
       <use xlink:href="#Roboto-Regular-2e" x="113.378906"/>
       <use xlink:href="#Roboto-Regular-30" x="139.746094"/>
      </g>
     </g>
    </g>
    <g id="xtick_2">
     <g id="line2d_2">
      <path d="M 199.677727 343.58625 
L 199.677727 38.4 
" clip-path="url(#p372254321c)" style="fill: none; stroke: #cccccc; stroke-width: 0.8; stroke-linecap: round"/>
     </g>
     <g id="text_2">
      <!-- −1.5 -->
      <g style="fill: #262626" transform="translate(182.433852 365.08625) scale(0.176 -0.176)">
       <defs>
        <path id="Roboto-Regular-31" d="M 2278 4575 
L 2278 0 
L 1700 0 
L 1700 3853 
L 534 3428 
L 534 3950 
L 2188 4575 
L 2278 4575 
z
" transform="scale(0.015625)"/>
        <path id="Roboto-Regular-35" d="M 1109 2166 
L 647 2284 
L 875 4550 
L 3209 4550 
L 3209 4016 
L 1366 4016 
L 1228 2778 
Q 1572 2975 1988 2975 
Q 2616 2975 2980 2561 
Q 3344 2147 3344 1450 
Q 3344 797 2987 367 
Q 2631 -63 1903 -63 
Q 1350 -63 947 248 
Q 544 559 481 1197 
L 1031 1197 
Q 1141 413 1903 413 
Q 2313 413 2538 691 
Q 2763 969 2763 1444 
Q 2763 1872 2527 2164 
Q 2291 2456 1853 2456 
Q 1563 2456 1413 2378 
Q 1263 2300 1109 2166 
z
" transform="scale(0.015625)"/>
       </defs>
       <use xlink:href="#Roboto-Regular-2212"/>
       <use xlink:href="#Roboto-Regular-31" x="57.177734"/>
       <use xlink:href="#Roboto-Regular-2e" x="113.378906"/>
       <use xlink:href="#Roboto-Regular-35" x="139.746094"/>
      </g>
     </g>
    </g>
    <g id="xtick_3">
     <g id="line2d_3">
      <path d="M 284.261818 343.58625 
L 284.261818 38.4 
" clip-path="url(#p372254321c)" style="fill: none; stroke: #cccccc; stroke-width: 0.8; stroke-linecap: round"/>
     </g>
     <g id="text_3">
      <!-- −1.0 -->
      <g style="fill: #262626" transform="translate(267.017943 365.08625) scale(0.176 -0.176)">
       <use xlink:href="#Roboto-Regular-2212"/>
       <use xlink:href="#Roboto-Regular-31" x="57.177734"/>
       <use xlink:href="#Roboto-Regular-2e" x="113.378906"/>
       <use xlink:href="#Roboto-Regular-30" x="139.746094"/>
      </g>
     </g>
    </g>
    <g id="xtick_4">
     <g id="line2d_4">
      <path d="M 368.845909 343.58625 
L 368.845909 38.4 
" clip-path="url(#p372254321c)" style="fill: none; stroke: #cccccc; stroke-width: 0.8; stroke-linecap: round"/>
     </g>
     <g id="text_4">
      <!-- −0.5 -->
      <g style="fill: #262626" transform="translate(351.602034 365.08625) scale(0.176 -0.176)">
       <use xlink:href="#Roboto-Regular-2212"/>
       <use xlink:href="#Roboto-Regular-30" x="57.177734"/>
       <use xlink:href="#Roboto-Regular-2e" x="113.378906"/>
       <use xlink:href="#Roboto-Regular-35" x="139.746094"/>
      </g>
     </g>
    </g>
    <g id="xtick_5">
     <g id="line2d_5">
      <path d="M 453.43 343.58625 
L 453.43 38.4 
" clip-path="url(#p372254321c)" style="fill: none; stroke: #cccccc; stroke-width: 0.8; stroke-linecap: round"/>
     </g>
     <g id="text_5">
      <!-- 0.0 -->
      <g style="fill: #262626" transform="translate(441.21725 365.08625) scale(0.176 -0.176)">
       <use xlink:href="#Roboto-Regular-30"/>
       <use xlink:href="#Roboto-Regular-2e" x="56.201172"/>
       <use xlink:href="#Roboto-Regular-30" x="82.568359"/>
      </g>
     </g>
    </g>
    <g id="xtick_6">
     <g id="line2d_6">
      <path d="M 538.014091 343.58625 
L 538.014091 38.4 
" clip-path="url(#p372254321c)" style="fill: none; stroke: #cccccc; stroke-width: 0.8; stroke-linecap: round"/>
     </g>
     <g id="text_6">
      <!-- 0.5 -->
      <g style="fill: #262626" transform="translate(525.801341 365.08625) scale(0.176 -0.176)">
       <use xlink:href="#Roboto-Regular-30"/>
       <use xlink:href="#Roboto-Regular-2e" x="56.201172"/>
       <use xlink:href="#Roboto-Regular-35" x="82.568359"/>
      </g>
     </g>
    </g>
    <g id="xtick_7">
     <g id="line2d_7">
      <path d="M 622.598182 343.58625 
L 622.598182 38.4 
" clip-path="url(#p372254321c)" style="fill: none; stroke: #cccccc; stroke-width: 0.8; stroke-linecap: round"/>
     </g>
     <g id="text_7">
      <!-- 1.0 -->
      <g style="fill: #262626" transform="translate(610.385432 365.08625) scale(0.176 -0.176)">
       <use xlink:href="#Roboto-Regular-31"/>
       <use xlink:href="#Roboto-Regular-2e" x="56.201172"/>
       <use xlink:href="#Roboto-Regular-30" x="82.568359"/>
      </g>
     </g>
    </g>
    <g id="xtick_8">
     <g id="line2d_8">
      <path d="M 707.182273 343.58625 
L 707.182273 38.4 
" clip-path="url(#p372254321c)" style="fill: none; stroke: #cccccc; stroke-width: 0.8; stroke-linecap: round"/>
     </g>
     <g id="text_8">
      <!-- 1.5 -->
      <g style="fill: #262626" transform="translate(694.969523 365.08625) scale(0.176 -0.176)">
       <use xlink:href="#Roboto-Regular-31"/>
       <use xlink:href="#Roboto-Regular-2e" x="56.201172"/>
       <use xlink:href="#Roboto-Regular-35" x="82.568359"/>
      </g>
     </g>
    </g>
    <g id="xtick_9">
     <g id="line2d_9">
      <path d="M 791.766364 343.58625 
L 791.766364 38.4 
" clip-path="url(#p372254321c)" style="fill: none; stroke: #cccccc; stroke-width: 0.8; stroke-linecap: round"/>
     </g>
     <g id="text_9">
      <!-- 2.0 -->
      <g style="fill: #262626" transform="translate(779.553614 365.08625) scale(0.176 -0.176)">
       <use xlink:href="#Roboto-Regular-32"/>
       <use xlink:href="#Roboto-Regular-2e" x="56.201172"/>
       <use xlink:href="#Roboto-Regular-30" x="82.568359"/>
      </g>
     </g>
    </g>
    <g id="text_10">
     <!-- $\bar{\delta}$ -->
     <g style="fill: #262626" transform="translate(447.478 387.19325) scale(0.192 -0.192)">
      <defs>
       <path id="DejaVuSans-304" d="M -2522 4769 
L -653 4769 
L -653 4306 
L -2522 4306 
L -2522 4769 
z
" transform="scale(0.015625)"/>
       <path id="DejaVuSans-Oblique-3b4" d="M 3472 4053 
Q 3197 4272 2450 4272 
Q 1659 4272 1588 3906 
Q 1531 3619 2328 3469 
Q 2953 3353 3253 3003 
Q 3616 2581 3447 1716 
Q 3284 888 2763 400 
Q 2238 -91 1488 -91 
Q 741 -91 406 400 
Q 72 888 241 1747 
Q 363 2384 891 2900 
Q 1097 3100 1353 3213 
Q 913 3459 1000 3900 
Q 1166 4750 2544 4750 
Q 3234 4750 3566 4531 
L 3472 4053 
z
M 1753 3056 
Q 1525 2966 1306 2738 
Q 969 2384 847 1747 
Q 722 1113 919 756 
Q 1119 397 1584 397 
Q 2044 397 2381 759 
Q 2722 1122 2838 1716 
Q 2956 2338 2731 2638 
Q 2491 2959 2103 2994 
Q 1906 3013 1753 3056 
z
" transform="scale(0.015625)"/>
      </defs>
      <use xlink:href="#DejaVuSans-304" transform="translate(62.70166 19.484375)"/>
      <use xlink:href="#DejaVuSans-Oblique-3b4" transform="translate(0 0.046875)"/>
     </g>
    </g>
   </g>
   <g id="matplotlib.axis_2">
    <g id="ytick_1">
     <g id="line2d_10">
      <path d="M 81.26 317.377083 
L 825.6 317.377083 
" clip-path="url(#p372254321c)" style="fill: none; stroke: #cccccc; stroke-width: 0.8; stroke-linecap: round"/>
     </g>
     <g id="text_11">
      <!-- −1.0 -->
      <g style="fill: #262626" transform="translate(38.47225 323.977083) scale(0.176 -0.176)">
       <use xlink:href="#Roboto-Regular-2212"/>
       <use xlink:href="#Roboto-Regular-31" x="57.177734"/>
       <use xlink:href="#Roboto-Regular-2e" x="113.378906"/>
       <use xlink:href="#Roboto-Regular-30" x="139.746094"/>
      </g>
     </g>
    </g>
    <g id="ytick_2">
     <g id="line2d_11">
      <path d="M 81.26 273.19292 
L 825.6 273.19292 
" clip-path="url(#p372254321c)" style="fill: none; stroke: #cccccc; stroke-width: 0.8; stroke-linecap: round"/>
     </g>
     <g id="text_12">
      <!-- −0.5 -->
      <g style="fill: #262626" transform="translate(38.47225 279.79292) scale(0.176 -0.176)">
       <use xlink:href="#Roboto-Regular-2212"/>
       <use xlink:href="#Roboto-Regular-30" x="57.177734"/>
       <use xlink:href="#Roboto-Regular-2e" x="113.378906"/>
       <use xlink:href="#Roboto-Regular-35" x="139.746094"/>
      </g>
     </g>
    </g>
    <g id="ytick_3">
     <g id="line2d_12">
      <path d="M 81.26 229.008756 
L 825.6 229.008756 
" clip-path="url(#p372254321c)" style="fill: none; stroke: #cccccc; stroke-width: 0.8; stroke-linecap: round"/>
     </g>
     <g id="text_13">
      <!-- 0.0 -->
      <g style="fill: #262626" transform="translate(48.5345 235.608756) scale(0.176 -0.176)">
       <use xlink:href="#Roboto-Regular-30"/>
       <use xlink:href="#Roboto-Regular-2e" x="56.201172"/>
       <use xlink:href="#Roboto-Regular-30" x="82.568359"/>
      </g>
     </g>
    </g>
    <g id="ytick_4">
     <g id="line2d_13">
      <path d="M 81.26 184.824593 
L 825.6 184.824593 
" clip-path="url(#p372254321c)" style="fill: none; stroke: #cccccc; stroke-width: 0.8; stroke-linecap: round"/>
     </g>
     <g id="text_14">
      <!-- 0.5 -->
      <g style="fill: #262626" transform="translate(48.5345 191.424593) scale(0.176 -0.176)">
       <use xlink:href="#Roboto-Regular-30"/>
       <use xlink:href="#Roboto-Regular-2e" x="56.201172"/>
       <use xlink:href="#Roboto-Regular-35" x="82.568359"/>
      </g>
     </g>
    </g>
    <g id="ytick_5">
     <g id="line2d_14">
      <path d="M 81.26 140.640429 
L 825.6 140.640429 
" clip-path="url(#p372254321c)" style="fill: none; stroke: #cccccc; stroke-width: 0.8; stroke-linecap: round"/>
     </g>
     <g id="text_15">
      <!-- 1.0 -->
      <g style="fill: #262626" transform="translate(48.5345 147.240429) scale(0.176 -0.176)">
       <use xlink:href="#Roboto-Regular-31"/>
       <use xlink:href="#Roboto-Regular-2e" x="56.201172"/>
       <use xlink:href="#Roboto-Regular-30" x="82.568359"/>
      </g>
     </g>
    </g>
    <g id="ytick_6">
     <g id="line2d_15">
      <path d="M 81.26 96.456266 
L 825.6 96.456266 
" clip-path="url(#p372254321c)" style="fill: none; stroke: #cccccc; stroke-width: 0.8; stroke-linecap: round"/>
     </g>
     <g id="text_16">
      <!-- 1.5 -->
      <g style="fill: #262626" transform="translate(48.5345 103.056266) scale(0.176 -0.176)">
       <use xlink:href="#Roboto-Regular-31"/>
       <use xlink:href="#Roboto-Regular-2e" x="56.201172"/>
       <use xlink:href="#Roboto-Regular-35" x="82.568359"/>
      </g>
     </g>
    </g>
    <g id="ytick_7">
     <g id="line2d_16">
      <path d="M 81.26 52.272102 
L 825.6 52.272102 
" clip-path="url(#p372254321c)" style="fill: none; stroke: #cccccc; stroke-width: 0.8; stroke-linecap: round"/>
     </g>
     <g id="text_17">
      <!-- 2.0 -->
      <g style="fill: #262626" transform="translate(48.5345 58.872102) scale(0.176 -0.176)">
       <use xlink:href="#Roboto-Regular-32"/>
       <use xlink:href="#Roboto-Regular-2e" x="56.201172"/>
       <use xlink:href="#Roboto-Regular-30" x="82.568359"/>
      </g>
     </g>
    </g>
   </g>
   <g id="line2d_17">
    <path d="M 115.093636 111.848464 
L 126.302274 113.291698 
L 137.139584 114.821661 
L 147.617869 116.441651 
L 157.749022 118.154638 
L 167.544542 119.963255 
L 177.015551 121.86961 
L 186.172797 123.875271 
L 195.026676 125.981041 
L 203.587237 128.186918 
L 211.864199 130.491892 
L 219.866955 132.893866 
L 227.604591 135.389542 
L 235.085889 137.974318 
L 242.319342 140.642215 
L 249.313159 143.385906 
L 256.075281 146.196685 
L 262.613383 149.064577 
L 268.934886 151.978424 
L 280.95656 157.894943 
L 292.194904 163.842239 
L 302.70096 169.713619 
L 317.190524 178.163249 
L 342.124909 192.906122 
L 352.824653 198.96836 
L 362.495833 204.152075 
L 371.237323 208.523247 
L 379.138495 212.172795 
L 386.280128 215.198751 
L 392.735237 217.695699 
L 398.569817 219.749411 
L 405.486254 221.926171 
L 411.530709 223.594625 
L 418.026185 225.140797 
L 424.505749 226.42614 
L 430.58228 227.397009 
L 436.558218 228.129801 
L 442.541858 228.642686 
L 448.579327 228.936102 
L 454.648759 229.00417 
L 460.456622 228.856298 
L 466.31577 228.496042 
L 472.096158 227.932916 
L 477.870243 227.16456 
L 483.345306 226.246241 
L 488.833815 225.140797 
L 495.329291 223.594625 
L 501.373746 221.926171 
L 508.290183 219.749411 
L 514.124763 217.695699 
L 520.579872 215.198751 
L 527.721505 212.172795 
L 535.622677 208.523247 
L 544.364167 204.152075 
L 554.035347 198.96836 
L 564.735091 192.906122 
L 580.792132 183.440461 
L 599.165586 172.589063 
L 609.323589 166.793936 
L 620.189622 160.871459 
L 631.813034 154.92617 
L 637.925114 151.978424 
L 644.246617 149.064577 
L 650.784719 146.196685 
L 657.546841 143.385906 
L 664.540658 140.642215 
L 671.774111 137.974318 
L 679.255409 135.389542 
L 686.993045 132.893866 
L 694.995801 130.491892 
L 703.272763 128.186918 
L 711.833324 125.981041 
L 720.687203 123.875271 
L 729.844449 121.86961 
L 739.315458 119.963255 
L 749.110978 118.154638 
L 759.242131 116.441651 
L 769.720416 114.821661 
L 780.557726 113.291698 
L 791.766364 111.848464 
L 791.766364 111.848464 
" clip-path="url(#p372254321c)" style="fill: none; stroke: #4c72b0; stroke-width: 1.2; stroke-linecap: round"/>
   </g>
   <g id="line2d_18">
    <path d="M 115.093636 208.216209 
L 126.302274 206.198413 
L 137.139584 204.013119 
L 147.617869 201.653257 
L 157.749022 199.113167 
L 167.544542 196.389075 
L 177.015551 193.479634 
L 186.172797 190.386466 
L 195.026676 187.114842 
L 203.587237 183.674181 
L 211.864199 180.078653 
L 219.866955 176.347663 
L 227.604591 172.506095 
L 235.085889 168.584445 
L 242.319342 164.618645 
L 256.075281 156.722183 
L 275.046966 145.674641 
L 280.95656 142.398761 
L 286.670378 139.40095 
L 292.194904 136.718658 
L 297.536411 134.382387 
L 302.70096 132.414649 
L 307.694414 130.829454 
L 312.522442 129.632164 
L 317.190524 128.82 
L 321.703958 128.382635 
L 326.067868 128.303365 
L 330.287207 128.560244 
L 334.366766 129.127412 
L 338.311174 129.976342 
L 342.124909 131.077021 
L 345.8123 132.399026 
L 349.377532 133.912324 
L 352.824653 135.58804 
L 356.157576 137.398859 
L 359.380083 139.319499 
L 362.495833 141.326804 
L 368.42109 145.520255 
L 373.960258 149.839176 
L 379.138495 154.176853 
L 386.280128 160.554091 
L 392.735237 166.63215 
L 400.387262 174.123419 
L 411.530709 185.399032 
L 428.152342 202.613352 
L 501.373746 278.776402 
L 510.169902 287.546338 
L 518.355286 295.398361 
L 525.260326 301.690177 
L 530.267014 306.006348 
L 535.622677 310.346085 
L 541.351638 314.617596 
L 544.364167 316.690709 
L 547.479917 318.698014 
L 550.702424 320.618653 
L 554.035347 322.429472 
L 557.482468 324.105188 
L 561.0477 325.618486 
L 564.735091 326.940491 
L 568.548826 328.04117 
L 572.493234 328.8901 
L 576.572793 329.457268 
L 580.792132 329.714148 
L 585.156042 329.634877 
L 589.669476 329.197513 
L 594.337558 328.385348 
L 599.165586 327.188059 
L 604.15904 325.602864 
L 609.323589 323.635126 
L 614.665096 321.298854 
L 620.189622 318.616562 
L 625.90344 315.618751 
L 637.925114 308.832002 
L 657.546841 297.367938 
L 664.540658 293.398867 
L 671.774111 289.433068 
L 679.255409 285.511418 
L 686.993045 281.669849 
L 694.995801 277.93886 
L 703.272763 274.343331 
L 711.833324 270.90267 
L 720.687203 267.631046 
L 729.844449 264.537878 
L 739.315458 261.628437 
L 749.110978 258.904345 
L 759.242131 256.364256 
L 769.720416 254.004393 
L 780.557726 251.8191 
L 791.766364 249.801304 
L 791.766364 249.801304 
" clip-path="url(#p372254321c)" style="fill: none; stroke: #dd8452; stroke-width: 1.2; stroke-linecap: round"/>
   </g>
   <g id="line2d_19">
    <path d="M 115.093636 257.751397 
L 126.302274 261.247429 
L 137.139584 265.070478 
L 147.617869 269.223396 
L 157.749022 273.700095 
L 167.544542 278.482995 
L 177.015551 283.540345 
L 186.172797 288.823467 
L 195.026676 294.263888 
L 203.587237 299.771334 
L 219.866955 310.508745 
L 227.604591 315.441575 
L 235.085889 319.851649 
L 242.319342 323.546532 
L 249.313159 326.327973 
L 256.075281 328.001962 
L 262.613383 328.389899 
L 268.934886 327.34069 
L 275.046966 324.742157 
L 280.95656 320.530797 
L 286.670378 314.698078 
L 292.194904 307.293627 
L 297.536411 298.423198 
L 302.70096 288.243163 
L 307.694414 276.950935 
L 312.522442 264.772812 
L 317.190524 251.951179 
L 321.703958 238.731127 
L 326.067868 225.348721 
L 334.366766 198.94061 
L 342.124909 174.132674 
L 349.377532 151.834825 
L 352.824653 141.780886 
L 356.157576 132.488484 
L 359.380083 123.956291 
L 362.495833 116.167916 
L 365.508362 109.095413 
L 368.42109 102.702415 
L 371.237323 96.947186 
L 373.960258 91.784714 
L 376.592986 87.168646 
L 379.138495 83.052664 
L 381.599674 79.39167 
L 383.979318 76.142399 
L 386.280128 73.264084 
L 388.504714 70.718633 
L 390.655604 68.470819 
L 392.735237 66.48848 
L 394.745974 64.742184 
L 398.569817 61.854114 
L 402.144498 59.624472 
L 405.486254 57.907492 
L 408.610261 56.587878 
L 411.530709 55.575151 
L 415.558483 54.481698 
L 419.199067 53.74912 
L 423.514694 53.134737 
L 428.152342 52.712237 
L 434.124269 52.421953 
L 442.168789 52.289463 
L 462.630198 52.279824 
L 472.735731 52.421953 
L 478.707658 52.712237 
L 483.345306 53.134737 
L 487.660933 53.74912 
L 491.301517 54.481698 
L 495.329291 55.575151 
L 498.249739 56.587878 
L 501.373746 57.907492 
L 504.715502 59.624472 
L 508.290183 61.854114 
L 510.169902 63.205394 
L 512.114026 64.742184 
L 514.124763 66.48848 
L 516.204396 68.470819 
L 518.355286 70.718633 
L 520.579872 73.264084 
L 522.880682 76.142399 
L 525.260326 79.39167 
L 527.721505 83.052664 
L 530.267014 87.168646 
L 532.899742 91.784714 
L 535.622677 96.947186 
L 538.43891 102.702415 
L 541.351638 109.095413 
L 544.364167 116.167916 
L 547.479917 123.956291 
L 550.702424 132.488484 
L 554.035347 141.780886 
L 557.482468 151.834825 
L 564.735091 174.132674 
L 580.792132 225.348721 
L 585.156042 238.731127 
L 589.669476 251.951179 
L 594.337558 264.772812 
L 599.165586 276.950935 
L 604.15904 288.243163 
L 609.323589 298.423198 
L 614.665096 307.293627 
L 620.189622 314.698078 
L 625.90344 320.530797 
L 631.813034 324.742157 
L 637.925114 327.34069 
L 644.246617 328.389899 
L 650.784719 328.001962 
L 657.546841 326.327973 
L 664.540658 323.546532 
L 671.774111 319.851649 
L 679.255409 315.441575 
L 686.993045 310.508745 
L 703.272763 299.771334 
L 711.833324 294.263888 
L 720.687203 288.823467 
L 729.844449 283.540345 
L 739.315458 278.482995 
L 749.110978 273.700095 
L 759.242131 269.223396 
L 769.720416 265.070478 
L 780.557726 261.247429 
L 791.766364 257.751397 
L 791.766364 257.751397 
" clip-path="url(#p372254321c)" style="fill: none; stroke: #55a868; stroke-width: 1.2; stroke-linecap: round"/>
   </g>
   <g id="patch_3">
    <path d="M 81.26 343.58625 
L 81.26 38.4 
" style="fill: none; stroke: #cccccc; stroke-linejoin: miter; stroke-linecap: square"/>
   </g>
   <g id="patch_4">
    <path d="M 825.6 343.58625 
L 825.6 38.4 
" style="fill: none; stroke: #cccccc; stroke-linejoin: miter; stroke-linecap: square"/>
   </g>
   <g id="patch_5">
    <path d="M 81.26 343.58625 
L 825.6 343.58625 
" style="fill: none; stroke: #cccccc; stroke-linejoin: miter; stroke-linecap: square"/>
   </g>
   <g id="patch_6">
    <path d="M 81.26 38.4 
L 825.6 38.4 
" style="fill: none; stroke: #cccccc; stroke-linejoin: miter; stroke-linecap: square"/>
   </g>
   <g id="legend_1">
    <g id="patch_7">
     <path d="M 617.92 153.504 
L 813.28 153.504 
Q 816.8 153.504 816.8 149.984 
L 816.8 50.72 
Q 816.8 47.2 813.28 47.2 
L 617.92 47.2 
Q 614.4 47.2 614.4 50.72 
L 614.4 149.984 
Q 614.4 153.504 617.92 153.504 
z
" style="fill: #ffffff; opacity: 0.8; stroke: #cccccc; stroke-width: 0.8; stroke-linejoin: miter"/>
    </g>
    <g id="line2d_20">
     <path d="M 621.44 63.513 
L 639.04 63.513 
L 656.64 63.513 
" style="fill: none; stroke: #4c72b0; stroke-width: 1.2; stroke-linecap: round"/>
    </g>
    <g id="text_18">
     <!-- $\arctan{\left( \bar{\delta}^2 \right)}$ -->
     <g style="fill: #262626" transform="translate(670.72 69.673) scale(0.176 -0.176)">
      <defs>
       <path id="DejaVuSans-61" d="M 2194 1759 
Q 1497 1759 1228 1600 
Q 959 1441 959 1056 
Q 959 750 1161 570 
Q 1363 391 1709 391 
Q 2188 391 2477 730 
Q 2766 1069 2766 1631 
L 2766 1759 
L 2194 1759 
z
M 3341 1997 
L 3341 0 
L 2766 0 
L 2766 531 
Q 2569 213 2275 61 
Q 1981 -91 1556 -91 
Q 1019 -91 701 211 
Q 384 513 384 1019 
Q 384 1609 779 1909 
Q 1175 2209 1959 2209 
L 2766 2209 
L 2766 2266 
Q 2766 2663 2505 2880 
Q 2244 3097 1772 3097 
Q 1472 3097 1187 3025 
Q 903 2953 641 2809 
L 641 3341 
Q 956 3463 1253 3523 
Q 1550 3584 1831 3584 
Q 2591 3584 2966 3190 
Q 3341 2797 3341 1997 
z
" transform="scale(0.015625)"/>
       <path id="DejaVuSans-72" d="M 2631 2963 
Q 2534 3019 2420 3045 
Q 2306 3072 2169 3072 
Q 1681 3072 1420 2755 
Q 1159 2438 1159 1844 
L 1159 0 
L 581 0 
L 581 3500 
L 1159 3500 
L 1159 2956 
Q 1341 3275 1631 3429 
Q 1922 3584 2338 3584 
Q 2397 3584 2469 3576 
Q 2541 3569 2628 3553 
L 2631 2963 
z
" transform="scale(0.015625)"/>
       <path id="DejaVuSans-63" d="M 3122 3366 
L 3122 2828 
Q 2878 2963 2633 3030 
Q 2388 3097 2138 3097 
Q 1578 3097 1268 2742 
Q 959 2388 959 1747 
Q 959 1106 1268 751 
Q 1578 397 2138 397 
Q 2388 397 2633 464 
Q 2878 531 3122 666 
L 3122 134 
Q 2881 22 2623 -34 
Q 2366 -91 2075 -91 
Q 1284 -91 818 406 
Q 353 903 353 1747 
Q 353 2603 823 3093 
Q 1294 3584 2113 3584 
Q 2378 3584 2631 3529 
Q 2884 3475 3122 3366 
z
" transform="scale(0.015625)"/>
       <path id="DejaVuSans-74" d="M 1172 4494 
L 1172 3500 
L 2356 3500 
L 2356 3053 
L 1172 3053 
L 1172 1153 
Q 1172 725 1289 603 
Q 1406 481 1766 481 
L 2356 481 
L 2356 0 
L 1766 0 
Q 1100 0 847 248 
Q 594 497 594 1153 
L 594 3053 
L 172 3053 
L 172 3500 
L 594 3500 
L 594 4494 
L 1172 4494 
z
" transform="scale(0.015625)"/>
       <path id="DejaVuSans-6e" d="M 3513 2113 
L 3513 0 
L 2938 0 
L 2938 2094 
Q 2938 2591 2744 2837 
Q 2550 3084 2163 3084 
Q 1697 3084 1428 2787 
Q 1159 2491 1159 1978 
L 1159 0 
L 581 0 
L 581 3500 
L 1159 3500 
L 1159 2956 
Q 1366 3272 1645 3428 
Q 1925 3584 2291 3584 
Q 2894 3584 3203 3211 
Q 3513 2838 3513 2113 
z
" transform="scale(0.015625)"/>
       <path id="DejaVuSans-28" d="M 1984 4856 
Q 1566 4138 1362 3434 
Q 1159 2731 1159 2009 
Q 1159 1288 1364 580 
Q 1569 -128 1984 -844 
L 1484 -844 
Q 1016 -109 783 600 
Q 550 1309 550 2009 
Q 550 2706 781 3412 
Q 1013 4119 1484 4856 
L 1984 4856 
z
" transform="scale(0.015625)"/>
       <path id="DejaVuSans-32" d="M 1228 531 
L 3431 531 
L 3431 0 
L 469 0 
L 469 531 
Q 828 903 1448 1529 
Q 2069 2156 2228 2338 
Q 2531 2678 2651 2914 
Q 2772 3150 2772 3378 
Q 2772 3750 2511 3984 
Q 2250 4219 1831 4219 
Q 1534 4219 1204 4116 
Q 875 4013 500 3803 
L 500 4441 
Q 881 4594 1212 4672 
Q 1544 4750 1819 4750 
Q 2544 4750 2975 4387 
Q 3406 4025 3406 3419 
Q 3406 3131 3298 2873 
Q 3191 2616 2906 2266 
Q 2828 2175 2409 1742 
Q 1991 1309 1228 531 
z
" transform="scale(0.015625)"/>
       <path id="DejaVuSans-29" d="M 513 4856 
L 1013 4856 
Q 1481 4119 1714 3412 
Q 1947 2706 1947 2009 
Q 1947 1309 1714 600 
Q 1481 -109 1013 -844 
L 513 -844 
Q 928 -128 1133 580 
Q 1338 1288 1338 2009 
Q 1338 2731 1133 3434 
Q 928 4138 513 4856 
z
" transform="scale(0.015625)"/>
      </defs>
      <use xlink:href="#DejaVuSans-61" transform="translate(0 0.046875)"/>
      <use xlink:href="#DejaVuSans-72" transform="translate(61.279297 0.046875)"/>
      <use xlink:href="#DejaVuSans-63" transform="translate(102.392578 0.046875)"/>
      <use xlink:href="#DejaVuSans-74" transform="translate(157.373047 0.046875)"/>
      <use xlink:href="#DejaVuSans-61" transform="translate(196.582031 0.046875)"/>
      <use xlink:href="#DejaVuSans-6e" transform="translate(257.861328 0.046875)"/>
      <use xlink:href="#DejaVuSans-28" transform="translate(337.475911 0.046875)"/>
      <use xlink:href="#DejaVuSans-304" transform="translate(439.191243 19.484375)"/>
      <use xlink:href="#DejaVuSans-Oblique-3b4" transform="translate(376.489583 0.046875)"/>
      <use xlink:href="#DejaVuSans-32" transform="translate(438.628254 38.328125) scale(0.7)"/>
      <use xlink:href="#DejaVuSans-29" transform="translate(485.898762 0.046875)"/>
     </g>
    </g>
    <g id="line2d_21">
     <path d="M 621.44 93.136 
L 639.04 93.136 
L 656.64 93.136 
" style="fill: none; stroke: #dd8452; stroke-width: 1.2; stroke-linecap: round"/>
    </g>
    <g id="text_19">
     <!-- $-\frac{d}{d \bar{\delta}}\left( \arctan{\left( \bar{\delta}^2 \right)} \right)$ -->
     <g style="fill: #262626" transform="translate(670.72 99.296) scale(0.176 -0.176)">
      <defs>
       <path id="DejaVuSans-2212" d="M 678 2272 
L 4684 2272 
L 4684 1741 
L 678 1741 
L 678 2272 
z
" transform="scale(0.015625)"/>
       <path id="DejaVuSans-Oblique-64" d="M 2675 525 
Q 2444 222 2128 65 
Q 1813 -91 1428 -91 
Q 903 -91 598 267 
Q 294 625 294 1247 
Q 294 1766 478 2236 
Q 663 2706 1013 3078 
Q 1244 3325 1534 3454 
Q 1825 3584 2144 3584 
Q 2481 3584 2739 3421 
Q 2997 3259 3138 2956 
L 3513 4863 
L 4091 4863 
L 3144 0 
L 2566 0 
L 2675 525 
z
M 891 1350 
Q 891 897 1095 644 
Q 1300 391 1663 391 
Q 1931 391 2161 520 
Q 2391 650 2566 903 
Q 2750 1166 2856 1509 
Q 2963 1853 2963 2188 
Q 2963 2622 2758 2865 
Q 2553 3109 2194 3109 
Q 1922 3109 1687 2981 
Q 1453 2853 1288 2613 
Q 1106 2353 998 2009 
Q 891 1666 891 1350 
z
" transform="scale(0.015625)"/>
       <path id="STIXSizeOneSym-Regular-28" d="M 2445 -858 
L 2445 -1050 
Q 1728 -371 1309 630 
Q 890 1632 890 2886 
Q 890 4122 1309 5136 
Q 1728 6150 2445 6822 
L 2445 6630 
Q 1408 5363 1408 2886 
Q 1408 410 2445 -858 
z
" transform="scale(0.015625)"/>
       <path id="STIXSizeOneSym-Regular-29" d="M 550 6630 
L 550 6822 
Q 1267 6144 1686 5142 
Q 2106 4141 2106 2886 
Q 2106 1651 1686 636 
Q 1267 -378 550 -1050 
L 550 -858 
Q 1587 410 1587 2886 
Q 1587 5363 550 6630 
z
" transform="scale(0.015625)"/>
      </defs>
      <use xlink:href="#DejaVuSans-2212" transform="translate(0 0.01875)"/>
      <use xlink:href="#DejaVuSans-Oblique-64" transform="translate(104.789062 44.810938) scale(0.7)"/>
      <use xlink:href="#DejaVuSans-Oblique-64" transform="translate(83.789062 -53.201562) scale(0.7)"/>
      <use xlink:href="#DejaVuSans-304" transform="translate(172.507568 -39.592187) scale(0.7)"/>
      <use xlink:href="#DejaVuSans-Oblique-3b4" transform="translate(128.222656 -53.201562) scale(0.7)"/>
      <use xlink:href="#STIXSizeOneSym-Regular-28" transform="translate(183.549805 1.1125) scale(0.871062)"/>
      <use xlink:href="#DejaVuSans-61" transform="translate(224.309662 0.01875)"/>
      <use xlink:href="#DejaVuSans-72" transform="translate(285.588959 0.01875)"/>
      <use xlink:href="#DejaVuSans-63" transform="translate(326.70224 0.01875)"/>
      <use xlink:href="#DejaVuSans-74" transform="translate(381.682709 0.01875)"/>
      <use xlink:href="#DejaVuSans-61" transform="translate(420.891693 0.01875)"/>
      <use xlink:href="#DejaVuSans-6e" transform="translate(482.17099 0.01875)"/>
      <use xlink:href="#DejaVuSans-28" transform="translate(561.785573 0.01875)"/>
      <use xlink:href="#DejaVuSans-304" transform="translate(663.500905 19.45625)"/>
      <use xlink:href="#DejaVuSans-Oblique-3b4" transform="translate(600.799244 0.01875)"/>
      <use xlink:href="#DejaVuSans-32" transform="translate(662.937916 38.3) scale(0.7)"/>
      <use xlink:href="#DejaVuSans-29" transform="translate(710.208424 0.01875)"/>
      <use xlink:href="#STIXSizeOneSym-Regular-29" transform="translate(749.222096 1.1125) scale(0.871062)"/>
      <path d="M 83.789062 18.815625 
L 83.789062 25.065625 
L 171.049805 25.065625 
L 171.049805 18.815625 
L 83.789062 18.815625 
z
"/>
     </g>
    </g>
    <g id="line2d_22">
     <path d="M 621.44 130.624 
L 639.04 130.624 
L 656.64 130.624 
" style="fill: none; stroke: #55a868; stroke-width: 1.2; stroke-linecap: round"/>
    </g>
    <g id="text_20">
     <!-- $\frac{d^2}{d \bar{\delta}^2}\left( \arctan{\left( \bar{\delta}^2 \right)} \right)$ -->
     <g style="fill: #262626" transform="translate(670.72 136.784) scale(0.176 -0.176)">
      <use xlink:href="#DejaVuSans-Oblique-64" transform="translate(19 44.835938) scale(0.7)"/>
      <use xlink:href="#DejaVuSans-32" transform="translate(68.64699 71.632813) scale(0.49)"/>
      <use xlink:href="#DejaVuSans-Oblique-64" transform="translate(0 -53.176562) scale(0.7)"/>
      <use xlink:href="#DejaVuSans-304" transform="translate(88.718506 -39.567187) scale(0.7)"/>
      <use xlink:href="#DejaVuSans-Oblique-3b4" transform="translate(44.433594 -53.176562) scale(0.7)"/>
      <use xlink:href="#DejaVuSans-32" transform="translate(87.930664 -26.379687) scale(0.49)"/>
      <use xlink:href="#STIXSizeOneSym-Regular-28" transform="translate(133.52002 1.1375) scale(0.871062)"/>
      <use xlink:href="#DejaVuSans-61" transform="translate(174.279877 0.04375)"/>
      <use xlink:href="#DejaVuSans-72" transform="translate(235.559174 0.04375)"/>
      <use xlink:href="#DejaVuSans-63" transform="translate(276.672455 0.04375)"/>
      <use xlink:href="#DejaVuSans-74" transform="translate(331.652924 0.04375)"/>
      <use xlink:href="#DejaVuSans-61" transform="translate(370.861908 0.04375)"/>
      <use xlink:href="#DejaVuSans-6e" transform="translate(432.141205 0.04375)"/>
      <use xlink:href="#DejaVuSans-28" transform="translate(511.755787 0.04375)"/>
      <use xlink:href="#DejaVuSans-304" transform="translate(613.471119 19.48125)"/>
      <use xlink:href="#DejaVuSans-Oblique-3b4" transform="translate(550.769459 0.04375)"/>
      <use xlink:href="#DejaVuSans-32" transform="translate(612.908131 38.325) scale(0.7)"/>
      <use xlink:href="#DejaVuSans-29" transform="translate(660.178639 0.04375)"/>
      <use xlink:href="#STIXSizeOneSym-Regular-29" transform="translate(699.192311 1.1375) scale(0.871062)"/>
      <path d="M 0 18.840625 
L 0 25.090625 
L 121.02002 25.090625 
L 121.02002 18.840625 
L 0 18.840625 
z
"/>
     </g>
    </g>
   </g>
  </g>
 </g>
 <defs>
  <clipPath id="p372254321c">
   <rect x="81.26" y="38.4" width="744.34" height="305.18625"/>
  </clipPath>
 </defs>
</svg>
