<?xml version="1.0" encoding="utf-8" standalone="no"?>
<!DOCTYPE svg PUBLIC "-//W3C//DTD SVG 1.1//EN"
  "http://www.w3.org/Graphics/SVG/1.1/DTD/svg11.dtd">
<svg xmlns:xlink="http://www.w3.org/1999/xlink" width="864pt" height="864pt" viewBox="0 0 864 864" xmlns="http://www.w3.org/2000/svg" version="1.1">
 <metadata>
  <rdf:RDF xmlns:dc="http://purl.org/dc/elements/1.1/" xmlns:cc="http://creativecommons.org/ns#" xmlns:rdf="http://www.w3.org/1999/02/22-rdf-syntax-ns#">
   <cc:Work>
    <dc:type rdf:resource="http://purl.org/dc/dcmitype/StillImage"/>
    <dc:date>2025-01-14T18:39:15.139015</dc:date>
    <dc:format>image/svg+xml</dc:format>
    <dc:creator>
     <cc:Agent>
      <dc:title>Matplotlib v3.10.0, https://matplotlib.org/</dc:title>
     </cc:Agent>
    </dc:creator>
   </cc:Work>
  </rdf:RDF>
 </metadata>
 <defs>
  <style type="text/css">*{stroke-linejoin: round; stroke-linecap: butt}</style>
 </defs>
 <g id="figure_1">
  <g id="patch_1">
   <path d="M 0 864 
L 864 864 
L 864 0 
L 0 0 
L 0 864 
z
" style="fill: none"/>
  </g>
  <g id="axes_1">
   <g id="patch_2">
    <path d="M 81.08 388.61625 
L 825.6 388.61625 
L 825.6 38.4 
L 81.08 38.4 
L 81.08 388.61625 
z
" style="fill: none"/>
   </g>
   <g id="matplotlib.axis_1">
    <g id="xtick_1">
     <g id="line2d_1">
      <path d="M 105.388912 388.61625 
L 105.388912 38.4 
" clip-path="url(#p7d1fdc9cfd)" style="fill: none; stroke: #cccccc; stroke-width: 0.8; stroke-linecap: round"/>
     </g>
    </g>
    <g id="xtick_2">
     <g id="line2d_2">
      <path d="M 200.717977 388.61625 
L 200.717977 38.4 
" clip-path="url(#p7d1fdc9cfd)" style="fill: none; stroke: #cccccc; stroke-width: 0.8; stroke-linecap: round"/>
     </g>
    </g>
    <g id="xtick_3">
     <g id="line2d_3">
      <path d="M 296.047042 388.61625 
L 296.047042 38.4 
" clip-path="url(#p7d1fdc9cfd)" style="fill: none; stroke: #cccccc; stroke-width: 0.8; stroke-linecap: round"/>
     </g>
    </g>
    <g id="xtick_4">
     <g id="line2d_4">
      <path d="M 391.376108 388.61625 
L 391.376108 38.4 
" clip-path="url(#p7d1fdc9cfd)" style="fill: none; stroke: #cccccc; stroke-width: 0.8; stroke-linecap: round"/>
     </g>
    </g>
    <g id="xtick_5">
     <g id="line2d_5">
      <path d="M 486.705173 388.61625 
L 486.705173 38.4 
" clip-path="url(#p7d1fdc9cfd)" style="fill: none; stroke: #cccccc; stroke-width: 0.8; stroke-linecap: round"/>
     </g>
    </g>
    <g id="xtick_6">
     <g id="line2d_6">
      <path d="M 582.034238 388.61625 
L 582.034238 38.4 
" clip-path="url(#p7d1fdc9cfd)" style="fill: none; stroke: #cccccc; stroke-width: 0.8; stroke-linecap: round"/>
     </g>
    </g>
    <g id="xtick_7">
     <g id="line2d_7">
      <path d="M 677.363303 388.61625 
L 677.363303 38.4 
" clip-path="url(#p7d1fdc9cfd)" style="fill: none; stroke: #cccccc; stroke-width: 0.8; stroke-linecap: round"/>
     </g>
    </g>
    <g id="xtick_8">
     <g id="line2d_8">
      <path d="M 772.692369 388.61625 
L 772.692369 38.4 
" clip-path="url(#p7d1fdc9cfd)" style="fill: none; stroke: #cccccc; stroke-width: 0.8; stroke-linecap: round"/>
     </g>
    </g>
   </g>
   <g id="matplotlib.axis_2">
    <g id="ytick_1">
     <g id="line2d_9">
      <path d="M 81.08 372.69733 
L 825.6 372.69733 
" clip-path="url(#p7d1fdc9cfd)" style="fill: none; stroke: #cccccc; stroke-width: 0.8; stroke-linecap: round"/>
     </g>
     <g id="text_1">
      <!-- 0.0 -->
      <g style="fill: #262626" transform="translate(48.3545 379.29733) scale(0.176 -0.176)">
       <defs>
        <path id="Roboto-Regular-30" d="M 3234 1944 
Q 3234 825 2848 381 
Q 2463 -63 1800 -63 
Q 1156 -63 764 368 
Q 372 800 359 1872 
L 359 2638 
Q 359 3753 750 4183 
Q 1141 4613 1794 4613 
Q 2447 4613 2834 4195 
Q 3222 3778 3234 2709 
L 3234 1944 
z
M 2653 2734 
Q 2653 3503 2434 3822 
Q 2216 4141 1794 4141 
Q 1388 4141 1167 3831 
Q 947 3522 941 2778 
L 941 1850 
Q 941 1088 1164 750 
Q 1388 413 1800 413 
Q 2222 413 2436 745 
Q 2650 1078 2653 1825 
L 2653 2734 
z
" transform="scale(0.015625)"/>
        <path id="Roboto-Regular-2e" d="M 450 306 
Q 450 453 542 554 
Q 634 656 809 656 
Q 984 656 1076 554 
Q 1169 453 1169 306 
Q 1169 163 1076 62 
Q 984 -38 809 -38 
Q 634 -38 542 62 
Q 450 163 450 306 
z
" transform="scale(0.015625)"/>
       </defs>
       <use xlink:href="#Roboto-Regular-30"/>
       <use xlink:href="#Roboto-Regular-2e" transform="translate(56.201172 0)"/>
       <use xlink:href="#Roboto-Regular-30" transform="translate(82.568359 0)"/>
      </g>
     </g>
    </g>
    <g id="ytick_2">
     <g id="line2d_10">
      <path d="M 81.08 295.99537 
L 825.6 295.99537 
" clip-path="url(#p7d1fdc9cfd)" style="fill: none; stroke: #cccccc; stroke-width: 0.8; stroke-linecap: round"/>
     </g>
     <g id="text_2">
      <!-- 0.2 -->
      <g style="fill: #262626" transform="translate(48.3545 302.59537) scale(0.176 -0.176)">
       <defs>
        <path id="Roboto-Regular-32" d="M 3359 475 
L 3359 0 
L 381 0 
L 381 416 
L 1925 2134 
Q 2306 2566 2439 2819 
Q 2572 3072 2572 3328 
Q 2572 3663 2364 3900 
Q 2156 4138 1778 4138 
Q 1322 4138 1097 3878 
Q 872 3619 872 3213 
L 294 3213 
Q 294 3788 672 4200 
Q 1050 4613 1778 4613 
Q 2422 4613 2786 4278 
Q 3150 3944 3150 3397 
Q 3150 2997 2903 2592 
Q 2656 2188 2297 1797 
L 1078 475 
L 3359 475 
z
" transform="scale(0.015625)"/>
       </defs>
       <use xlink:href="#Roboto-Regular-30"/>
       <use xlink:href="#Roboto-Regular-2e" transform="translate(56.201172 0)"/>
       <use xlink:href="#Roboto-Regular-32" transform="translate(82.568359 0)"/>
      </g>
     </g>
    </g>
    <g id="ytick_3">
     <g id="line2d_11">
      <path d="M 81.08 219.293411 
L 825.6 219.293411 
" clip-path="url(#p7d1fdc9cfd)" style="fill: none; stroke: #cccccc; stroke-width: 0.8; stroke-linecap: round"/>
     </g>
     <g id="text_3">
      <!-- 0.4 -->
      <g style="fill: #262626" transform="translate(48.3545 225.893411) scale(0.176 -0.176)">
       <defs>
        <path id="Roboto-Regular-34" d="M 166 1397 
L 2203 4550 
L 2819 4550 
L 2819 1531 
L 3453 1531 
L 3453 1056 
L 2819 1056 
L 2819 0 
L 2241 0 
L 2241 1056 
L 166 1056 
L 166 1397 
z
M 822 1531 
L 2241 1531 
L 2241 3766 
L 2169 3638 
L 822 1531 
z
" transform="scale(0.015625)"/>
       </defs>
       <use xlink:href="#Roboto-Regular-30"/>
       <use xlink:href="#Roboto-Regular-2e" transform="translate(56.201172 0)"/>
       <use xlink:href="#Roboto-Regular-34" transform="translate(82.568359 0)"/>
      </g>
     </g>
    </g>
    <g id="ytick_4">
     <g id="line2d_12">
      <path d="M 81.08 142.591452 
L 825.6 142.591452 
" clip-path="url(#p7d1fdc9cfd)" style="fill: none; stroke: #cccccc; stroke-width: 0.8; stroke-linecap: round"/>
     </g>
     <g id="text_4">
      <!-- 0.6 -->
      <g style="fill: #262626" transform="translate(48.3545 149.191452) scale(0.176 -0.176)">
       <defs>
        <path id="Roboto-Regular-36" d="M 3291 1484 
Q 3291 838 2930 387 
Q 2569 -63 1878 -63 
Q 1388 -63 1063 198 
Q 738 459 577 861 
Q 416 1263 416 1684 
L 416 1956 
Q 416 2597 595 3194 
Q 775 3791 1247 4173 
Q 1719 4556 2597 4556 
L 2647 4556 
L 2647 4066 
Q 2041 4066 1705 3853 
Q 1369 3641 1205 3302 
Q 1041 2963 1006 2575 
Q 1369 2984 1984 2984 
Q 2438 2984 2727 2765 
Q 3016 2547 3153 2201 
Q 3291 1856 3291 1484 
z
M 997 1666 
Q 997 1059 1267 737 
Q 1538 416 1878 416 
Q 2278 416 2498 708 
Q 2719 1000 2719 1456 
Q 2719 1863 2516 2184 
Q 2313 2506 1891 2506 
Q 1588 2506 1341 2325 
Q 1094 2144 997 1884 
L 997 1666 
z
" transform="scale(0.015625)"/>
       </defs>
       <use xlink:href="#Roboto-Regular-30"/>
       <use xlink:href="#Roboto-Regular-2e" transform="translate(56.201172 0)"/>
       <use xlink:href="#Roboto-Regular-36" transform="translate(82.568359 0)"/>
      </g>
     </g>
    </g>
    <g id="ytick_5">
     <g id="line2d_13">
      <path d="M 81.08 65.889493 
L 825.6 65.889493 
" clip-path="url(#p7d1fdc9cfd)" style="fill: none; stroke: #cccccc; stroke-width: 0.8; stroke-linecap: round"/>
     </g>
     <g id="text_5">
      <!-- 0.8 -->
      <g style="fill: #262626" transform="translate(48.3545 72.489493) scale(0.176 -0.176)">
       <defs>
        <path id="Roboto-Regular-38" d="M 3244 1231 
Q 3244 606 2826 271 
Q 2409 -63 1796 -63 
Q 1184 -63 767 271 
Q 350 606 350 1231 
Q 350 1613 554 1905 
Q 759 2197 1109 2347 
Q 806 2494 629 2762 
Q 453 3031 453 3366 
Q 453 3963 833 4288 
Q 1213 4613 1794 4613 
Q 2378 4613 2758 4288 
Q 3138 3963 3138 3366 
Q 3138 3028 2956 2761 
Q 2775 2494 2472 2347 
Q 2825 2197 3034 1903 
Q 3244 1609 3244 1231 
z
M 2559 3356 
Q 2559 3697 2346 3917 
Q 2134 4138 1793 4138 
Q 1453 4138 1243 3927 
Q 1034 3716 1034 3356 
Q 1034 3003 1243 2790 
Q 1453 2578 1797 2578 
Q 2138 2578 2348 2790 
Q 2559 3003 2559 3356 
z
M 2663 1244 
Q 2663 1625 2420 1865 
Q 2178 2106 1791 2106 
Q 1394 2106 1161 1865 
Q 928 1625 928 1244 
Q 928 850 1161 631 
Q 1394 413 1797 413 
Q 2200 413 2431 631 
Q 2663 850 2663 1244 
z
" transform="scale(0.015625)"/>
       </defs>
       <use xlink:href="#Roboto-Regular-30"/>
       <use xlink:href="#Roboto-Regular-2e" transform="translate(56.201172 0)"/>
       <use xlink:href="#Roboto-Regular-38" transform="translate(82.568359 0)"/>
      </g>
     </g>
    </g>
   </g>
   <g id="line2d_14">
    <path d="M 114.921818 371.590777 
L 124.454725 371.595367 
L 133.987631 371.59505 
L 143.520538 371.556795 
L 153.053444 371.577177 
L 162.586351 371.590439 
L 172.119257 371.767419 
L 181.652164 371.840828 
L 191.18507 370.945625 
L 200.717977 369.424538 
L 210.250883 362.153009 
L 219.78379 340.531479 
L 229.316697 316.011816 
L 238.849603 356.797779 
L 248.38251 368.976577 
L 257.915416 371.470495 
L 267.448323 372.030144 
L 276.981229 371.772537 
L 286.514136 371.730845 
L 296.047042 371.695809 
L 305.579949 371.892868 
L 315.112855 371.83204 
L 324.645762 371.860302 
L 334.178668 371.765151 
L 343.711575 371.714896 
L 353.244481 371.673188 
L 362.777388 371.696954 
L 372.310294 371.71538 
L 381.843201 371.756002 
L 391.376108 371.783148 
L 400.909014 371.953373 
L 410.441921 372.038093 
L 419.974827 370.49475 
L 429.507734 367.236986 
L 439.04064 338.301415 
L 448.573547 331.465778 
L 458.106453 324.646012 
L 467.63936 356.691405 
L 477.172266 369.35132 
L 486.705173 371.707646 
L 496.238079 371.676229 
L 505.770986 371.552026 
L 515.303892 371.486104 
L 524.836799 371.478387 
L 534.369706 371.469198 
L 543.902612 371.581012 
L 553.435519 371.627072 
L 562.968425 371.574589 
L 572.501332 371.576416 
L 582.034238 371.466831 
L 591.567145 371.416183 
L 601.100051 371.44809 
L 610.632958 371.411597 
L 620.165864 371.465619 
L 629.698771 371.623818 
L 639.231677 371.65173 
L 648.764584 371.632602 
L 658.29749 369.645987 
L 667.830397 369.16141 
L 677.363303 366.62938 
L 686.89621 367.024406 
L 696.429117 369.597202 
L 705.962023 369.842823 
L 715.49493 371.979592 
L 725.027836 371.95503 
L 734.560743 371.618125 
L 744.093649 371.799179 
L 753.626556 371.812495 
L 763.159462 371.83262 
L 772.692369 371.862396 
L 782.225275 371.813167 
L 791.758182 371.715134 
" clip-path="url(#p7d1fdc9cfd)" style="fill: none; stroke-dasharray: 1.2,1.98; stroke-dashoffset: 0; stroke: #4c72b0; stroke-width: 1.2"/>
   </g>
   <g id="line2d_15">
    <path d="M 114.921818 345.970202 
L 124.454725 372.69733 
L 133.987631 372.69733 
L 143.520538 372.69733 
L 153.053444 372.69733 
L 162.586351 372.69733 
L 172.119257 372.69733 
L 181.652164 372.69733 
L 191.18507 372.69733 
L 200.717977 312.284251 
L 210.250883 204.616022 
L 219.78379 128.270416 
L 229.316697 159.504929 
L 238.849603 114.878765 
L 248.38251 189.038849 
L 257.915416 263.16933 
L 267.448323 279.759384 
L 276.981229 333.267909 
L 286.514136 340.112889 
L 296.047042 319.371078 
L 305.579949 307.61229 
L 315.112855 309.86048 
L 324.645762 321.242313 
L 334.178668 312.992044 
L 343.711575 312.988787 
L 353.244481 306.852378 
L 362.777388 309.137177 
L 372.310294 326.267248 
L 381.843201 330.891045 
L 391.376108 364.820413 
L 400.909014 372.69733 
L 410.441921 372.69733 
L 419.974827 329.228193 
L 429.507734 231.854376 
L 439.04064 138.799575 
L 448.573547 69.574994 
L 458.106453 54.31892 
L 467.63936 56.653507 
L 477.172266 147.527517 
L 486.705173 235.979128 
L 496.238079 263.461364 
L 505.770986 339.542992 
L 515.303892 370.30085 
L 524.836799 354.484663 
L 534.369706 352.38477 
L 543.902612 366.956949 
L 553.435519 372.69733 
L 562.968425 372.69733 
L 572.501332 372.69733 
L 582.034238 372.69733 
L 591.567145 372.69733 
L 601.100051 372.69733 
L 610.632958 372.69733 
L 620.165864 372.69733 
L 629.698771 372.69733 
L 639.231677 372.69733 
L 648.764584 372.69733 
L 658.29749 372.69733 
L 667.830397 303.940957 
L 677.363303 203.004385 
L 686.89621 204.212858 
L 696.429117 165.45002 
L 705.962023 272.058027 
L 715.49493 372.69733 
L 725.027836 372.69733 
L 734.560743 372.69733 
L 744.093649 372.69733 
L 753.626556 372.69733 
L 763.159462 372.69733 
L 772.692369 372.69733 
L 782.225275 372.69733 
L 791.758182 372.69733 
" clip-path="url(#p7d1fdc9cfd)" style="fill: none; stroke: #dd8452; stroke-width: 1.2; stroke-linecap: round"/>
   </g>
   <g id="line2d_16">
    <path d="M 114.921818 372.69733 
L 124.454725 372.69733 
L 133.987631 372.69733 
L 143.520538 372.69733 
L 153.053444 372.69733 
L 162.586351 372.69733 
L 172.119257 372.69733 
L 181.652164 372.69733 
L 191.18507 372.69733 
L 200.717977 372.69733 
L 210.250883 372.69733 
L 219.78379 372.69733 
L 229.316697 372.69733 
L 238.849603 372.69733 
L 248.38251 372.69733 
L 257.915416 372.69733 
L 267.448323 372.69733 
L 276.981229 372.69733 
L 286.514136 372.69733 
L 296.047042 372.69733 
L 305.579949 372.69733 
L 315.112855 372.69733 
L 324.645762 372.69733 
L 334.178668 372.69733 
L 343.711575 372.69733 
L 353.244481 372.69733 
L 362.777388 372.69733 
L 372.310294 372.69733 
L 381.843201 372.69733 
L 391.376108 372.69733 
L 400.909014 372.69733 
L 410.441921 372.69733 
L 419.974827 372.69733 
L 429.507734 372.69733 
L 439.04064 372.69733 
L 448.573547 372.69733 
L 458.106453 372.69733 
L 467.63936 372.69733 
L 477.172266 372.69733 
L 486.705173 372.69733 
L 496.238079 372.69733 
L 505.770986 372.69733 
L 515.303892 372.69733 
L 524.836799 372.69733 
L 534.369706 372.69733 
L 543.902612 372.69733 
L 553.435519 372.69733 
L 562.968425 372.69733 
L 572.501332 372.69733 
L 582.034238 372.69733 
L 591.567145 372.69733 
L 601.100051 372.69733 
L 610.632958 372.69733 
L 620.165864 372.69733 
L 629.698771 372.69733 
L 639.231677 372.69733 
L 648.764584 372.69733 
L 658.29749 372.69733 
L 667.830397 372.69733 
L 677.363303 372.69733 
L 686.89621 372.69733 
L 696.429117 372.69733 
L 705.962023 372.69733 
L 715.49493 372.69733 
L 725.027836 372.69733 
L 734.560743 372.69733 
L 744.093649 372.69733 
L 753.626556 372.69733 
L 763.159462 372.69733 
L 772.692369 372.69733 
L 782.225275 372.69733 
L 791.758182 372.69733 
" clip-path="url(#p7d1fdc9cfd)" style="fill: none; stroke: #55a868; stroke-width: 1.2; stroke-linecap: round"/>
   </g>
   <g id="line2d_17">
    <path d="M 114.921818 372.69733 
L 124.454725 372.69733 
L 133.987631 372.69733 
L 143.520538 372.69733 
L 153.053444 372.69733 
L 162.586351 372.69733 
L 172.119257 372.69733 
L 181.652164 372.69733 
L 191.18507 372.69733 
L 200.717977 370.624618 
L 210.250883 345.79908 
L 219.78379 335.183693 
L 229.316697 333.293963 
L 238.849603 352.2573 
L 248.38251 370.352819 
L 257.915416 372.69733 
L 267.448323 372.69733 
L 276.981229 372.69733 
L 286.514136 372.69733 
L 296.047042 372.69733 
L 305.579949 372.69733 
L 315.112855 372.69733 
L 324.645762 372.69733 
L 334.178668 372.69733 
L 343.711575 372.69733 
L 353.244481 372.69733 
L 362.777388 372.69733 
L 372.310294 372.69733 
L 381.843201 372.69733 
L 391.376108 372.69733 
L 400.909014 372.69733 
L 410.441921 372.69733 
L 419.974827 372.69733 
L 429.507734 372.69733 
L 439.04064 367.766666 
L 448.573547 358.651277 
L 458.106453 352.75855 
L 467.63936 367.282131 
L 477.172266 372.69733 
L 486.705173 372.69733 
L 496.238079 372.69733 
L 505.770986 372.69733 
L 515.303892 372.69733 
L 524.836799 372.69733 
L 534.369706 372.69733 
L 543.902612 372.69733 
L 553.435519 372.69733 
L 562.968425 372.69733 
L 572.501332 372.69733 
L 582.034238 372.69733 
L 591.567145 372.69733 
L 601.100051 372.69733 
L 610.632958 372.69733 
L 620.165864 372.69733 
L 629.698771 372.69733 
L 639.231677 372.69733 
L 648.764584 372.69733 
L 658.29749 372.69733 
L 667.830397 370.362957 
L 677.363303 351.522669 
L 686.89621 331.639128 
L 696.429117 358.95756 
L 705.962023 370.872375 
L 715.49493 372.69733 
L 725.027836 372.69733 
L 734.560743 372.69733 
L 744.093649 372.69733 
L 753.626556 372.69733 
L 763.159462 372.69733 
L 772.692369 372.69733 
L 782.225275 372.69733 
L 791.758182 372.69733 
" clip-path="url(#p7d1fdc9cfd)" style="fill: none; stroke: #c44e52; stroke-width: 1.2; stroke-linecap: round"/>
   </g>
   <g id="line2d_18">
    <path d="M 114.921818 372.69733 
L 124.454725 372.69733 
L 133.987631 372.69733 
L 143.520538 372.69733 
L 153.053444 372.69733 
L 162.586351 372.69733 
L 172.119257 372.69733 
L 181.652164 372.69733 
L 191.18507 372.69733 
L 200.717977 354.581245 
L 210.250883 338.573695 
L 219.78379 339.456297 
L 229.316697 354.1536 
L 238.849603 354.780747 
L 248.38251 371.388968 
L 257.915416 372.69733 
L 267.448323 372.69733 
L 276.981229 372.69733 
L 286.514136 372.69733 
L 296.047042 372.69733 
L 305.579949 372.69733 
L 315.112855 372.69733 
L 324.645762 372.69733 
L 334.178668 372.69733 
L 343.711575 372.69733 
L 353.244481 372.69733 
L 362.777388 372.69733 
L 372.310294 372.69733 
L 381.843201 372.69733 
L 391.376108 372.69733 
L 400.909014 372.69733 
L 410.441921 372.69733 
L 419.974827 372.69733 
L 429.507734 372.357874 
L 439.04064 370.142152 
L 448.573547 360.627993 
L 458.106453 362.776024 
L 467.63936 366.823502 
L 477.172266 372.69733 
L 486.705173 372.69733 
L 496.238079 372.69733 
L 505.770986 372.69733 
L 515.303892 372.69733 
L 524.836799 372.69733 
L 534.369706 372.69733 
L 543.902612 372.69733 
L 553.435519 372.69733 
L 562.968425 372.69733 
L 572.501332 372.69733 
L 582.034238 372.69733 
L 591.567145 372.69733 
L 601.100051 372.69733 
L 610.632958 372.69733 
L 620.165864 372.69733 
L 629.698771 372.69733 
L 639.231677 372.69733 
L 648.764584 372.69733 
L 658.29749 372.69733 
L 667.830397 370.081004 
L 677.363303 356.857217 
L 686.89621 354.417561 
L 696.429117 356.733117 
L 705.962023 372.69733 
L 715.49493 372.69733 
L 725.027836 372.69733 
L 734.560743 372.69733 
L 744.093649 372.69733 
L 753.626556 372.69733 
L 763.159462 372.69733 
L 772.692369 372.69733 
L 782.225275 372.69733 
L 791.758182 372.69733 
" clip-path="url(#p7d1fdc9cfd)" style="fill: none; stroke: #8172b3; stroke-width: 1.2; stroke-linecap: round"/>
   </g>
   <g id="line2d_19">
    <path d="M 114.921818 372.69733 
L 124.454725 372.69733 
L 133.987631 372.69733 
L 143.520538 372.69733 
L 153.053444 372.69733 
L 162.586351 372.69733 
L 172.119257 372.69733 
L 181.652164 372.69733 
L 191.18507 372.69733 
L 200.717977 356.950599 
L 210.250883 317.897544 
L 219.78379 305.765622 
L 229.316697 315.787953 
L 238.849603 338.769968 
L 248.38251 361.385852 
L 257.915416 369.768117 
L 267.448323 372.69733 
L 276.981229 372.69733 
L 286.514136 372.69733 
L 296.047042 372.326007 
L 305.579949 372.250392 
L 315.112855 372.255079 
L 324.645762 372.372242 
L 334.178668 372.062886 
L 343.711575 371.692922 
L 353.244481 371.451466 
L 362.777388 371.283595 
L 372.310294 371.438031 
L 381.843201 371.686168 
L 391.376108 372.69733 
L 400.909014 372.69733 
L 410.441921 372.69733 
L 419.974827 372.69733 
L 429.507734 368.808941 
L 439.04064 359.199429 
L 448.573547 342.031994 
L 458.106453 347.39641 
L 467.63936 360.60361 
L 477.172266 367.745888 
L 486.705173 372.527717 
L 496.238079 372.69733 
L 505.770986 372.69733 
L 515.303892 372.69733 
L 524.836799 372.69733 
L 534.369706 372.69733 
L 543.902612 372.69733 
L 553.435519 372.69733 
L 562.968425 372.69733 
L 572.501332 372.69733 
L 582.034238 372.69733 
L 591.567145 372.69733 
L 601.100051 372.69733 
L 610.632958 372.69733 
L 620.165864 372.69733 
L 629.698771 372.69733 
L 639.231677 372.69733 
L 648.764584 372.69733 
L 658.29749 370.767863 
L 667.830397 369.7985 
L 677.363303 365.582547 
L 686.89621 357.680237 
L 696.429117 357.141114 
L 705.962023 367.498214 
L 715.49493 369.980869 
L 725.027836 372.258719 
L 734.560743 372.69733 
L 744.093649 372.69733 
L 753.626556 372.69733 
L 763.159462 372.69733 
L 772.692369 372.69733 
L 782.225275 372.69733 
L 791.758182 372.69733 
" clip-path="url(#p7d1fdc9cfd)" style="fill: none; stroke: #937860; stroke-width: 1.2; stroke-linecap: round"/>
   </g>
   <g id="patch_3">
    <path d="M 81.08 388.61625 
L 81.08 38.4 
" style="fill: none; stroke: #cccccc; stroke-linejoin: miter; stroke-linecap: square"/>
   </g>
   <g id="patch_4">
    <path d="M 825.6 388.61625 
L 825.6 38.4 
" style="fill: none; stroke: #cccccc; stroke-linejoin: miter; stroke-linecap: square"/>
   </g>
   <g id="patch_5">
    <path d="M 81.08 388.61625 
L 825.6 388.61625 
" style="fill: none; stroke: #cccccc; stroke-linejoin: miter; stroke-linecap: square"/>
   </g>
   <g id="patch_6">
    <path d="M 81.08 38.4 
L 825.6 38.4 
" style="fill: none; stroke: #cccccc; stroke-linejoin: miter; stroke-linecap: square"/>
   </g>
   <g id="legend_1">
    <g id="patch_7">
     <path d="M 582.291 210.07975 
L 813.28 210.07975 
Q 816.8 210.07975 816.8 206.55975 
L 816.8 50.72 
Q 816.8 47.2 813.28 47.2 
L 582.291 47.2 
Q 578.771 47.2 578.771 50.72 
L 578.771 206.55975 
Q 578.771 210.07975 582.291 210.07975 
z
" style="fill: #ffffff; opacity: 0.8; stroke: #cccccc; stroke-width: 0.8; stroke-linejoin: miter"/>
    </g>
    <g id="line2d_20">
     <path d="M 585.811 62.1985 
L 603.411 62.1985 
L 621.011 62.1985 
" style="fill: none; stroke-dasharray: 1.2,1.98; stroke-dashoffset: 0; stroke: #4c72b0; stroke-width: 1.2"/>
    </g>
    <g id="text_6">
     <!-- Reference (Best Case) -->
     <g style="fill: #262626" transform="translate(635.091 68.3585) scale(0.176 -0.176)">
      <defs>
       <path id="Roboto-Regular-52" d="M 3188 0 
L 2200 1844 
L 1131 1844 
L 1131 0 
L 528 0 
L 528 4550 
L 2034 4550 
Q 2800 4550 3214 4200 
Q 3628 3850 3628 3184 
Q 3628 2759 3398 2442 
Q 3169 2125 2763 1969 
L 3831 38 
L 3831 0 
L 3188 0 
z
M 1131 4056 
L 1131 2334 
L 2053 2334 
Q 2538 2334 2783 2582 
Q 3028 2831 3028 3184 
Q 3028 3578 2792 3817 
Q 2556 4056 2034 4056 
L 1131 4056 
z
" transform="scale(0.015625)"/>
       <path id="Roboto-Regular-65" d="M 3116 591 
Q 2950 341 2647 139 
Q 2344 -63 1844 -63 
Q 1138 -63 714 396 
Q 291 856 291 1572 
L 291 1703 
Q 291 2256 502 2645 
Q 713 3034 1050 3239 
Q 1388 3444 1769 3444 
Q 2494 3444 2826 2970 
Q 3159 2497 3159 1788 
L 3159 1528 
L 872 1528 
Q 884 1063 1148 736 
Q 1413 409 1875 409 
Q 2181 409 2393 534 
Q 2606 659 2766 869 
L 3116 591 
z
M 1769 2969 
Q 1425 2969 1187 2719 
Q 950 2469 891 2000 
L 2581 2000 
L 2581 2044 
Q 2559 2381 2386 2675 
Q 2213 2969 1769 2969 
z
" transform="scale(0.015625)"/>
       <path id="Roboto-Regular-66" d="M 2022 2938 
L 1303 2938 
L 1303 0 
L 725 0 
L 725 2938 
L 191 2938 
L 191 3381 
L 725 3381 
L 725 3759 
Q 731 4297 1026 4581 
Q 1322 4866 1834 4866 
Q 2025 4866 2234 4816 
L 2203 4344 
Q 2072 4372 1891 4372 
Q 1313 4372 1303 3756 
L 1303 3381 
L 2022 3381 
L 2022 2938 
z
" transform="scale(0.015625)"/>
       <path id="Roboto-Regular-72" d="M 1791 2888 
Q 1225 2888 1019 2400 
L 1019 0 
L 441 0 
L 441 3381 
L 1003 3381 
L 1016 2994 
Q 1294 3444 1819 3444 
Q 1981 3444 2075 3400 
L 2072 2863 
Q 1944 2888 1791 2888 
z
" transform="scale(0.015625)"/>
       <path id="Roboto-Regular-6e" d="M 1844 2956 
Q 1566 2956 1353 2806 
Q 1141 2656 1019 2416 
L 1019 0 
L 441 0 
L 441 3381 
L 988 3381 
L 1006 2959 
Q 1391 3444 2016 3444 
Q 2513 3444 2805 3166 
Q 3097 2888 3100 2231 
L 3100 0 
L 2519 0 
L 2519 2222 
Q 2519 2619 2345 2787 
Q 2172 2956 1844 2956 
z
" transform="scale(0.015625)"/>
       <path id="Roboto-Regular-63" d="M 1794 413 
Q 2103 413 2336 597 
Q 2569 781 2591 1069 
L 3141 1069 
Q 3119 616 2725 276 
Q 2331 -63 1794 -63 
Q 1031 -63 661 440 
Q 291 944 291 1625 
L 291 1756 
Q 291 2438 661 2941 
Q 1031 3444 1794 3444 
Q 2388 3444 2753 3092 
Q 3119 2741 3141 2219 
L 2591 2219 
Q 2569 2531 2355 2750 
Q 2141 2969 1794 2969 
Q 1438 2969 1236 2787 
Q 1034 2606 951 2328 
Q 869 2050 869 1756 
L 869 1625 
Q 869 1328 950 1050 
Q 1031 772 1232 592 
Q 1434 413 1794 413 
z
" transform="scale(0.015625)"/>
       <path id="Roboto-Regular-20" transform="scale(0.015625)"/>
       <path id="Roboto-Regular-28" d="M 419 1850 
Q 419 2756 678 3434 
Q 938 4113 1294 4541 
Q 1650 4969 1947 5134 
L 2069 4753 
Q 1700 4475 1348 3761 
Q 997 3047 997 1813 
Q 997 625 1348 -97 
Q 1700 -819 2069 -1119 
L 1947 -1469 
Q 1650 -1306 1294 -878 
Q 938 -450 678 226 
Q 419 903 419 1850 
z
" transform="scale(0.015625)"/>
       <path id="Roboto-Regular-42" d="M 3625 1313 
Q 3625 675 3214 337 
Q 2803 0 2122 0 
L 528 0 
L 528 4550 
L 2019 4550 
Q 2719 4550 3111 4261 
Q 3503 3972 3503 3338 
Q 3503 3022 3323 2776 
Q 3144 2531 2831 2397 
Q 3216 2291 3420 1994 
Q 3625 1697 3625 1313 
z
M 1131 4056 
L 1131 2613 
L 2038 2613 
Q 2425 2613 2662 2806 
Q 2900 3000 2900 3344 
Q 2900 4041 2056 4056 
L 1131 4056 
z
M 3025 1306 
Q 3025 1688 2817 1908 
Q 2609 2128 2150 2128 
L 1131 2128 
L 1131 491 
L 2122 491 
Q 2550 491 2787 711 
Q 3025 931 3025 1306 
z
" transform="scale(0.015625)"/>
       <path id="Roboto-Regular-73" d="M 2409 897 
Q 2409 1081 2273 1229 
Q 2138 1378 1647 1478 
Q 1081 1594 747 1814 
Q 413 2034 413 2456 
Q 413 2856 755 3150 
Q 1097 3444 1666 3444 
Q 2272 3444 2612 3134 
Q 2953 2825 2953 2388 
L 2375 2388 
Q 2375 2597 2190 2783 
Q 2006 2969 1666 2969 
Q 1306 2969 1150 2812 
Q 994 2656 994 2472 
Q 994 2288 1139 2173 
Q 1284 2059 1756 1953 
Q 2378 1813 2683 1584 
Q 2988 1356 2988 941 
Q 2988 494 2630 215 
Q 2272 -63 1681 -63 
Q 1009 -63 653 281 
Q 297 625 297 1044 
L 878 1044 
Q 897 684 1155 548 
Q 1413 413 1681 413 
Q 2034 413 2221 550 
Q 2409 688 2409 897 
z
" transform="scale(0.015625)"/>
       <path id="Roboto-Regular-74" d="M 1872 0 
Q 1675 -63 1425 -63 
Q 1103 -63 875 134 
Q 647 331 647 841 
L 647 2938 
L 28 2938 
L 28 3381 
L 647 3381 
L 647 4203 
L 1225 4203 
L 1225 3381 
L 1856 3381 
L 1856 2938 
L 1225 2938 
L 1225 838 
Q 1225 578 1337 506 
Q 1450 434 1597 434 
Q 1706 434 1869 472 
L 1872 0 
z
" transform="scale(0.015625)"/>
       <path id="Roboto-Regular-43" d="M 3275 1447 
L 3875 1447 
Q 3806 800 3387 368 
Q 2969 -63 2150 -63 
Q 1356 -63 870 504 
Q 384 1072 375 2013 
L 375 2500 
Q 375 3456 867 4034 
Q 1359 4613 2203 4613 
Q 2975 4613 3390 4188 
Q 3806 3763 3875 3091 
L 3275 3091 
Q 3206 3566 2968 3842 
Q 2731 4119 2203 4119 
Q 1600 4119 1287 3675 
Q 975 3231 975 2506 
L 975 2047 
Q 975 1375 1259 901 
Q 1544 428 2150 428 
Q 2725 428 2961 697 
Q 3197 966 3275 1447 
z
" transform="scale(0.015625)"/>
       <path id="Roboto-Regular-61" d="M 2528 0 
Q 2472 122 2447 356 
Q 2284 184 2040 60 
Q 1797 -63 1484 -63 
Q 966 -63 653 228 
Q 341 519 341 941 
Q 341 1484 753 1767 
Q 1166 2050 1863 2050 
L 2434 2050 
L 2434 2319 
Q 2434 2619 2254 2798 
Q 2075 2978 1722 2978 
Q 1394 2978 1192 2817 
Q 991 2656 991 2444 
L 413 2444 
Q 413 2806 778 3125 
Q 1144 3444 1756 3444 
Q 2306 3444 2659 3162 
Q 3013 2881 3013 2313 
L 3013 794 
Q 3013 325 3131 50 
L 3131 0 
L 2528 0 
z
M 1569 444 
Q 1881 444 2111 600 
Q 2341 756 2434 947 
L 2434 1644 
L 1897 1644 
Q 922 1625 922 1019 
Q 922 778 1084 611 
Q 1247 444 1569 444 
z
" transform="scale(0.015625)"/>
       <path id="Roboto-Regular-29" d="M 1772 1819 
Q 1772 906 1512 228 
Q 1253 -450 895 -878 
Q 538 -1306 244 -1469 
L 122 -1119 
Q 488 -841 841 -109 
Q 1194 622 1194 1856 
Q 1194 2647 1019 3236 
Q 844 3825 594 4212 
Q 344 4600 122 4781 
L 244 5134 
Q 538 4969 895 4541 
Q 1253 4113 1512 3436 
Q 1772 2759 1772 1819 
z
" transform="scale(0.015625)"/>
      </defs>
      <use xlink:href="#Roboto-Regular-52"/>
      <use xlink:href="#Roboto-Regular-65" transform="translate(61.621094 0)"/>
      <use xlink:href="#Roboto-Regular-66" transform="translate(114.648438 0)"/>
      <use xlink:href="#Roboto-Regular-65" transform="translate(149.414062 0)"/>
      <use xlink:href="#Roboto-Regular-72" transform="translate(202.441406 0)"/>
      <use xlink:href="#Roboto-Regular-65" transform="translate(236.328125 0)"/>
      <use xlink:href="#Roboto-Regular-6e" transform="translate(289.355469 0)"/>
      <use xlink:href="#Roboto-Regular-63" transform="translate(344.580078 0)"/>
      <use xlink:href="#Roboto-Regular-65" transform="translate(396.923828 0)"/>
      <use xlink:href="#Roboto-Regular-20" transform="translate(449.951172 0)"/>
      <use xlink:href="#Roboto-Regular-28" transform="translate(474.755859 0)"/>
      <use xlink:href="#Roboto-Regular-42" transform="translate(508.984375 0)"/>
      <use xlink:href="#Roboto-Regular-65" transform="translate(571.289062 0)"/>
      <use xlink:href="#Roboto-Regular-73" transform="translate(624.316406 0)"/>
      <use xlink:href="#Roboto-Regular-74" transform="translate(675.927734 0)"/>
      <use xlink:href="#Roboto-Regular-20" transform="translate(708.642578 0)"/>
      <use xlink:href="#Roboto-Regular-43" transform="translate(733.447266 0)"/>
      <use xlink:href="#Roboto-Regular-61" transform="translate(798.535156 0)"/>
      <use xlink:href="#Roboto-Regular-73" transform="translate(852.929688 0)"/>
      <use xlink:href="#Roboto-Regular-65" transform="translate(904.541016 0)"/>
      <use xlink:href="#Roboto-Regular-29" transform="translate(957.568359 0)"/>
     </g>
    </g>
    <g id="line2d_21">
     <path d="M 585.811 88.23825 
L 603.411 88.23825 
L 621.011 88.23825 
" style="fill: none; stroke: #dd8452; stroke-width: 1.2; stroke-linecap: round"/>
    </g>
    <g id="text_7">
     <!-- MSE -->
     <g style="fill: #262626" transform="translate(635.091 94.39825) scale(0.176 -0.176)">
      <defs>
       <path id="Roboto-Regular-4d" d="M 2794 841 
L 4281 4550 
L 5056 4550 
L 5056 0 
L 4456 0 
L 4456 1775 
L 4516 3678 
L 3019 0 
L 2563 0 
L 1069 3684 
L 1128 1775 
L 1128 0 
L 528 0 
L 528 4550 
L 1303 4550 
L 2794 841 
z
" transform="scale(0.015625)"/>
       <path id="Roboto-Regular-53" d="M 2953 1150 
Q 2953 1463 2742 1650 
Q 2531 1838 1856 2036 
Q 1181 2234 789 2542 
Q 397 2850 397 3375 
Q 397 3906 820 4259 
Q 1244 4613 1944 4613 
Q 2713 4613 3130 4191 
Q 3547 3769 3547 3238 
L 2947 3238 
Q 2947 3619 2700 3869 
Q 2453 4119 1944 4119 
Q 1463 4119 1231 3908 
Q 1000 3697 1000 3381 
Q 1000 3097 1245 2908 
Q 1491 2719 2044 2563 
Q 2834 2341 3196 2014 
Q 3559 1688 3559 1156 
Q 3559 600 3125 268 
Q 2691 -63 1972 -63 
Q 1553 -63 1158 93 
Q 763 250 508 558 
Q 253 866 253 1319 
L 853 1319 
Q 853 853 1193 640 
Q 1534 428 1972 428 
Q 2444 428 2698 623 
Q 2953 819 2953 1150 
z
" transform="scale(0.015625)"/>
       <path id="Roboto-Regular-45" d="M 528 0 
L 528 4550 
L 3388 4550 
L 3388 4056 
L 1131 4056 
L 1131 2594 
L 3100 2594 
L 3100 2103 
L 1131 2103 
L 1131 491 
L 3419 491 
L 3419 0 
L 528 0 
z
" transform="scale(0.015625)"/>
      </defs>
      <use xlink:href="#Roboto-Regular-4d"/>
      <use xlink:href="#Roboto-Regular-53" transform="translate(87.304688 0)"/>
      <use xlink:href="#Roboto-Regular-45" transform="translate(146.679688 0)"/>
     </g>
    </g>
    <g id="line2d_22">
     <path d="M 585.811 113.81325 
L 603.411 113.81325 
L 621.011 113.81325 
" style="fill: none; stroke: #55a868; stroke-width: 1.2; stroke-linecap: round"/>
    </g>
    <g id="text_8">
     <!-- MAAPE -->
     <g style="fill: #262626" transform="translate(635.091 119.97325) scale(0.176 -0.176)">
      <defs>
       <path id="Roboto-Regular-41" d="M 91 0 
L 1825 4550 
L 2353 4550 
L 4094 0 
L 3475 0 
L 3041 1191 
L 1138 1191 
L 706 0 
L 91 0 
z
M 1319 1684 
L 2863 1684 
L 2091 3806 
L 1319 1684 
z
" transform="scale(0.015625)"/>
       <path id="Roboto-Regular-50" d="M 1131 1784 
L 1131 0 
L 528 0 
L 528 4550 
L 2206 4550 
Q 2981 4550 3392 4159 
Q 3803 3769 3803 3163 
Q 3803 2503 3392 2143 
Q 2981 1784 2206 1784 
L 1131 1784 
z
M 1131 4056 
L 1131 2275 
L 2206 2275 
Q 2738 2275 2969 2522 
Q 3200 2769 3200 3156 
Q 3200 3506 2969 3781 
Q 2738 4056 2206 4056 
L 1131 4056 
z
" transform="scale(0.015625)"/>
      </defs>
      <use xlink:href="#Roboto-Regular-4d"/>
      <use xlink:href="#Roboto-Regular-41" transform="translate(87.304688 0)"/>
      <use xlink:href="#Roboto-Regular-41" transform="translate(152.539062 0)"/>
      <use xlink:href="#Roboto-Regular-50" transform="translate(217.773438 0)"/>
      <use xlink:href="#Roboto-Regular-45" transform="translate(280.859375 0)"/>
     </g>
    </g>
    <g id="line2d_23">
     <path d="M 585.811 139.38825 
L 603.411 139.38825 
L 621.011 139.38825 
" style="fill: none; stroke: #c44e52; stroke-width: 1.2; stroke-linecap: round"/>
    </g>
    <g id="text_9">
     <!-- MASPE -->
     <g style="fill: #262626" transform="translate(635.091 145.54825) scale(0.176 -0.176)">
      <use xlink:href="#Roboto-Regular-4d"/>
      <use xlink:href="#Roboto-Regular-41" transform="translate(87.304688 0)"/>
      <use xlink:href="#Roboto-Regular-53" transform="translate(152.539062 0)"/>
      <use xlink:href="#Roboto-Regular-50" transform="translate(211.914062 0)"/>
      <use xlink:href="#Roboto-Regular-45" transform="translate(275 0)"/>
     </g>
    </g>
    <g id="line2d_24">
     <path d="M 585.811 165.88175 
L 603.411 165.88175 
L 621.011 165.88175 
" style="fill: none; stroke: #8172b3; stroke-width: 1.2; stroke-linecap: round"/>
    </g>
    <g id="text_10">
     <!-- SMASPE (tight) -->
     <g style="fill: #262626" transform="translate(635.091 172.04175) scale(0.176 -0.176)">
      <defs>
       <path id="Roboto-Regular-69" d="M 444 4278 
Q 444 4419 530 4516 
Q 616 4613 784 4613 
Q 950 4613 1039 4516 
Q 1128 4419 1128 4278 
Q 1128 4144 1039 4048 
Q 950 3953 784 3953 
Q 616 3953 530 4048 
Q 444 4144 444 4278 
z
M 1069 3381 
L 1069 0 
L 488 0 
L 488 3381 
L 1069 3381 
z
" transform="scale(0.015625)"/>
       <path id="Roboto-Regular-67" d="M 1725 -1334 
Q 1463 -1334 1081 -1206 
Q 700 -1078 472 -747 
L 775 -403 
Q 1150 -859 1681 -859 
Q 2091 -859 2334 -629 
Q 2578 -400 2578 44 
L 2578 341 
Q 2234 -63 1631 -63 
Q 1022 -63 662 425 
Q 303 913 303 1653 
L 303 1719 
Q 303 2494 661 2969 
Q 1019 3444 1638 3444 
Q 2259 3444 2603 3006 
L 2631 3381 
L 3156 3381 
L 3156 72 
Q 3156 -600 2756 -967 
Q 2356 -1334 1725 -1334 
z
M 881 1653 
Q 881 1150 1092 789 
Q 1303 428 1772 428 
Q 2322 428 2578 928 
L 2578 2469 
Q 2469 2678 2275 2817 
Q 2081 2956 1778 2956 
Q 1306 2956 1093 2589 
Q 881 2222 881 1719 
L 881 1653 
z
" transform="scale(0.015625)"/>
       <path id="Roboto-Regular-68" d="M 1844 2956 
Q 1566 2956 1353 2806 
Q 1141 2656 1019 2416 
L 1019 0 
L 441 0 
L 441 4800 
L 1019 4800 
L 1019 2978 
Q 1403 3444 2016 3444 
Q 2513 3444 2805 3166 
Q 3097 2888 3100 2231 
L 3100 0 
L 2519 0 
L 2519 2222 
Q 2519 2619 2345 2787 
Q 2172 2956 1844 2956 
z
" transform="scale(0.015625)"/>
      </defs>
      <use xlink:href="#Roboto-Regular-53"/>
      <use xlink:href="#Roboto-Regular-4d" transform="translate(59.375 0)"/>
      <use xlink:href="#Roboto-Regular-41" transform="translate(146.679688 0)"/>
      <use xlink:href="#Roboto-Regular-53" transform="translate(211.914062 0)"/>
      <use xlink:href="#Roboto-Regular-50" transform="translate(271.289062 0)"/>
      <use xlink:href="#Roboto-Regular-45" transform="translate(334.375 0)"/>
      <use xlink:href="#Roboto-Regular-20" transform="translate(391.210938 0)"/>
      <use xlink:href="#Roboto-Regular-28" transform="translate(416.015625 0)"/>
      <use xlink:href="#Roboto-Regular-74" transform="translate(450.244141 0)"/>
      <use xlink:href="#Roboto-Regular-69" transform="translate(482.958984 0)"/>
      <use xlink:href="#Roboto-Regular-67" transform="translate(507.275391 0)"/>
      <use xlink:href="#Roboto-Regular-68" transform="translate(563.427734 0)"/>
      <use xlink:href="#Roboto-Regular-74" transform="translate(618.505859 0)"/>
      <use xlink:href="#Roboto-Regular-29" transform="translate(651.220703 0)"/>
     </g>
    </g>
    <g id="line2d_25">
     <path d="M 585.811 192.84 
L 603.411 192.84 
L 621.011 192.84 
" style="fill: none; stroke: #937860; stroke-width: 1.2; stroke-linecap: round"/>
    </g>
    <g id="text_11">
     <!-- SMASPE (loose) -->
     <g style="fill: #262626" transform="translate(635.091 199) scale(0.176 -0.176)">
      <defs>
       <path id="Roboto-Regular-6c" d="M 1069 4800 
L 1069 0 
L 488 0 
L 488 4800 
L 1069 4800 
z
" transform="scale(0.015625)"/>
       <path id="Roboto-Regular-6f" d="M 288 1725 
Q 288 2459 700 2951 
Q 1113 3444 1822 3444 
Q 2531 3444 2943 2961 
Q 3356 2478 3366 1756 
L 3366 1653 
Q 3366 919 2952 428 
Q 2538 -63 1828 -63 
Q 1116 -63 702 428 
Q 288 919 288 1653 
L 288 1725 
z
M 866 1653 
Q 866 1150 1105 781 
Q 1344 413 1828 413 
Q 2300 413 2540 777 
Q 2781 1141 2784 1644 
L 2784 1725 
Q 2784 2222 2543 2595 
Q 2303 2969 1822 2969 
Q 1344 2969 1105 2595 
Q 866 2222 866 1725 
L 866 1653 
z
" transform="scale(0.015625)"/>
      </defs>
      <use xlink:href="#Roboto-Regular-53"/>
      <use xlink:href="#Roboto-Regular-4d" transform="translate(59.375 0)"/>
      <use xlink:href="#Roboto-Regular-41" transform="translate(146.679688 0)"/>
      <use xlink:href="#Roboto-Regular-53" transform="translate(211.914062 0)"/>
      <use xlink:href="#Roboto-Regular-50" transform="translate(271.289062 0)"/>
      <use xlink:href="#Roboto-Regular-45" transform="translate(334.375 0)"/>
      <use xlink:href="#Roboto-Regular-20" transform="translate(391.210938 0)"/>
      <use xlink:href="#Roboto-Regular-28" transform="translate(416.015625 0)"/>
      <use xlink:href="#Roboto-Regular-6c" transform="translate(450.244141 0)"/>
      <use xlink:href="#Roboto-Regular-6f" transform="translate(474.560547 0)"/>
      <use xlink:href="#Roboto-Regular-6f" transform="translate(531.591797 0)"/>
      <use xlink:href="#Roboto-Regular-73" transform="translate(588.623047 0)"/>
      <use xlink:href="#Roboto-Regular-65" transform="translate(640.234375 0)"/>
      <use xlink:href="#Roboto-Regular-29" transform="translate(693.261719 0)"/>
     </g>
    </g>
   </g>
  </g>
  <g id="axes_2">
   <g id="patch_8">
    <path d="M 81.08 777.2325 
L 825.6 777.2325 
L 825.6 427.01625 
L 81.08 427.01625 
L 81.08 777.2325 
z
" style="fill: none"/>
   </g>
   <g id="matplotlib.axis_3">
    <g id="xtick_9">
     <g id="line2d_26">
      <path d="M 105.388912 777.2325 
L 105.388912 427.01625 
" clip-path="url(#p111ef5f9cb)" style="fill: none; stroke: #cccccc; stroke-width: 0.8; stroke-linecap: round"/>
     </g>
     <g id="text_12">
      <!-- 0 -->
      <g style="fill: #262626" transform="translate(100.443037 798.7325) scale(0.176 -0.176)">
       <use xlink:href="#Roboto-Regular-30"/>
      </g>
     </g>
    </g>
    <g id="xtick_10">
     <g id="line2d_27">
      <path d="M 200.717977 777.2325 
L 200.717977 427.01625 
" clip-path="url(#p111ef5f9cb)" style="fill: none; stroke: #cccccc; stroke-width: 0.8; stroke-linecap: round"/>
     </g>
     <g id="text_13">
      <!-- 10 -->
      <g style="fill: #262626" transform="translate(190.826227 798.7325) scale(0.176 -0.176)">
       <defs>
        <path id="Roboto-Regular-31" d="M 2278 4575 
L 2278 0 
L 1700 0 
L 1700 3853 
L 534 3428 
L 534 3950 
L 2188 4575 
L 2278 4575 
z
" transform="scale(0.015625)"/>
       </defs>
       <use xlink:href="#Roboto-Regular-31"/>
       <use xlink:href="#Roboto-Regular-30" transform="translate(56.201172 0)"/>
      </g>
     </g>
    </g>
    <g id="xtick_11">
     <g id="line2d_28">
      <path d="M 296.047042 777.2325 
L 296.047042 427.01625 
" clip-path="url(#p111ef5f9cb)" style="fill: none; stroke: #cccccc; stroke-width: 0.8; stroke-linecap: round"/>
     </g>
     <g id="text_14">
      <!-- 20 -->
      <g style="fill: #262626" transform="translate(286.155292 798.7325) scale(0.176 -0.176)">
       <use xlink:href="#Roboto-Regular-32"/>
       <use xlink:href="#Roboto-Regular-30" transform="translate(56.201172 0)"/>
      </g>
     </g>
    </g>
    <g id="xtick_12">
     <g id="line2d_29">
      <path d="M 391.376108 777.2325 
L 391.376108 427.01625 
" clip-path="url(#p111ef5f9cb)" style="fill: none; stroke: #cccccc; stroke-width: 0.8; stroke-linecap: round"/>
     </g>
     <g id="text_15">
      <!-- 30 -->
      <g style="fill: #262626" transform="translate(381.484358 798.7325) scale(0.176 -0.176)">
       <defs>
        <path id="Roboto-Regular-33" d="M 1222 2084 
L 1222 2559 
L 1647 2559 
Q 2094 2563 2312 2784 
Q 2531 3006 2531 3338 
Q 2531 4138 1738 4138 
Q 1369 4138 1141 3927 
Q 913 3716 913 3359 
L 334 3359 
Q 334 3881 720 4247 
Q 1106 4613 1738 4613 
Q 2353 4613 2733 4286 
Q 3113 3959 3113 3325 
Q 3113 3072 2942 2784 
Q 2772 2497 2397 2338 
Q 2850 2191 3015 1884 
Q 3181 1578 3181 1269 
Q 3181 631 2768 284 
Q 2356 -63 1741 -63 
Q 1147 -63 722 267 
Q 297 597 297 1203 
L 875 1203 
Q 875 844 1108 628 
Q 1341 413 1741 413 
Q 2138 413 2369 622 
Q 2600 831 2600 1256 
Q 2600 1681 2337 1882 
Q 2075 2084 1634 2084 
L 1222 2084 
z
" transform="scale(0.015625)"/>
       </defs>
       <use xlink:href="#Roboto-Regular-33"/>
       <use xlink:href="#Roboto-Regular-30" transform="translate(56.201172 0)"/>
      </g>
     </g>
    </g>
    <g id="xtick_13">
     <g id="line2d_30">
      <path d="M 486.705173 777.2325 
L 486.705173 427.01625 
" clip-path="url(#p111ef5f9cb)" style="fill: none; stroke: #cccccc; stroke-width: 0.8; stroke-linecap: round"/>
     </g>
     <g id="text_16">
      <!-- 40 -->
      <g style="fill: #262626" transform="translate(476.813423 798.7325) scale(0.176 -0.176)">
       <use xlink:href="#Roboto-Regular-34"/>
       <use xlink:href="#Roboto-Regular-30" transform="translate(56.201172 0)"/>
      </g>
     </g>
    </g>
    <g id="xtick_14">
     <g id="line2d_31">
      <path d="M 582.034238 777.2325 
L 582.034238 427.01625 
" clip-path="url(#p111ef5f9cb)" style="fill: none; stroke: #cccccc; stroke-width: 0.8; stroke-linecap: round"/>
     </g>
     <g id="text_17">
      <!-- 50 -->
      <g style="fill: #262626" transform="translate(572.142488 798.7325) scale(0.176 -0.176)">
       <defs>
        <path id="Roboto-Regular-35" d="M 1109 2166 
L 647 2284 
L 875 4550 
L 3209 4550 
L 3209 4016 
L 1366 4016 
L 1228 2778 
Q 1572 2975 1988 2975 
Q 2616 2975 2980 2561 
Q 3344 2147 3344 1450 
Q 3344 797 2987 367 
Q 2631 -63 1903 -63 
Q 1350 -63 947 248 
Q 544 559 481 1197 
L 1031 1197 
Q 1141 413 1903 413 
Q 2313 413 2538 691 
Q 2763 969 2763 1444 
Q 2763 1872 2527 2164 
Q 2291 2456 1853 2456 
Q 1563 2456 1413 2378 
Q 1263 2300 1109 2166 
z
" transform="scale(0.015625)"/>
       </defs>
       <use xlink:href="#Roboto-Regular-35"/>
       <use xlink:href="#Roboto-Regular-30" transform="translate(56.201172 0)"/>
      </g>
     </g>
    </g>
    <g id="xtick_15">
     <g id="line2d_32">
      <path d="M 677.363303 777.2325 
L 677.363303 427.01625 
" clip-path="url(#p111ef5f9cb)" style="fill: none; stroke: #cccccc; stroke-width: 0.8; stroke-linecap: round"/>
     </g>
     <g id="text_18">
      <!-- 60 -->
      <g style="fill: #262626" transform="translate(667.471553 798.7325) scale(0.176 -0.176)">
       <use xlink:href="#Roboto-Regular-36"/>
       <use xlink:href="#Roboto-Regular-30" transform="translate(56.201172 0)"/>
      </g>
     </g>
    </g>
    <g id="xtick_16">
     <g id="line2d_33">
      <path d="M 772.692369 777.2325 
L 772.692369 427.01625 
" clip-path="url(#p111ef5f9cb)" style="fill: none; stroke: #cccccc; stroke-width: 0.8; stroke-linecap: round"/>
     </g>
     <g id="text_19">
      <!-- 70 -->
      <g style="fill: #262626" transform="translate(762.800619 798.7325) scale(0.176 -0.176)">
       <defs>
        <path id="Roboto-Regular-37" d="M 3319 4550 
L 3319 4225 
L 1434 0 
L 825 0 
L 2706 4075 
L 244 4075 
L 244 4550 
L 3319 4550 
z
" transform="scale(0.015625)"/>
       </defs>
       <use xlink:href="#Roboto-Regular-37"/>
       <use xlink:href="#Roboto-Regular-30" transform="translate(56.201172 0)"/>
      </g>
     </g>
    </g>
    <g id="text_20">
     <!-- Prediction Horizon $[h]$ -->
     <g style="fill: #262626" transform="translate(358.108 820.7075) scale(0.192 -0.192)">
      <defs>
       <path id="Roboto-Regular-64" d="M 2622 0 
L 2594 363 
Q 2247 -63 1628 -63 
Q 1034 -63 668 418 
Q 303 900 297 1628 
L 297 1719 
Q 297 2494 664 2969 
Q 1031 3444 1634 3444 
Q 2231 3444 2572 3044 
L 2572 4800 
L 3153 4800 
L 3153 0 
L 2622 0 
z
M 878 1653 
Q 878 1150 1090 789 
Q 1303 428 1772 428 
Q 2309 428 2572 919 
L 2572 2475 
Q 2313 2956 1778 2956 
Q 1306 2956 1092 2589 
Q 878 2222 878 1719 
L 878 1653 
z
" transform="scale(0.015625)"/>
       <path id="Roboto-Regular-48" d="M 3425 0 
L 3425 2103 
L 1131 2103 
L 1131 0 
L 528 0 
L 528 4550 
L 1131 4550 
L 1131 2594 
L 3425 2594 
L 3425 4550 
L 4025 4550 
L 4025 0 
L 3425 0 
z
" transform="scale(0.015625)"/>
       <path id="Roboto-Regular-7a" d="M 303 2903 
L 303 3381 
L 2869 3381 
L 2869 2972 
L 988 475 
L 2959 475 
L 2959 0 
L 278 0 
L 278 425 
L 2141 2903 
L 303 2903 
z
" transform="scale(0.015625)"/>
       <path id="DejaVuSans-5b" d="M 550 4863 
L 1875 4863 
L 1875 4416 
L 1125 4416 
L 1125 -397 
L 1875 -397 
L 1875 -844 
L 550 -844 
L 550 4863 
z
" transform="scale(0.015625)"/>
       <path id="DejaVuSans-Oblique-68" d="M 3566 2113 
L 3156 0 
L 2578 0 
L 2988 2091 
Q 3016 2238 3031 2350 
Q 3047 2463 3047 2528 
Q 3047 2791 2881 2937 
Q 2716 3084 2419 3084 
Q 1956 3084 1617 2771 
Q 1278 2459 1178 1941 
L 800 0 
L 225 0 
L 1172 4863 
L 1747 4863 
L 1375 2950 
Q 1594 3244 1934 3414 
Q 2275 3584 2650 3584 
Q 3113 3584 3367 3334 
Q 3622 3084 3622 2631 
Q 3622 2519 3608 2391 
Q 3594 2263 3566 2113 
z
" transform="scale(0.015625)"/>
       <path id="DejaVuSans-5d" d="M 1947 4863 
L 1947 -844 
L 622 -844 
L 622 -397 
L 1369 -397 
L 1369 4416 
L 622 4416 
L 622 4863 
L 1947 4863 
z
" transform="scale(0.015625)"/>
      </defs>
      <use xlink:href="#Roboto-Regular-50" transform="translate(0 0.015625)"/>
      <use xlink:href="#Roboto-Regular-72" transform="translate(63.085938 0.015625)"/>
      <use xlink:href="#Roboto-Regular-65" transform="translate(96.972656 0.015625)"/>
      <use xlink:href="#Roboto-Regular-64" transform="translate(150 0.015625)"/>
      <use xlink:href="#Roboto-Regular-69" transform="translate(206.396484 0.015625)"/>
      <use xlink:href="#Roboto-Regular-63" transform="translate(230.712891 0.015625)"/>
      <use xlink:href="#Roboto-Regular-74" transform="translate(283.056641 0.015625)"/>
      <use xlink:href="#Roboto-Regular-69" transform="translate(315.771484 0.015625)"/>
      <use xlink:href="#Roboto-Regular-6f" transform="translate(340.087891 0.015625)"/>
      <use xlink:href="#Roboto-Regular-6e" transform="translate(397.119141 0.015625)"/>
      <use xlink:href="#Roboto-Regular-20" transform="translate(452.34375 0.015625)"/>
      <use xlink:href="#Roboto-Regular-48" transform="translate(477.148438 0.015625)"/>
      <use xlink:href="#Roboto-Regular-6f" transform="translate(548.486328 0.015625)"/>
      <use xlink:href="#Roboto-Regular-72" transform="translate(605.517578 0.015625)"/>
      <use xlink:href="#Roboto-Regular-69" transform="translate(639.404297 0.015625)"/>
      <use xlink:href="#Roboto-Regular-7a" transform="translate(663.720703 0.015625)"/>
      <use xlink:href="#Roboto-Regular-6f" transform="translate(713.330078 0.015625)"/>
      <use xlink:href="#Roboto-Regular-6e" transform="translate(770.361328 0.015625)"/>
      <use xlink:href="#Roboto-Regular-20" transform="translate(825.585938 0.015625)"/>
      <use xlink:href="#DejaVuSans-5b" transform="translate(850.390625 0.015625)"/>
      <use xlink:href="#DejaVuSans-Oblique-68" transform="translate(889.404297 0.015625)"/>
      <use xlink:href="#DejaVuSans-5d" transform="translate(952.783203 0.015625)"/>
     </g>
    </g>
   </g>
   <g id="matplotlib.axis_4">
    <g id="ytick_6">
     <g id="line2d_34">
      <path d="M 81.08 761.31358 
L 825.6 761.31358 
" clip-path="url(#p111ef5f9cb)" style="fill: none; stroke: #cccccc; stroke-width: 0.8; stroke-linecap: round"/>
     </g>
     <g id="text_21">
      <!-- 0.00 -->
      <g style="fill: #262626" transform="translate(38.46275 767.91358) scale(0.176 -0.176)">
       <use xlink:href="#Roboto-Regular-30"/>
       <use xlink:href="#Roboto-Regular-2e" transform="translate(56.201172 0)"/>
       <use xlink:href="#Roboto-Regular-30" transform="translate(82.568359 0)"/>
       <use xlink:href="#Roboto-Regular-30" transform="translate(138.769531 0)"/>
      </g>
     </g>
    </g>
    <g id="ytick_7">
     <g id="line2d_35">
      <path d="M 81.08 715.18894 
L 825.6 715.18894 
" clip-path="url(#p111ef5f9cb)" style="fill: none; stroke: #cccccc; stroke-width: 0.8; stroke-linecap: round"/>
     </g>
     <g id="text_22">
      <!-- 0.25 -->
      <g style="fill: #262626" transform="translate(38.46275 721.78894) scale(0.176 -0.176)">
       <use xlink:href="#Roboto-Regular-30"/>
       <use xlink:href="#Roboto-Regular-2e" transform="translate(56.201172 0)"/>
       <use xlink:href="#Roboto-Regular-32" transform="translate(82.568359 0)"/>
       <use xlink:href="#Roboto-Regular-35" transform="translate(138.769531 0)"/>
      </g>
     </g>
    </g>
    <g id="ytick_8">
     <g id="line2d_36">
      <path d="M 81.08 669.064301 
L 825.6 669.064301 
" clip-path="url(#p111ef5f9cb)" style="fill: none; stroke: #cccccc; stroke-width: 0.8; stroke-linecap: round"/>
     </g>
     <g id="text_23">
      <!-- 0.50 -->
      <g style="fill: #262626" transform="translate(38.46275 675.664301) scale(0.176 -0.176)">
       <use xlink:href="#Roboto-Regular-30"/>
       <use xlink:href="#Roboto-Regular-2e" transform="translate(56.201172 0)"/>
       <use xlink:href="#Roboto-Regular-35" transform="translate(82.568359 0)"/>
       <use xlink:href="#Roboto-Regular-30" transform="translate(138.769531 0)"/>
      </g>
     </g>
    </g>
    <g id="ytick_9">
     <g id="line2d_37">
      <path d="M 81.08 622.939662 
L 825.6 622.939662 
" clip-path="url(#p111ef5f9cb)" style="fill: none; stroke: #cccccc; stroke-width: 0.8; stroke-linecap: round"/>
     </g>
     <g id="text_24">
      <!-- 0.75 -->
      <g style="fill: #262626" transform="translate(38.46275 629.539662) scale(0.176 -0.176)">
       <use xlink:href="#Roboto-Regular-30"/>
       <use xlink:href="#Roboto-Regular-2e" transform="translate(56.201172 0)"/>
       <use xlink:href="#Roboto-Regular-37" transform="translate(82.568359 0)"/>
       <use xlink:href="#Roboto-Regular-35" transform="translate(138.769531 0)"/>
      </g>
     </g>
    </g>
    <g id="ytick_10">
     <g id="line2d_38">
      <path d="M 81.08 576.815022 
L 825.6 576.815022 
" clip-path="url(#p111ef5f9cb)" style="fill: none; stroke: #cccccc; stroke-width: 0.8; stroke-linecap: round"/>
     </g>
     <g id="text_25">
      <!-- 1.00 -->
      <g style="fill: #262626" transform="translate(38.46275 583.415022) scale(0.176 -0.176)">
       <use xlink:href="#Roboto-Regular-31"/>
       <use xlink:href="#Roboto-Regular-2e" transform="translate(56.201172 0)"/>
       <use xlink:href="#Roboto-Regular-30" transform="translate(82.568359 0)"/>
       <use xlink:href="#Roboto-Regular-30" transform="translate(138.769531 0)"/>
      </g>
     </g>
    </g>
    <g id="ytick_11">
     <g id="line2d_39">
      <path d="M 81.08 530.690383 
L 825.6 530.690383 
" clip-path="url(#p111ef5f9cb)" style="fill: none; stroke: #cccccc; stroke-width: 0.8; stroke-linecap: round"/>
     </g>
     <g id="text_26">
      <!-- 1.25 -->
      <g style="fill: #262626" transform="translate(38.46275 537.290383) scale(0.176 -0.176)">
       <use xlink:href="#Roboto-Regular-31"/>
       <use xlink:href="#Roboto-Regular-2e" transform="translate(56.201172 0)"/>
       <use xlink:href="#Roboto-Regular-32" transform="translate(82.568359 0)"/>
       <use xlink:href="#Roboto-Regular-35" transform="translate(138.769531 0)"/>
      </g>
     </g>
    </g>
    <g id="ytick_12">
     <g id="line2d_40">
      <path d="M 81.08 484.565744 
L 825.6 484.565744 
" clip-path="url(#p111ef5f9cb)" style="fill: none; stroke: #cccccc; stroke-width: 0.8; stroke-linecap: round"/>
     </g>
     <g id="text_27">
      <!-- 1.50 -->
      <g style="fill: #262626" transform="translate(38.46275 491.165744) scale(0.176 -0.176)">
       <use xlink:href="#Roboto-Regular-31"/>
       <use xlink:href="#Roboto-Regular-2e" transform="translate(56.201172 0)"/>
       <use xlink:href="#Roboto-Regular-35" transform="translate(82.568359 0)"/>
       <use xlink:href="#Roboto-Regular-30" transform="translate(138.769531 0)"/>
      </g>
     </g>
    </g>
    <g id="ytick_13">
     <g id="line2d_41">
      <path d="M 81.08 438.441104 
L 825.6 438.441104 
" clip-path="url(#p111ef5f9cb)" style="fill: none; stroke: #cccccc; stroke-width: 0.8; stroke-linecap: round"/>
     </g>
     <g id="text_28">
      <!-- 1.75 -->
      <g style="fill: #262626" transform="translate(38.46275 445.041104) scale(0.176 -0.176)">
       <use xlink:href="#Roboto-Regular-31"/>
       <use xlink:href="#Roboto-Regular-2e" transform="translate(56.201172 0)"/>
       <use xlink:href="#Roboto-Regular-37" transform="translate(82.568359 0)"/>
       <use xlink:href="#Roboto-Regular-35" transform="translate(138.769531 0)"/>
      </g>
     </g>
    </g>
   </g>
   <g id="line2d_42">
    <path d="M 114.921818 712.459865 
L 124.454725 710.653588 
L 133.987631 711.487426 
L 143.520538 711.621935 
L 153.053444 712.429503 
L 162.586351 712.202964 
L 172.119257 719.034459 
L 181.652164 721.935674 
L 191.18507 724.931727 
L 200.717977 690.746455 
L 210.250883 583.013113 
L 219.78379 578.795712 
L 229.316697 579.425868 
L 238.849603 584.494473 
L 248.38251 635.889702 
L 257.915416 727.475244 
L 267.448323 728.546032 
L 276.981229 729.564286 
L 286.514136 726.435418 
L 296.047042 725.697339 
L 305.579949 720.610528 
L 315.112855 719.908341 
L 324.645762 721.280549 
L 334.178668 720.695331 
L 343.711575 715.831823 
L 353.244481 713.614992 
L 362.777388 708.783178 
L 372.310294 709.55517 
L 381.843201 707.814891 
L 391.376108 709.66069 
L 400.909014 717.691994 
L 410.441921 721.352493 
L 419.974827 724.571704 
L 429.507734 714.208645 
L 439.04064 601.099016 
L 448.573547 581.332584 
L 458.106453 577.630488 
L 467.63936 588.60172 
L 477.172266 672.445771 
L 486.705173 725.13081 
L 496.238079 722.304157 
L 505.770986 718.397406 
L 515.303892 715.394981 
L 524.836799 711.034787 
L 534.369706 724.768031 
L 543.902612 720.623942 
L 553.435519 725.240113 
L 562.968425 720.455097 
L 572.501332 720.633888 
L 582.034238 720.09933 
L 591.567145 717.093004 
L 601.100051 716.89646 
L 610.632958 718.914322 
L 620.165864 718.497007 
L 629.698771 720.109974 
L 639.231677 721.181184 
L 648.764584 724.736829 
L 658.29749 673.739831 
L 667.830397 586.624387 
L 677.363303 576.849438 
L 686.89621 573.024319 
L 696.429117 577.903709 
L 705.962023 579.09939 
L 715.49493 707.382205 
L 725.027836 722.497968 
L 734.560743 722.6389 
L 744.093649 720.907673 
L 753.626556 719.205264 
L 763.159462 725.05341 
L 772.692369 721.916417 
L 782.225275 722.255913 
L 791.758182 723.597319 
" clip-path="url(#p111ef5f9cb)" style="fill: none; stroke-dasharray: 1.2,1.98; stroke-dashoffset: 0; stroke: #4c72b0; stroke-width: 1.2"/>
   </g>
   <g id="line2d_43">
    <path d="M 114.921818 761.31358 
L 124.454725 761.31358 
L 133.987631 761.31358 
L 143.520538 761.31358 
L 153.053444 761.31358 
L 162.586351 761.31358 
L 172.119257 761.31358 
L 181.652164 761.31358 
L 191.18507 761.31358 
L 200.717977 707.385567 
L 210.250883 608.127413 
L 219.78379 488.166196 
L 229.316697 460.917505 
L 238.849603 442.93517 
L 248.38251 528.121161 
L 257.915416 646.704655 
L 267.448323 681.241324 
L 276.981229 757.6364 
L 286.514136 761.31358 
L 296.047042 761.31358 
L 305.579949 759.122894 
L 315.112855 761.31358 
L 324.645762 761.31358 
L 334.178668 761.31358 
L 343.711575 761.31358 
L 353.244481 751.431816 
L 362.777388 749.425583 
L 372.310294 758.154319 
L 381.843201 759.55662 
L 391.376108 761.31358 
L 400.909014 761.31358 
L 410.441921 761.31358 
L 419.974827 753.848983 
L 429.507734 695.178291 
L 439.04064 610.068312 
L 448.573547 539.726792 
L 458.106453 503.927099 
L 467.63936 491.112328 
L 477.172266 560.758477 
L 486.705173 645.457202 
L 496.238079 678.558459 
L 505.770986 741.073989 
L 515.303892 761.31358 
L 524.836799 749.249071 
L 534.369706 746.816442 
L 543.902612 755.278985 
L 553.435519 761.31358 
L 562.968425 761.31358 
L 572.501332 761.31358 
L 582.034238 761.31358 
L 591.567145 761.31358 
L 601.100051 761.31358 
L 610.632958 761.31358 
L 620.165864 761.31358 
L 629.698771 761.31358 
L 639.231677 761.31358 
L 648.764584 761.31358 
L 658.29749 741.605384 
L 667.830397 684.067353 
L 677.363303 654.583435 
L 686.89621 649.339188 
L 696.429117 648.304901 
L 705.962023 680.374938 
L 715.49493 724.349972 
L 725.027836 733.897741 
L 734.560743 760.522758 
L 744.093649 761.31358 
L 753.626556 761.31358 
L 763.159462 758.756711 
L 772.692369 761.31358 
L 782.225275 761.31358 
L 791.758182 761.31358 
" clip-path="url(#p111ef5f9cb)" style="fill: none; stroke: #dd8452; stroke-width: 1.2; stroke-linecap: round"/>
   </g>
   <g id="line2d_44">
    <path d="M 114.921818 761.31358 
L 124.454725 761.31358 
L 133.987631 761.31358 
L 143.520538 761.31358 
L 153.053444 761.31358 
L 162.586351 761.31358 
L 172.119257 761.31358 
L 181.652164 761.31358 
L 191.18507 761.31358 
L 200.717977 761.31358 
L 210.250883 761.31358 
L 219.78379 761.31358 
L 229.316697 761.31358 
L 238.849603 761.31358 
L 248.38251 761.31358 
L 257.915416 761.31358 
L 267.448323 761.31358 
L 276.981229 761.31358 
L 286.514136 761.31358 
L 296.047042 761.31358 
L 305.579949 761.31358 
L 315.112855 761.31358 
L 324.645762 761.31358 
L 334.178668 761.31358 
L 343.711575 761.31358 
L 353.244481 761.31358 
L 362.777388 761.31358 
L 372.310294 761.31358 
L 381.843201 761.31358 
L 391.376108 761.31358 
L 400.909014 761.31358 
L 410.441921 761.31358 
L 419.974827 761.31358 
L 429.507734 761.31358 
L 439.04064 761.31358 
L 448.573547 761.31358 
L 458.106453 761.31358 
L 467.63936 761.31358 
L 477.172266 761.31358 
L 486.705173 761.31358 
L 496.238079 761.31358 
L 505.770986 761.31358 
L 515.303892 761.31358 
L 524.836799 761.31358 
L 534.369706 761.31358 
L 543.902612 761.31358 
L 553.435519 761.31358 
L 562.968425 761.31358 
L 572.501332 761.31358 
L 582.034238 761.31358 
L 591.567145 761.31358 
L 601.100051 761.31358 
L 610.632958 761.31358 
L 620.165864 761.31358 
L 629.698771 761.31358 
L 639.231677 761.31358 
L 648.764584 761.31358 
L 658.29749 761.31358 
L 667.830397 761.31358 
L 677.363303 761.31358 
L 686.89621 761.31358 
L 696.429117 761.31358 
L 705.962023 761.31358 
L 715.49493 761.31358 
L 725.027836 761.31358 
L 734.560743 761.31358 
L 744.093649 761.31358 
L 753.626556 761.31358 
L 763.159462 761.31358 
L 772.692369 761.31358 
L 782.225275 761.31358 
L 791.758182 761.31358 
" clip-path="url(#p111ef5f9cb)" style="fill: none; stroke: #55a868; stroke-width: 1.2; stroke-linecap: round"/>
   </g>
   <g id="line2d_45">
    <path d="M 114.921818 760.880711 
L 124.454725 761.31358 
L 133.987631 761.31358 
L 143.520538 761.31358 
L 153.053444 761.31358 
L 162.586351 761.31358 
L 172.119257 761.31358 
L 181.652164 761.31358 
L 191.18507 761.31358 
L 200.717977 751.826509 
L 210.250883 733.607187 
L 219.78379 710.048076 
L 229.316697 723.273911 
L 238.849603 750.541846 
L 248.38251 756.487898 
L 257.915416 761.31358 
L 267.448323 761.31358 
L 276.981229 761.31358 
L 286.514136 761.31358 
L 296.047042 761.31358 
L 305.579949 761.31358 
L 315.112855 761.31358 
L 324.645762 761.31358 
L 334.178668 761.31358 
L 343.711575 761.31358 
L 353.244481 761.31358 
L 362.777388 761.31358 
L 372.310294 761.31358 
L 381.843201 761.31358 
L 391.376108 761.31358 
L 400.909014 761.31358 
L 410.441921 761.31358 
L 419.974827 761.31358 
L 429.507734 758.947233 
L 439.04064 750.194142 
L 448.573547 733.465164 
L 458.106453 728.821151 
L 467.63936 749.419719 
L 477.172266 753.214016 
L 486.705173 761.31358 
L 496.238079 761.31358 
L 505.770986 761.31358 
L 515.303892 761.31358 
L 524.836799 761.31358 
L 534.369706 761.31358 
L 543.902612 761.31358 
L 553.435519 761.31358 
L 562.968425 761.31358 
L 572.501332 761.31358 
L 582.034238 761.31358 
L 591.567145 761.31358 
L 601.100051 761.31358 
L 610.632958 761.31358 
L 620.165864 761.31358 
L 629.698771 761.31358 
L 639.231677 761.31358 
L 648.764584 756.75271 
L 658.29749 724.042093 
L 667.830397 701.310268 
L 677.363303 686.466254 
L 686.89621 680.349112 
L 696.429117 707.851992 
L 705.962023 720.110206 
L 715.49493 750.64 
L 725.027836 759.876464 
L 734.560743 761.31358 
L 744.093649 761.31358 
L 753.626556 761.31358 
L 763.159462 761.31358 
L 772.692369 761.31358 
L 782.225275 761.31358 
L 791.758182 761.31358 
" clip-path="url(#p111ef5f9cb)" style="fill: none; stroke: #c44e52; stroke-width: 1.2; stroke-linecap: round"/>
   </g>
   <g id="line2d_46">
    <path d="M 114.921818 761.31358 
L 124.454725 761.31358 
L 133.987631 761.31358 
L 143.520538 761.31358 
L 153.053444 761.31358 
L 162.586351 761.31358 
L 172.119257 761.31358 
L 181.652164 761.31358 
L 191.18507 761.31358 
L 200.717977 752.697748 
L 210.250883 746.731439 
L 219.78379 735.198212 
L 229.316697 743.694215 
L 238.849603 751.398625 
L 248.38251 759.205698 
L 257.915416 761.31358 
L 267.448323 761.31358 
L 276.981229 761.31358 
L 286.514136 761.31358 
L 296.047042 761.31358 
L 305.579949 761.31358 
L 315.112855 761.31358 
L 324.645762 761.31358 
L 334.178668 761.31358 
L 343.711575 761.31358 
L 353.244481 761.31358 
L 362.777388 761.31358 
L 372.310294 761.31358 
L 381.843201 761.31358 
L 391.376108 761.31358 
L 400.909014 761.31358 
L 410.441921 761.31358 
L 419.974827 761.31358 
L 429.507734 759.071387 
L 439.04064 754.728511 
L 448.573547 747.271568 
L 458.106453 745.680884 
L 467.63936 750.310111 
L 477.172266 758.119971 
L 486.705173 761.31358 
L 496.238079 761.31358 
L 505.770986 761.31358 
L 515.303892 761.31358 
L 524.836799 761.31358 
L 534.369706 761.31358 
L 543.902612 761.31358 
L 553.435519 761.31358 
L 562.968425 761.31358 
L 572.501332 761.31358 
L 582.034238 761.31358 
L 591.567145 761.31358 
L 601.100051 761.31358 
L 610.632958 761.31358 
L 620.165864 761.31358 
L 629.698771 761.31358 
L 639.231677 761.31358 
L 648.764584 759.007806 
L 658.29749 739.139298 
L 667.830397 721.305321 
L 677.363303 714.491518 
L 686.89621 700.127868 
L 696.429117 711.77901 
L 705.962023 734.004642 
L 715.49493 753.604226 
L 725.027836 761.31358 
L 734.560743 761.31358 
L 744.093649 761.31358 
L 753.626556 761.31358 
L 763.159462 761.31358 
L 772.692369 761.31358 
L 782.225275 761.31358 
L 791.758182 761.31358 
" clip-path="url(#p111ef5f9cb)" style="fill: none; stroke: #8172b3; stroke-width: 1.2; stroke-linecap: round"/>
   </g>
   <g id="line2d_47">
    <path d="M 114.921818 713.849476 
L 124.454725 714.288321 
L 133.987631 717.514736 
L 143.520538 721.596092 
L 153.053444 727.301048 
L 162.586351 741.208519 
L 172.119257 753.114493 
L 181.652164 759.527525 
L 191.18507 758.878807 
L 200.717977 753.586587 
L 210.250883 747.335141 
L 219.78379 740.660116 
L 229.316697 748.265918 
L 238.849603 753.935525 
L 248.38251 757.403769 
L 257.915416 759.98727 
L 267.448323 761.31358 
L 276.981229 761.31358 
L 286.514136 761.006407 
L 296.047042 760.613477 
L 305.579949 760.397156 
L 315.112855 760.101046 
L 324.645762 760.085177 
L 334.178668 759.967731 
L 343.711575 760.156297 
L 353.244481 760.16697 
L 362.777388 760.214591 
L 372.310294 760.3896 
L 381.843201 760.433625 
L 391.376108 760.743018 
L 400.909014 761.298393 
L 410.441921 761.31358 
L 419.974827 761.31358 
L 429.507734 761.31358 
L 439.04064 760.722927 
L 448.573547 759.376354 
L 458.106453 759.511685 
L 467.63936 759.972904 
L 477.172266 760.415026 
L 486.705173 761.174617 
L 496.238079 761.31358 
L 505.770986 761.31358 
L 515.303892 761.31358 
L 524.836799 761.31358 
L 534.369706 761.31358 
L 543.902612 761.252297 
L 553.435519 761.228725 
L 562.968425 761.115374 
L 572.501332 760.735964 
L 582.034238 760.457032 
L 591.567145 760.262513 
L 601.100051 760.313411 
L 610.632958 760.544503 
L 620.165864 761.31358 
L 629.698771 761.31358 
L 639.231677 761.31358 
L 648.764584 761.083326 
L 658.29749 754.361463 
L 667.830397 737.871422 
L 677.363303 720.139185 
L 686.89621 710.981439 
L 696.429117 720.95736 
L 705.962023 743.866977 
L 715.49493 755.779612 
L 725.027836 760.398621 
L 734.560743 761.31358 
L 744.093649 760.398382 
L 753.626556 760.15988 
L 763.159462 760.096871 
L 772.692369 759.864751 
L 782.225275 759.789538 
L 791.758182 760.68054 
" clip-path="url(#p111ef5f9cb)" style="fill: none; stroke: #937860; stroke-width: 1.2; stroke-linecap: round"/>
   </g>
   <g id="patch_9">
    <path d="M 81.08 777.2325 
L 81.08 427.01625 
" style="fill: none; stroke: #cccccc; stroke-linejoin: miter; stroke-linecap: square"/>
   </g>
   <g id="patch_10">
    <path d="M 825.6 777.2325 
L 825.6 427.01625 
" style="fill: none; stroke: #cccccc; stroke-linejoin: miter; stroke-linecap: square"/>
   </g>
   <g id="patch_11">
    <path d="M 81.08 777.2325 
L 825.6 777.2325 
" style="fill: none; stroke: #cccccc; stroke-linejoin: miter; stroke-linecap: square"/>
   </g>
   <g id="patch_12">
    <path d="M 81.08 427.01625 
L 825.6 427.01625 
" style="fill: none; stroke: #cccccc; stroke-linejoin: miter; stroke-linecap: square"/>
   </g>
   <g id="legend_2">
    <g id="patch_13">
     <path d="M 570.97475 598.696 
L 813.28 598.696 
Q 816.8 598.696 816.8 595.176 
L 816.8 439.33625 
Q 816.8 435.81625 813.28 435.81625 
L 570.97475 435.81625 
Q 567.45475 435.81625 567.45475 439.33625 
L 567.45475 595.176 
Q 567.45475 598.696 570.97475 598.696 
z
" style="fill: #ffffff; opacity: 0.8; stroke: #cccccc; stroke-width: 0.8; stroke-linejoin: miter"/>
    </g>
    <g id="line2d_48">
     <path d="M 574.49475 450.81475 
L 592.09475 450.81475 
L 609.69475 450.81475 
" style="fill: none; stroke-dasharray: 1.2,1.98; stroke-dashoffset: 0; stroke: #4c72b0; stroke-width: 1.2"/>
    </g>
    <g id="text_29">
     <!-- Reference (Worst Case) -->
     <g style="fill: #262626" transform="translate(623.77475 456.97475) scale(0.176 -0.176)">
      <defs>
       <path id="Roboto-Regular-57" d="M 5541 4550 
L 4441 0 
L 3894 0 
L 2956 3316 
L 2884 3663 
L 2813 3316 
L 1841 0 
L 1294 0 
L 191 4550 
L 791 4550 
L 1509 1438 
L 1600 834 
L 1725 1375 
L 2628 4550 
L 3131 4550 
L 4009 1375 
L 4138 822 
L 4234 1441 
L 4938 4550 
L 5541 4550 
z
" transform="scale(0.015625)"/>
      </defs>
      <use xlink:href="#Roboto-Regular-52"/>
      <use xlink:href="#Roboto-Regular-65" transform="translate(61.621094 0)"/>
      <use xlink:href="#Roboto-Regular-66" transform="translate(114.648438 0)"/>
      <use xlink:href="#Roboto-Regular-65" transform="translate(149.414062 0)"/>
      <use xlink:href="#Roboto-Regular-72" transform="translate(202.441406 0)"/>
      <use xlink:href="#Roboto-Regular-65" transform="translate(236.328125 0)"/>
      <use xlink:href="#Roboto-Regular-6e" transform="translate(289.355469 0)"/>
      <use xlink:href="#Roboto-Regular-63" transform="translate(344.580078 0)"/>
      <use xlink:href="#Roboto-Regular-65" transform="translate(396.923828 0)"/>
      <use xlink:href="#Roboto-Regular-20" transform="translate(449.951172 0)"/>
      <use xlink:href="#Roboto-Regular-28" transform="translate(474.755859 0)"/>
      <use xlink:href="#Roboto-Regular-57" transform="translate(508.984375 0)"/>
      <use xlink:href="#Roboto-Regular-6f" transform="translate(597.705078 0)"/>
      <use xlink:href="#Roboto-Regular-72" transform="translate(654.736328 0)"/>
      <use xlink:href="#Roboto-Regular-73" transform="translate(688.623047 0)"/>
      <use xlink:href="#Roboto-Regular-74" transform="translate(740.234375 0)"/>
      <use xlink:href="#Roboto-Regular-20" transform="translate(772.949219 0)"/>
      <use xlink:href="#Roboto-Regular-43" transform="translate(797.753906 0)"/>
      <use xlink:href="#Roboto-Regular-61" transform="translate(862.841797 0)"/>
      <use xlink:href="#Roboto-Regular-73" transform="translate(917.236328 0)"/>
      <use xlink:href="#Roboto-Regular-65" transform="translate(968.847656 0)"/>
      <use xlink:href="#Roboto-Regular-29" transform="translate(1021.875 0)"/>
     </g>
    </g>
    <g id="line2d_49">
     <path d="M 574.49475 476.8545 
L 592.09475 476.8545 
L 609.69475 476.8545 
" style="fill: none; stroke: #dd8452; stroke-width: 1.2; stroke-linecap: round"/>
    </g>
    <g id="text_30">
     <!-- MSE -->
     <g style="fill: #262626" transform="translate(623.77475 483.0145) scale(0.176 -0.176)">
      <use xlink:href="#Roboto-Regular-4d"/>
      <use xlink:href="#Roboto-Regular-53" transform="translate(87.304688 0)"/>
      <use xlink:href="#Roboto-Regular-45" transform="translate(146.679688 0)"/>
     </g>
    </g>
    <g id="line2d_50">
     <path d="M 574.49475 502.4295 
L 592.09475 502.4295 
L 609.69475 502.4295 
" style="fill: none; stroke: #55a868; stroke-width: 1.2; stroke-linecap: round"/>
    </g>
    <g id="text_31">
     <!-- MAAPE -->
     <g style="fill: #262626" transform="translate(623.77475 508.5895) scale(0.176 -0.176)">
      <use xlink:href="#Roboto-Regular-4d"/>
      <use xlink:href="#Roboto-Regular-41" transform="translate(87.304688 0)"/>
      <use xlink:href="#Roboto-Regular-41" transform="translate(152.539062 0)"/>
      <use xlink:href="#Roboto-Regular-50" transform="translate(217.773438 0)"/>
      <use xlink:href="#Roboto-Regular-45" transform="translate(280.859375 0)"/>
     </g>
    </g>
    <g id="line2d_51">
     <path d="M 574.49475 528.0045 
L 592.09475 528.0045 
L 609.69475 528.0045 
" style="fill: none; stroke: #c44e52; stroke-width: 1.2; stroke-linecap: round"/>
    </g>
    <g id="text_32">
     <!-- MASPE -->
     <g style="fill: #262626" transform="translate(623.77475 534.1645) scale(0.176 -0.176)">
      <use xlink:href="#Roboto-Regular-4d"/>
      <use xlink:href="#Roboto-Regular-41" transform="translate(87.304688 0)"/>
      <use xlink:href="#Roboto-Regular-53" transform="translate(152.539062 0)"/>
      <use xlink:href="#Roboto-Regular-50" transform="translate(211.914062 0)"/>
      <use xlink:href="#Roboto-Regular-45" transform="translate(275 0)"/>
     </g>
    </g>
    <g id="line2d_52">
     <path d="M 574.49475 554.498 
L 592.09475 554.498 
L 609.69475 554.498 
" style="fill: none; stroke: #8172b3; stroke-width: 1.2; stroke-linecap: round"/>
    </g>
    <g id="text_33">
     <!-- SMASPE (tight) -->
     <g style="fill: #262626" transform="translate(623.77475 560.658) scale(0.176 -0.176)">
      <use xlink:href="#Roboto-Regular-53"/>
      <use xlink:href="#Roboto-Regular-4d" transform="translate(59.375 0)"/>
      <use xlink:href="#Roboto-Regular-41" transform="translate(146.679688 0)"/>
      <use xlink:href="#Roboto-Regular-53" transform="translate(211.914062 0)"/>
      <use xlink:href="#Roboto-Regular-50" transform="translate(271.289062 0)"/>
      <use xlink:href="#Roboto-Regular-45" transform="translate(334.375 0)"/>
      <use xlink:href="#Roboto-Regular-20" transform="translate(391.210938 0)"/>
      <use xlink:href="#Roboto-Regular-28" transform="translate(416.015625 0)"/>
      <use xlink:href="#Roboto-Regular-74" transform="translate(450.244141 0)"/>
      <use xlink:href="#Roboto-Regular-69" transform="translate(482.958984 0)"/>
      <use xlink:href="#Roboto-Regular-67" transform="translate(507.275391 0)"/>
      <use xlink:href="#Roboto-Regular-68" transform="translate(563.427734 0)"/>
      <use xlink:href="#Roboto-Regular-74" transform="translate(618.505859 0)"/>
      <use xlink:href="#Roboto-Regular-29" transform="translate(651.220703 0)"/>
     </g>
    </g>
    <g id="line2d_53">
     <path d="M 574.49475 581.45625 
L 592.09475 581.45625 
L 609.69475 581.45625 
" style="fill: none; stroke: #937860; stroke-width: 1.2; stroke-linecap: round"/>
    </g>
    <g id="text_34">
     <!-- SMASPE (loose) -->
     <g style="fill: #262626" transform="translate(623.77475 587.61625) scale(0.176 -0.176)">
      <use xlink:href="#Roboto-Regular-53"/>
      <use xlink:href="#Roboto-Regular-4d" transform="translate(59.375 0)"/>
      <use xlink:href="#Roboto-Regular-41" transform="translate(146.679688 0)"/>
      <use xlink:href="#Roboto-Regular-53" transform="translate(211.914062 0)"/>
      <use xlink:href="#Roboto-Regular-50" transform="translate(271.289062 0)"/>
      <use xlink:href="#Roboto-Regular-45" transform="translate(334.375 0)"/>
      <use xlink:href="#Roboto-Regular-20" transform="translate(391.210938 0)"/>
      <use xlink:href="#Roboto-Regular-28" transform="translate(416.015625 0)"/>
      <use xlink:href="#Roboto-Regular-6c" transform="translate(450.244141 0)"/>
      <use xlink:href="#Roboto-Regular-6f" transform="translate(474.560547 0)"/>
      <use xlink:href="#Roboto-Regular-6f" transform="translate(531.591797 0)"/>
      <use xlink:href="#Roboto-Regular-73" transform="translate(588.623047 0)"/>
      <use xlink:href="#Roboto-Regular-65" transform="translate(640.234375 0)"/>
      <use xlink:href="#Roboto-Regular-29" transform="translate(693.261719 0)"/>
     </g>
    </g>
   </g>
  </g>
 </g>
 <defs>
  <clipPath id="p7d1fdc9cfd">
   <rect x="81.08" y="38.4" width="744.52" height="350.21625"/>
  </clipPath>
  <clipPath id="p111ef5f9cb">
   <rect x="81.08" y="427.01625" width="744.52" height="350.21625"/>
  </clipPath>
 </defs>
</svg>
