<?xml version="1.0" encoding="utf-8" standalone="no"?>
<!DOCTYPE svg PUBLIC "-//W3C//DTD SVG 1.1//EN"
  "http://www.w3.org/Graphics/SVG/1.1/DTD/svg11.dtd">
<svg xmlns:xlink="http://www.w3.org/1999/xlink" width="864pt" height="864pt" viewBox="0 0 864 864" xmlns="http://www.w3.org/2000/svg" version="1.1">
 <metadata>
  <rdf:RDF xmlns:dc="http://purl.org/dc/elements/1.1/" xmlns:cc="http://creativecommons.org/ns#" xmlns:rdf="http://www.w3.org/1999/02/22-rdf-syntax-ns#">
   <cc:Work>
    <dc:type rdf:resource="http://purl.org/dc/dcmitype/StillImage"/>
    <dc:date>2025-05-07T18:13:05.480059</dc:date>
    <dc:format>image/svg+xml</dc:format>
    <dc:creator>
     <cc:Agent>
      <dc:title>Matplotlib v3.10.1, https://matplotlib.org/</dc:title>
     </cc:Agent>
    </dc:creator>
   </cc:Work>
  </rdf:RDF>
 </metadata>
 <defs>
  <style type="text/css">*{stroke-linejoin: round; stroke-linecap: butt}</style>
 </defs>
 <g id="figure_1">
  <g id="patch_1">
   <path d="M 0 864 
L 864 864 
L 864 0 
L 0 0 
z
" style="fill: #ffffff"/>
  </g>
  <g id="axes_1">
   <g id="patch_2">
    <path d="M 71.18 388.61625 
L 825.6 388.61625 
L 825.6 38.4 
L 71.18 38.4 
z
" style="fill: #ffffff"/>
   </g>
   <g id="matplotlib.axis_1">
    <g id="xtick_1">
     <g id="line2d_1">
      <path d="M 95.812151 388.61625 
L 95.812151 38.4 
" clip-path="url(#p239be72f17)" style="fill: none; stroke: #cccccc; stroke-width: 0.8; stroke-linecap: round"/>
     </g>
    </g>
    <g id="xtick_2">
     <g id="line2d_2">
      <path d="M 192.408822 388.61625 
L 192.408822 38.4 
" clip-path="url(#p239be72f17)" style="fill: none; stroke: #cccccc; stroke-width: 0.8; stroke-linecap: round"/>
     </g>
    </g>
    <g id="xtick_3">
     <g id="line2d_3">
      <path d="M 289.005493 388.61625 
L 289.005493 38.4 
" clip-path="url(#p239be72f17)" style="fill: none; stroke: #cccccc; stroke-width: 0.8; stroke-linecap: round"/>
     </g>
    </g>
    <g id="xtick_4">
     <g id="line2d_4">
      <path d="M 385.602164 388.61625 
L 385.602164 38.4 
" clip-path="url(#p239be72f17)" style="fill: none; stroke: #cccccc; stroke-width: 0.8; stroke-linecap: round"/>
     </g>
    </g>
    <g id="xtick_5">
     <g id="line2d_5">
      <path d="M 482.198835 388.61625 
L 482.198835 38.4 
" clip-path="url(#p239be72f17)" style="fill: none; stroke: #cccccc; stroke-width: 0.8; stroke-linecap: round"/>
     </g>
    </g>
    <g id="xtick_6">
     <g id="line2d_6">
      <path d="M 578.795506 388.61625 
L 578.795506 38.4 
" clip-path="url(#p239be72f17)" style="fill: none; stroke: #cccccc; stroke-width: 0.8; stroke-linecap: round"/>
     </g>
    </g>
    <g id="xtick_7">
     <g id="line2d_7">
      <path d="M 675.392177 388.61625 
L 675.392177 38.4 
" clip-path="url(#p239be72f17)" style="fill: none; stroke: #cccccc; stroke-width: 0.8; stroke-linecap: round"/>
     </g>
    </g>
    <g id="xtick_8">
     <g id="line2d_8">
      <path d="M 771.988848 388.61625 
L 771.988848 38.4 
" clip-path="url(#p239be72f17)" style="fill: none; stroke: #cccccc; stroke-width: 0.8; stroke-linecap: round"/>
     </g>
    </g>
   </g>
   <g id="matplotlib.axis_2">
    <g id="ytick_1">
     <g id="line2d_9">
      <path d="M 71.18 372.69733 
L 825.6 372.69733 
" clip-path="url(#p239be72f17)" style="fill: none; stroke: #cccccc; stroke-width: 0.8; stroke-linecap: round"/>
     </g>
     <g id="text_1">
      <!-- 0.0 -->
      <g style="fill: #262626" transform="translate(38.4545 379.29733) scale(0.176 -0.176)">
       <defs>
        <path id="Roboto-Regular-30" d="M 3234 1944 
Q 3234 825 2848 381 
Q 2463 -63 1800 -63 
Q 1156 -63 764 368 
Q 372 800 359 1872 
L 359 2638 
Q 359 3753 750 4183 
Q 1141 4613 1794 4613 
Q 2447 4613 2834 4195 
Q 3222 3778 3234 2709 
L 3234 1944 
z
M 2653 2734 
Q 2653 3503 2434 3822 
Q 2216 4141 1794 4141 
Q 1388 4141 1167 3831 
Q 947 3522 941 2778 
L 941 1850 
Q 941 1088 1164 750 
Q 1388 413 1800 413 
Q 2222 413 2436 745 
Q 2650 1078 2653 1825 
L 2653 2734 
z
" transform="scale(0.015625)"/>
        <path id="Roboto-Regular-2e" d="M 450 306 
Q 450 453 542 554 
Q 634 656 809 656 
Q 984 656 1076 554 
Q 1169 453 1169 306 
Q 1169 163 1076 62 
Q 984 -38 809 -38 
Q 634 -38 542 62 
Q 450 163 450 306 
z
" transform="scale(0.015625)"/>
       </defs>
       <use xlink:href="#Roboto-Regular-30"/>
       <use xlink:href="#Roboto-Regular-2e" transform="translate(56.201172 0)"/>
       <use xlink:href="#Roboto-Regular-30" transform="translate(82.568359 0)"/>
      </g>
     </g>
    </g>
    <g id="ytick_2">
     <g id="line2d_10">
      <path d="M 71.18 319.788863 
L 825.6 319.788863 
" clip-path="url(#p239be72f17)" style="fill: none; stroke: #cccccc; stroke-width: 0.8; stroke-linecap: round"/>
     </g>
     <g id="text_2">
      <!-- 0.1 -->
      <g style="fill: #262626" transform="translate(38.4545 326.388863) scale(0.176 -0.176)">
       <defs>
        <path id="Roboto-Regular-31" d="M 2278 4575 
L 2278 0 
L 1700 0 
L 1700 3853 
L 534 3428 
L 534 3950 
L 2188 4575 
L 2278 4575 
z
" transform="scale(0.015625)"/>
       </defs>
       <use xlink:href="#Roboto-Regular-30"/>
       <use xlink:href="#Roboto-Regular-2e" transform="translate(56.201172 0)"/>
       <use xlink:href="#Roboto-Regular-31" transform="translate(82.568359 0)"/>
      </g>
     </g>
    </g>
    <g id="ytick_3">
     <g id="line2d_11">
      <path d="M 71.18 266.880396 
L 825.6 266.880396 
" clip-path="url(#p239be72f17)" style="fill: none; stroke: #cccccc; stroke-width: 0.8; stroke-linecap: round"/>
     </g>
     <g id="text_3">
      <!-- 0.2 -->
      <g style="fill: #262626" transform="translate(38.4545 273.480396) scale(0.176 -0.176)">
       <defs>
        <path id="Roboto-Regular-32" d="M 3359 475 
L 3359 0 
L 381 0 
L 381 416 
L 1925 2134 
Q 2306 2566 2439 2819 
Q 2572 3072 2572 3328 
Q 2572 3663 2364 3900 
Q 2156 4138 1778 4138 
Q 1322 4138 1097 3878 
Q 872 3619 872 3213 
L 294 3213 
Q 294 3788 672 4200 
Q 1050 4613 1778 4613 
Q 2422 4613 2786 4278 
Q 3150 3944 3150 3397 
Q 3150 2997 2903 2592 
Q 2656 2188 2297 1797 
L 1078 475 
L 3359 475 
z
" transform="scale(0.015625)"/>
       </defs>
       <use xlink:href="#Roboto-Regular-30"/>
       <use xlink:href="#Roboto-Regular-2e" transform="translate(56.201172 0)"/>
       <use xlink:href="#Roboto-Regular-32" transform="translate(82.568359 0)"/>
      </g>
     </g>
    </g>
    <g id="ytick_4">
     <g id="line2d_12">
      <path d="M 71.18 213.97193 
L 825.6 213.97193 
" clip-path="url(#p239be72f17)" style="fill: none; stroke: #cccccc; stroke-width: 0.8; stroke-linecap: round"/>
     </g>
     <g id="text_4">
      <!-- 0.3 -->
      <g style="fill: #262626" transform="translate(38.4545 220.57193) scale(0.176 -0.176)">
       <defs>
        <path id="Roboto-Regular-33" d="M 1222 2084 
L 1222 2559 
L 1647 2559 
Q 2094 2563 2312 2784 
Q 2531 3006 2531 3338 
Q 2531 4138 1738 4138 
Q 1369 4138 1141 3927 
Q 913 3716 913 3359 
L 334 3359 
Q 334 3881 720 4247 
Q 1106 4613 1738 4613 
Q 2353 4613 2733 4286 
Q 3113 3959 3113 3325 
Q 3113 3072 2942 2784 
Q 2772 2497 2397 2338 
Q 2850 2191 3015 1884 
Q 3181 1578 3181 1269 
Q 3181 631 2768 284 
Q 2356 -63 1741 -63 
Q 1147 -63 722 267 
Q 297 597 297 1203 
L 875 1203 
Q 875 844 1108 628 
Q 1341 413 1741 413 
Q 2138 413 2369 622 
Q 2600 831 2600 1256 
Q 2600 1681 2337 1882 
Q 2075 2084 1634 2084 
L 1222 2084 
z
" transform="scale(0.015625)"/>
       </defs>
       <use xlink:href="#Roboto-Regular-30"/>
       <use xlink:href="#Roboto-Regular-2e" transform="translate(56.201172 0)"/>
       <use xlink:href="#Roboto-Regular-33" transform="translate(82.568359 0)"/>
      </g>
     </g>
    </g>
    <g id="ytick_5">
     <g id="line2d_13">
      <path d="M 71.18 161.063463 
L 825.6 161.063463 
" clip-path="url(#p239be72f17)" style="fill: none; stroke: #cccccc; stroke-width: 0.8; stroke-linecap: round"/>
     </g>
     <g id="text_5">
      <!-- 0.4 -->
      <g style="fill: #262626" transform="translate(38.4545 167.663463) scale(0.176 -0.176)">
       <defs>
        <path id="Roboto-Regular-34" d="M 166 1397 
L 2203 4550 
L 2819 4550 
L 2819 1531 
L 3453 1531 
L 3453 1056 
L 2819 1056 
L 2819 0 
L 2241 0 
L 2241 1056 
L 166 1056 
L 166 1397 
z
M 822 1531 
L 2241 1531 
L 2241 3766 
L 2169 3638 
L 822 1531 
z
" transform="scale(0.015625)"/>
       </defs>
       <use xlink:href="#Roboto-Regular-30"/>
       <use xlink:href="#Roboto-Regular-2e" transform="translate(56.201172 0)"/>
       <use xlink:href="#Roboto-Regular-34" transform="translate(82.568359 0)"/>
      </g>
     </g>
    </g>
    <g id="ytick_6">
     <g id="line2d_14">
      <path d="M 71.18 108.154997 
L 825.6 108.154997 
" clip-path="url(#p239be72f17)" style="fill: none; stroke: #cccccc; stroke-width: 0.8; stroke-linecap: round"/>
     </g>
     <g id="text_6">
      <!-- 0.5 -->
      <g style="fill: #262626" transform="translate(38.4545 114.754997) scale(0.176 -0.176)">
       <defs>
        <path id="Roboto-Regular-35" d="M 1109 2166 
L 647 2284 
L 875 4550 
L 3209 4550 
L 3209 4016 
L 1366 4016 
L 1228 2778 
Q 1572 2975 1988 2975 
Q 2616 2975 2980 2561 
Q 3344 2147 3344 1450 
Q 3344 797 2987 367 
Q 2631 -63 1903 -63 
Q 1350 -63 947 248 
Q 544 559 481 1197 
L 1031 1197 
Q 1141 413 1903 413 
Q 2313 413 2538 691 
Q 2763 969 2763 1444 
Q 2763 1872 2527 2164 
Q 2291 2456 1853 2456 
Q 1563 2456 1413 2378 
Q 1263 2300 1109 2166 
z
" transform="scale(0.015625)"/>
       </defs>
       <use xlink:href="#Roboto-Regular-30"/>
       <use xlink:href="#Roboto-Regular-2e" transform="translate(56.201172 0)"/>
       <use xlink:href="#Roboto-Regular-35" transform="translate(82.568359 0)"/>
      </g>
     </g>
    </g>
    <g id="ytick_7">
     <g id="line2d_15">
      <path d="M 71.18 55.24653 
L 825.6 55.24653 
" clip-path="url(#p239be72f17)" style="fill: none; stroke: #cccccc; stroke-width: 0.8; stroke-linecap: round"/>
     </g>
     <g id="text_7">
      <!-- 0.6 -->
      <g style="fill: #262626" transform="translate(38.4545 61.84653) scale(0.176 -0.176)">
       <defs>
        <path id="Roboto-Regular-36" d="M 3291 1484 
Q 3291 838 2930 387 
Q 2569 -63 1878 -63 
Q 1388 -63 1063 198 
Q 738 459 577 861 
Q 416 1263 416 1684 
L 416 1956 
Q 416 2597 595 3194 
Q 775 3791 1247 4173 
Q 1719 4556 2597 4556 
L 2647 4556 
L 2647 4066 
Q 2041 4066 1705 3853 
Q 1369 3641 1205 3302 
Q 1041 2963 1006 2575 
Q 1369 2984 1984 2984 
Q 2438 2984 2727 2765 
Q 3016 2547 3153 2201 
Q 3291 1856 3291 1484 
z
M 997 1666 
Q 997 1059 1267 737 
Q 1538 416 1878 416 
Q 2278 416 2498 708 
Q 2719 1000 2719 1456 
Q 2719 1863 2516 2184 
Q 2313 2506 1891 2506 
Q 1588 2506 1341 2325 
Q 1094 2144 997 1884 
L 997 1666 
z
" transform="scale(0.015625)"/>
       </defs>
       <use xlink:href="#Roboto-Regular-30"/>
       <use xlink:href="#Roboto-Regular-2e" transform="translate(56.201172 0)"/>
       <use xlink:href="#Roboto-Regular-36" transform="translate(82.568359 0)"/>
      </g>
     </g>
    </g>
   </g>
   <g id="line2d_16">
    <path d="M 105.471818 371.170746 
L 115.131485 371.177078 
L 124.791152 371.17664 
L 134.450819 371.123865 
L 144.110487 371.151982 
L 153.770154 371.170279 
L 163.429821 371.414438 
L 173.089488 371.515712 
L 182.749155 370.280703 
L 192.408822 368.182233 
L 202.068489 358.150535 
L 211.728156 328.32178 
L 221.387823 294.494801 
L 231.04749 350.762536 
L 240.707157 367.564232 
L 250.366825 371.004807 
L 260.026492 371.77689 
L 269.686159 371.421499 
L 279.345826 371.363981 
L 289.005493 371.315646 
L 298.66516 371.587506 
L 308.324827 371.503588 
L 317.984494 371.542579 
L 327.644161 371.411309 
L 337.303828 371.341979 
L 346.963496 371.284438 
L 356.623163 371.317226 
L 366.28283 371.342646 
L 375.942497 371.398688 
L 385.602164 371.436138 
L 395.261831 371.670977 
L 404.921498 371.787856 
L 414.581165 369.658682 
L 424.240832 365.164317 
L 433.900499 325.245216 
L 443.560166 315.814865 
L 453.219834 306.406416 
L 462.879501 350.615783 
L 472.539168 368.081223 
L 482.198835 371.331976 
L 491.858502 371.288633 
L 501.518169 371.117285 
L 511.177836 371.026341 
L 520.837503 371.015694 
L 530.49717 371.003016 
L 540.156837 371.157274 
L 549.816504 371.220818 
L 559.476172 371.148412 
L 569.135839 371.150933 
L 578.795506 370.999751 
L 588.455173 370.929878 
L 598.11484 370.973897 
L 607.774507 370.923552 
L 617.434174 370.998079 
L 627.093841 371.216328 
L 636.753508 371.254835 
L 646.413175 371.228447 
L 656.072843 368.487741 
L 665.73251 367.819226 
L 675.392177 364.326073 
L 685.051844 364.871045 
L 694.711511 368.420438 
L 704.371178 368.759293 
L 714.030845 371.707149 
L 723.690512 371.673264 
L 733.350179 371.208475 
L 743.009846 371.458254 
L 752.669513 371.476625 
L 762.329181 371.504389 
L 771.988848 371.545467 
L 781.648515 371.477551 
L 791.308182 371.342306 
" clip-path="url(#p239be72f17)" style="fill: none; stroke-dasharray: 1.2,1.98; stroke-dashoffset: 0; stroke: #4c72b0; stroke-width: 1.2"/>
   </g>
   <g id="line2d_17">
    <path d="M 105.471818 336.85441 
L 115.131485 336.412876 
L 124.791152 332.748498 
L 134.450819 324.665373 
L 144.110487 320.789043 
L 153.770154 314.649886 
L 163.429821 304.08479 
L 173.089488 279.491705 
L 182.749155 257.462142 
L 192.408822 266.605788 
L 202.068489 260.131877 
L 211.728156 224.823869 
L 221.387823 295.006455 
L 231.04749 278.85468 
L 240.707157 326.374682 
L 250.366825 326.33665 
L 260.026492 329.611149 
L 269.686159 318.203446 
L 279.345826 319.837983 
L 289.005493 325.350365 
L 298.66516 326.299217 
L 308.324827 326.355666 
L 317.984494 330.199451 
L 327.644161 331.376687 
L 337.303828 325.218986 
L 346.963496 328.769046 
L 356.623163 329.436755 
L 366.28283 332.644903 
L 375.942497 331.649788 
L 385.602164 328.933506 
L 395.261831 322.602673 
L 404.921498 317.825425 
L 414.581165 319.533977 
L 424.240832 319.152897 
L 433.900499 316.164429 
L 443.560166 322.469339 
L 453.219834 325.532611 
L 462.879501 320.463656 
L 472.539168 333.710501 
L 482.198835 334.285022 
L 491.858502 331.211691 
L 501.518169 328.77242 
L 511.177836 329.958864 
L 520.837503 331.850829 
L 530.49717 331.757735 
L 540.156837 330.876086 
L 549.816504 332.495612 
L 559.476172 332.15515 
L 569.135839 325.865504 
L 578.795506 328.114739 
L 588.455173 328.541577 
L 598.11484 329.601026 
L 607.774507 325.8451 
L 617.434174 316.565566 
L 627.093841 306.808357 
L 636.753508 305.865938 
L 646.413175 301.36649 
L 656.072843 316.840243 
L 665.73251 306.041814 
L 675.392177 310.631108 
L 685.051844 310.046401 
L 694.711511 277.35294 
L 704.371178 312.192986 
L 714.030845 317.080547 
L 723.690512 316.75106 
L 733.350179 325.875091 
L 743.009846 327.594113 
L 752.669513 328.730856 
L 762.329181 327.898403 
L 771.988848 326.010947 
L 781.648515 325.824129 
L 791.308182 325.803346 
" clip-path="url(#p239be72f17)" style="fill: none; stroke: #dd8452; stroke-width: 1.2; stroke-linecap: round"/>
   </g>
   <g id="line2d_18">
    <path d="M 105.471818 372.69733 
L 115.131485 372.69733 
L 124.791152 372.69733 
L 134.450819 372.69733 
L 144.110487 372.69733 
L 153.770154 372.69733 
L 163.429821 372.69733 
L 173.089488 372.69733 
L 182.749155 372.69733 
L 192.408822 372.69733 
L 202.068489 279.331471 
L 211.728156 340.233214 
L 221.387823 342.946957 
L 231.04749 372.69733 
L 240.707157 372.69733 
L 250.366825 372.69733 
L 260.026492 372.69733 
L 269.686159 372.69733 
L 279.345826 372.69733 
L 289.005493 372.69733 
L 298.66516 372.69733 
L 308.324827 372.69733 
L 317.984494 372.69733 
L 327.644161 372.69733 
L 337.303828 372.69733 
L 346.963496 372.69733 
L 356.623163 372.69733 
L 366.28283 372.69733 
L 375.942497 372.69733 
L 385.602164 372.69733 
L 395.261831 372.69733 
L 404.921498 372.69733 
L 414.581165 372.69733 
L 424.240832 372.69733 
L 433.900499 372.69733 
L 443.560166 372.69733 
L 453.219834 372.69733 
L 462.879501 372.69733 
L 472.539168 372.69733 
L 482.198835 372.69733 
L 491.858502 372.69733 
L 501.518169 372.69733 
L 511.177836 372.69733 
L 520.837503 372.69733 
L 530.49717 372.69733 
L 540.156837 372.69733 
L 549.816504 372.69733 
L 559.476172 372.69733 
L 569.135839 372.69733 
L 578.795506 372.69733 
L 588.455173 372.69733 
L 598.11484 372.69733 
L 607.774507 372.69733 
L 617.434174 372.69733 
L 627.093841 372.69733 
L 636.753508 372.69733 
L 646.413175 372.69733 
L 656.072843 344.068343 
L 665.73251 163.783479 
L 675.392177 83.87828 
L 685.051844 54.31892 
L 694.711511 78.229506 
L 704.371178 105.070911 
L 714.030845 155.171718 
L 723.690512 165.656728 
L 733.350179 347.233065 
L 743.009846 372.69733 
L 752.669513 372.69733 
L 762.329181 372.69733 
L 771.988848 372.69733 
L 781.648515 335.876198 
L 791.308182 285.362839 
" clip-path="url(#p239be72f17)" style="fill: none; stroke: #55a868; stroke-width: 1.2; stroke-linecap: round"/>
   </g>
   <g id="line2d_19">
    <path d="M 105.471818 372.69733 
L 115.131485 372.69733 
L 124.791152 372.69733 
L 134.450819 372.69733 
L 144.110487 372.69733 
L 153.770154 372.69733 
L 163.429821 372.69733 
L 173.089488 372.69733 
L 182.749155 372.69733 
L 192.408822 367.427372 
L 202.068489 359.321961 
L 211.728156 366.654999 
L 221.387823 367.878099 
L 231.04749 372.69733 
L 240.707157 372.69733 
L 250.366825 372.69733 
L 260.026492 372.69733 
L 269.686159 372.69733 
L 279.345826 372.69733 
L 289.005493 372.69733 
L 298.66516 372.69733 
L 308.324827 372.69733 
L 317.984494 372.69733 
L 327.644161 372.69733 
L 337.303828 372.69733 
L 346.963496 372.69733 
L 356.623163 372.69733 
L 366.28283 372.69733 
L 375.942497 372.69733 
L 385.602164 372.69733 
L 395.261831 372.69733 
L 404.921498 372.69733 
L 414.581165 372.69733 
L 424.240832 372.69733 
L 433.900499 372.69733 
L 443.560166 372.69733 
L 453.219834 372.69733 
L 462.879501 372.69733 
L 472.539168 372.69733 
L 482.198835 372.69733 
L 491.858502 372.69733 
L 501.518169 372.69733 
L 511.177836 372.69733 
L 520.837503 372.69733 
L 530.49717 372.69733 
L 540.156837 372.69733 
L 549.816504 372.69733 
L 559.476172 372.69733 
L 569.135839 372.69733 
L 578.795506 372.69733 
L 588.455173 372.69733 
L 598.11484 372.69733 
L 607.774507 372.69733 
L 617.434174 372.69733 
L 627.093841 372.69733 
L 636.753508 372.69733 
L 646.413175 372.69733 
L 656.072843 372.69733 
L 665.73251 371.293351 
L 675.392177 353.818753 
L 685.051844 351.433111 
L 694.711511 372.422224 
L 704.371178 372.69733 
L 714.030845 372.69733 
L 723.690512 372.69733 
L 733.350179 372.69733 
L 743.009846 372.69733 
L 752.669513 372.69733 
L 762.329181 372.69733 
L 771.988848 372.69733 
L 781.648515 372.69733 
L 791.308182 372.69733 
" clip-path="url(#p239be72f17)" style="fill: none; stroke: #c44e52; stroke-width: 1.2; stroke-linecap: round"/>
   </g>
   <g id="line2d_20">
    <path d="M 105.471818 372.69733 
L 115.131485 372.69733 
L 124.791152 372.69733 
L 134.450819 372.69733 
L 144.110487 372.69733 
L 153.770154 372.69733 
L 163.429821 372.69733 
L 173.089488 372.69733 
L 182.749155 372.69733 
L 192.408822 362.659788 
L 202.068489 351.953637 
L 211.728156 358.798925 
L 221.387823 360.028533 
L 231.04749 365.493644 
L 240.707157 372.69733 
L 250.366825 372.69733 
L 260.026492 372.69733 
L 269.686159 372.69733 
L 279.345826 372.69733 
L 289.005493 372.69733 
L 298.66516 372.69733 
L 308.324827 372.69733 
L 317.984494 372.69733 
L 327.644161 372.69733 
L 337.303828 372.69733 
L 346.963496 372.69733 
L 356.623163 372.69733 
L 366.28283 372.69733 
L 375.942497 372.69733 
L 385.602164 372.69733 
L 395.261831 372.69733 
L 404.921498 372.69733 
L 414.581165 372.69733 
L 424.240832 372.69733 
L 433.900499 372.69733 
L 443.560166 372.649135 
L 453.219834 372.69733 
L 462.879501 372.69733 
L 472.539168 372.69733 
L 482.198835 372.69733 
L 491.858502 372.69733 
L 501.518169 372.69733 
L 511.177836 372.69733 
L 520.837503 372.69733 
L 530.49717 372.69733 
L 540.156837 372.69733 
L 549.816504 372.69733 
L 559.476172 372.69733 
L 569.135839 372.69733 
L 578.795506 372.69733 
L 588.455173 372.69733 
L 598.11484 372.69733 
L 607.774507 372.69733 
L 617.434174 372.69733 
L 627.093841 372.69733 
L 636.753508 372.69733 
L 646.413175 372.69733 
L 656.072843 372.69733 
L 665.73251 351.166282 
L 675.392177 306.184017 
L 685.051844 284.100536 
L 694.711511 348.851716 
L 704.371178 372.69733 
L 714.030845 372.69733 
L 723.690512 372.69733 
L 733.350179 372.69733 
L 743.009846 372.69733 
L 752.669513 372.69733 
L 762.329181 372.69733 
L 771.988848 372.69733 
L 781.648515 372.69733 
L 791.308182 372.69733 
" clip-path="url(#p239be72f17)" style="fill: none; stroke: #8172b3; stroke-width: 1.2; stroke-linecap: round"/>
   </g>
   <g id="line2d_21">
    <path d="M 105.471818 372.69733 
L 115.131485 372.69733 
L 124.791152 372.69733 
L 134.450819 372.69733 
L 144.110487 372.69733 
L 153.770154 372.69733 
L 163.429821 372.69733 
L 173.089488 372.69733 
L 182.749155 370.4909 
L 192.408822 339.541754 
L 202.068489 291.832366 
L 211.728156 318.349343 
L 221.387823 303.874146 
L 231.04749 328.313427 
L 240.707157 358.809308 
L 250.366825 367.164903 
L 260.026492 368.301457 
L 269.686159 368.744442 
L 279.345826 370.441641 
L 289.005493 372.059023 
L 298.66516 372.69733 
L 308.324827 372.69733 
L 317.984494 372.69733 
L 327.644161 372.69733 
L 337.303828 371.756373 
L 346.963496 371.600933 
L 356.623163 372.11276 
L 366.28283 372.518375 
L 375.942497 372.485294 
L 385.602164 371.049748 
L 395.261831 368.185405 
L 404.921498 367.565188 
L 414.581165 364.81059 
L 424.240832 358.337468 
L 433.900499 354.158424 
L 443.560166 344.534613 
L 453.219834 344.359368 
L 462.879501 360.477273 
L 472.539168 367.248284 
L 482.198835 371.161606 
L 491.858502 372.105728 
L 501.518169 372.096204 
L 511.177836 372.69733 
L 520.837503 372.69733 
L 530.49717 372.69733 
L 540.156837 372.69733 
L 549.816504 372.69733 
L 559.476172 372.69733 
L 569.135839 372.69733 
L 578.795506 372.69733 
L 588.455173 372.69733 
L 598.11484 372.69733 
L 607.774507 372.69733 
L 617.434174 372.69733 
L 627.093841 372.69733 
L 636.753508 372.69733 
L 646.413175 372.69733 
L 656.072843 372.69733 
L 665.73251 371.312537 
L 675.392177 364.431308 
L 685.051844 349.118766 
L 694.711511 363.765964 
L 704.371178 372.69733 
L 714.030845 372.69733 
L 723.690512 372.69733 
L 733.350179 372.69733 
L 743.009846 372.69733 
L 752.669513 372.69733 
L 762.329181 372.69733 
L 771.988848 372.69733 
L 781.648515 372.69733 
L 791.308182 372.69733 
" clip-path="url(#p239be72f17)" style="fill: none; stroke: #937860; stroke-width: 1.2; stroke-linecap: round"/>
   </g>
   <g id="patch_3">
    <path d="M 71.18 388.61625 
L 71.18 38.4 
" style="fill: none; stroke: #cccccc; stroke-linejoin: miter; stroke-linecap: square"/>
   </g>
   <g id="patch_4">
    <path d="M 825.6 388.61625 
L 825.6 38.4 
" style="fill: none; stroke: #cccccc; stroke-linejoin: miter; stroke-linecap: square"/>
   </g>
   <g id="patch_5">
    <path d="M 71.18 388.61625 
L 825.6 388.61625 
" style="fill: none; stroke: #cccccc; stroke-linejoin: miter; stroke-linecap: square"/>
   </g>
   <g id="patch_6">
    <path d="M 71.18 38.4 
L 825.6 38.4 
" style="fill: none; stroke: #cccccc; stroke-linejoin: miter; stroke-linecap: square"/>
   </g>
   <g id="legend_1">
    <g id="patch_7">
     <path d="M 582.291 210.07975 
L 813.28 210.07975 
Q 816.8 210.07975 816.8 206.55975 
L 816.8 50.72 
Q 816.8 47.2 813.28 47.2 
L 582.291 47.2 
Q 578.771 47.2 578.771 50.72 
L 578.771 206.55975 
Q 578.771 210.07975 582.291 210.07975 
z
" style="fill: #ffffff; opacity: 0.8; stroke: #cccccc; stroke-width: 0.8; stroke-linejoin: miter"/>
    </g>
    <g id="line2d_22">
     <path d="M 585.811 62.1985 
L 603.411 62.1985 
L 621.011 62.1985 
" style="fill: none; stroke-dasharray: 1.2,1.98; stroke-dashoffset: 0; stroke: #4c72b0; stroke-width: 1.2"/>
    </g>
    <g id="text_8">
     <!-- Reference (Best Case) -->
     <g style="fill: #262626" transform="translate(635.091 68.3585) scale(0.176 -0.176)">
      <defs>
       <path id="Roboto-Regular-52" d="M 3188 0 
L 2200 1844 
L 1131 1844 
L 1131 0 
L 528 0 
L 528 4550 
L 2034 4550 
Q 2800 4550 3214 4200 
Q 3628 3850 3628 3184 
Q 3628 2759 3398 2442 
Q 3169 2125 2763 1969 
L 3831 38 
L 3831 0 
L 3188 0 
z
M 1131 4056 
L 1131 2334 
L 2053 2334 
Q 2538 2334 2783 2582 
Q 3028 2831 3028 3184 
Q 3028 3578 2792 3817 
Q 2556 4056 2034 4056 
L 1131 4056 
z
" transform="scale(0.015625)"/>
       <path id="Roboto-Regular-65" d="M 3116 591 
Q 2950 341 2647 139 
Q 2344 -63 1844 -63 
Q 1138 -63 714 396 
Q 291 856 291 1572 
L 291 1703 
Q 291 2256 502 2645 
Q 713 3034 1050 3239 
Q 1388 3444 1769 3444 
Q 2494 3444 2826 2970 
Q 3159 2497 3159 1788 
L 3159 1528 
L 872 1528 
Q 884 1063 1148 736 
Q 1413 409 1875 409 
Q 2181 409 2393 534 
Q 2606 659 2766 869 
L 3116 591 
z
M 1769 2969 
Q 1425 2969 1187 2719 
Q 950 2469 891 2000 
L 2581 2000 
L 2581 2044 
Q 2559 2381 2386 2675 
Q 2213 2969 1769 2969 
z
" transform="scale(0.015625)"/>
       <path id="Roboto-Regular-66" d="M 2022 2938 
L 1303 2938 
L 1303 0 
L 725 0 
L 725 2938 
L 191 2938 
L 191 3381 
L 725 3381 
L 725 3759 
Q 731 4297 1026 4581 
Q 1322 4866 1834 4866 
Q 2025 4866 2234 4816 
L 2203 4344 
Q 2072 4372 1891 4372 
Q 1313 4372 1303 3756 
L 1303 3381 
L 2022 3381 
L 2022 2938 
z
" transform="scale(0.015625)"/>
       <path id="Roboto-Regular-72" d="M 1791 2888 
Q 1225 2888 1019 2400 
L 1019 0 
L 441 0 
L 441 3381 
L 1003 3381 
L 1016 2994 
Q 1294 3444 1819 3444 
Q 1981 3444 2075 3400 
L 2072 2863 
Q 1944 2888 1791 2888 
z
" transform="scale(0.015625)"/>
       <path id="Roboto-Regular-6e" d="M 1844 2956 
Q 1566 2956 1353 2806 
Q 1141 2656 1019 2416 
L 1019 0 
L 441 0 
L 441 3381 
L 988 3381 
L 1006 2959 
Q 1391 3444 2016 3444 
Q 2513 3444 2805 3166 
Q 3097 2888 3100 2231 
L 3100 0 
L 2519 0 
L 2519 2222 
Q 2519 2619 2345 2787 
Q 2172 2956 1844 2956 
z
" transform="scale(0.015625)"/>
       <path id="Roboto-Regular-63" d="M 1794 413 
Q 2103 413 2336 597 
Q 2569 781 2591 1069 
L 3141 1069 
Q 3119 616 2725 276 
Q 2331 -63 1794 -63 
Q 1031 -63 661 440 
Q 291 944 291 1625 
L 291 1756 
Q 291 2438 661 2941 
Q 1031 3444 1794 3444 
Q 2388 3444 2753 3092 
Q 3119 2741 3141 2219 
L 2591 2219 
Q 2569 2531 2355 2750 
Q 2141 2969 1794 2969 
Q 1438 2969 1236 2787 
Q 1034 2606 951 2328 
Q 869 2050 869 1756 
L 869 1625 
Q 869 1328 950 1050 
Q 1031 772 1232 592 
Q 1434 413 1794 413 
z
" transform="scale(0.015625)"/>
       <path id="Roboto-Regular-20" transform="scale(0.015625)"/>
       <path id="Roboto-Regular-28" d="M 419 1850 
Q 419 2756 678 3434 
Q 938 4113 1294 4541 
Q 1650 4969 1947 5134 
L 2069 4753 
Q 1700 4475 1348 3761 
Q 997 3047 997 1813 
Q 997 625 1348 -97 
Q 1700 -819 2069 -1119 
L 1947 -1469 
Q 1650 -1306 1294 -878 
Q 938 -450 678 226 
Q 419 903 419 1850 
z
" transform="scale(0.015625)"/>
       <path id="Roboto-Regular-42" d="M 3625 1313 
Q 3625 675 3214 337 
Q 2803 0 2122 0 
L 528 0 
L 528 4550 
L 2019 4550 
Q 2719 4550 3111 4261 
Q 3503 3972 3503 3338 
Q 3503 3022 3323 2776 
Q 3144 2531 2831 2397 
Q 3216 2291 3420 1994 
Q 3625 1697 3625 1313 
z
M 1131 4056 
L 1131 2613 
L 2038 2613 
Q 2425 2613 2662 2806 
Q 2900 3000 2900 3344 
Q 2900 4041 2056 4056 
L 1131 4056 
z
M 3025 1306 
Q 3025 1688 2817 1908 
Q 2609 2128 2150 2128 
L 1131 2128 
L 1131 491 
L 2122 491 
Q 2550 491 2787 711 
Q 3025 931 3025 1306 
z
" transform="scale(0.015625)"/>
       <path id="Roboto-Regular-73" d="M 2409 897 
Q 2409 1081 2273 1229 
Q 2138 1378 1647 1478 
Q 1081 1594 747 1814 
Q 413 2034 413 2456 
Q 413 2856 755 3150 
Q 1097 3444 1666 3444 
Q 2272 3444 2612 3134 
Q 2953 2825 2953 2388 
L 2375 2388 
Q 2375 2597 2190 2783 
Q 2006 2969 1666 2969 
Q 1306 2969 1150 2812 
Q 994 2656 994 2472 
Q 994 2288 1139 2173 
Q 1284 2059 1756 1953 
Q 2378 1813 2683 1584 
Q 2988 1356 2988 941 
Q 2988 494 2630 215 
Q 2272 -63 1681 -63 
Q 1009 -63 653 281 
Q 297 625 297 1044 
L 878 1044 
Q 897 684 1155 548 
Q 1413 413 1681 413 
Q 2034 413 2221 550 
Q 2409 688 2409 897 
z
" transform="scale(0.015625)"/>
       <path id="Roboto-Regular-74" d="M 1872 0 
Q 1675 -63 1425 -63 
Q 1103 -63 875 134 
Q 647 331 647 841 
L 647 2938 
L 28 2938 
L 28 3381 
L 647 3381 
L 647 4203 
L 1225 4203 
L 1225 3381 
L 1856 3381 
L 1856 2938 
L 1225 2938 
L 1225 838 
Q 1225 578 1337 506 
Q 1450 434 1597 434 
Q 1706 434 1869 472 
L 1872 0 
z
" transform="scale(0.015625)"/>
       <path id="Roboto-Regular-43" d="M 3275 1447 
L 3875 1447 
Q 3806 800 3387 368 
Q 2969 -63 2150 -63 
Q 1356 -63 870 504 
Q 384 1072 375 2013 
L 375 2500 
Q 375 3456 867 4034 
Q 1359 4613 2203 4613 
Q 2975 4613 3390 4188 
Q 3806 3763 3875 3091 
L 3275 3091 
Q 3206 3566 2968 3842 
Q 2731 4119 2203 4119 
Q 1600 4119 1287 3675 
Q 975 3231 975 2506 
L 975 2047 
Q 975 1375 1259 901 
Q 1544 428 2150 428 
Q 2725 428 2961 697 
Q 3197 966 3275 1447 
z
" transform="scale(0.015625)"/>
       <path id="Roboto-Regular-61" d="M 2528 0 
Q 2472 122 2447 356 
Q 2284 184 2040 60 
Q 1797 -63 1484 -63 
Q 966 -63 653 228 
Q 341 519 341 941 
Q 341 1484 753 1767 
Q 1166 2050 1863 2050 
L 2434 2050 
L 2434 2319 
Q 2434 2619 2254 2798 
Q 2075 2978 1722 2978 
Q 1394 2978 1192 2817 
Q 991 2656 991 2444 
L 413 2444 
Q 413 2806 778 3125 
Q 1144 3444 1756 3444 
Q 2306 3444 2659 3162 
Q 3013 2881 3013 2313 
L 3013 794 
Q 3013 325 3131 50 
L 3131 0 
L 2528 0 
z
M 1569 444 
Q 1881 444 2111 600 
Q 2341 756 2434 947 
L 2434 1644 
L 1897 1644 
Q 922 1625 922 1019 
Q 922 778 1084 611 
Q 1247 444 1569 444 
z
" transform="scale(0.015625)"/>
       <path id="Roboto-Regular-29" d="M 1772 1819 
Q 1772 906 1512 228 
Q 1253 -450 895 -878 
Q 538 -1306 244 -1469 
L 122 -1119 
Q 488 -841 841 -109 
Q 1194 622 1194 1856 
Q 1194 2647 1019 3236 
Q 844 3825 594 4212 
Q 344 4600 122 4781 
L 244 5134 
Q 538 4969 895 4541 
Q 1253 4113 1512 3436 
Q 1772 2759 1772 1819 
z
" transform="scale(0.015625)"/>
      </defs>
      <use xlink:href="#Roboto-Regular-52"/>
      <use xlink:href="#Roboto-Regular-65" transform="translate(61.621094 0)"/>
      <use xlink:href="#Roboto-Regular-66" transform="translate(114.648438 0)"/>
      <use xlink:href="#Roboto-Regular-65" transform="translate(149.414062 0)"/>
      <use xlink:href="#Roboto-Regular-72" transform="translate(202.441406 0)"/>
      <use xlink:href="#Roboto-Regular-65" transform="translate(236.328125 0)"/>
      <use xlink:href="#Roboto-Regular-6e" transform="translate(289.355469 0)"/>
      <use xlink:href="#Roboto-Regular-63" transform="translate(344.580078 0)"/>
      <use xlink:href="#Roboto-Regular-65" transform="translate(396.923828 0)"/>
      <use xlink:href="#Roboto-Regular-20" transform="translate(449.951172 0)"/>
      <use xlink:href="#Roboto-Regular-28" transform="translate(474.755859 0)"/>
      <use xlink:href="#Roboto-Regular-42" transform="translate(508.984375 0)"/>
      <use xlink:href="#Roboto-Regular-65" transform="translate(571.289062 0)"/>
      <use xlink:href="#Roboto-Regular-73" transform="translate(624.316406 0)"/>
      <use xlink:href="#Roboto-Regular-74" transform="translate(675.927734 0)"/>
      <use xlink:href="#Roboto-Regular-20" transform="translate(708.642578 0)"/>
      <use xlink:href="#Roboto-Regular-43" transform="translate(733.447266 0)"/>
      <use xlink:href="#Roboto-Regular-61" transform="translate(798.535156 0)"/>
      <use xlink:href="#Roboto-Regular-73" transform="translate(852.929688 0)"/>
      <use xlink:href="#Roboto-Regular-65" transform="translate(904.541016 0)"/>
      <use xlink:href="#Roboto-Regular-29" transform="translate(957.568359 0)"/>
     </g>
    </g>
    <g id="line2d_23">
     <path d="M 585.811 88.23825 
L 603.411 88.23825 
L 621.011 88.23825 
" style="fill: none; stroke: #dd8452; stroke-width: 1.2; stroke-linecap: round"/>
    </g>
    <g id="text_9">
     <!-- MSE -->
     <g style="fill: #262626" transform="translate(635.091 94.39825) scale(0.176 -0.176)">
      <defs>
       <path id="Roboto-Regular-4d" d="M 2794 841 
L 4281 4550 
L 5056 4550 
L 5056 0 
L 4456 0 
L 4456 1775 
L 4516 3678 
L 3019 0 
L 2563 0 
L 1069 3684 
L 1128 1775 
L 1128 0 
L 528 0 
L 528 4550 
L 1303 4550 
L 2794 841 
z
" transform="scale(0.015625)"/>
       <path id="Roboto-Regular-53" d="M 2953 1150 
Q 2953 1463 2742 1650 
Q 2531 1838 1856 2036 
Q 1181 2234 789 2542 
Q 397 2850 397 3375 
Q 397 3906 820 4259 
Q 1244 4613 1944 4613 
Q 2713 4613 3130 4191 
Q 3547 3769 3547 3238 
L 2947 3238 
Q 2947 3619 2700 3869 
Q 2453 4119 1944 4119 
Q 1463 4119 1231 3908 
Q 1000 3697 1000 3381 
Q 1000 3097 1245 2908 
Q 1491 2719 2044 2563 
Q 2834 2341 3196 2014 
Q 3559 1688 3559 1156 
Q 3559 600 3125 268 
Q 2691 -63 1972 -63 
Q 1553 -63 1158 93 
Q 763 250 508 558 
Q 253 866 253 1319 
L 853 1319 
Q 853 853 1193 640 
Q 1534 428 1972 428 
Q 2444 428 2698 623 
Q 2953 819 2953 1150 
z
" transform="scale(0.015625)"/>
       <path id="Roboto-Regular-45" d="M 528 0 
L 528 4550 
L 3388 4550 
L 3388 4056 
L 1131 4056 
L 1131 2594 
L 3100 2594 
L 3100 2103 
L 1131 2103 
L 1131 491 
L 3419 491 
L 3419 0 
L 528 0 
z
" transform="scale(0.015625)"/>
      </defs>
      <use xlink:href="#Roboto-Regular-4d"/>
      <use xlink:href="#Roboto-Regular-53" transform="translate(87.304688 0)"/>
      <use xlink:href="#Roboto-Regular-45" transform="translate(146.679688 0)"/>
     </g>
    </g>
    <g id="line2d_24">
     <path d="M 585.811 113.81325 
L 603.411 113.81325 
L 621.011 113.81325 
" style="fill: none; stroke: #55a868; stroke-width: 1.2; stroke-linecap: round"/>
    </g>
    <g id="text_10">
     <!-- MAAPE -->
     <g style="fill: #262626" transform="translate(635.091 119.97325) scale(0.176 -0.176)">
      <defs>
       <path id="Roboto-Regular-41" d="M 91 0 
L 1825 4550 
L 2353 4550 
L 4094 0 
L 3475 0 
L 3041 1191 
L 1138 1191 
L 706 0 
L 91 0 
z
M 1319 1684 
L 2863 1684 
L 2091 3806 
L 1319 1684 
z
" transform="scale(0.015625)"/>
       <path id="Roboto-Regular-50" d="M 1131 1784 
L 1131 0 
L 528 0 
L 528 4550 
L 2206 4550 
Q 2981 4550 3392 4159 
Q 3803 3769 3803 3163 
Q 3803 2503 3392 2143 
Q 2981 1784 2206 1784 
L 1131 1784 
z
M 1131 4056 
L 1131 2275 
L 2206 2275 
Q 2738 2275 2969 2522 
Q 3200 2769 3200 3156 
Q 3200 3506 2969 3781 
Q 2738 4056 2206 4056 
L 1131 4056 
z
" transform="scale(0.015625)"/>
      </defs>
      <use xlink:href="#Roboto-Regular-4d"/>
      <use xlink:href="#Roboto-Regular-41" transform="translate(87.304688 0)"/>
      <use xlink:href="#Roboto-Regular-41" transform="translate(152.539062 0)"/>
      <use xlink:href="#Roboto-Regular-50" transform="translate(217.773438 0)"/>
      <use xlink:href="#Roboto-Regular-45" transform="translate(280.859375 0)"/>
     </g>
    </g>
    <g id="line2d_25">
     <path d="M 585.811 139.38825 
L 603.411 139.38825 
L 621.011 139.38825 
" style="fill: none; stroke: #c44e52; stroke-width: 1.2; stroke-linecap: round"/>
    </g>
    <g id="text_11">
     <!-- MASPE -->
     <g style="fill: #262626" transform="translate(635.091 145.54825) scale(0.176 -0.176)">
      <use xlink:href="#Roboto-Regular-4d"/>
      <use xlink:href="#Roboto-Regular-41" transform="translate(87.304688 0)"/>
      <use xlink:href="#Roboto-Regular-53" transform="translate(152.539062 0)"/>
      <use xlink:href="#Roboto-Regular-50" transform="translate(211.914062 0)"/>
      <use xlink:href="#Roboto-Regular-45" transform="translate(275 0)"/>
     </g>
    </g>
    <g id="line2d_26">
     <path d="M 585.811 165.88175 
L 603.411 165.88175 
L 621.011 165.88175 
" style="fill: none; stroke: #8172b3; stroke-width: 1.2; stroke-linecap: round"/>
    </g>
    <g id="text_12">
     <!-- SMASPE (tight) -->
     <g style="fill: #262626" transform="translate(635.091 172.04175) scale(0.176 -0.176)">
      <defs>
       <path id="Roboto-Regular-69" d="M 444 4278 
Q 444 4419 530 4516 
Q 616 4613 784 4613 
Q 950 4613 1039 4516 
Q 1128 4419 1128 4278 
Q 1128 4144 1039 4048 
Q 950 3953 784 3953 
Q 616 3953 530 4048 
Q 444 4144 444 4278 
z
M 1069 3381 
L 1069 0 
L 488 0 
L 488 3381 
L 1069 3381 
z
" transform="scale(0.015625)"/>
       <path id="Roboto-Regular-67" d="M 1725 -1334 
Q 1463 -1334 1081 -1206 
Q 700 -1078 472 -747 
L 775 -403 
Q 1150 -859 1681 -859 
Q 2091 -859 2334 -629 
Q 2578 -400 2578 44 
L 2578 341 
Q 2234 -63 1631 -63 
Q 1022 -63 662 425 
Q 303 913 303 1653 
L 303 1719 
Q 303 2494 661 2969 
Q 1019 3444 1638 3444 
Q 2259 3444 2603 3006 
L 2631 3381 
L 3156 3381 
L 3156 72 
Q 3156 -600 2756 -967 
Q 2356 -1334 1725 -1334 
z
M 881 1653 
Q 881 1150 1092 789 
Q 1303 428 1772 428 
Q 2322 428 2578 928 
L 2578 2469 
Q 2469 2678 2275 2817 
Q 2081 2956 1778 2956 
Q 1306 2956 1093 2589 
Q 881 2222 881 1719 
L 881 1653 
z
" transform="scale(0.015625)"/>
       <path id="Roboto-Regular-68" d="M 1844 2956 
Q 1566 2956 1353 2806 
Q 1141 2656 1019 2416 
L 1019 0 
L 441 0 
L 441 4800 
L 1019 4800 
L 1019 2978 
Q 1403 3444 2016 3444 
Q 2513 3444 2805 3166 
Q 3097 2888 3100 2231 
L 3100 0 
L 2519 0 
L 2519 2222 
Q 2519 2619 2345 2787 
Q 2172 2956 1844 2956 
z
" transform="scale(0.015625)"/>
      </defs>
      <use xlink:href="#Roboto-Regular-53"/>
      <use xlink:href="#Roboto-Regular-4d" transform="translate(59.375 0)"/>
      <use xlink:href="#Roboto-Regular-41" transform="translate(146.679688 0)"/>
      <use xlink:href="#Roboto-Regular-53" transform="translate(211.914062 0)"/>
      <use xlink:href="#Roboto-Regular-50" transform="translate(271.289062 0)"/>
      <use xlink:href="#Roboto-Regular-45" transform="translate(334.375 0)"/>
      <use xlink:href="#Roboto-Regular-20" transform="translate(391.210938 0)"/>
      <use xlink:href="#Roboto-Regular-28" transform="translate(416.015625 0)"/>
      <use xlink:href="#Roboto-Regular-74" transform="translate(450.244141 0)"/>
      <use xlink:href="#Roboto-Regular-69" transform="translate(482.958984 0)"/>
      <use xlink:href="#Roboto-Regular-67" transform="translate(507.275391 0)"/>
      <use xlink:href="#Roboto-Regular-68" transform="translate(563.427734 0)"/>
      <use xlink:href="#Roboto-Regular-74" transform="translate(618.505859 0)"/>
      <use xlink:href="#Roboto-Regular-29" transform="translate(651.220703 0)"/>
     </g>
    </g>
    <g id="line2d_27">
     <path d="M 585.811 192.84 
L 603.411 192.84 
L 621.011 192.84 
" style="fill: none; stroke: #937860; stroke-width: 1.2; stroke-linecap: round"/>
    </g>
    <g id="text_13">
     <!-- SMASPE (loose) -->
     <g style="fill: #262626" transform="translate(635.091 199) scale(0.176 -0.176)">
      <defs>
       <path id="Roboto-Regular-6c" d="M 1069 4800 
L 1069 0 
L 488 0 
L 488 4800 
L 1069 4800 
z
" transform="scale(0.015625)"/>
       <path id="Roboto-Regular-6f" d="M 288 1725 
Q 288 2459 700 2951 
Q 1113 3444 1822 3444 
Q 2531 3444 2943 2961 
Q 3356 2478 3366 1756 
L 3366 1653 
Q 3366 919 2952 428 
Q 2538 -63 1828 -63 
Q 1116 -63 702 428 
Q 288 919 288 1653 
L 288 1725 
z
M 866 1653 
Q 866 1150 1105 781 
Q 1344 413 1828 413 
Q 2300 413 2540 777 
Q 2781 1141 2784 1644 
L 2784 1725 
Q 2784 2222 2543 2595 
Q 2303 2969 1822 2969 
Q 1344 2969 1105 2595 
Q 866 2222 866 1725 
L 866 1653 
z
" transform="scale(0.015625)"/>
      </defs>
      <use xlink:href="#Roboto-Regular-53"/>
      <use xlink:href="#Roboto-Regular-4d" transform="translate(59.375 0)"/>
      <use xlink:href="#Roboto-Regular-41" transform="translate(146.679688 0)"/>
      <use xlink:href="#Roboto-Regular-53" transform="translate(211.914062 0)"/>
      <use xlink:href="#Roboto-Regular-50" transform="translate(271.289062 0)"/>
      <use xlink:href="#Roboto-Regular-45" transform="translate(334.375 0)"/>
      <use xlink:href="#Roboto-Regular-20" transform="translate(391.210938 0)"/>
      <use xlink:href="#Roboto-Regular-28" transform="translate(416.015625 0)"/>
      <use xlink:href="#Roboto-Regular-6c" transform="translate(450.244141 0)"/>
      <use xlink:href="#Roboto-Regular-6f" transform="translate(474.560547 0)"/>
      <use xlink:href="#Roboto-Regular-6f" transform="translate(531.591797 0)"/>
      <use xlink:href="#Roboto-Regular-73" transform="translate(588.623047 0)"/>
      <use xlink:href="#Roboto-Regular-65" transform="translate(640.234375 0)"/>
      <use xlink:href="#Roboto-Regular-29" transform="translate(693.261719 0)"/>
     </g>
    </g>
   </g>
  </g>
  <g id="axes_2">
   <g id="patch_8">
    <path d="M 71.18 777.2325 
L 825.6 777.2325 
L 825.6 427.01625 
L 71.18 427.01625 
z
" style="fill: #ffffff"/>
   </g>
   <g id="matplotlib.axis_3">
    <g id="xtick_9">
     <g id="line2d_28">
      <path d="M 95.812151 777.2325 
L 95.812151 427.01625 
" clip-path="url(#p7c64603b98)" style="fill: none; stroke: #cccccc; stroke-width: 0.8; stroke-linecap: round"/>
     </g>
     <g id="text_14">
      <!-- 0 -->
      <g style="fill: #262626" transform="translate(90.866276 798.7325) scale(0.176 -0.176)">
       <use xlink:href="#Roboto-Regular-30"/>
      </g>
     </g>
    </g>
    <g id="xtick_10">
     <g id="line2d_29">
      <path d="M 192.408822 777.2325 
L 192.408822 427.01625 
" clip-path="url(#p7c64603b98)" style="fill: none; stroke: #cccccc; stroke-width: 0.8; stroke-linecap: round"/>
     </g>
     <g id="text_15">
      <!-- 10 -->
      <g style="fill: #262626" transform="translate(182.517072 798.7325) scale(0.176 -0.176)">
       <use xlink:href="#Roboto-Regular-31"/>
       <use xlink:href="#Roboto-Regular-30" transform="translate(56.201172 0)"/>
      </g>
     </g>
    </g>
    <g id="xtick_11">
     <g id="line2d_30">
      <path d="M 289.005493 777.2325 
L 289.005493 427.01625 
" clip-path="url(#p7c64603b98)" style="fill: none; stroke: #cccccc; stroke-width: 0.8; stroke-linecap: round"/>
     </g>
     <g id="text_16">
      <!-- 20 -->
      <g style="fill: #262626" transform="translate(279.113743 798.7325) scale(0.176 -0.176)">
       <use xlink:href="#Roboto-Regular-32"/>
       <use xlink:href="#Roboto-Regular-30" transform="translate(56.201172 0)"/>
      </g>
     </g>
    </g>
    <g id="xtick_12">
     <g id="line2d_31">
      <path d="M 385.602164 777.2325 
L 385.602164 427.01625 
" clip-path="url(#p7c64603b98)" style="fill: none; stroke: #cccccc; stroke-width: 0.8; stroke-linecap: round"/>
     </g>
     <g id="text_17">
      <!-- 30 -->
      <g style="fill: #262626" transform="translate(375.710414 798.7325) scale(0.176 -0.176)">
       <use xlink:href="#Roboto-Regular-33"/>
       <use xlink:href="#Roboto-Regular-30" transform="translate(56.201172 0)"/>
      </g>
     </g>
    </g>
    <g id="xtick_13">
     <g id="line2d_32">
      <path d="M 482.198835 777.2325 
L 482.198835 427.01625 
" clip-path="url(#p7c64603b98)" style="fill: none; stroke: #cccccc; stroke-width: 0.8; stroke-linecap: round"/>
     </g>
     <g id="text_18">
      <!-- 40 -->
      <g style="fill: #262626" transform="translate(472.307085 798.7325) scale(0.176 -0.176)">
       <use xlink:href="#Roboto-Regular-34"/>
       <use xlink:href="#Roboto-Regular-30" transform="translate(56.201172 0)"/>
      </g>
     </g>
    </g>
    <g id="xtick_14">
     <g id="line2d_33">
      <path d="M 578.795506 777.2325 
L 578.795506 427.01625 
" clip-path="url(#p7c64603b98)" style="fill: none; stroke: #cccccc; stroke-width: 0.8; stroke-linecap: round"/>
     </g>
     <g id="text_19">
      <!-- 50 -->
      <g style="fill: #262626" transform="translate(568.903756 798.7325) scale(0.176 -0.176)">
       <use xlink:href="#Roboto-Regular-35"/>
       <use xlink:href="#Roboto-Regular-30" transform="translate(56.201172 0)"/>
      </g>
     </g>
    </g>
    <g id="xtick_15">
     <g id="line2d_34">
      <path d="M 675.392177 777.2325 
L 675.392177 427.01625 
" clip-path="url(#p7c64603b98)" style="fill: none; stroke: #cccccc; stroke-width: 0.8; stroke-linecap: round"/>
     </g>
     <g id="text_20">
      <!-- 60 -->
      <g style="fill: #262626" transform="translate(665.500427 798.7325) scale(0.176 -0.176)">
       <use xlink:href="#Roboto-Regular-36"/>
       <use xlink:href="#Roboto-Regular-30" transform="translate(56.201172 0)"/>
      </g>
     </g>
    </g>
    <g id="xtick_16">
     <g id="line2d_35">
      <path d="M 771.988848 777.2325 
L 771.988848 427.01625 
" clip-path="url(#p7c64603b98)" style="fill: none; stroke: #cccccc; stroke-width: 0.8; stroke-linecap: round"/>
     </g>
     <g id="text_21">
      <!-- 70 -->
      <g style="fill: #262626" transform="translate(762.097098 798.7325) scale(0.176 -0.176)">
       <defs>
        <path id="Roboto-Regular-37" d="M 3319 4550 
L 3319 4225 
L 1434 0 
L 825 0 
L 2706 4075 
L 244 4075 
L 244 4550 
L 3319 4550 
z
" transform="scale(0.015625)"/>
       </defs>
       <use xlink:href="#Roboto-Regular-37"/>
       <use xlink:href="#Roboto-Regular-30" transform="translate(56.201172 0)"/>
      </g>
     </g>
    </g>
    <g id="text_22">
     <!-- Prediction Horizon $[h]$ -->
     <g style="fill: #262626" transform="translate(353.158 820.7075) scale(0.192 -0.192)">
      <defs>
       <path id="Roboto-Regular-64" d="M 2622 0 
L 2594 363 
Q 2247 -63 1628 -63 
Q 1034 -63 668 418 
Q 303 900 297 1628 
L 297 1719 
Q 297 2494 664 2969 
Q 1031 3444 1634 3444 
Q 2231 3444 2572 3044 
L 2572 4800 
L 3153 4800 
L 3153 0 
L 2622 0 
z
M 878 1653 
Q 878 1150 1090 789 
Q 1303 428 1772 428 
Q 2309 428 2572 919 
L 2572 2475 
Q 2313 2956 1778 2956 
Q 1306 2956 1092 2589 
Q 878 2222 878 1719 
L 878 1653 
z
" transform="scale(0.015625)"/>
       <path id="Roboto-Regular-48" d="M 3425 0 
L 3425 2103 
L 1131 2103 
L 1131 0 
L 528 0 
L 528 4550 
L 1131 4550 
L 1131 2594 
L 3425 2594 
L 3425 4550 
L 4025 4550 
L 4025 0 
L 3425 0 
z
" transform="scale(0.015625)"/>
       <path id="Roboto-Regular-7a" d="M 303 2903 
L 303 3381 
L 2869 3381 
L 2869 2972 
L 988 475 
L 2959 475 
L 2959 0 
L 278 0 
L 278 425 
L 2141 2903 
L 303 2903 
z
" transform="scale(0.015625)"/>
       <path id="DejaVuSans-5b" d="M 550 4863 
L 1875 4863 
L 1875 4416 
L 1125 4416 
L 1125 -397 
L 1875 -397 
L 1875 -844 
L 550 -844 
L 550 4863 
z
" transform="scale(0.015625)"/>
       <path id="DejaVuSans-Oblique-68" d="M 3566 2113 
L 3156 0 
L 2578 0 
L 2988 2091 
Q 3016 2238 3031 2350 
Q 3047 2463 3047 2528 
Q 3047 2791 2881 2937 
Q 2716 3084 2419 3084 
Q 1956 3084 1617 2771 
Q 1278 2459 1178 1941 
L 800 0 
L 225 0 
L 1172 4863 
L 1747 4863 
L 1375 2950 
Q 1594 3244 1934 3414 
Q 2275 3584 2650 3584 
Q 3113 3584 3367 3334 
Q 3622 3084 3622 2631 
Q 3622 2519 3608 2391 
Q 3594 2263 3566 2113 
z
" transform="scale(0.015625)"/>
       <path id="DejaVuSans-5d" d="M 1947 4863 
L 1947 -844 
L 622 -844 
L 622 -397 
L 1369 -397 
L 1369 4416 
L 622 4416 
L 622 4863 
L 1947 4863 
z
" transform="scale(0.015625)"/>
      </defs>
      <use xlink:href="#Roboto-Regular-50" transform="translate(0 0.015625)"/>
      <use xlink:href="#Roboto-Regular-72" transform="translate(63.085938 0.015625)"/>
      <use xlink:href="#Roboto-Regular-65" transform="translate(96.972656 0.015625)"/>
      <use xlink:href="#Roboto-Regular-64" transform="translate(150 0.015625)"/>
      <use xlink:href="#Roboto-Regular-69" transform="translate(206.396484 0.015625)"/>
      <use xlink:href="#Roboto-Regular-63" transform="translate(230.712891 0.015625)"/>
      <use xlink:href="#Roboto-Regular-74" transform="translate(283.056641 0.015625)"/>
      <use xlink:href="#Roboto-Regular-69" transform="translate(315.771484 0.015625)"/>
      <use xlink:href="#Roboto-Regular-6f" transform="translate(340.087891 0.015625)"/>
      <use xlink:href="#Roboto-Regular-6e" transform="translate(397.119141 0.015625)"/>
      <use xlink:href="#Roboto-Regular-20" transform="translate(452.34375 0.015625)"/>
      <use xlink:href="#Roboto-Regular-48" transform="translate(477.148438 0.015625)"/>
      <use xlink:href="#Roboto-Regular-6f" transform="translate(548.486328 0.015625)"/>
      <use xlink:href="#Roboto-Regular-72" transform="translate(605.517578 0.015625)"/>
      <use xlink:href="#Roboto-Regular-69" transform="translate(639.404297 0.015625)"/>
      <use xlink:href="#Roboto-Regular-7a" transform="translate(663.720703 0.015625)"/>
      <use xlink:href="#Roboto-Regular-6f" transform="translate(713.330078 0.015625)"/>
      <use xlink:href="#Roboto-Regular-6e" transform="translate(770.361328 0.015625)"/>
      <use xlink:href="#Roboto-Regular-20" transform="translate(825.585938 0.015625)"/>
      <use xlink:href="#DejaVuSans-5b" transform="translate(850.390625 0.015625)"/>
      <use xlink:href="#DejaVuSans-Oblique-68" transform="translate(889.404297 0.015625)"/>
      <use xlink:href="#DejaVuSans-5d" transform="translate(952.783203 0.015625)"/>
     </g>
    </g>
   </g>
   <g id="matplotlib.axis_4">
    <g id="ytick_8">
     <g id="line2d_36">
      <path d="M 71.18 761.31358 
L 825.6 761.31358 
" clip-path="url(#p7c64603b98)" style="fill: none; stroke: #cccccc; stroke-width: 0.8; stroke-linecap: round"/>
     </g>
     <g id="text_23">
      <!-- 0.0 -->
      <g style="fill: #262626" transform="translate(38.4545 767.91358) scale(0.176 -0.176)">
       <use xlink:href="#Roboto-Regular-30"/>
       <use xlink:href="#Roboto-Regular-2e" transform="translate(56.201172 0)"/>
       <use xlink:href="#Roboto-Regular-30" transform="translate(82.568359 0)"/>
      </g>
     </g>
    </g>
    <g id="ytick_9">
     <g id="line2d_37">
      <path d="M 71.18 698.919837 
L 825.6 698.919837 
" clip-path="url(#p7c64603b98)" style="fill: none; stroke: #cccccc; stroke-width: 0.8; stroke-linecap: round"/>
     </g>
     <g id="text_24">
      <!-- 0.2 -->
      <g style="fill: #262626" transform="translate(38.4545 705.519837) scale(0.176 -0.176)">
       <use xlink:href="#Roboto-Regular-30"/>
       <use xlink:href="#Roboto-Regular-2e" transform="translate(56.201172 0)"/>
       <use xlink:href="#Roboto-Regular-32" transform="translate(82.568359 0)"/>
      </g>
     </g>
    </g>
    <g id="ytick_10">
     <g id="line2d_38">
      <path d="M 71.18 636.526095 
L 825.6 636.526095 
" clip-path="url(#p7c64603b98)" style="fill: none; stroke: #cccccc; stroke-width: 0.8; stroke-linecap: round"/>
     </g>
     <g id="text_25">
      <!-- 0.4 -->
      <g style="fill: #262626" transform="translate(38.4545 643.126095) scale(0.176 -0.176)">
       <use xlink:href="#Roboto-Regular-30"/>
       <use xlink:href="#Roboto-Regular-2e" transform="translate(56.201172 0)"/>
       <use xlink:href="#Roboto-Regular-34" transform="translate(82.568359 0)"/>
      </g>
     </g>
    </g>
    <g id="ytick_11">
     <g id="line2d_39">
      <path d="M 71.18 574.132352 
L 825.6 574.132352 
" clip-path="url(#p7c64603b98)" style="fill: none; stroke: #cccccc; stroke-width: 0.8; stroke-linecap: round"/>
     </g>
     <g id="text_26">
      <!-- 0.6 -->
      <g style="fill: #262626" transform="translate(38.4545 580.732352) scale(0.176 -0.176)">
       <use xlink:href="#Roboto-Regular-30"/>
       <use xlink:href="#Roboto-Regular-2e" transform="translate(56.201172 0)"/>
       <use xlink:href="#Roboto-Regular-36" transform="translate(82.568359 0)"/>
      </g>
     </g>
    </g>
    <g id="ytick_12">
     <g id="line2d_40">
      <path d="M 71.18 511.738609 
L 825.6 511.738609 
" clip-path="url(#p7c64603b98)" style="fill: none; stroke: #cccccc; stroke-width: 0.8; stroke-linecap: round"/>
     </g>
     <g id="text_27">
      <!-- 0.8 -->
      <g style="fill: #262626" transform="translate(38.4545 518.338609) scale(0.176 -0.176)">
       <defs>
        <path id="Roboto-Regular-38" d="M 3244 1231 
Q 3244 606 2826 271 
Q 2409 -63 1796 -63 
Q 1184 -63 767 271 
Q 350 606 350 1231 
Q 350 1613 554 1905 
Q 759 2197 1109 2347 
Q 806 2494 629 2762 
Q 453 3031 453 3366 
Q 453 3963 833 4288 
Q 1213 4613 1794 4613 
Q 2378 4613 2758 4288 
Q 3138 3963 3138 3366 
Q 3138 3028 2956 2761 
Q 2775 2494 2472 2347 
Q 2825 2197 3034 1903 
Q 3244 1609 3244 1231 
z
M 2559 3356 
Q 2559 3697 2346 3917 
Q 2134 4138 1793 4138 
Q 1453 4138 1243 3927 
Q 1034 3716 1034 3356 
Q 1034 3003 1243 2790 
Q 1453 2578 1797 2578 
Q 2138 2578 2348 2790 
Q 2559 3003 2559 3356 
z
M 2663 1244 
Q 2663 1625 2420 1865 
Q 2178 2106 1791 2106 
Q 1394 2106 1161 1865 
Q 928 1625 928 1244 
Q 928 850 1161 631 
Q 1394 413 1797 413 
Q 2200 413 2431 631 
Q 2663 850 2663 1244 
z
" transform="scale(0.015625)"/>
       </defs>
       <use xlink:href="#Roboto-Regular-30"/>
       <use xlink:href="#Roboto-Regular-2e" transform="translate(56.201172 0)"/>
       <use xlink:href="#Roboto-Regular-38" transform="translate(82.568359 0)"/>
      </g>
     </g>
    </g>
    <g id="ytick_13">
     <g id="line2d_41">
      <path d="M 71.18 449.344867 
L 825.6 449.344867 
" clip-path="url(#p7c64603b98)" style="fill: none; stroke: #cccccc; stroke-width: 0.8; stroke-linecap: round"/>
     </g>
     <g id="text_28">
      <!-- 1.0 -->
      <g style="fill: #262626" transform="translate(38.4545 455.944867) scale(0.176 -0.176)">
       <use xlink:href="#Roboto-Regular-31"/>
       <use xlink:href="#Roboto-Regular-2e" transform="translate(56.201172 0)"/>
       <use xlink:href="#Roboto-Regular-30" transform="translate(82.568359 0)"/>
      </g>
     </g>
    </g>
   </g>
   <g id="line2d_42">
    <path d="M 105.471818 678.706808 
L 115.131485 675.652568 
L 124.791152 677.062509 
L 134.450819 677.289951 
L 144.110487 678.655468 
L 153.770154 678.272415 
L 163.429821 689.823793 
L 173.089488 694.72946 
L 182.749155 699.795483 
L 192.408822 641.991593 
L 202.068489 459.825222 
L 211.728156 452.694011 
L 221.387823 453.759548 
L 231.04749 462.330051 
L 240.707157 549.234282 
L 250.366825 704.096317 
L 260.026492 705.906915 
L 269.686159 707.62868 
L 279.345826 702.338078 
L 289.005493 701.090057 
L 298.66516 692.488765 
L 308.324827 691.301437 
L 317.984494 693.621708 
L 327.644161 692.632163 
L 337.303828 684.408452 
L 346.963496 680.660014 
L 356.623163 672.489893 
L 366.28283 673.795256 
L 375.942497 670.852613 
L 385.602164 673.973682 
L 395.261831 687.553816 
L 404.921498 693.743355 
L 414.581165 699.186722 
L 424.240832 681.663816 
L 433.900499 490.406688 
L 443.560166 456.983623 
L 453.219834 450.723745 
L 462.879501 469.274999 
L 472.539168 611.046952 
L 482.198835 700.132114 
L 491.858502 695.352524 
L 501.518169 688.746597 
L 511.177836 683.669798 
L 520.837503 676.297138 
L 530.49717 699.51869 
L 540.156837 692.511451 
L 549.816504 700.316937 
L 559.476172 692.225951 
L 569.135839 692.528265 
L 578.795506 691.624382 
L 588.455173 686.540986 
L 598.11484 686.208646 
L 607.774507 689.62065 
L 617.434174 688.915015 
L 627.093841 691.642381 
L 636.753508 693.45369 
L 646.413175 699.465932 
L 656.072843 613.235084 
L 665.73251 465.931526 
L 675.392177 449.403069 
L 685.051844 442.93517 
L 694.711511 451.185732 
L 704.371178 453.207506 
L 714.030845 670.120992 
L 723.690512 695.680239 
L 733.350179 695.91854 
L 743.009846 692.99121 
L 752.669513 690.112607 
L 762.329181 700.001239 
L 771.988848 694.696896 
L 781.648515 695.270949 
L 791.308182 697.539132 
" clip-path="url(#p7c64603b98)" style="fill: none; stroke-dasharray: 1.2,1.98; stroke-dashoffset: 0; stroke: #4c72b0; stroke-width: 1.2"/>
   </g>
   <g id="line2d_43">
    <path d="M 105.471818 555.316561 
L 115.131485 697.308008 
L 124.791152 734.036202 
L 134.450819 724.506468 
L 144.110487 718.172536 
L 153.770154 715.689212 
L 163.429821 717.678501 
L 173.089488 722.929277 
L 182.749155 734.02644 
L 192.408822 721.616318 
L 202.068489 701.515468 
L 211.728156 711.251846 
L 221.387823 688.522214 
L 231.04749 681.765576 
L 240.707157 673.107695 
L 250.366825 664.641825 
L 260.026492 687.182385 
L 269.686159 725.853884 
L 279.345826 732.624189 
L 289.005493 731.171453 
L 298.66516 730.711548 
L 308.324827 729.970992 
L 317.984494 732.584433 
L 327.644161 731.323949 
L 337.303828 731.848284 
L 346.963496 734.827913 
L 356.623163 735.879169 
L 366.28283 735.481185 
L 375.942497 733.872438 
L 385.602164 729.779856 
L 395.261831 725.430815 
L 404.921498 724.34475 
L 414.581165 724.681854 
L 424.240832 730.096637 
L 433.900499 720.896458 
L 443.560166 701.90382 
L 453.219834 700.792931 
L 462.879501 670.407342 
L 472.539168 706.737739 
L 482.198835 717.811193 
L 491.858502 712.255035 
L 501.518169 733.178072 
L 511.177836 734.609126 
L 520.837503 734.761511 
L 530.49717 734.287697 
L 540.156837 733.773942 
L 549.816504 733.418223 
L 559.476172 732.795428 
L 569.135839 731.897356 
L 578.795506 735.250553 
L 588.455173 735.416475 
L 598.11484 733.705085 
L 607.774507 728.330616 
L 617.434174 724.142271 
L 627.093841 711.666584 
L 636.753508 701.616047 
L 646.413175 672.426569 
L 656.072843 656.073311 
L 665.73251 555.033549 
L 675.392177 504.940037 
L 685.051844 511.849728 
L 694.711511 532.382851 
L 704.371178 663.661805 
L 714.030845 722.020011 
L 723.690512 715.364622 
L 733.350179 734.975499 
L 743.009846 735.52505 
L 752.669513 735.957546 
L 762.329181 736.200635 
L 771.988848 735.487172 
L 781.648515 736.166105 
L 791.308182 735.69575 
" clip-path="url(#p7c64603b98)" style="fill: none; stroke: #dd8452; stroke-width: 1.2; stroke-linecap: round"/>
   </g>
   <g id="line2d_44">
    <path d="M 105.471818 761.31358 
L 115.131485 761.31358 
L 124.791152 761.31358 
L 134.450819 761.31358 
L 144.110487 761.31358 
L 153.770154 761.31358 
L 163.429821 761.31358 
L 173.089488 761.31358 
L 182.749155 761.31358 
L 192.408822 749.997407 
L 202.068489 658.504951 
L 211.728156 631.586807 
L 221.387823 636.262186 
L 231.04749 682.294411 
L 240.707157 761.31358 
L 250.366825 761.31358 
L 260.026492 761.31358 
L 269.686159 761.31358 
L 279.345826 761.31358 
L 289.005493 761.31358 
L 298.66516 761.31358 
L 308.324827 761.31358 
L 317.984494 761.31358 
L 327.644161 761.31358 
L 337.303828 761.31358 
L 346.963496 761.31358 
L 356.623163 761.31358 
L 366.28283 761.31358 
L 375.942497 761.31358 
L 385.602164 761.31358 
L 395.261831 761.31358 
L 404.921498 761.31358 
L 414.581165 761.31358 
L 424.240832 761.31358 
L 433.900499 722.537876 
L 443.560166 655.232195 
L 453.219834 618.520029 
L 462.879501 641.634219 
L 472.539168 712.47661 
L 482.198835 761.31358 
L 491.858502 761.31358 
L 501.518169 761.31358 
L 511.177836 761.31358 
L 520.837503 761.31358 
L 530.49717 761.31358 
L 540.156837 761.31358 
L 549.816504 761.31358 
L 559.476172 761.31358 
L 569.135839 761.31358 
L 578.795506 761.31358 
L 588.455173 761.31358 
L 598.11484 761.31358 
L 607.774507 761.31358 
L 617.434174 761.31358 
L 627.093841 761.31358 
L 636.753508 761.31358 
L 646.413175 761.31358 
L 656.072843 686.245822 
L 665.73251 622.065942 
L 675.392177 616.958978 
L 685.051844 640.345712 
L 694.711511 655.049538 
L 704.371178 670.539309 
L 714.030845 718.408104 
L 723.690512 761.31358 
L 733.350179 761.31358 
L 743.009846 761.31358 
L 752.669513 761.31358 
L 762.329181 761.31358 
L 771.988848 761.31358 
L 781.648515 761.31358 
L 791.308182 761.31358 
" clip-path="url(#p7c64603b98)" style="fill: none; stroke: #55a868; stroke-width: 1.2; stroke-linecap: round"/>
   </g>
   <g id="line2d_45">
    <path d="M 105.471818 675.620595 
L 115.131485 723.885008 
L 124.791152 734.714698 
L 134.450819 739.88522 
L 144.110487 748.813213 
L 153.770154 754.211674 
L 163.429821 758.831255 
L 173.089488 758.519662 
L 182.749155 755.433058 
L 192.408822 744.533925 
L 202.068489 727.683276 
L 211.728156 730.430599 
L 221.387823 741.190918 
L 231.04749 750.923316 
L 240.707157 756.037849 
L 250.366825 760.139658 
L 260.026492 761.31358 
L 269.686159 761.31358 
L 279.345826 761.31358 
L 289.005493 761.31358 
L 298.66516 761.31358 
L 308.324827 758.622301 
L 317.984494 758.925437 
L 327.644161 755.210497 
L 337.303828 754.564765 
L 346.963496 759.458043 
L 356.623163 760.398809 
L 366.28283 759.636163 
L 375.942497 761.31358 
L 385.602164 761.31358 
L 395.261831 761.31358 
L 404.921498 761.31358 
L 414.581165 761.31358 
L 424.240832 751.56552 
L 433.900499 734.073857 
L 443.560166 713.22611 
L 453.219834 728.708964 
L 462.879501 743.660286 
L 472.539168 750.262272 
L 482.198835 756.918893 
L 491.858502 761.31358 
L 501.518169 761.201123 
L 511.177836 761.31358 
L 520.837503 761.31358 
L 530.49717 761.066004 
L 540.156837 757.274718 
L 549.816504 757.864001 
L 559.476172 750.828618 
L 569.135839 748.869341 
L 578.795506 756.749606 
L 588.455173 758.123691 
L 598.11484 757.085144 
L 607.774507 760.465727 
L 617.434174 759.860936 
L 627.093841 761.31358 
L 636.753508 761.31358 
L 646.413175 754.272981 
L 656.072843 723.662879 
L 665.73251 703.579154 
L 675.392177 677.242618 
L 685.051844 684.851343 
L 694.711511 714.184541 
L 704.371178 741.801143 
L 714.030845 758.07117 
L 723.690512 761.31358 
L 733.350179 761.31358 
L 743.009846 761.31358 
L 752.669513 761.31358 
L 762.329181 761.31358 
L 771.988848 761.31358 
L 781.648515 761.31358 
L 791.308182 760.605625 
" clip-path="url(#p7c64603b98)" style="fill: none; stroke: #c44e52; stroke-width: 1.2; stroke-linecap: round"/>
   </g>
   <g id="line2d_46">
    <path d="M 105.471818 761.31358 
L 115.131485 761.31358 
L 124.791152 761.31358 
L 134.450819 761.31251 
L 144.110487 761.31358 
L 153.770154 761.31358 
L 163.429821 761.31358 
L 173.089488 761.31358 
L 182.749155 761.31358 
L 192.408822 752.76936 
L 202.068489 733.906932 
L 211.728156 735.192556 
L 221.387823 744.524181 
L 231.04749 753.223621 
L 240.707157 759.309824 
L 250.366825 761.31358 
L 260.026492 761.31358 
L 269.686159 761.31358 
L 279.345826 761.31358 
L 289.005493 761.31358 
L 298.66516 761.31358 
L 308.324827 761.31358 
L 317.984494 761.31358 
L 327.644161 761.31358 
L 337.303828 761.31358 
L 346.963496 761.31358 
L 356.623163 761.31358 
L 366.28283 761.31358 
L 375.942497 761.31358 
L 385.602164 761.31358 
L 395.261831 761.31358 
L 404.921498 761.31358 
L 414.581165 761.31358 
L 424.240832 761.31358 
L 433.900499 744.527789 
L 443.560166 728.735127 
L 453.219834 731.510473 
L 462.879501 748.71063 
L 472.539168 758.131714 
L 482.198835 761.31358 
L 491.858502 761.31358 
L 501.518169 761.31358 
L 511.177836 761.31358 
L 520.837503 761.31358 
L 530.49717 761.31358 
L 540.156837 761.31358 
L 549.816504 761.31358 
L 559.476172 761.31358 
L 569.135839 761.31358 
L 578.795506 761.31358 
L 588.455173 761.31358 
L 598.11484 761.31358 
L 607.774507 761.31358 
L 617.434174 761.31358 
L 627.093841 761.31358 
L 636.753508 761.31358 
L 646.413175 761.31358 
L 656.072843 740.905534 
L 665.73251 717.459677 
L 675.392177 704.802896 
L 685.051844 695.679291 
L 694.711511 713.11958 
L 704.371178 750.271718 
L 714.030845 761.31358 
L 723.690512 761.31358 
L 733.350179 761.31358 
L 743.009846 761.31358 
L 752.669513 761.31358 
L 762.329181 761.31358 
L 771.988848 761.31358 
L 781.648515 761.31358 
L 791.308182 761.31358 
" clip-path="url(#p7c64603b98)" style="fill: none; stroke: #8172b3; stroke-width: 1.2; stroke-linecap: round"/>
   </g>
   <g id="line2d_47">
    <path d="M 105.471818 757.04735 
L 115.131485 760.196377 
L 124.791152 761.31358 
L 134.450819 761.31358 
L 144.110487 761.31358 
L 153.770154 761.31358 
L 163.429821 761.31358 
L 173.089488 761.31358 
L 182.749155 761.31358 
L 192.408822 760.344075 
L 202.068489 747.61854 
L 211.728156 732.165437 
L 221.387823 745.32796 
L 231.04749 759.270887 
L 240.707157 761.31358 
L 250.366825 761.31358 
L 260.026492 761.31358 
L 269.686159 761.31358 
L 279.345826 761.31358 
L 289.005493 761.31358 
L 298.66516 761.31358 
L 308.324827 761.31358 
L 317.984494 761.31358 
L 327.644161 761.31358 
L 337.303828 761.31358 
L 346.963496 761.31358 
L 356.623163 761.31358 
L 366.28283 761.31358 
L 375.942497 761.31358 
L 385.602164 761.31358 
L 395.261831 761.31358 
L 404.921498 761.31358 
L 414.581165 761.31358 
L 424.240832 760.735012 
L 433.900499 758.749098 
L 443.560166 752.373189 
L 453.219834 748.100144 
L 462.879501 755.470875 
L 472.539168 759.57745 
L 482.198835 761.31358 
L 491.858502 761.31358 
L 501.518169 761.31358 
L 511.177836 761.31358 
L 520.837503 761.31358 
L 530.49717 761.31358 
L 540.156837 761.31358 
L 549.816504 761.31358 
L 559.476172 761.31358 
L 569.135839 761.31358 
L 578.795506 761.31358 
L 588.455173 761.31358 
L 598.11484 761.31358 
L 607.774507 761.31358 
L 617.434174 761.31358 
L 627.093841 761.31358 
L 636.753508 761.31358 
L 646.413175 761.271527 
L 656.072843 749.882203 
L 665.73251 730.170626 
L 675.392177 690.896842 
L 685.051844 652.068627 
L 694.711511 676.872786 
L 704.371178 733.947468 
L 714.030845 761.22902 
L 723.690512 761.31358 
L 733.350179 761.31358 
L 743.009846 761.31358 
L 752.669513 761.31358 
L 762.329181 761.31358 
L 771.988848 761.31358 
L 781.648515 761.31358 
L 791.308182 761.31358 
" clip-path="url(#p7c64603b98)" style="fill: none; stroke: #937860; stroke-width: 1.2; stroke-linecap: round"/>
   </g>
   <g id="patch_9">
    <path d="M 71.18 777.2325 
L 71.18 427.01625 
" style="fill: none; stroke: #cccccc; stroke-linejoin: miter; stroke-linecap: square"/>
   </g>
   <g id="patch_10">
    <path d="M 825.6 777.2325 
L 825.6 427.01625 
" style="fill: none; stroke: #cccccc; stroke-linejoin: miter; stroke-linecap: square"/>
   </g>
   <g id="patch_11">
    <path d="M 71.18 777.2325 
L 825.6 777.2325 
" style="fill: none; stroke: #cccccc; stroke-linejoin: miter; stroke-linecap: square"/>
   </g>
   <g id="patch_12">
    <path d="M 71.18 427.01625 
L 825.6 427.01625 
" style="fill: none; stroke: #cccccc; stroke-linejoin: miter; stroke-linecap: square"/>
   </g>
   <g id="legend_2">
    <g id="patch_13">
     <path d="M 570.97475 598.696 
L 813.28 598.696 
Q 816.8 598.696 816.8 595.176 
L 816.8 439.33625 
Q 816.8 435.81625 813.28 435.81625 
L 570.97475 435.81625 
Q 567.45475 435.81625 567.45475 439.33625 
L 567.45475 595.176 
Q 567.45475 598.696 570.97475 598.696 
z
" style="fill: #ffffff; opacity: 0.8; stroke: #cccccc; stroke-width: 0.8; stroke-linejoin: miter"/>
    </g>
    <g id="line2d_48">
     <path d="M 574.49475 450.81475 
L 592.09475 450.81475 
L 609.69475 450.81475 
" style="fill: none; stroke-dasharray: 1.2,1.98; stroke-dashoffset: 0; stroke: #4c72b0; stroke-width: 1.2"/>
    </g>
    <g id="text_29">
     <!-- Reference (Worst Case) -->
     <g style="fill: #262626" transform="translate(623.77475 456.97475) scale(0.176 -0.176)">
      <defs>
       <path id="Roboto-Regular-57" d="M 5541 4550 
L 4441 0 
L 3894 0 
L 2956 3316 
L 2884 3663 
L 2813 3316 
L 1841 0 
L 1294 0 
L 191 4550 
L 791 4550 
L 1509 1438 
L 1600 834 
L 1725 1375 
L 2628 4550 
L 3131 4550 
L 4009 1375 
L 4138 822 
L 4234 1441 
L 4938 4550 
L 5541 4550 
z
" transform="scale(0.015625)"/>
      </defs>
      <use xlink:href="#Roboto-Regular-52"/>
      <use xlink:href="#Roboto-Regular-65" transform="translate(61.621094 0)"/>
      <use xlink:href="#Roboto-Regular-66" transform="translate(114.648438 0)"/>
      <use xlink:href="#Roboto-Regular-65" transform="translate(149.414062 0)"/>
      <use xlink:href="#Roboto-Regular-72" transform="translate(202.441406 0)"/>
      <use xlink:href="#Roboto-Regular-65" transform="translate(236.328125 0)"/>
      <use xlink:href="#Roboto-Regular-6e" transform="translate(289.355469 0)"/>
      <use xlink:href="#Roboto-Regular-63" transform="translate(344.580078 0)"/>
      <use xlink:href="#Roboto-Regular-65" transform="translate(396.923828 0)"/>
      <use xlink:href="#Roboto-Regular-20" transform="translate(449.951172 0)"/>
      <use xlink:href="#Roboto-Regular-28" transform="translate(474.755859 0)"/>
      <use xlink:href="#Roboto-Regular-57" transform="translate(508.984375 0)"/>
      <use xlink:href="#Roboto-Regular-6f" transform="translate(597.705078 0)"/>
      <use xlink:href="#Roboto-Regular-72" transform="translate(654.736328 0)"/>
      <use xlink:href="#Roboto-Regular-73" transform="translate(688.623047 0)"/>
      <use xlink:href="#Roboto-Regular-74" transform="translate(740.234375 0)"/>
      <use xlink:href="#Roboto-Regular-20" transform="translate(772.949219 0)"/>
      <use xlink:href="#Roboto-Regular-43" transform="translate(797.753906 0)"/>
      <use xlink:href="#Roboto-Regular-61" transform="translate(862.841797 0)"/>
      <use xlink:href="#Roboto-Regular-73" transform="translate(917.236328 0)"/>
      <use xlink:href="#Roboto-Regular-65" transform="translate(968.847656 0)"/>
      <use xlink:href="#Roboto-Regular-29" transform="translate(1021.875 0)"/>
     </g>
    </g>
    <g id="line2d_49">
     <path d="M 574.49475 476.8545 
L 592.09475 476.8545 
L 609.69475 476.8545 
" style="fill: none; stroke: #dd8452; stroke-width: 1.2; stroke-linecap: round"/>
    </g>
    <g id="text_30">
     <!-- MSE -->
     <g style="fill: #262626" transform="translate(623.77475 483.0145) scale(0.176 -0.176)">
      <use xlink:href="#Roboto-Regular-4d"/>
      <use xlink:href="#Roboto-Regular-53" transform="translate(87.304688 0)"/>
      <use xlink:href="#Roboto-Regular-45" transform="translate(146.679688 0)"/>
     </g>
    </g>
    <g id="line2d_50">
     <path d="M 574.49475 502.4295 
L 592.09475 502.4295 
L 609.69475 502.4295 
" style="fill: none; stroke: #55a868; stroke-width: 1.2; stroke-linecap: round"/>
    </g>
    <g id="text_31">
     <!-- MAAPE -->
     <g style="fill: #262626" transform="translate(623.77475 508.5895) scale(0.176 -0.176)">
      <use xlink:href="#Roboto-Regular-4d"/>
      <use xlink:href="#Roboto-Regular-41" transform="translate(87.304688 0)"/>
      <use xlink:href="#Roboto-Regular-41" transform="translate(152.539062 0)"/>
      <use xlink:href="#Roboto-Regular-50" transform="translate(217.773438 0)"/>
      <use xlink:href="#Roboto-Regular-45" transform="translate(280.859375 0)"/>
     </g>
    </g>
    <g id="line2d_51">
     <path d="M 574.49475 528.0045 
L 592.09475 528.0045 
L 609.69475 528.0045 
" style="fill: none; stroke: #c44e52; stroke-width: 1.2; stroke-linecap: round"/>
    </g>
    <g id="text_32">
     <!-- MASPE -->
     <g style="fill: #262626" transform="translate(623.77475 534.1645) scale(0.176 -0.176)">
      <use xlink:href="#Roboto-Regular-4d"/>
      <use xlink:href="#Roboto-Regular-41" transform="translate(87.304688 0)"/>
      <use xlink:href="#Roboto-Regular-53" transform="translate(152.539062 0)"/>
      <use xlink:href="#Roboto-Regular-50" transform="translate(211.914062 0)"/>
      <use xlink:href="#Roboto-Regular-45" transform="translate(275 0)"/>
     </g>
    </g>
    <g id="line2d_52">
     <path d="M 574.49475 554.498 
L 592.09475 554.498 
L 609.69475 554.498 
" style="fill: none; stroke: #8172b3; stroke-width: 1.2; stroke-linecap: round"/>
    </g>
    <g id="text_33">
     <!-- SMASPE (tight) -->
     <g style="fill: #262626" transform="translate(623.77475 560.658) scale(0.176 -0.176)">
      <use xlink:href="#Roboto-Regular-53"/>
      <use xlink:href="#Roboto-Regular-4d" transform="translate(59.375 0)"/>
      <use xlink:href="#Roboto-Regular-41" transform="translate(146.679688 0)"/>
      <use xlink:href="#Roboto-Regular-53" transform="translate(211.914062 0)"/>
      <use xlink:href="#Roboto-Regular-50" transform="translate(271.289062 0)"/>
      <use xlink:href="#Roboto-Regular-45" transform="translate(334.375 0)"/>
      <use xlink:href="#Roboto-Regular-20" transform="translate(391.210938 0)"/>
      <use xlink:href="#Roboto-Regular-28" transform="translate(416.015625 0)"/>
      <use xlink:href="#Roboto-Regular-74" transform="translate(450.244141 0)"/>
      <use xlink:href="#Roboto-Regular-69" transform="translate(482.958984 0)"/>
      <use xlink:href="#Roboto-Regular-67" transform="translate(507.275391 0)"/>
      <use xlink:href="#Roboto-Regular-68" transform="translate(563.427734 0)"/>
      <use xlink:href="#Roboto-Regular-74" transform="translate(618.505859 0)"/>
      <use xlink:href="#Roboto-Regular-29" transform="translate(651.220703 0)"/>
     </g>
    </g>
    <g id="line2d_53">
     <path d="M 574.49475 581.45625 
L 592.09475 581.45625 
L 609.69475 581.45625 
" style="fill: none; stroke: #937860; stroke-width: 1.2; stroke-linecap: round"/>
    </g>
    <g id="text_34">
     <!-- SMASPE (loose) -->
     <g style="fill: #262626" transform="translate(623.77475 587.61625) scale(0.176 -0.176)">
      <use xlink:href="#Roboto-Regular-53"/>
      <use xlink:href="#Roboto-Regular-4d" transform="translate(59.375 0)"/>
      <use xlink:href="#Roboto-Regular-41" transform="translate(146.679688 0)"/>
      <use xlink:href="#Roboto-Regular-53" transform="translate(211.914062 0)"/>
      <use xlink:href="#Roboto-Regular-50" transform="translate(271.289062 0)"/>
      <use xlink:href="#Roboto-Regular-45" transform="translate(334.375 0)"/>
      <use xlink:href="#Roboto-Regular-20" transform="translate(391.210938 0)"/>
      <use xlink:href="#Roboto-Regular-28" transform="translate(416.015625 0)"/>
      <use xlink:href="#Roboto-Regular-6c" transform="translate(450.244141 0)"/>
      <use xlink:href="#Roboto-Regular-6f" transform="translate(474.560547 0)"/>
      <use xlink:href="#Roboto-Regular-6f" transform="translate(531.591797 0)"/>
      <use xlink:href="#Roboto-Regular-73" transform="translate(588.623047 0)"/>
      <use xlink:href="#Roboto-Regular-65" transform="translate(640.234375 0)"/>
      <use xlink:href="#Roboto-Regular-29" transform="translate(693.261719 0)"/>
     </g>
    </g>
   </g>
  </g>
 </g>
 <defs>
  <clipPath id="p239be72f17">
   <rect x="71.18" y="38.4" width="754.42" height="350.21625"/>
  </clipPath>
  <clipPath id="p7c64603b98">
   <rect x="71.18" y="427.01625" width="754.42" height="350.21625"/>
  </clipPath>
 </defs>
</svg>
