<?xml version="1.0" encoding="utf-8" standalone="no"?>
<!DOCTYPE svg PUBLIC "-//W3C//DTD SVG 1.1//EN"
  "http://www.w3.org/Graphics/SVG/1.1/DTD/svg11.dtd">
<svg xmlns:xlink="http://www.w3.org/1999/xlink" width="864pt" height="432pt" viewBox="0 0 864 432" xmlns="http://www.w3.org/2000/svg" version="1.1">
 <metadata>
  <rdf:RDF xmlns:dc="http://purl.org/dc/elements/1.1/" xmlns:cc="http://creativecommons.org/ns#" xmlns:rdf="http://www.w3.org/1999/02/22-rdf-syntax-ns#">
   <cc:Work>
    <dc:type rdf:resource="http://purl.org/dc/dcmitype/StillImage"/>
    <dc:date>2025-05-06T11:10:50.565661</dc:date>
    <dc:format>image/svg+xml</dc:format>
    <dc:creator>
     <cc:Agent>
      <dc:title>Matplotlib v3.10.1, https://matplotlib.org/</dc:title>
     </cc:Agent>
    </dc:creator>
   </cc:Work>
  </rdf:RDF>
 </metadata>
 <defs>
  <style type="text/css">*{stroke-linejoin: round; stroke-linecap: butt}</style>
 </defs>
 <g id="figure_1">
  <g id="patch_1">
   <path d="M 0 432 
L 864 432 
L 864 0 
L 0 0 
z
" style="fill: #ffffff"/>
  </g>
  <g id="axes_1">
   <g id="patch_2">
    <path d="M 107.58 347.46 
L 825.6 347.46 
L 825.6 38.4 
L 107.58 38.4 
z
" style="fill: #ffffff"/>
   </g>
   <g id="matplotlib.axis_1">
    <g id="xtick_1">
     <g id="line2d_1">
      <path d="M 107.58 347.46 
L 107.58 38.4 
" clip-path="url(#p7ea5282675)" style="fill: none; stroke: #cccccc; stroke-width: 0.8; stroke-linecap: round"/>
     </g>
     <g id="text_1">
      <!-- 0 -->
      <g style="fill: #262626" transform="translate(102.634125 368.96) scale(0.176 -0.176)">
       <defs>
        <path id="Roboto-Regular-30" d="M 3234 1944 
Q 3234 825 2848 381 
Q 2463 -63 1800 -63 
Q 1156 -63 764 368 
Q 372 800 359 1872 
L 359 2638 
Q 359 3753 750 4183 
Q 1141 4613 1794 4613 
Q 2447 4613 2834 4195 
Q 3222 3778 3234 2709 
L 3234 1944 
z
M 2653 2734 
Q 2653 3503 2434 3822 
Q 2216 4141 1794 4141 
Q 1388 4141 1167 3831 
Q 947 3522 941 2778 
L 941 1850 
Q 941 1088 1164 750 
Q 1388 413 1800 413 
Q 2222 413 2436 745 
Q 2650 1078 2653 1825 
L 2653 2734 
z
" transform="scale(0.015625)"/>
       </defs>
       <use xlink:href="#Roboto-Regular-30"/>
      </g>
     </g>
    </g>
    <g id="xtick_2">
     <g id="line2d_2">
      <path d="M 247.001359 347.46 
L 247.001359 38.4 
" clip-path="url(#p7ea5282675)" style="fill: none; stroke: #cccccc; stroke-width: 0.8; stroke-linecap: round"/>
     </g>
     <g id="text_2">
      <!-- 20 -->
      <g style="fill: #262626" transform="translate(237.109609 368.96) scale(0.176 -0.176)">
       <defs>
        <path id="Roboto-Regular-32" d="M 3359 475 
L 3359 0 
L 381 0 
L 381 416 
L 1925 2134 
Q 2306 2566 2439 2819 
Q 2572 3072 2572 3328 
Q 2572 3663 2364 3900 
Q 2156 4138 1778 4138 
Q 1322 4138 1097 3878 
Q 872 3619 872 3213 
L 294 3213 
Q 294 3788 672 4200 
Q 1050 4613 1778 4613 
Q 2422 4613 2786 4278 
Q 3150 3944 3150 3397 
Q 3150 2997 2903 2592 
Q 2656 2188 2297 1797 
L 1078 475 
L 3359 475 
z
" transform="scale(0.015625)"/>
       </defs>
       <use xlink:href="#Roboto-Regular-32"/>
       <use xlink:href="#Roboto-Regular-30" transform="translate(56.201172 0)"/>
      </g>
     </g>
    </g>
    <g id="xtick_3">
     <g id="line2d_3">
      <path d="M 386.422718 347.46 
L 386.422718 38.4 
" clip-path="url(#p7ea5282675)" style="fill: none; stroke: #cccccc; stroke-width: 0.8; stroke-linecap: round"/>
     </g>
     <g id="text_3">
      <!-- 40 -->
      <g style="fill: #262626" transform="translate(376.530968 368.96) scale(0.176 -0.176)">
       <defs>
        <path id="Roboto-Regular-34" d="M 166 1397 
L 2203 4550 
L 2819 4550 
L 2819 1531 
L 3453 1531 
L 3453 1056 
L 2819 1056 
L 2819 0 
L 2241 0 
L 2241 1056 
L 166 1056 
L 166 1397 
z
M 822 1531 
L 2241 1531 
L 2241 3766 
L 2169 3638 
L 822 1531 
z
" transform="scale(0.015625)"/>
       </defs>
       <use xlink:href="#Roboto-Regular-34"/>
       <use xlink:href="#Roboto-Regular-30" transform="translate(56.201172 0)"/>
      </g>
     </g>
    </g>
    <g id="xtick_4">
     <g id="line2d_4">
      <path d="M 525.844078 347.46 
L 525.844078 38.4 
" clip-path="url(#p7ea5282675)" style="fill: none; stroke: #cccccc; stroke-width: 0.8; stroke-linecap: round"/>
     </g>
     <g id="text_4">
      <!-- 60 -->
      <g style="fill: #262626" transform="translate(515.952328 368.96) scale(0.176 -0.176)">
       <defs>
        <path id="Roboto-Regular-36" d="M 3291 1484 
Q 3291 838 2930 387 
Q 2569 -63 1878 -63 
Q 1388 -63 1063 198 
Q 738 459 577 861 
Q 416 1263 416 1684 
L 416 1956 
Q 416 2597 595 3194 
Q 775 3791 1247 4173 
Q 1719 4556 2597 4556 
L 2647 4556 
L 2647 4066 
Q 2041 4066 1705 3853 
Q 1369 3641 1205 3302 
Q 1041 2963 1006 2575 
Q 1369 2984 1984 2984 
Q 2438 2984 2727 2765 
Q 3016 2547 3153 2201 
Q 3291 1856 3291 1484 
z
M 997 1666 
Q 997 1059 1267 737 
Q 1538 416 1878 416 
Q 2278 416 2498 708 
Q 2719 1000 2719 1456 
Q 2719 1863 2516 2184 
Q 2313 2506 1891 2506 
Q 1588 2506 1341 2325 
Q 1094 2144 997 1884 
L 997 1666 
z
" transform="scale(0.015625)"/>
       </defs>
       <use xlink:href="#Roboto-Regular-36"/>
       <use xlink:href="#Roboto-Regular-30" transform="translate(56.201172 0)"/>
      </g>
     </g>
    </g>
    <g id="xtick_5">
     <g id="line2d_5">
      <path d="M 665.265437 347.46 
L 665.265437 38.4 
" clip-path="url(#p7ea5282675)" style="fill: none; stroke: #cccccc; stroke-width: 0.8; stroke-linecap: round"/>
     </g>
     <g id="text_5">
      <!-- 80 -->
      <g style="fill: #262626" transform="translate(655.373687 368.96) scale(0.176 -0.176)">
       <defs>
        <path id="Roboto-Regular-38" d="M 3244 1231 
Q 3244 606 2826 271 
Q 2409 -63 1796 -63 
Q 1184 -63 767 271 
Q 350 606 350 1231 
Q 350 1613 554 1905 
Q 759 2197 1109 2347 
Q 806 2494 629 2762 
Q 453 3031 453 3366 
Q 453 3963 833 4288 
Q 1213 4613 1794 4613 
Q 2378 4613 2758 4288 
Q 3138 3963 3138 3366 
Q 3138 3028 2956 2761 
Q 2775 2494 2472 2347 
Q 2825 2197 3034 1903 
Q 3244 1609 3244 1231 
z
M 2559 3356 
Q 2559 3697 2346 3917 
Q 2134 4138 1793 4138 
Q 1453 4138 1243 3927 
Q 1034 3716 1034 3356 
Q 1034 3003 1243 2790 
Q 1453 2578 1797 2578 
Q 2138 2578 2348 2790 
Q 2559 3003 2559 3356 
z
M 2663 1244 
Q 2663 1625 2420 1865 
Q 2178 2106 1791 2106 
Q 1394 2106 1161 1865 
Q 928 1625 928 1244 
Q 928 850 1161 631 
Q 1394 413 1797 413 
Q 2200 413 2431 631 
Q 2663 850 2663 1244 
z
" transform="scale(0.015625)"/>
       </defs>
       <use xlink:href="#Roboto-Regular-38"/>
       <use xlink:href="#Roboto-Regular-30" transform="translate(56.201172 0)"/>
      </g>
     </g>
    </g>
    <g id="xtick_6">
     <g id="line2d_6">
      <path d="M 804.686796 347.46 
L 804.686796 38.4 
" clip-path="url(#p7ea5282675)" style="fill: none; stroke: #cccccc; stroke-width: 0.8; stroke-linecap: round"/>
     </g>
     <g id="text_6">
      <!-- 100 -->
      <g style="fill: #262626" transform="translate(789.849171 368.96) scale(0.176 -0.176)">
       <defs>
        <path id="Roboto-Regular-31" d="M 2278 4575 
L 2278 0 
L 1700 0 
L 1700 3853 
L 534 3428 
L 534 3950 
L 2188 4575 
L 2278 4575 
z
" transform="scale(0.015625)"/>
       </defs>
       <use xlink:href="#Roboto-Regular-31"/>
       <use xlink:href="#Roboto-Regular-30" transform="translate(56.201172 0)"/>
       <use xlink:href="#Roboto-Regular-30" transform="translate(112.402344 0)"/>
      </g>
     </g>
    </g>
    <g id="text_7">
     <!-- Week -->
     <g style="fill: #262626" transform="translate(443.025 390.935) scale(0.192 -0.192)">
      <defs>
       <path id="Roboto-Regular-57" d="M 5541 4550 
L 4441 0 
L 3894 0 
L 2956 3316 
L 2884 3663 
L 2813 3316 
L 1841 0 
L 1294 0 
L 191 4550 
L 791 4550 
L 1509 1438 
L 1600 834 
L 1725 1375 
L 2628 4550 
L 3131 4550 
L 4009 1375 
L 4138 822 
L 4234 1441 
L 4938 4550 
L 5541 4550 
z
" transform="scale(0.015625)"/>
       <path id="Roboto-Regular-65" d="M 3116 591 
Q 2950 341 2647 139 
Q 2344 -63 1844 -63 
Q 1138 -63 714 396 
Q 291 856 291 1572 
L 291 1703 
Q 291 2256 502 2645 
Q 713 3034 1050 3239 
Q 1388 3444 1769 3444 
Q 2494 3444 2826 2970 
Q 3159 2497 3159 1788 
L 3159 1528 
L 872 1528 
Q 884 1063 1148 736 
Q 1413 409 1875 409 
Q 2181 409 2393 534 
Q 2606 659 2766 869 
L 3116 591 
z
M 1769 2969 
Q 1425 2969 1187 2719 
Q 950 2469 891 2000 
L 2581 2000 
L 2581 2044 
Q 2559 2381 2386 2675 
Q 2213 2969 1769 2969 
z
" transform="scale(0.015625)"/>
       <path id="Roboto-Regular-6b" d="M 2559 0 
L 1388 1569 
L 1022 1191 
L 1022 0 
L 441 0 
L 441 4800 
L 1022 4800 
L 1022 1900 
L 1331 2269 
L 2381 3381 
L 3088 3381 
L 1769 1972 
L 3241 0 
L 2559 0 
z
" transform="scale(0.015625)"/>
      </defs>
      <use xlink:href="#Roboto-Regular-57"/>
      <use xlink:href="#Roboto-Regular-65" transform="translate(88.720703 0)"/>
      <use xlink:href="#Roboto-Regular-65" transform="translate(141.748047 0)"/>
      <use xlink:href="#Roboto-Regular-6b" transform="translate(194.775391 0)"/>
     </g>
    </g>
   </g>
   <g id="matplotlib.axis_2">
    <g id="ytick_1">
     <g id="line2d_7">
      <path d="M 107.58 347.46 
L 825.6 347.46 
" clip-path="url(#p7ea5282675)" style="fill: none; stroke: #cccccc; stroke-width: 0.8; stroke-linecap: round"/>
     </g>
     <g id="text_8">
      <!-- 0 -->
      <g style="fill: #262626" transform="translate(89.38825 354.06) scale(0.176 -0.176)">
       <use xlink:href="#Roboto-Regular-30"/>
      </g>
     </g>
    </g>
    <g id="ytick_2">
     <g id="line2d_8">
      <path d="M 107.58 274.39617 
L 825.6 274.39617 
" clip-path="url(#p7ea5282675)" style="fill: none; stroke: #cccccc; stroke-width: 0.8; stroke-linecap: round"/>
     </g>
     <g id="text_9">
      <!-- 500 -->
      <g style="fill: #262626" transform="translate(69.60475 280.99617) scale(0.176 -0.176)">
       <defs>
        <path id="Roboto-Regular-35" d="M 1109 2166 
L 647 2284 
L 875 4550 
L 3209 4550 
L 3209 4016 
L 1366 4016 
L 1228 2778 
Q 1572 2975 1988 2975 
Q 2616 2975 2980 2561 
Q 3344 2147 3344 1450 
Q 3344 797 2987 367 
Q 2631 -63 1903 -63 
Q 1350 -63 947 248 
Q 544 559 481 1197 
L 1031 1197 
Q 1141 413 1903 413 
Q 2313 413 2538 691 
Q 2763 969 2763 1444 
Q 2763 1872 2527 2164 
Q 2291 2456 1853 2456 
Q 1563 2456 1413 2378 
Q 1263 2300 1109 2166 
z
" transform="scale(0.015625)"/>
       </defs>
       <use xlink:href="#Roboto-Regular-35"/>
       <use xlink:href="#Roboto-Regular-30" transform="translate(56.201172 0)"/>
       <use xlink:href="#Roboto-Regular-30" transform="translate(112.402344 0)"/>
      </g>
     </g>
    </g>
    <g id="ytick_3">
     <g id="line2d_9">
      <path d="M 107.58 201.33234 
L 825.6 201.33234 
" clip-path="url(#p7ea5282675)" style="fill: none; stroke: #cccccc; stroke-width: 0.8; stroke-linecap: round"/>
     </g>
     <g id="text_10">
      <!-- 1000 -->
      <g style="fill: #262626" transform="translate(59.713 207.93234) scale(0.176 -0.176)">
       <use xlink:href="#Roboto-Regular-31"/>
       <use xlink:href="#Roboto-Regular-30" transform="translate(56.201172 0)"/>
       <use xlink:href="#Roboto-Regular-30" transform="translate(112.402344 0)"/>
       <use xlink:href="#Roboto-Regular-30" transform="translate(168.603516 0)"/>
      </g>
     </g>
    </g>
    <g id="ytick_4">
     <g id="line2d_10">
      <path d="M 107.58 128.268511 
L 825.6 128.268511 
" clip-path="url(#p7ea5282675)" style="fill: none; stroke: #cccccc; stroke-width: 0.8; stroke-linecap: round"/>
     </g>
     <g id="text_11">
      <!-- 1500 -->
      <g style="fill: #262626" transform="translate(59.713 134.868511) scale(0.176 -0.176)">
       <use xlink:href="#Roboto-Regular-31"/>
       <use xlink:href="#Roboto-Regular-35" transform="translate(56.201172 0)"/>
       <use xlink:href="#Roboto-Regular-30" transform="translate(112.402344 0)"/>
       <use xlink:href="#Roboto-Regular-30" transform="translate(168.603516 0)"/>
      </g>
     </g>
    </g>
    <g id="ytick_5">
     <g id="line2d_11">
      <path d="M 107.58 55.204681 
L 825.6 55.204681 
" clip-path="url(#p7ea5282675)" style="fill: none; stroke: #cccccc; stroke-width: 0.8; stroke-linecap: round"/>
     </g>
     <g id="text_12">
      <!-- 2000 -->
      <g style="fill: #262626" transform="translate(59.713 61.804681) scale(0.176 -0.176)">
       <use xlink:href="#Roboto-Regular-32"/>
       <use xlink:href="#Roboto-Regular-30" transform="translate(56.201172 0)"/>
       <use xlink:href="#Roboto-Regular-30" transform="translate(112.402344 0)"/>
       <use xlink:href="#Roboto-Regular-30" transform="translate(168.603516 0)"/>
      </g>
     </g>
    </g>
    <g id="text_13">
     <!-- Units Sold -->
     <g style="fill: #262626" transform="translate(51.813 236.19) rotate(-90) scale(0.192 -0.192)">
      <defs>
       <path id="Roboto-Regular-55" d="M 3131 4550 
L 3731 4550 
L 3731 1472 
Q 3731 703 3237 320 
Q 2744 -63 2081 -63 
Q 1384 -63 911 320 
Q 438 703 438 1472 
L 438 4550 
L 1034 4550 
L 1034 1472 
Q 1034 938 1323 683 
Q 1613 428 2081 428 
Q 2556 428 2843 683 
Q 3131 938 3131 1472 
L 3131 4550 
z
" transform="scale(0.015625)"/>
       <path id="Roboto-Regular-6e" d="M 1844 2956 
Q 1566 2956 1353 2806 
Q 1141 2656 1019 2416 
L 1019 0 
L 441 0 
L 441 3381 
L 988 3381 
L 1006 2959 
Q 1391 3444 2016 3444 
Q 2513 3444 2805 3166 
Q 3097 2888 3100 2231 
L 3100 0 
L 2519 0 
L 2519 2222 
Q 2519 2619 2345 2787 
Q 2172 2956 1844 2956 
z
" transform="scale(0.015625)"/>
       <path id="Roboto-Regular-69" d="M 444 4278 
Q 444 4419 530 4516 
Q 616 4613 784 4613 
Q 950 4613 1039 4516 
Q 1128 4419 1128 4278 
Q 1128 4144 1039 4048 
Q 950 3953 784 3953 
Q 616 3953 530 4048 
Q 444 4144 444 4278 
z
M 1069 3381 
L 1069 0 
L 488 0 
L 488 3381 
L 1069 3381 
z
" transform="scale(0.015625)"/>
       <path id="Roboto-Regular-74" d="M 1872 0 
Q 1675 -63 1425 -63 
Q 1103 -63 875 134 
Q 647 331 647 841 
L 647 2938 
L 28 2938 
L 28 3381 
L 647 3381 
L 647 4203 
L 1225 4203 
L 1225 3381 
L 1856 3381 
L 1856 2938 
L 1225 2938 
L 1225 838 
Q 1225 578 1337 506 
Q 1450 434 1597 434 
Q 1706 434 1869 472 
L 1872 0 
z
" transform="scale(0.015625)"/>
       <path id="Roboto-Regular-73" d="M 2409 897 
Q 2409 1081 2273 1229 
Q 2138 1378 1647 1478 
Q 1081 1594 747 1814 
Q 413 2034 413 2456 
Q 413 2856 755 3150 
Q 1097 3444 1666 3444 
Q 2272 3444 2612 3134 
Q 2953 2825 2953 2388 
L 2375 2388 
Q 2375 2597 2190 2783 
Q 2006 2969 1666 2969 
Q 1306 2969 1150 2812 
Q 994 2656 994 2472 
Q 994 2288 1139 2173 
Q 1284 2059 1756 1953 
Q 2378 1813 2683 1584 
Q 2988 1356 2988 941 
Q 2988 494 2630 215 
Q 2272 -63 1681 -63 
Q 1009 -63 653 281 
Q 297 625 297 1044 
L 878 1044 
Q 897 684 1155 548 
Q 1413 413 1681 413 
Q 2034 413 2221 550 
Q 2409 688 2409 897 
z
" transform="scale(0.015625)"/>
       <path id="Roboto-Regular-20" transform="scale(0.015625)"/>
       <path id="Roboto-Regular-53" d="M 2953 1150 
Q 2953 1463 2742 1650 
Q 2531 1838 1856 2036 
Q 1181 2234 789 2542 
Q 397 2850 397 3375 
Q 397 3906 820 4259 
Q 1244 4613 1944 4613 
Q 2713 4613 3130 4191 
Q 3547 3769 3547 3238 
L 2947 3238 
Q 2947 3619 2700 3869 
Q 2453 4119 1944 4119 
Q 1463 4119 1231 3908 
Q 1000 3697 1000 3381 
Q 1000 3097 1245 2908 
Q 1491 2719 2044 2563 
Q 2834 2341 3196 2014 
Q 3559 1688 3559 1156 
Q 3559 600 3125 268 
Q 2691 -63 1972 -63 
Q 1553 -63 1158 93 
Q 763 250 508 558 
Q 253 866 253 1319 
L 853 1319 
Q 853 853 1193 640 
Q 1534 428 1972 428 
Q 2444 428 2698 623 
Q 2953 819 2953 1150 
z
" transform="scale(0.015625)"/>
       <path id="Roboto-Regular-6f" d="M 288 1725 
Q 288 2459 700 2951 
Q 1113 3444 1822 3444 
Q 2531 3444 2943 2961 
Q 3356 2478 3366 1756 
L 3366 1653 
Q 3366 919 2952 428 
Q 2538 -63 1828 -63 
Q 1116 -63 702 428 
Q 288 919 288 1653 
L 288 1725 
z
M 866 1653 
Q 866 1150 1105 781 
Q 1344 413 1828 413 
Q 2300 413 2540 777 
Q 2781 1141 2784 1644 
L 2784 1725 
Q 2784 2222 2543 2595 
Q 2303 2969 1822 2969 
Q 1344 2969 1105 2595 
Q 866 2222 866 1725 
L 866 1653 
z
" transform="scale(0.015625)"/>
       <path id="Roboto-Regular-6c" d="M 1069 4800 
L 1069 0 
L 488 0 
L 488 4800 
L 1069 4800 
z
" transform="scale(0.015625)"/>
       <path id="Roboto-Regular-64" d="M 2622 0 
L 2594 363 
Q 2247 -63 1628 -63 
Q 1034 -63 668 418 
Q 303 900 297 1628 
L 297 1719 
Q 297 2494 664 2969 
Q 1031 3444 1634 3444 
Q 2231 3444 2572 3044 
L 2572 4800 
L 3153 4800 
L 3153 0 
L 2622 0 
z
M 878 1653 
Q 878 1150 1090 789 
Q 1303 428 1772 428 
Q 2309 428 2572 919 
L 2572 2475 
Q 2313 2956 1778 2956 
Q 1306 2956 1092 2589 
Q 878 2222 878 1719 
L 878 1653 
z
" transform="scale(0.015625)"/>
      </defs>
      <use xlink:href="#Roboto-Regular-55"/>
      <use xlink:href="#Roboto-Regular-6e" transform="translate(64.84375 0)"/>
      <use xlink:href="#Roboto-Regular-69" transform="translate(120.068359 0)"/>
      <use xlink:href="#Roboto-Regular-74" transform="translate(144.384766 0)"/>
      <use xlink:href="#Roboto-Regular-73" transform="translate(177.099609 0)"/>
      <use xlink:href="#Roboto-Regular-20" transform="translate(228.710938 0)"/>
      <use xlink:href="#Roboto-Regular-53" transform="translate(253.515625 0)"/>
      <use xlink:href="#Roboto-Regular-6f" transform="translate(312.890625 0)"/>
      <use xlink:href="#Roboto-Regular-6c" transform="translate(369.921875 0)"/>
      <use xlink:href="#Roboto-Regular-64" transform="translate(394.238281 0)"/>
     </g>
    </g>
   </g>
   <g id="line2d_12">
    <path d="M 107.58 344.099064 
L 114.551068 340.445872 
L 121.522136 340.592 
L 128.493204 341.322638 
L 135.464272 344.245191 
L 142.43534 343.222298 
L 149.406408 340.592 
L 156.377476 344.099064 
L 163.348544 343.660681 
L 170.319612 343.660681 
L 177.29068 343.514553 
L 184.261748 340.153617 
L 191.232816 344.245191 
L 198.203883 344.245191 
L 205.174951 340.445872 
L 212.146019 340.445872 
L 219.117087 341.761021 
L 226.088155 341.322638 
L 233.059223 343.514553 
L 240.030291 343.07617 
L 247.001359 344.245191 
L 253.972427 343.222298 
L 260.943495 344.099064 
L 267.914563 341.907149 
L 274.885631 340.153617 
L 281.856699 343.222298 
L 288.827767 343.368426 
L 295.798835 340.884255 
L 302.769903 340.299745 
L 309.740971 342.053277 
L 316.712039 343.806809 
L 323.683107 340.884255 
L 330.654175 342.345532 
L 337.625243 343.952936 
L 344.596311 344.537447 
L 351.567379 344.099064 
L 358.538447 343.514553 
L 365.509515 343.952936 
L 372.480583 342.053277 
L 379.45165 341.322638 
L 386.422718 343.514553 
L 393.393786 344.391319 
L 400.364854 343.368426 
L 407.335922 340.884255 
L 414.30699 343.222298 
L 421.278058 342.637787 
L 428.249126 342.49166 
L 435.220194 338.984596 
L 442.191262 327.586638 
L 449.16233 321.303149 
L 456.133398 295.146298 
L 463.104466 342.783915 
L 470.075534 343.368426 
L 477.046602 343.952936 
L 484.01767 340.445872 
L 490.988738 344.245191 
L 497.959806 343.07617 
L 504.930874 340.153617 
L 511.901942 343.222298 
L 518.87301 340.884255 
L 525.844078 344.099064 
L 532.815146 342.053277 
L 539.786214 344.391319 
L 546.757282 344.245191 
L 553.72835 341.614894 
L 560.699417 341.030383 
L 567.670485 343.806809 
L 574.641553 344.391319 
L 581.612621 344.245191 
L 588.583689 342.345532 
L 595.554757 341.907149 
L 602.525825 341.761021 
L 609.496893 341.030383 
L 616.467961 342.637787 
L 623.439029 342.637787 
L 630.410097 344.245191 
L 637.381165 343.07617 
L 644.352233 341.761021 
L 651.323301 342.199404 
L 658.294369 341.468766 
L 665.265437 341.322638 
L 672.236505 342.053277 
L 679.207573 340.592 
L 686.178641 340.884255 
L 693.149709 344.245191 
L 700.120777 341.761021 
L 707.091845 342.345532 
L 714.062913 341.176511 
L 721.033981 343.07617 
L 728.005049 343.952936 
L 734.976117 342.930043 
L 741.947184 341.030383 
L 748.918252 343.514553 
L 755.88932 344.391319 
L 762.860388 342.930043 
L 769.831456 342.053277 
L 776.802524 342.637787 
L 783.773592 341.614894 
L 790.74466 329.194043 
L 797.715728 328.025021 
L 804.686796 313.996766 
L 811.657864 291.785362 
L 818.628932 344.391319 
L 825.6 342.930043 
" clip-path="url(#p7ea5282675)" style="fill: none; stroke: #4c72b0; stroke-width: 1.2; stroke-linecap: round"/>
   </g>
   <g id="line2d_13">
    <path d="M 107.58 345.998723 
L 114.551068 342.053277 
L 121.522136 336.646553 
L 128.493204 343.952936 
L 135.464272 343.07617 
L 142.43534 343.952936 
L 149.406408 336.646553 
L 156.377476 343.368426 
L 163.348544 335.915915 
L 170.319612 336.646553 
L 177.29068 337.669447 
L 184.261748 334.746894 
L 191.232816 344.683574 
L 198.203883 345.121957 
L 205.174951 340.007489 
L 212.146019 339.715234 
L 219.117087 335.769787 
L 226.088155 346.290979 
L 233.059223 336.062043 
L 240.030291 336.792681 
L 247.001359 343.07617 
L 253.972427 343.07617 
L 260.943495 345.56034 
L 267.914563 347.46 
L 274.885631 345.998723 
L 281.856699 338.10783 
L 288.827767 342.053277 
L 295.798835 343.222298 
L 302.769903 344.099064 
L 309.740971 342.199404 
L 316.712039 336.20817 
L 323.683107 345.121957 
L 330.654175 333.285617 
L 337.625243 346.875489 
L 344.596311 339.569106 
L 351.567379 345.998723 
L 358.538447 344.829702 
L 365.509515 343.07617 
L 372.480583 346.583234 
L 379.45165 334.600766 
L 386.422718 338.10783 
L 393.393786 341.907149 
L 400.364854 341.322638 
L 407.335922 336.792681 
L 414.30699 335.62366 
L 421.278058 344.683574 
L 428.249126 339.276851 
L 435.220194 318.380596 
L 442.191262 301.722043 
L 449.16233 236.987489 
L 456.133398 38.4 
L 463.104466 335.477532 
L 470.075534 338.400085 
L 477.046602 342.930043 
L 484.01767 338.253957 
L 490.988738 346.437106 
L 497.959806 334.016255 
L 504.930874 333.139489 
L 511.901942 340.738128 
L 518.87301 344.099064 
L 525.844078 335.769787 
L 532.815146 344.245191 
L 539.786214 336.938809 
L 546.757282 345.56034 
L 553.72835 333.431745 
L 560.699417 334.308511 
L 567.670485 344.683574 
L 574.641553 337.523319 
L 581.612621 333.431745 
L 588.583689 333.285617 
L 595.554757 334.016255 
L 602.525825 338.400085 
L 609.496893 341.176511 
L 616.467961 337.669447 
L 623.439029 336.20817 
L 630.410097 337.523319 
L 637.381165 342.053277 
L 644.352233 339.130723 
L 651.323301 345.56034 
L 658.294369 337.377191 
L 665.265437 336.500426 
L 672.236505 341.176511 
L 679.207573 343.952936 
L 686.178641 344.537447 
L 693.149709 338.253957 
L 700.120777 341.322638 
L 707.091845 343.660681 
L 714.062913 343.514553 
L 721.033981 334.162383 
L 728.005049 341.614894 
L 734.976117 339.130723 
L 741.947184 341.761021 
L 748.918252 337.669447 
L 755.88932 338.546213 
L 762.860388 335.769787 
L 769.831456 346.729362 
L 776.802524 340.299745 
L 783.773592 336.938809 
L 790.74466 332.993362 
L 797.715728 317.50383 
L 804.686796 273.081021 
L 811.657864 258.176 
L 818.628932 346.290979 
L 825.6 334.746894 
" clip-path="url(#p7ea5282675)" style="fill: none; stroke: #dd8452; stroke-width: 1.2; stroke-linecap: round"/>
   </g>
   <g id="line2d_14">
    <path d="M 107.58 338.10783 
L 114.551068 337.815574 
L 121.522136 340.153617 
L 128.493204 335.185277 
L 135.464272 339.715234 
L 142.43534 335.331404 
L 149.406408 335.185277 
L 156.377476 333.139489 
L 163.348544 335.185277 
L 170.319612 337.377191 
L 177.29068 337.231064 
L 184.261748 334.308511 
L 191.232816 333.724 
L 198.203883 334.016255 
L 205.174951 336.792681 
L 212.146019 335.477532 
L 219.117087 335.185277 
L 226.088155 335.62366 
L 233.059223 339.130723 
L 240.030291 339.715234 
L 247.001359 338.838468 
L 253.972427 337.815574 
L 260.943495 339.861362 
L 267.914563 334.308511 
L 274.885631 336.500426 
L 281.856699 334.893021 
L 288.827767 338.10783 
L 295.798835 336.938809 
L 302.769903 333.285617 
L 309.740971 338.400085 
L 316.712039 334.746894 
L 323.683107 338.253957 
L 330.654175 337.231064 
L 337.625243 336.792681 
L 344.596311 335.331404 
L 351.567379 333.577872 
L 358.538447 335.915915 
L 365.509515 334.016255 
L 372.480583 336.354298 
L 379.45165 340.153617 
L 386.422718 335.039149 
L 393.393786 336.792681 
L 400.364854 338.10783 
L 407.335922 338.253957 
L 414.30699 338.400085 
L 421.278058 340.153617 
L 428.249126 334.016255 
L 435.220194 330.363064 
L 442.191262 312.389362 
L 449.16233 287.255404 
L 456.133398 286.524766 
L 463.104466 334.454638 
L 470.075534 339.422979 
L 477.046602 338.400085 
L 484.01767 338.10783 
L 490.988738 333.285617 
L 497.959806 332.993362 
L 504.930874 337.377191 
L 511.901942 336.062043 
L 518.87301 338.838468 
L 525.844078 337.523319 
L 532.815146 336.354298 
L 539.786214 337.231064 
L 546.757282 338.546213 
L 553.72835 337.231064 
L 560.699417 336.20817 
L 567.670485 337.377191 
L 574.641553 340.153617 
L 581.612621 340.153617 
L 588.583689 334.308511 
L 595.554757 338.546213 
L 602.525825 335.477532 
L 609.496893 339.276851 
L 616.467961 334.454638 
L 623.439029 332.993362 
L 630.410097 336.20817 
L 637.381165 332.847234 
L 644.352233 337.523319 
L 651.323301 336.938809 
L 658.294369 335.62366 
L 665.265437 336.062043 
L 672.236505 339.861362 
L 679.207573 339.130723 
L 686.178641 335.62366 
L 693.149709 338.400085 
L 700.120777 332.993362 
L 707.091845 333.577872 
L 714.062913 335.331404 
L 721.033981 338.69234 
L 728.005049 336.646553 
L 734.976117 334.454638 
L 741.947184 332.993362 
L 748.918252 335.039149 
L 755.88932 339.861362 
L 762.860388 335.331404 
L 769.831456 339.861362 
L 776.802524 335.477532 
L 783.773592 338.253957 
L 790.74466 332.116596 
L 797.715728 316.188681 
L 804.686796 257.591489 
L 811.657864 216.091234 
L 818.628932 334.746894 
L 825.6 334.454638 
" clip-path="url(#p7ea5282675)" style="fill: none; stroke: #55a868; stroke-width: 1.2; stroke-linecap: round"/>
   </g>
   <g id="line2d_15">
    <path d="M 107.58 342.345532 
L 114.551068 340.153617 
L 121.522136 340.153617 
L 128.493204 342.783915 
L 135.464272 342.49166 
L 142.43534 343.07617 
L 149.406408 343.222298 
L 156.377476 343.806809 
L 163.348544 340.884255 
L 170.319612 342.199404 
L 177.29068 340.592 
L 184.261748 344.391319 
L 191.232816 342.637787 
L 198.203883 343.07617 
L 205.174951 341.907149 
L 212.146019 340.153617 
L 219.117087 341.761021 
L 226.088155 343.660681 
L 233.059223 342.199404 
L 240.030291 341.322638 
L 247.001359 343.222298 
L 253.972427 343.368426 
L 260.943495 342.199404 
L 267.914563 341.468766 
L 274.885631 343.806809 
L 281.856699 340.153617 
L 288.827767 341.030383 
L 295.798835 342.637787 
L 302.769903 343.952936 
L 309.740971 342.199404 
L 316.712039 340.738128 
L 323.683107 340.299745 
L 330.654175 342.637787 
L 337.625243 344.391319 
L 344.596311 343.222298 
L 351.567379 341.468766 
L 358.538447 340.592 
L 365.509515 342.345532 
L 372.480583 342.053277 
L 379.45165 342.199404 
L 386.422718 340.299745 
L 393.393786 342.199404 
L 400.364854 341.614894 
L 407.335922 343.806809 
L 414.30699 341.614894 
L 421.278058 342.053277 
L 428.249126 341.761021 
L 435.220194 325.833106 
L 442.191262 319.695745 
L 449.16233 299.530128 
L 456.133398 218.575404 
L 463.104466 340.153617 
L 470.075534 342.345532 
L 477.046602 343.222298 
L 484.01767 340.445872 
L 490.988738 341.907149 
L 497.959806 342.930043 
L 504.930874 340.445872 
L 511.901942 344.245191 
L 518.87301 343.368426 
L 525.844078 343.952936 
L 532.815146 343.806809 
L 539.786214 343.222298 
L 546.757282 340.884255 
L 553.72835 340.738128 
L 560.699417 342.930043 
L 567.670485 342.053277 
L 574.641553 342.637787 
L 581.612621 340.738128 
L 588.583689 341.614894 
L 595.554757 344.537447 
L 602.525825 340.153617 
L 609.496893 342.49166 
L 616.467961 340.884255 
L 623.439029 344.537447 
L 630.410097 342.930043 
L 637.381165 343.806809 
L 644.352233 342.930043 
L 651.323301 341.907149 
L 658.294369 344.391319 
L 665.265437 342.637787 
L 672.236505 341.907149 
L 679.207573 344.537447 
L 686.178641 342.783915 
L 693.149709 340.153617 
L 700.120777 344.537447 
L 707.091845 340.445872 
L 714.062913 341.761021 
L 721.033981 341.761021 
L 728.005049 343.368426 
L 734.976117 341.030383 
L 741.947184 342.783915 
L 748.918252 344.245191 
L 755.88932 341.907149 
L 762.860388 342.49166 
L 769.831456 341.468766 
L 776.802524 343.952936 
L 783.773592 341.030383 
L 790.74466 338.10783 
L 797.715728 325.248596 
L 804.686796 283.309957 
L 811.657864 192.418553 
L 818.628932 343.222298 
L 825.6 341.468766 
" clip-path="url(#p7ea5282675)" style="fill: none; stroke: #c44e52; stroke-width: 1.2; stroke-linecap: round"/>
   </g>
   <g id="line2d_16">
    <path d="M 107.58 340.884255 
L 114.551068 344.391319 
L 121.522136 341.614894 
L 128.493204 341.907149 
L 135.464272 342.930043 
L 142.43534 344.099064 
L 149.406408 341.176511 
L 156.377476 340.299745 
L 163.348544 340.445872 
L 170.319612 343.806809 
L 177.29068 340.884255 
L 184.261748 342.783915 
L 191.232816 342.053277 
L 198.203883 343.222298 
L 205.174951 343.368426 
L 212.146019 340.884255 
L 219.117087 340.884255 
L 226.088155 341.907149 
L 233.059223 341.907149 
L 240.030291 342.053277 
L 247.001359 341.468766 
L 253.972427 342.637787 
L 260.943495 342.345532 
L 267.914563 341.468766 
L 274.885631 344.537447 
L 281.856699 340.299745 
L 288.827767 342.345532 
L 295.798835 344.391319 
L 302.769903 341.907149 
L 309.740971 343.368426 
L 316.712039 340.738128 
L 323.683107 344.099064 
L 330.654175 340.299745 
L 337.625243 343.952936 
L 344.596311 342.637787 
L 351.567379 341.761021 
L 358.538447 341.030383 
L 365.509515 343.514553 
L 372.480583 340.153617 
L 379.45165 340.592 
L 386.422718 343.222298 
L 393.393786 341.907149 
L 400.364854 342.783915 
L 407.335922 341.761021 
L 414.30699 343.952936 
L 421.278058 344.099064 
L 428.249126 341.176511 
L 435.220194 336.792681 
L 442.191262 316.480936 
L 449.16233 305.229106 
L 456.133398 267.382043 
L 463.104466 341.030383 
L 470.075534 340.153617 
L 477.046602 340.299745 
L 484.01767 341.907149 
L 490.988738 342.783915 
L 497.959806 342.49166 
L 504.930874 343.222298 
L 511.901942 341.761021 
L 518.87301 342.49166 
L 525.844078 341.030383 
L 532.815146 341.468766 
L 539.786214 340.153617 
L 546.757282 342.053277 
L 553.72835 341.468766 
L 560.699417 342.053277 
L 567.670485 343.660681 
L 574.641553 343.07617 
L 581.612621 342.930043 
L 588.583689 343.514553 
L 595.554757 342.49166 
L 602.525825 344.099064 
L 609.496893 343.368426 
L 616.467961 340.592 
L 623.439029 344.537447 
L 630.410097 340.738128 
L 637.381165 340.592 
L 644.352233 341.614894 
L 651.323301 340.592 
L 658.294369 341.614894 
L 665.265437 343.806809 
L 672.236505 341.468766 
L 679.207573 342.783915 
L 686.178641 340.884255 
L 693.149709 343.368426 
L 700.120777 344.245191 
L 707.091845 342.637787 
L 714.062913 340.738128 
L 721.033981 340.884255 
L 728.005049 342.053277 
L 734.976117 343.660681 
L 741.947184 342.199404 
L 748.918252 341.030383 
L 755.88932 341.761021 
L 762.860388 343.806809 
L 769.831456 342.053277 
L 776.802524 340.738128 
L 783.773592 342.637787 
L 790.74466 339.861362 
L 797.715728 330.947574 
L 804.686796 317.942213 
L 811.657864 277.026468 
L 818.628932 341.614894 
L 825.6 344.537447 
" clip-path="url(#p7ea5282675)" style="fill: none; stroke: #8172b3; stroke-width: 1.2; stroke-linecap: round"/>
   </g>
   <g id="patch_3">
    <path d="M 107.58 347.46 
L 107.58 38.4 
" style="fill: none; stroke: #cccccc; stroke-linejoin: miter; stroke-linecap: square"/>
   </g>
   <g id="patch_4">
    <path d="M 825.6 347.46 
L 825.6 38.4 
" style="fill: none; stroke: #cccccc; stroke-linejoin: miter; stroke-linecap: square"/>
   </g>
   <g id="patch_5">
    <path d="M 107.58 347.46 
L 825.6 347.46 
" style="fill: none; stroke: #cccccc; stroke-linejoin: miter; stroke-linecap: square"/>
   </g>
   <g id="patch_6">
    <path d="M 107.58 38.4 
L 825.6 38.4 
" style="fill: none; stroke: #cccccc; stroke-linejoin: miter; stroke-linecap: square"/>
   </g>
   <g id="legend_1">
    <g id="patch_7">
     <path d="M 634.31275 180.355 
L 813.28 180.355 
Q 816.8 180.355 816.8 176.835 
L 816.8 50.72 
Q 816.8 47.2 813.28 47.2 
L 634.31275 47.2 
Q 630.79275 47.2 630.79275 50.72 
L 630.79275 176.835 
Q 630.79275 180.355 634.31275 180.355 
z
" style="fill: #ffffff; opacity: 0.8; stroke: #cccccc; stroke-width: 0.8; stroke-linejoin: miter"/>
    </g>
    <g id="line2d_17">
     <path d="M 637.83275 61.28 
L 655.43275 61.28 
L 673.03275 61.28 
" style="fill: none; stroke: #4c72b0; stroke-width: 1.2; stroke-linecap: round"/>
    </g>
    <g id="text_14">
     <!-- Store1: SKU1 -->
     <g style="fill: #262626" transform="translate(687.11275 67.44) scale(0.176 -0.176)">
      <defs>
       <path id="Roboto-Regular-72" d="M 1791 2888 
Q 1225 2888 1019 2400 
L 1019 0 
L 441 0 
L 441 3381 
L 1003 3381 
L 1016 2994 
Q 1294 3444 1819 3444 
Q 1981 3444 2075 3400 
L 2072 2863 
Q 1944 2888 1791 2888 
z
" transform="scale(0.015625)"/>
       <path id="Roboto-Regular-3a" d="M 416 306 
Q 416 453 508 554 
Q 600 656 775 656 
Q 950 656 1042 554 
Q 1134 453 1134 306 
Q 1134 163 1042 62 
Q 950 -38 775 -38 
Q 600 -38 508 62 
Q 416 163 416 306 
z
M 419 3065 
Q 419 3212 511 3313 
Q 603 3415 778 3415 
Q 953 3415 1045 3313 
Q 1138 3212 1138 3065 
Q 1138 2922 1045 2821 
Q 953 2721 778 2721 
Q 603 2721 511 2821 
Q 419 2922 419 3065 
z
" transform="scale(0.015625)"/>
       <path id="Roboto-Regular-4b" d="M 3297 0 
L 1688 2119 
L 1131 1541 
L 1131 0 
L 528 0 
L 528 4550 
L 1131 4550 
L 1131 2306 
L 3153 4550 
L 3878 4550 
L 2091 2541 
L 4016 0 
L 3297 0 
z
" transform="scale(0.015625)"/>
      </defs>
      <use xlink:href="#Roboto-Regular-53"/>
      <use xlink:href="#Roboto-Regular-74" transform="translate(59.375 0)"/>
      <use xlink:href="#Roboto-Regular-6f" transform="translate(92.089844 0)"/>
      <use xlink:href="#Roboto-Regular-72" transform="translate(149.121094 0)"/>
      <use xlink:href="#Roboto-Regular-65" transform="translate(183.007812 0)"/>
      <use xlink:href="#Roboto-Regular-31" transform="translate(236.035156 0)"/>
      <use xlink:href="#Roboto-Regular-3a" transform="translate(292.236328 0)"/>
      <use xlink:href="#Roboto-Regular-20" transform="translate(316.455078 0)"/>
      <use xlink:href="#Roboto-Regular-53" transform="translate(341.259766 0)"/>
      <use xlink:href="#Roboto-Regular-4b" transform="translate(400.634766 0)"/>
      <use xlink:href="#Roboto-Regular-55" transform="translate(463.378906 0)"/>
      <use xlink:href="#Roboto-Regular-31" transform="translate(528.222656 0)"/>
     </g>
    </g>
    <g id="line2d_18">
     <path d="M 637.83275 86.855 
L 655.43275 86.855 
L 673.03275 86.855 
" style="fill: none; stroke: #dd8452; stroke-width: 1.2; stroke-linecap: round"/>
    </g>
    <g id="text_15">
     <!-- Store2: SKU271 -->
     <g style="fill: #262626" transform="translate(687.11275 93.015) scale(0.176 -0.176)">
      <defs>
       <path id="Roboto-Regular-37" d="M 3319 4550 
L 3319 4225 
L 1434 0 
L 825 0 
L 2706 4075 
L 244 4075 
L 244 4550 
L 3319 4550 
z
" transform="scale(0.015625)"/>
      </defs>
      <use xlink:href="#Roboto-Regular-53"/>
      <use xlink:href="#Roboto-Regular-74" transform="translate(59.375 0)"/>
      <use xlink:href="#Roboto-Regular-6f" transform="translate(92.089844 0)"/>
      <use xlink:href="#Roboto-Regular-72" transform="translate(149.121094 0)"/>
      <use xlink:href="#Roboto-Regular-65" transform="translate(183.007812 0)"/>
      <use xlink:href="#Roboto-Regular-32" transform="translate(236.035156 0)"/>
      <use xlink:href="#Roboto-Regular-3a" transform="translate(292.236328 0)"/>
      <use xlink:href="#Roboto-Regular-20" transform="translate(316.455078 0)"/>
      <use xlink:href="#Roboto-Regular-53" transform="translate(341.259766 0)"/>
      <use xlink:href="#Roboto-Regular-4b" transform="translate(400.634766 0)"/>
      <use xlink:href="#Roboto-Regular-55" transform="translate(463.378906 0)"/>
      <use xlink:href="#Roboto-Regular-32" transform="translate(528.222656 0)"/>
      <use xlink:href="#Roboto-Regular-37" transform="translate(584.423828 0)"/>
      <use xlink:href="#Roboto-Regular-31" transform="translate(640.625 0)"/>
     </g>
    </g>
    <g id="line2d_19">
     <path d="M 637.83275 112.43 
L 655.43275 112.43 
L 673.03275 112.43 
" style="fill: none; stroke: #55a868; stroke-width: 1.2; stroke-linecap: round"/>
    </g>
    <g id="text_16">
     <!-- Store3: SKU288 -->
     <g style="fill: #262626" transform="translate(687.11275 118.59) scale(0.176 -0.176)">
      <defs>
       <path id="Roboto-Regular-33" d="M 1222 2084 
L 1222 2559 
L 1647 2559 
Q 2094 2563 2312 2784 
Q 2531 3006 2531 3338 
Q 2531 4138 1738 4138 
Q 1369 4138 1141 3927 
Q 913 3716 913 3359 
L 334 3359 
Q 334 3881 720 4247 
Q 1106 4613 1738 4613 
Q 2353 4613 2733 4286 
Q 3113 3959 3113 3325 
Q 3113 3072 2942 2784 
Q 2772 2497 2397 2338 
Q 2850 2191 3015 1884 
Q 3181 1578 3181 1269 
Q 3181 631 2768 284 
Q 2356 -63 1741 -63 
Q 1147 -63 722 267 
Q 297 597 297 1203 
L 875 1203 
Q 875 844 1108 628 
Q 1341 413 1741 413 
Q 2138 413 2369 622 
Q 2600 831 2600 1256 
Q 2600 1681 2337 1882 
Q 2075 2084 1634 2084 
L 1222 2084 
z
" transform="scale(0.015625)"/>
      </defs>
      <use xlink:href="#Roboto-Regular-53"/>
      <use xlink:href="#Roboto-Regular-74" transform="translate(59.375 0)"/>
      <use xlink:href="#Roboto-Regular-6f" transform="translate(92.089844 0)"/>
      <use xlink:href="#Roboto-Regular-72" transform="translate(149.121094 0)"/>
      <use xlink:href="#Roboto-Regular-65" transform="translate(183.007812 0)"/>
      <use xlink:href="#Roboto-Regular-33" transform="translate(236.035156 0)"/>
      <use xlink:href="#Roboto-Regular-3a" transform="translate(292.236328 0)"/>
      <use xlink:href="#Roboto-Regular-20" transform="translate(316.455078 0)"/>
      <use xlink:href="#Roboto-Regular-53" transform="translate(341.259766 0)"/>
      <use xlink:href="#Roboto-Regular-4b" transform="translate(400.634766 0)"/>
      <use xlink:href="#Roboto-Regular-55" transform="translate(463.378906 0)"/>
      <use xlink:href="#Roboto-Regular-32" transform="translate(528.222656 0)"/>
      <use xlink:href="#Roboto-Regular-38" transform="translate(584.423828 0)"/>
      <use xlink:href="#Roboto-Regular-38" transform="translate(640.625 0)"/>
     </g>
    </g>
    <g id="line2d_20">
     <path d="M 637.83275 138.005 
L 655.43275 138.005 
L 673.03275 138.005 
" style="fill: none; stroke: #c44e52; stroke-width: 1.2; stroke-linecap: round"/>
    </g>
    <g id="text_17">
     <!-- Store4: SKU191 -->
     <g style="fill: #262626" transform="translate(687.11275 144.165) scale(0.176 -0.176)">
      <defs>
       <path id="Roboto-Regular-39" d="M 3175 2563 
Q 3175 2119 3098 1667 
Q 3022 1216 2801 836 
Q 2581 456 2151 225 
Q 1722 -6 953 -6 
L 953 484 
Q 1644 484 1980 700 
Q 2316 916 2448 1264 
Q 2581 1613 2597 2006 
Q 2416 1791 2162 1656 
Q 1909 1522 1613 1522 
Q 1163 1522 875 1747 
Q 588 1972 450 2320 
Q 313 2669 313 3041 
Q 313 3691 670 4152 
Q 1028 4613 1725 4613 
Q 2244 4613 2564 4344 
Q 2884 4075 3029 3653 
Q 3175 3231 3175 2772 
L 3175 2563 
z
M 881 3072 
Q 881 2666 1086 2334 
Q 1291 2003 1706 2003 
Q 2003 2003 2245 2181 
Q 2488 2359 2600 2622 
L 2600 2850 
Q 2600 3472 2336 3803 
Q 2072 4134 1725 4134 
Q 1322 4134 1101 3829 
Q 881 3525 881 3072 
z
" transform="scale(0.015625)"/>
      </defs>
      <use xlink:href="#Roboto-Regular-53"/>
      <use xlink:href="#Roboto-Regular-74" transform="translate(59.375 0)"/>
      <use xlink:href="#Roboto-Regular-6f" transform="translate(92.089844 0)"/>
      <use xlink:href="#Roboto-Regular-72" transform="translate(149.121094 0)"/>
      <use xlink:href="#Roboto-Regular-65" transform="translate(183.007812 0)"/>
      <use xlink:href="#Roboto-Regular-34" transform="translate(236.035156 0)"/>
      <use xlink:href="#Roboto-Regular-3a" transform="translate(292.236328 0)"/>
      <use xlink:href="#Roboto-Regular-20" transform="translate(316.455078 0)"/>
      <use xlink:href="#Roboto-Regular-53" transform="translate(341.259766 0)"/>
      <use xlink:href="#Roboto-Regular-4b" transform="translate(400.634766 0)"/>
      <use xlink:href="#Roboto-Regular-55" transform="translate(463.378906 0)"/>
      <use xlink:href="#Roboto-Regular-31" transform="translate(528.222656 0)"/>
      <use xlink:href="#Roboto-Regular-39" transform="translate(584.423828 0)"/>
      <use xlink:href="#Roboto-Regular-31" transform="translate(640.625 0)"/>
     </g>
    </g>
    <g id="line2d_21">
     <path d="M 637.83275 163.58 
L 655.43275 163.58 
L 673.03275 163.58 
" style="fill: none; stroke: #8172b3; stroke-width: 1.2; stroke-linecap: round"/>
    </g>
    <g id="text_18">
     <!-- Store5: SKU146 -->
     <g style="fill: #262626" transform="translate(687.11275 169.74) scale(0.176 -0.176)">
      <use xlink:href="#Roboto-Regular-53"/>
      <use xlink:href="#Roboto-Regular-74" transform="translate(59.375 0)"/>
      <use xlink:href="#Roboto-Regular-6f" transform="translate(92.089844 0)"/>
      <use xlink:href="#Roboto-Regular-72" transform="translate(149.121094 0)"/>
      <use xlink:href="#Roboto-Regular-65" transform="translate(183.007812 0)"/>
      <use xlink:href="#Roboto-Regular-35" transform="translate(236.035156 0)"/>
      <use xlink:href="#Roboto-Regular-3a" transform="translate(292.236328 0)"/>
      <use xlink:href="#Roboto-Regular-20" transform="translate(316.455078 0)"/>
      <use xlink:href="#Roboto-Regular-53" transform="translate(341.259766 0)"/>
      <use xlink:href="#Roboto-Regular-4b" transform="translate(400.634766 0)"/>
      <use xlink:href="#Roboto-Regular-55" transform="translate(463.378906 0)"/>
      <use xlink:href="#Roboto-Regular-31" transform="translate(528.222656 0)"/>
      <use xlink:href="#Roboto-Regular-34" transform="translate(584.423828 0)"/>
      <use xlink:href="#Roboto-Regular-36" transform="translate(640.625 0)"/>
     </g>
    </g>
   </g>
  </g>
 </g>
 <defs>
  <clipPath id="p7ea5282675">
   <rect x="107.58" y="38.4" width="718.02" height="309.06"/>
  </clipPath>
 </defs>
</svg>
