<?xml version="1.0" encoding="utf-8" standalone="no"?>
<!DOCTYPE svg PUBLIC "-//W3C//DTD SVG 1.1//EN"
  "http://www.w3.org/Graphics/SVG/1.1/DTD/svg11.dtd">
<svg xmlns:xlink="http://www.w3.org/1999/xlink" width="864pt" height="864pt" viewBox="0 0 864 864" xmlns="http://www.w3.org/2000/svg" version="1.1">
 <metadata>
  <rdf:RDF xmlns:dc="http://purl.org/dc/elements/1.1/" xmlns:cc="http://creativecommons.org/ns#" xmlns:rdf="http://www.w3.org/1999/02/22-rdf-syntax-ns#">
   <cc:Work>
    <dc:type rdf:resource="http://purl.org/dc/dcmitype/StillImage"/>
    <dc:date>2025-05-06T11:28:57.297016</dc:date>
    <dc:format>image/svg+xml</dc:format>
    <dc:creator>
     <cc:Agent>
      <dc:title>Matplotlib v3.10.1, https://matplotlib.org/</dc:title>
     </cc:Agent>
    </dc:creator>
   </cc:Work>
  </rdf:RDF>
 </metadata>
 <defs>
  <style type="text/css">*{stroke-linejoin: round; stroke-linecap: butt}</style>
 </defs>
 <g id="figure_1">
  <g id="patch_1">
   <path d="M 0 864 
L 864 864 
L 864 0 
L 0 0 
z
" style="fill: #ffffff"/>
  </g>
  <g id="axes_1">
   <g id="patch_2">
    <path d="M 74.73941 384.294 
L 825.6 384.294 
L 825.6 45.672 
L 74.73941 45.672 
z
" style="fill: #ffffff"/>
   </g>
   <g id="matplotlib.axis_1">
    <g id="xtick_1">
     <g id="line2d_1">
      <path d="M 74.73941 384.294 
L 74.73941 45.672 
" clip-path="url(#pa855ec8d08)" style="fill: none; stroke: #cccccc; stroke-width: 0.8; stroke-linecap: round"/>
     </g>
    </g>
    <g id="xtick_2">
     <g id="line2d_2">
      <path d="M 165.204542 384.294 
L 165.204542 45.672 
" clip-path="url(#pa855ec8d08)" style="fill: none; stroke: #cccccc; stroke-width: 0.8; stroke-linecap: round"/>
     </g>
    </g>
    <g id="xtick_3">
     <g id="line2d_3">
      <path d="M 255.669673 384.294 
L 255.669673 45.672 
" clip-path="url(#pa855ec8d08)" style="fill: none; stroke: #cccccc; stroke-width: 0.8; stroke-linecap: round"/>
     </g>
    </g>
    <g id="xtick_4">
     <g id="line2d_4">
      <path d="M 346.134804 384.294 
L 346.134804 45.672 
" clip-path="url(#pa855ec8d08)" style="fill: none; stroke: #cccccc; stroke-width: 0.8; stroke-linecap: round"/>
     </g>
    </g>
    <g id="xtick_5">
     <g id="line2d_5">
      <path d="M 436.599935 384.294 
L 436.599935 45.672 
" clip-path="url(#pa855ec8d08)" style="fill: none; stroke: #cccccc; stroke-width: 0.8; stroke-linecap: round"/>
     </g>
    </g>
    <g id="xtick_6">
     <g id="line2d_6">
      <path d="M 527.065067 384.294 
L 527.065067 45.672 
" clip-path="url(#pa855ec8d08)" style="fill: none; stroke: #cccccc; stroke-width: 0.8; stroke-linecap: round"/>
     </g>
    </g>
    <g id="xtick_7">
     <g id="line2d_7">
      <path d="M 617.530198 384.294 
L 617.530198 45.672 
" clip-path="url(#pa855ec8d08)" style="fill: none; stroke: #cccccc; stroke-width: 0.8; stroke-linecap: round"/>
     </g>
    </g>
    <g id="xtick_8">
     <g id="line2d_8">
      <path d="M 707.995329 384.294 
L 707.995329 45.672 
" clip-path="url(#pa855ec8d08)" style="fill: none; stroke: #cccccc; stroke-width: 0.8; stroke-linecap: round"/>
     </g>
    </g>
    <g id="xtick_9">
     <g id="line2d_9">
      <path d="M 798.460461 384.294 
L 798.460461 45.672 
" clip-path="url(#pa855ec8d08)" style="fill: none; stroke: #cccccc; stroke-width: 0.8; stroke-linecap: round"/>
     </g>
    </g>
   </g>
   <g id="matplotlib.axis_2">
    <g id="ytick_1">
     <g id="line2d_10">
      <path d="M 74.73941 384.294 
L 825.6 384.294 
" clip-path="url(#pa855ec8d08)" style="fill: none; stroke: #cccccc; stroke-width: 0.8; stroke-linecap: round"/>
     </g>
     <g id="text_1">
      <!-- $\mathdefault{10^{1}}$ -->
      <g style="fill: #262626" transform="translate(38.98341 390.894) scale(0.176 -0.176)">
       <defs>
        <path id="Roboto-Regular-31" d="M 2278 4575 
L 2278 0 
L 1700 0 
L 1700 3853 
L 534 3428 
L 534 3950 
L 2188 4575 
L 2278 4575 
z
" transform="scale(0.015625)"/>
        <path id="Roboto-Regular-30" d="M 3234 1944 
Q 3234 825 2848 381 
Q 2463 -63 1800 -63 
Q 1156 -63 764 368 
Q 372 800 359 1872 
L 359 2638 
Q 359 3753 750 4183 
Q 1141 4613 1794 4613 
Q 2447 4613 2834 4195 
Q 3222 3778 3234 2709 
L 3234 1944 
z
M 2653 2734 
Q 2653 3503 2434 3822 
Q 2216 4141 1794 4141 
Q 1388 4141 1167 3831 
Q 947 3522 941 2778 
L 941 1850 
Q 941 1088 1164 750 
Q 1388 413 1800 413 
Q 2222 413 2436 745 
Q 2650 1078 2653 1825 
L 2653 2734 
z
" transform="scale(0.015625)"/>
       </defs>
       <use xlink:href="#Roboto-Regular-31" transform="translate(0 0.98125)"/>
       <use xlink:href="#Roboto-Regular-30" transform="translate(56.201172 0.98125)"/>
       <use xlink:href="#Roboto-Regular-31" transform="translate(113.326836 37.960938) scale(0.7)"/>
      </g>
     </g>
    </g>
    <g id="ytick_2">
     <g id="line2d_11">
      <path d="M 74.73941 214.983 
L 825.6 214.983 
" clip-path="url(#pa855ec8d08)" style="fill: none; stroke: #cccccc; stroke-width: 0.8; stroke-linecap: round"/>
     </g>
     <g id="text_2">
      <!-- $\mathdefault{10^{2}}$ -->
      <g style="fill: #262626" transform="translate(38.98341 221.583) scale(0.176 -0.176)">
       <defs>
        <path id="Roboto-Regular-32" d="M 3359 475 
L 3359 0 
L 381 0 
L 381 416 
L 1925 2134 
Q 2306 2566 2439 2819 
Q 2572 3072 2572 3328 
Q 2572 3663 2364 3900 
Q 2156 4138 1778 4138 
Q 1322 4138 1097 3878 
Q 872 3619 872 3213 
L 294 3213 
Q 294 3788 672 4200 
Q 1050 4613 1778 4613 
Q 2422 4613 2786 4278 
Q 3150 3944 3150 3397 
Q 3150 2997 2903 2592 
Q 2656 2188 2297 1797 
L 1078 475 
L 3359 475 
z
" transform="scale(0.015625)"/>
       </defs>
       <use xlink:href="#Roboto-Regular-31" transform="translate(0 0.565625)"/>
       <use xlink:href="#Roboto-Regular-30" transform="translate(56.201172 0.565625)"/>
       <use xlink:href="#Roboto-Regular-32" transform="translate(113.326836 37.545313) scale(0.7)"/>
      </g>
     </g>
    </g>
    <g id="ytick_3">
     <g id="line2d_12">
      <path d="M 74.73941 45.672 
L 825.6 45.672 
" clip-path="url(#pa855ec8d08)" style="fill: none; stroke: #cccccc; stroke-width: 0.8; stroke-linecap: round"/>
     </g>
     <g id="text_3">
      <!-- $\mathdefault{10^{3}}$ -->
      <g style="fill: #262626" transform="translate(38.98341 52.272) scale(0.176 -0.176)">
       <defs>
        <path id="Roboto-Regular-33" d="M 1222 2084 
L 1222 2559 
L 1647 2559 
Q 2094 2563 2312 2784 
Q 2531 3006 2531 3338 
Q 2531 4138 1738 4138 
Q 1369 4138 1141 3927 
Q 913 3716 913 3359 
L 334 3359 
Q 334 3881 720 4247 
Q 1106 4613 1738 4613 
Q 2353 4613 2733 4286 
Q 3113 3959 3113 3325 
Q 3113 3072 2942 2784 
Q 2772 2497 2397 2338 
Q 2850 2191 3015 1884 
Q 3181 1578 3181 1269 
Q 3181 631 2768 284 
Q 2356 -63 1741 -63 
Q 1147 -63 722 267 
Q 297 597 297 1203 
L 875 1203 
Q 875 844 1108 628 
Q 1341 413 1741 413 
Q 2138 413 2369 622 
Q 2600 831 2600 1256 
Q 2600 1681 2337 1882 
Q 2075 2084 1634 2084 
L 1222 2084 
z
" transform="scale(0.015625)"/>
       </defs>
       <use xlink:href="#Roboto-Regular-31" transform="translate(0 0.565625)"/>
       <use xlink:href="#Roboto-Regular-30" transform="translate(56.201172 0.565625)"/>
       <use xlink:href="#Roboto-Regular-33" transform="translate(113.326836 37.545313) scale(0.7)"/>
      </g>
     </g>
    </g>
   </g>
   <g id="line2d_13">
    <path d="M 11.413818 311.25937 
L 20.460332 296.503886 
L 29.506845 323.049498 
L 38.553358 265.95069 
L 47.599871 286.130259 
L 56.646384 290.105867 
L 65.692897 275.350384 
L 74.73941 308.585227 
L 83.785923 288.091198 
L 92.832437 292.177295 
L 101.87895 265.95069 
L 110.925463 278.771039 
L 119.971976 290.105867 
L 129.018489 288.091198 
L 138.065002 314.034447 
L 147.111515 277.040822 
L 156.158029 267.436211 
L 165.204542 268.952365 
L 174.251055 265.95069 
L 183.297568 303.512123 
L 192.344081 294.308773 
L 201.390594 308.585227 
L 210.437107 323.049498 
L 219.48362 333.32631 
L 228.530134 311.25937 
L 237.576647 316.918379 
L 246.62316 316.918379 
L 255.669673 333.32631 
L 264.716186 298.766552 
L 273.762699 303.512123 
L 282.809212 303.512123 
L 291.855725 306.004933 
L 300.902239 301.10106 
L 309.948752 275.350384 
L 318.995265 263.066758 
L 328.041778 247.798862 
L 337.088291 184.680234 
L 346.134804 171.355183 
L 355.181317 323.049498 
L 364.22783 294.308773 
L 373.274344 282.358621 
L 382.320857 278.771039 
L 391.36737 272.081809 
L 400.413883 286.130259 
L 409.460396 288.091198 
L 418.506909 275.350384 
L 427.553422 288.091198 
L 436.599935 273.697936 
L 445.646449 273.697936 
L 454.692962 270.50044 
L 463.739475 296.503886 
L 472.785988 326.318073 
L 481.832501 288.091198 
L 490.879014 323.049498 
L 499.925527 311.25937 
L 508.972041 314.034447 
L 518.018554 306.004933 
L 527.065067 265.95069 
L 536.11158 277.040822 
L 545.158093 284.22026 
L 554.204606 270.50044 
L 563.251119 294.308773 
L 572.297632 267.436211 
L 581.344146 294.308773 
L 590.390659 298.766552 
L 599.437172 319.920054 
L 608.483685 298.766552 
L 617.530198 288.091198 
L 626.576711 326.318073 
L 635.623224 306.004933 
L 644.669737 267.436211 
L 653.716251 319.920054 
L 662.762764 301.10106 
L 671.809277 286.130259 
L 680.85579 282.358621 
L 689.902303 301.10106 
L 698.948816 314.034447 
L 707.995329 301.10106 
L 717.041842 275.350384 
L 726.088356 333.32631 
L 735.134869 272.081809 
L 744.181382 284.22026 
L 753.227895 294.308773 
L 762.274408 286.130259 
L 771.320921 278.771039 
L 780.367434 250.133371 
L 789.413947 244.430449 
L 798.460461 236.136502 
L 807.506974 224.382694 
L 816.553487 272.081809 
L 825.6 303.512123 
" clip-path="url(#pa855ec8d08)" style="fill: none; stroke-dasharray: 1.2,1.98; stroke-dashoffset: 0; stroke: #4c72b0; stroke-width: 1.2"/>
   </g>
   <g id="line2d_14">
    <path d="M 757.751152 384.294 
L 757.751152 45.672 
" clip-path="url(#pa855ec8d08)" style="fill: none; stroke-dasharray: 1.2,1.98; stroke-dashoffset: 0; stroke: #ff0000; stroke-width: 1.2"/>
   </g>
   <g id="line2d_15">
    <path d="M 11.413818 271.287464 
L 20.460332 290.528833 
L 29.506845 296.244264 
L 38.553358 303.338597 
L 47.599871 278.87487 
L 56.646384 284.464548 
L 65.692897 289.787918 
L 74.73941 278.902537 
L 83.785923 287.734664 
L 92.832437 290.19675 
L 101.87895 293.91882 
L 110.925463 275.578291 
L 119.971976 273.635704 
L 129.018489 283.34628 
L 138.065002 288.190417 
L 147.111515 295.408556 
L 156.158029 281.902281 
L 165.204542 276.346771 
L 174.251055 274.758209 
L 183.297568 267.368528 
L 192.344081 279.144682 
L 201.390594 288.431226 
L 210.437107 300.651168 
L 219.48362 305.777376 
L 228.530134 312.032126 
L 237.576647 314.829982 
L 246.62316 319.733503 
L 255.669673 312.797461 
L 264.716186 315.841224 
L 273.762699 309.944136 
L 282.809212 310.138577 
L 291.855725 302.049341 
L 300.902239 298.984787 
L 309.948752 302.720108 
L 318.995265 290.658195 
L 328.041778 272.668247 
L 337.088291 256.656127 
L 346.134804 213.625334 
L 355.181317 190.559572 
L 364.22783 227.636823 
L 373.274344 250.55336 
L 382.320857 266.117151 
L 391.36737 274.172703 
L 400.413883 270.090797 
L 409.460396 274.016166 
L 418.506909 282.655657 
L 427.553422 281.308731 
L 436.599935 281.01103 
L 445.646449 273.829351 
L 454.692962 275.646714 
L 463.739475 275.222734 
L 472.785988 281.337073 
L 481.832501 295.310659 
L 490.879014 294.088516 
L 499.925527 310.318896 
L 508.972041 305.761308 
L 518.018554 304.336189 
L 527.065067 308.054252 
L 536.11158 286.918632 
L 545.158093 278.479573 
L 554.204606 277.552872 
L 563.251119 275.895302 
L 572.297632 286.867377 
L 581.344146 273.494203 
L 590.390659 279.203024 
L 599.437172 290.452161 
L 608.483685 306.721662 
L 617.530198 298.198047 
L 626.576711 288.751191 
L 635.623224 307.713636 
L 644.669737 310.298847 
L 653.716251 282.547758 
L 662.762764 293.911557 
L 671.809277 299.958655 
L 680.85579 295.668928 
L 689.902303 285.080038 
L 698.948816 288.226689 
L 707.995329 302.464049 
L 717.041842 304.986885 
L 726.088356 285.19414 
L 735.134869 299.91789 
L 744.181382 287.14 
L 753.227895 288.248179 
L 762.274408 287.287297 
L 771.320921 282.751404 
L 780.367434 282.843676 
L 789.413947 266.901687 
L 798.460461 252.623666 
L 807.506974 241.823696 
L 816.553487 233.818877 
L 825.6 251.710363 
" clip-path="url(#pa855ec8d08)" style="fill: none; stroke: #dd8452; stroke-width: 1.2; stroke-linecap: round"/>
   </g>
   <g id="line2d_16">
    <path d="M 11.413818 271.371644 
L 20.460332 299.594891 
L 29.506845 298.35593 
L 38.553358 312.526122 
L 47.599871 273.396422 
L 56.646384 284.117131 
L 65.692897 288.361442 
L 74.73941 277.232266 
L 83.785923 294.465193 
L 92.832437 292.558758 
L 101.87895 292.078442 
L 110.925463 270.398528 
L 119.971976 274.210405 
L 129.018489 286.778892 
L 138.065002 288.004045 
L 147.111515 303.315435 
L 156.158029 281.482599 
L 165.204542 271.569924 
L 174.251055 269.568163 
L 183.297568 265.651648 
L 192.344081 288.6958 
L 201.390594 293.800457 
L 210.437107 304.953357 
L 219.48362 315.686973 
L 228.530134 325.553788 
L 237.576647 314.17456 
L 246.62316 317.112527 
L 255.669673 315.040748 
L 264.716186 325.298992 
L 273.762699 303.498941 
L 282.809212 304.519557 
L 291.855725 302.32781 
L 300.902239 303.34905 
L 309.948752 299.464109 
L 318.995265 281.89463 
L 328.041778 266.737513 
L 337.088291 251.486769 
L 346.134804 196.438658 
L 355.181317 177.117781 
L 364.22783 251.709124 
L 373.274344 279.509985 
L 382.320857 276.534717 
L 391.36737 279.925216 
L 400.413883 282.245597 
L 409.460396 278.389034 
L 418.506909 279.361057 
L 427.553422 277.381659 
L 436.599935 293.683863 
L 445.646449 273.852128 
L 454.692962 268.575007 
L 463.739475 270.014626 
L 472.785988 297.310398 
L 481.832501 310.81961 
L 490.879014 287.308566 
L 499.925527 311.253729 
L 508.972041 323.019906 
L 518.018554 311.017294 
L 527.065067 298.95158 
L 536.11158 273.290116 
L 545.158093 281.650294 
L 554.204606 281.057981 
L 563.251119 268.029158 
L 572.297632 285.242411 
L 581.344146 277.264517 
L 590.390659 287.663389 
L 599.437172 288.91172 
L 608.483685 309.494986 
L 617.530198 307.216306 
L 626.576711 292.59385 
L 635.623224 307.508918 
L 644.669737 305.138225 
L 653.716251 278.281939 
L 662.762764 307.055545 
L 671.809277 297.348925 
L 680.85579 286.69119 
L 689.902303 285.221563 
L 698.948816 299.532961 
L 707.995329 303.49623 
L 717.041842 298.687109 
L 726.088356 282.183294 
L 735.134869 320.810329 
L 744.181382 277.98872 
L 753.227895 279.688924 
L 762.274408 290.901424 
L 771.320921 291.879577 
L 780.367434 276.766343 
L 789.413947 254.887566 
L 798.460461 247.259485 
L 807.506974 240.703013 
L 816.553487 226.068058 
L 825.6 255.256658 
" clip-path="url(#pa855ec8d08)" style="fill: none; stroke: #55a868; stroke-width: 1.2; stroke-linecap: round"/>
   </g>
   <g id="line2d_17">
    <path d="M 11.413818 271.40984 
L 20.460332 304.090686 
L 29.506845 298.289347 
L 38.553358 316.867761 
L 47.599871 270.583006 
L 56.646384 283.76277 
L 65.692897 289.522786 
L 74.73941 275.990086 
L 83.785923 300.842602 
L 92.832437 290.484476 
L 101.87895 292.468531 
L 110.925463 268.182949 
L 119.971976 275.593569 
L 129.018489 288.099302 
L 138.065002 288.604507 
L 147.111515 307.903699 
L 156.158029 279.776712 
L 165.204542 269.397945 
L 174.251055 269.162231 
L 183.297568 265.127226 
L 192.344081 294.560463 
L 201.390594 295.089878 
L 210.437107 307.363466 
L 219.48362 318.920724 
L 228.530134 329.41369 
L 237.576647 315.207887 
L 246.62316 318.090458 
L 255.669673 315.701577 
L 264.716186 328.799482 
L 273.762699 303.770795 
L 282.809212 304.558915 
L 291.855725 302.310299 
L 300.902239 304.043144 
L 309.948752 302.518868 
L 318.995265 279.42523 
L 328.041778 264.139011 
L 337.088291 248.893683 
L 346.134804 191.092705 
L 355.181317 173.342341 
L 364.22783 268.856386 
L 373.274344 288.497417 
L 382.320857 283.960783 
L 391.36737 280.138903 
L 400.413883 272.157961 
L 409.460396 282.603672 
L 418.506909 287.978607 
L 427.553422 277.743858 
L 436.599935 285.236474 
L 445.646449 274.291672 
L 454.692962 274.255976 
L 463.739475 271.489013 
L 472.785988 290.841352 
L 481.832501 318.404628 
L 490.879014 293.100901 
L 499.925527 319.268183 
L 508.972041 311.426695 
L 518.018554 312.570447 
L 527.065067 308.447751 
L 536.11158 271.661752 
L 545.158093 275.047288 
L 554.204606 281.590825 
L 563.251119 272.591295 
L 572.297632 291.319396 
L 581.344146 269.639413 
L 590.390659 288.734922 
L 599.437172 298.216229 
L 608.483685 317.853079 
L 617.530198 300.437478 
L 626.576711 288.848839 
L 635.623224 320.904667 
L 644.669737 309.684123 
L 653.716251 271.614724 
L 662.762764 308.786247 
L 671.809277 303.567075 
L 680.85579 289.498193 
L 689.902303 282.359813 
L 698.948816 296.737947 
L 707.995329 312.629309 
L 717.041842 304.12675 
L 726.088356 278.13421 
L 735.134869 320.322311 
L 744.181382 278.500989 
L 753.227895 284.000456 
L 762.274408 291.508911 
L 771.320921 285.886851 
L 780.367434 280.493212 
L 789.413947 254.278378 
L 798.460461 244.785031 
L 807.506974 236.32059 
L 816.553487 225.849531 
L 825.6 262.820876 
" clip-path="url(#pa855ec8d08)" style="fill: none; stroke: #c44e52; stroke-width: 1.2; stroke-linecap: round"/>
   </g>
   <g id="line2d_18">
    <path d="M 11.413818 271.458472 
L 20.460332 310.200536 
L 29.506845 295.636437 
L 38.553358 321.808065 
L 47.599871 265.377026 
L 56.646384 285.376365 
L 65.692897 289.310316 
L 74.73941 274.698839 
L 83.785923 307.563946 
L 92.832437 287.317035 
L 101.87895 291.35914 
L 110.925463 265.377026 
L 119.971976 278.088612 
L 129.018489 289.310316 
L 138.065002 287.317035 
L 147.111515 312.935192 
L 156.158029 276.374194 
L 165.204542 266.850887 
L 174.251055 268.354896 
L 183.297568 265.377026 
L 192.344081 302.558489 
L 201.390594 293.466691 
L 210.437107 307.563946 
L 219.48362 321.808065 
L 228.530134 331.900457 
L 237.576647 310.200536 
L 246.62316 315.775493 
L 255.669673 315.775493 
L 264.716186 331.900457 
L 273.762699 297.872159 
L 282.809212 302.558489 
L 291.855725 302.558489 
L 300.902239 305.018634 
L 309.948752 300.177996 
L 318.995265 274.698839 
L 328.041778 262.515076 
L 337.088291 247.350306 
L 346.134804 184.489787 
L 355.181317 171.196267 
L 364.22783 321.808065 
L 373.274344 293.466691 
L 382.320857 281.642238 
L 391.36737 278.088612 
L 400.413883 271.458472 
L 409.460396 285.376365 
L 418.506909 287.317035 
L 427.553422 274.698839 
L 436.599935 287.317035 
L 445.646449 273.060808 
L 454.692962 273.060808 
L 463.739475 269.890311 
L 472.785988 295.636437 
L 481.832501 325.020707 
L 490.879014 287.317035 
L 499.925527 321.808065 
L 508.972041 310.200536 
L 518.018554 312.935192 
L 527.065067 305.018634 
L 536.11158 265.377037 
L 545.158093 276.374194 
L 554.204606 283.4856 
L 563.251119 269.890311 
L 572.297632 293.466691 
L 581.344146 266.85091 
L 590.390659 293.466691 
L 599.437172 297.872159 
L 608.483685 318.729932 
L 617.530198 297.872159 
L 626.576711 287.317065 
L 635.623224 325.020707 
L 644.669737 305.018634 
L 653.716251 266.850887 
L 662.762764 318.729932 
L 671.809277 300.178032 
L 680.85579 285.376365 
L 689.902303 281.642238 
L 698.948816 300.177996 
L 707.995329 312.935192 
L 717.041842 300.178032 
L 726.088356 274.698839 
L 735.134869 331.900457 
L 744.181382 271.458472 
L 753.227895 283.4856 
L 762.274408 293.466724 
L 771.320921 285.376365 
L 780.367434 278.088612 
L 789.413947 249.67039 
L 798.460461 244.001919 
L 807.506974 235.753578 
L 816.553487 224.0562 
L 825.6 271.458472 
" clip-path="url(#pa855ec8d08)" style="fill: none; stroke: #8172b3; stroke-width: 1.2; stroke-linecap: round"/>
   </g>
   <g id="line2d_19">
    <path d="M 11.413818 271.399297 
L 20.460332 302.81805 
L 29.506845 298.020118 
L 38.553358 315.283338 
L 47.599871 271.01772 
L 56.646384 284.187169 
L 65.692897 288.385125 
L 74.73941 276.633035 
L 83.785923 297.794714 
L 92.832437 291.929409 
L 101.87895 291.417765 
L 110.925463 268.752111 
L 119.971976 275.108076 
L 129.018489 287.732687 
L 138.065002 287.929385 
L 147.111515 306.12988 
L 156.158029 280.420996 
L 165.204542 269.75996 
L 174.251055 268.798159 
L 183.297568 265.524426 
L 192.344081 292.700445 
L 201.390594 294.413498 
L 210.437107 305.931257 
L 219.48362 317.919358 
L 228.530134 328.29005 
L 237.576647 312.737808 
L 246.62316 316.630591 
L 255.669673 315.361316 
L 264.716186 327.655646 
L 273.762699 301.410307 
L 282.809212 303.731158 
L 291.855725 302.429312 
L 300.902239 304.142667 
L 309.948752 299.144291 
L 318.995265 279.687301 
L 328.041778 265.162833 
L 337.088291 250.038497 
L 346.134804 192.164111 
L 355.181317 174.592503 
L 364.22783 266.390618 
L 373.274344 287.546522 
L 382.320857 278.384596 
L 391.36737 280.168519 
L 400.413883 280.707131 
L 409.460396 278.63323 
L 418.506909 281.023514 
L 427.553422 277.061308 
L 436.599935 293.517953 
L 445.646449 272.888638 
L 454.692962 268.996141 
L 463.739475 269.949593 
L 472.785988 298.646991 
L 481.832501 314.796765 
L 490.879014 286.953611 
L 499.925527 313.778368 
L 508.972041 321.36086 
L 518.018554 311.485518 
L 527.065067 299.677784 
L 536.11158 270.56773 
L 545.158093 280.102041 
L 554.204606 282.037536 
L 563.251119 268.113784 
L 572.297632 287.113827 
L 581.344146 274.758322 
L 590.390659 289.656081 
L 599.437172 291.245029 
L 608.483685 312.095202 
L 617.530198 304.724749 
L 626.576711 291.794444 
L 635.623224 311.628725 
L 644.669737 304.994321 
L 653.716251 274.240848 
L 662.762764 311.114163 
L 671.809277 298.820112 
L 680.85579 285.553901 
L 689.902303 283.399212 
L 698.948816 301.252459 
L 707.995329 306.483716 
L 717.041842 298.622517 
L 726.088356 279.213914 
L 735.134869 325.60328 
L 744.181382 276.395225 
L 753.227895 279.744978 
L 762.274408 290.940573 
L 771.320921 291.385568 
L 780.367434 276.985383 
L 789.413947 252.943682 
L 798.460461 245.420595 
L 807.506974 239.357042 
L 816.553487 225.33589 
L 825.6 259.413111 
" clip-path="url(#pa855ec8d08)" style="fill: none; stroke: #937860; stroke-width: 1.2; stroke-linecap: round"/>
   </g>
   <g id="patch_3">
    <path d="M 74.73941 384.294 
L 74.73941 45.672 
" style="fill: none; stroke: #cccccc; stroke-linejoin: miter; stroke-linecap: square"/>
   </g>
   <g id="patch_4">
    <path d="M 825.6 384.294 
L 825.6 45.672 
" style="fill: none; stroke: #cccccc; stroke-linejoin: miter; stroke-linecap: square"/>
   </g>
   <g id="patch_5">
    <path d="M 74.73941 384.294 
L 825.6 384.294 
" style="fill: none; stroke: #cccccc; stroke-linejoin: miter; stroke-linecap: square"/>
   </g>
   <g id="patch_6">
    <path d="M 74.73941 45.672 
L 825.6 45.672 
" style="fill: none; stroke: #cccccc; stroke-linejoin: miter; stroke-linecap: square"/>
   </g>
   <g id="legend_1">
    <g id="patch_7">
     <path d="M 87.05941 215.9685 
L 271.52666 215.9685 
Q 275.04666 215.9685 275.04666 212.4485 
L 275.04666 57.992 
Q 275.04666 54.472 271.52666 54.472 
L 87.05941 54.472 
Q 83.53941 54.472 83.53941 57.992 
L 83.53941 212.4485 
Q 83.53941 215.9685 87.05941 215.9685 
z
" style="fill: #ffffff; opacity: 0.8; stroke: #cccccc; stroke-width: 0.8; stroke-linejoin: miter"/>
    </g>
    <g id="line2d_20">
     <path d="M 90.57941 68.552 
L 108.17941 68.552 
L 125.77941 68.552 
" style="fill: none; stroke-dasharray: 1.2,1.98; stroke-dashoffset: 0; stroke: #4c72b0; stroke-width: 1.2"/>
    </g>
    <g id="text_4">
     <!-- Reference -->
     <g style="fill: #262626" transform="translate(139.85941 74.712) scale(0.176 -0.176)">
      <defs>
       <path id="Roboto-Regular-52" d="M 3188 0 
L 2200 1844 
L 1131 1844 
L 1131 0 
L 528 0 
L 528 4550 
L 2034 4550 
Q 2800 4550 3214 4200 
Q 3628 3850 3628 3184 
Q 3628 2759 3398 2442 
Q 3169 2125 2763 1969 
L 3831 38 
L 3831 0 
L 3188 0 
z
M 1131 4056 
L 1131 2334 
L 2053 2334 
Q 2538 2334 2783 2582 
Q 3028 2831 3028 3184 
Q 3028 3578 2792 3817 
Q 2556 4056 2034 4056 
L 1131 4056 
z
" transform="scale(0.015625)"/>
       <path id="Roboto-Regular-65" d="M 3116 591 
Q 2950 341 2647 139 
Q 2344 -63 1844 -63 
Q 1138 -63 714 396 
Q 291 856 291 1572 
L 291 1703 
Q 291 2256 502 2645 
Q 713 3034 1050 3239 
Q 1388 3444 1769 3444 
Q 2494 3444 2826 2970 
Q 3159 2497 3159 1788 
L 3159 1528 
L 872 1528 
Q 884 1063 1148 736 
Q 1413 409 1875 409 
Q 2181 409 2393 534 
Q 2606 659 2766 869 
L 3116 591 
z
M 1769 2969 
Q 1425 2969 1187 2719 
Q 950 2469 891 2000 
L 2581 2000 
L 2581 2044 
Q 2559 2381 2386 2675 
Q 2213 2969 1769 2969 
z
" transform="scale(0.015625)"/>
       <path id="Roboto-Regular-66" d="M 2022 2938 
L 1303 2938 
L 1303 0 
L 725 0 
L 725 2938 
L 191 2938 
L 191 3381 
L 725 3381 
L 725 3759 
Q 731 4297 1026 4581 
Q 1322 4866 1834 4866 
Q 2025 4866 2234 4816 
L 2203 4344 
Q 2072 4372 1891 4372 
Q 1313 4372 1303 3756 
L 1303 3381 
L 2022 3381 
L 2022 2938 
z
" transform="scale(0.015625)"/>
       <path id="Roboto-Regular-72" d="M 1791 2888 
Q 1225 2888 1019 2400 
L 1019 0 
L 441 0 
L 441 3381 
L 1003 3381 
L 1016 2994 
Q 1294 3444 1819 3444 
Q 1981 3444 2075 3400 
L 2072 2863 
Q 1944 2888 1791 2888 
z
" transform="scale(0.015625)"/>
       <path id="Roboto-Regular-6e" d="M 1844 2956 
Q 1566 2956 1353 2806 
Q 1141 2656 1019 2416 
L 1019 0 
L 441 0 
L 441 3381 
L 988 3381 
L 1006 2959 
Q 1391 3444 2016 3444 
Q 2513 3444 2805 3166 
Q 3097 2888 3100 2231 
L 3100 0 
L 2519 0 
L 2519 2222 
Q 2519 2619 2345 2787 
Q 2172 2956 1844 2956 
z
" transform="scale(0.015625)"/>
       <path id="Roboto-Regular-63" d="M 1794 413 
Q 2103 413 2336 597 
Q 2569 781 2591 1069 
L 3141 1069 
Q 3119 616 2725 276 
Q 2331 -63 1794 -63 
Q 1031 -63 661 440 
Q 291 944 291 1625 
L 291 1756 
Q 291 2438 661 2941 
Q 1031 3444 1794 3444 
Q 2388 3444 2753 3092 
Q 3119 2741 3141 2219 
L 2591 2219 
Q 2569 2531 2355 2750 
Q 2141 2969 1794 2969 
Q 1438 2969 1236 2787 
Q 1034 2606 951 2328 
Q 869 2050 869 1756 
L 869 1625 
Q 869 1328 950 1050 
Q 1031 772 1232 592 
Q 1434 413 1794 413 
z
" transform="scale(0.015625)"/>
      </defs>
      <use xlink:href="#Roboto-Regular-52"/>
      <use xlink:href="#Roboto-Regular-65" transform="translate(61.621094 0)"/>
      <use xlink:href="#Roboto-Regular-66" transform="translate(114.648438 0)"/>
      <use xlink:href="#Roboto-Regular-65" transform="translate(149.414062 0)"/>
      <use xlink:href="#Roboto-Regular-72" transform="translate(202.441406 0)"/>
      <use xlink:href="#Roboto-Regular-65" transform="translate(236.328125 0)"/>
      <use xlink:href="#Roboto-Regular-6e" transform="translate(289.355469 0)"/>
      <use xlink:href="#Roboto-Regular-63" transform="translate(344.580078 0)"/>
      <use xlink:href="#Roboto-Regular-65" transform="translate(396.923828 0)"/>
     </g>
    </g>
    <g id="line2d_21">
     <path d="M 90.57941 94.127 
L 108.17941 94.127 
L 125.77941 94.127 
" style="fill: none; stroke: #dd8452; stroke-width: 1.2; stroke-linecap: round"/>
    </g>
    <g id="text_5">
     <!-- MSE -->
     <g style="fill: #262626" transform="translate(139.85941 100.287) scale(0.176 -0.176)">
      <defs>
       <path id="Roboto-Regular-4d" d="M 2794 841 
L 4281 4550 
L 5056 4550 
L 5056 0 
L 4456 0 
L 4456 1775 
L 4516 3678 
L 3019 0 
L 2563 0 
L 1069 3684 
L 1128 1775 
L 1128 0 
L 528 0 
L 528 4550 
L 1303 4550 
L 2794 841 
z
" transform="scale(0.015625)"/>
       <path id="Roboto-Regular-53" d="M 2953 1150 
Q 2953 1463 2742 1650 
Q 2531 1838 1856 2036 
Q 1181 2234 789 2542 
Q 397 2850 397 3375 
Q 397 3906 820 4259 
Q 1244 4613 1944 4613 
Q 2713 4613 3130 4191 
Q 3547 3769 3547 3238 
L 2947 3238 
Q 2947 3619 2700 3869 
Q 2453 4119 1944 4119 
Q 1463 4119 1231 3908 
Q 1000 3697 1000 3381 
Q 1000 3097 1245 2908 
Q 1491 2719 2044 2563 
Q 2834 2341 3196 2014 
Q 3559 1688 3559 1156 
Q 3559 600 3125 268 
Q 2691 -63 1972 -63 
Q 1553 -63 1158 93 
Q 763 250 508 558 
Q 253 866 253 1319 
L 853 1319 
Q 853 853 1193 640 
Q 1534 428 1972 428 
Q 2444 428 2698 623 
Q 2953 819 2953 1150 
z
" transform="scale(0.015625)"/>
       <path id="Roboto-Regular-45" d="M 528 0 
L 528 4550 
L 3388 4550 
L 3388 4056 
L 1131 4056 
L 1131 2594 
L 3100 2594 
L 3100 2103 
L 1131 2103 
L 1131 491 
L 3419 491 
L 3419 0 
L 528 0 
z
" transform="scale(0.015625)"/>
      </defs>
      <use xlink:href="#Roboto-Regular-4d"/>
      <use xlink:href="#Roboto-Regular-53" transform="translate(87.304688 0)"/>
      <use xlink:href="#Roboto-Regular-45" transform="translate(146.679688 0)"/>
     </g>
    </g>
    <g id="line2d_22">
     <path d="M 90.57941 119.702 
L 108.17941 119.702 
L 125.77941 119.702 
" style="fill: none; stroke: #55a868; stroke-width: 1.2; stroke-linecap: round"/>
    </g>
    <g id="text_6">
     <!-- MAAPE -->
     <g style="fill: #262626" transform="translate(139.85941 125.862) scale(0.176 -0.176)">
      <defs>
       <path id="Roboto-Regular-41" d="M 91 0 
L 1825 4550 
L 2353 4550 
L 4094 0 
L 3475 0 
L 3041 1191 
L 1138 1191 
L 706 0 
L 91 0 
z
M 1319 1684 
L 2863 1684 
L 2091 3806 
L 1319 1684 
z
" transform="scale(0.015625)"/>
       <path id="Roboto-Regular-50" d="M 1131 1784 
L 1131 0 
L 528 0 
L 528 4550 
L 2206 4550 
Q 2981 4550 3392 4159 
Q 3803 3769 3803 3163 
Q 3803 2503 3392 2143 
Q 2981 1784 2206 1784 
L 1131 1784 
z
M 1131 4056 
L 1131 2275 
L 2206 2275 
Q 2738 2275 2969 2522 
Q 3200 2769 3200 3156 
Q 3200 3506 2969 3781 
Q 2738 4056 2206 4056 
L 1131 4056 
z
" transform="scale(0.015625)"/>
      </defs>
      <use xlink:href="#Roboto-Regular-4d"/>
      <use xlink:href="#Roboto-Regular-41" transform="translate(87.304688 0)"/>
      <use xlink:href="#Roboto-Regular-41" transform="translate(152.539062 0)"/>
      <use xlink:href="#Roboto-Regular-50" transform="translate(217.773438 0)"/>
      <use xlink:href="#Roboto-Regular-45" transform="translate(280.859375 0)"/>
     </g>
    </g>
    <g id="line2d_23">
     <path d="M 90.57941 145.277 
L 108.17941 145.277 
L 125.77941 145.277 
" style="fill: none; stroke: #c44e52; stroke-width: 1.2; stroke-linecap: round"/>
    </g>
    <g id="text_7">
     <!-- MASPE -->
     <g style="fill: #262626" transform="translate(139.85941 151.437) scale(0.176 -0.176)">
      <use xlink:href="#Roboto-Regular-4d"/>
      <use xlink:href="#Roboto-Regular-41" transform="translate(87.304688 0)"/>
      <use xlink:href="#Roboto-Regular-53" transform="translate(152.539062 0)"/>
      <use xlink:href="#Roboto-Regular-50" transform="translate(211.914062 0)"/>
      <use xlink:href="#Roboto-Regular-45" transform="translate(275 0)"/>
     </g>
    </g>
    <g id="line2d_24">
     <path d="M 90.57941 171.7705 
L 108.17941 171.7705 
L 125.77941 171.7705 
" style="fill: none; stroke: #8172b3; stroke-width: 1.2; stroke-linecap: round"/>
    </g>
    <g id="text_8">
     <!-- SMASPE (tight) -->
     <g style="fill: #262626" transform="translate(139.85941 177.9305) scale(0.176 -0.176)">
      <defs>
       <path id="Roboto-Regular-20" transform="scale(0.015625)"/>
       <path id="Roboto-Regular-28" d="M 419 1850 
Q 419 2756 678 3434 
Q 938 4113 1294 4541 
Q 1650 4969 1947 5134 
L 2069 4753 
Q 1700 4475 1348 3761 
Q 997 3047 997 1813 
Q 997 625 1348 -97 
Q 1700 -819 2069 -1119 
L 1947 -1469 
Q 1650 -1306 1294 -878 
Q 938 -450 678 226 
Q 419 903 419 1850 
z
" transform="scale(0.015625)"/>
       <path id="Roboto-Regular-74" d="M 1872 0 
Q 1675 -63 1425 -63 
Q 1103 -63 875 134 
Q 647 331 647 841 
L 647 2938 
L 28 2938 
L 28 3381 
L 647 3381 
L 647 4203 
L 1225 4203 
L 1225 3381 
L 1856 3381 
L 1856 2938 
L 1225 2938 
L 1225 838 
Q 1225 578 1337 506 
Q 1450 434 1597 434 
Q 1706 434 1869 472 
L 1872 0 
z
" transform="scale(0.015625)"/>
       <path id="Roboto-Regular-69" d="M 444 4278 
Q 444 4419 530 4516 
Q 616 4613 784 4613 
Q 950 4613 1039 4516 
Q 1128 4419 1128 4278 
Q 1128 4144 1039 4048 
Q 950 3953 784 3953 
Q 616 3953 530 4048 
Q 444 4144 444 4278 
z
M 1069 3381 
L 1069 0 
L 488 0 
L 488 3381 
L 1069 3381 
z
" transform="scale(0.015625)"/>
       <path id="Roboto-Regular-67" d="M 1725 -1334 
Q 1463 -1334 1081 -1206 
Q 700 -1078 472 -747 
L 775 -403 
Q 1150 -859 1681 -859 
Q 2091 -859 2334 -629 
Q 2578 -400 2578 44 
L 2578 341 
Q 2234 -63 1631 -63 
Q 1022 -63 662 425 
Q 303 913 303 1653 
L 303 1719 
Q 303 2494 661 2969 
Q 1019 3444 1638 3444 
Q 2259 3444 2603 3006 
L 2631 3381 
L 3156 3381 
L 3156 72 
Q 3156 -600 2756 -967 
Q 2356 -1334 1725 -1334 
z
M 881 1653 
Q 881 1150 1092 789 
Q 1303 428 1772 428 
Q 2322 428 2578 928 
L 2578 2469 
Q 2469 2678 2275 2817 
Q 2081 2956 1778 2956 
Q 1306 2956 1093 2589 
Q 881 2222 881 1719 
L 881 1653 
z
" transform="scale(0.015625)"/>
       <path id="Roboto-Regular-68" d="M 1844 2956 
Q 1566 2956 1353 2806 
Q 1141 2656 1019 2416 
L 1019 0 
L 441 0 
L 441 4800 
L 1019 4800 
L 1019 2978 
Q 1403 3444 2016 3444 
Q 2513 3444 2805 3166 
Q 3097 2888 3100 2231 
L 3100 0 
L 2519 0 
L 2519 2222 
Q 2519 2619 2345 2787 
Q 2172 2956 1844 2956 
z
" transform="scale(0.015625)"/>
       <path id="Roboto-Regular-29" d="M 1772 1819 
Q 1772 906 1512 228 
Q 1253 -450 895 -878 
Q 538 -1306 244 -1469 
L 122 -1119 
Q 488 -841 841 -109 
Q 1194 622 1194 1856 
Q 1194 2647 1019 3236 
Q 844 3825 594 4212 
Q 344 4600 122 4781 
L 244 5134 
Q 538 4969 895 4541 
Q 1253 4113 1512 3436 
Q 1772 2759 1772 1819 
z
" transform="scale(0.015625)"/>
      </defs>
      <use xlink:href="#Roboto-Regular-53"/>
      <use xlink:href="#Roboto-Regular-4d" transform="translate(59.375 0)"/>
      <use xlink:href="#Roboto-Regular-41" transform="translate(146.679688 0)"/>
      <use xlink:href="#Roboto-Regular-53" transform="translate(211.914062 0)"/>
      <use xlink:href="#Roboto-Regular-50" transform="translate(271.289062 0)"/>
      <use xlink:href="#Roboto-Regular-45" transform="translate(334.375 0)"/>
      <use xlink:href="#Roboto-Regular-20" transform="translate(391.210938 0)"/>
      <use xlink:href="#Roboto-Regular-28" transform="translate(416.015625 0)"/>
      <use xlink:href="#Roboto-Regular-74" transform="translate(450.244141 0)"/>
      <use xlink:href="#Roboto-Regular-69" transform="translate(482.958984 0)"/>
      <use xlink:href="#Roboto-Regular-67" transform="translate(507.275391 0)"/>
      <use xlink:href="#Roboto-Regular-68" transform="translate(563.427734 0)"/>
      <use xlink:href="#Roboto-Regular-74" transform="translate(618.505859 0)"/>
      <use xlink:href="#Roboto-Regular-29" transform="translate(651.220703 0)"/>
     </g>
    </g>
    <g id="line2d_25">
     <path d="M 90.57941 198.72875 
L 108.17941 198.72875 
L 125.77941 198.72875 
" style="fill: none; stroke: #937860; stroke-width: 1.2; stroke-linecap: round"/>
    </g>
    <g id="text_9">
     <!-- SMASPE (loose) -->
     <g style="fill: #262626" transform="translate(139.85941 204.88875) scale(0.176 -0.176)">
      <defs>
       <path id="Roboto-Regular-6c" d="M 1069 4800 
L 1069 0 
L 488 0 
L 488 4800 
L 1069 4800 
z
" transform="scale(0.015625)"/>
       <path id="Roboto-Regular-6f" d="M 288 1725 
Q 288 2459 700 2951 
Q 1113 3444 1822 3444 
Q 2531 3444 2943 2961 
Q 3356 2478 3366 1756 
L 3366 1653 
Q 3366 919 2952 428 
Q 2538 -63 1828 -63 
Q 1116 -63 702 428 
Q 288 919 288 1653 
L 288 1725 
z
M 866 1653 
Q 866 1150 1105 781 
Q 1344 413 1828 413 
Q 2300 413 2540 777 
Q 2781 1141 2784 1644 
L 2784 1725 
Q 2784 2222 2543 2595 
Q 2303 2969 1822 2969 
Q 1344 2969 1105 2595 
Q 866 2222 866 1725 
L 866 1653 
z
" transform="scale(0.015625)"/>
       <path id="Roboto-Regular-73" d="M 2409 897 
Q 2409 1081 2273 1229 
Q 2138 1378 1647 1478 
Q 1081 1594 747 1814 
Q 413 2034 413 2456 
Q 413 2856 755 3150 
Q 1097 3444 1666 3444 
Q 2272 3444 2612 3134 
Q 2953 2825 2953 2388 
L 2375 2388 
Q 2375 2597 2190 2783 
Q 2006 2969 1666 2969 
Q 1306 2969 1150 2812 
Q 994 2656 994 2472 
Q 994 2288 1139 2173 
Q 1284 2059 1756 1953 
Q 2378 1813 2683 1584 
Q 2988 1356 2988 941 
Q 2988 494 2630 215 
Q 2272 -63 1681 -63 
Q 1009 -63 653 281 
Q 297 625 297 1044 
L 878 1044 
Q 897 684 1155 548 
Q 1413 413 1681 413 
Q 2034 413 2221 550 
Q 2409 688 2409 897 
z
" transform="scale(0.015625)"/>
      </defs>
      <use xlink:href="#Roboto-Regular-53"/>
      <use xlink:href="#Roboto-Regular-4d" transform="translate(59.375 0)"/>
      <use xlink:href="#Roboto-Regular-41" transform="translate(146.679688 0)"/>
      <use xlink:href="#Roboto-Regular-53" transform="translate(211.914062 0)"/>
      <use xlink:href="#Roboto-Regular-50" transform="translate(271.289062 0)"/>
      <use xlink:href="#Roboto-Regular-45" transform="translate(334.375 0)"/>
      <use xlink:href="#Roboto-Regular-20" transform="translate(391.210938 0)"/>
      <use xlink:href="#Roboto-Regular-28" transform="translate(416.015625 0)"/>
      <use xlink:href="#Roboto-Regular-6c" transform="translate(450.244141 0)"/>
      <use xlink:href="#Roboto-Regular-6f" transform="translate(474.560547 0)"/>
      <use xlink:href="#Roboto-Regular-6f" transform="translate(531.591797 0)"/>
      <use xlink:href="#Roboto-Regular-73" transform="translate(588.623047 0)"/>
      <use xlink:href="#Roboto-Regular-65" transform="translate(640.234375 0)"/>
      <use xlink:href="#Roboto-Regular-29" transform="translate(693.261719 0)"/>
     </g>
    </g>
   </g>
  </g>
  <g id="axes_2">
   <g id="patch_8">
    <path d="M 74.73941 779.46 
L 825.6 779.46 
L 825.6 440.838 
L 74.73941 440.838 
z
" style="fill: #ffffff"/>
   </g>
   <g id="matplotlib.axis_3">
    <g id="xtick_10">
     <g id="line2d_26">
      <path d="M 74.73941 779.46 
L 74.73941 440.838 
" clip-path="url(#p4955863c69)" style="fill: none; stroke: #cccccc; stroke-width: 0.8; stroke-linecap: round"/>
     </g>
     <g id="text_10">
      <!-- 20 -->
      <g style="fill: #262626" transform="translate(64.84766 800.96) scale(0.176 -0.176)">
       <use xlink:href="#Roboto-Regular-32"/>
       <use xlink:href="#Roboto-Regular-30" transform="translate(56.201172 0)"/>
      </g>
     </g>
    </g>
    <g id="xtick_11">
     <g id="line2d_27">
      <path d="M 165.204542 779.46 
L 165.204542 440.838 
" clip-path="url(#p4955863c69)" style="fill: none; stroke: #cccccc; stroke-width: 0.8; stroke-linecap: round"/>
     </g>
     <g id="text_11">
      <!-- 30 -->
      <g style="fill: #262626" transform="translate(155.312792 800.96) scale(0.176 -0.176)">
       <use xlink:href="#Roboto-Regular-33"/>
       <use xlink:href="#Roboto-Regular-30" transform="translate(56.201172 0)"/>
      </g>
     </g>
    </g>
    <g id="xtick_12">
     <g id="line2d_28">
      <path d="M 255.669673 779.46 
L 255.669673 440.838 
" clip-path="url(#p4955863c69)" style="fill: none; stroke: #cccccc; stroke-width: 0.8; stroke-linecap: round"/>
     </g>
     <g id="text_12">
      <!-- 40 -->
      <g style="fill: #262626" transform="translate(245.777923 800.96) scale(0.176 -0.176)">
       <defs>
        <path id="Roboto-Regular-34" d="M 166 1397 
L 2203 4550 
L 2819 4550 
L 2819 1531 
L 3453 1531 
L 3453 1056 
L 2819 1056 
L 2819 0 
L 2241 0 
L 2241 1056 
L 166 1056 
L 166 1397 
z
M 822 1531 
L 2241 1531 
L 2241 3766 
L 2169 3638 
L 822 1531 
z
" transform="scale(0.015625)"/>
       </defs>
       <use xlink:href="#Roboto-Regular-34"/>
       <use xlink:href="#Roboto-Regular-30" transform="translate(56.201172 0)"/>
      </g>
     </g>
    </g>
    <g id="xtick_13">
     <g id="line2d_29">
      <path d="M 346.134804 779.46 
L 346.134804 440.838 
" clip-path="url(#p4955863c69)" style="fill: none; stroke: #cccccc; stroke-width: 0.8; stroke-linecap: round"/>
     </g>
     <g id="text_13">
      <!-- 50 -->
      <g style="fill: #262626" transform="translate(336.243054 800.96) scale(0.176 -0.176)">
       <defs>
        <path id="Roboto-Regular-35" d="M 1109 2166 
L 647 2284 
L 875 4550 
L 3209 4550 
L 3209 4016 
L 1366 4016 
L 1228 2778 
Q 1572 2975 1988 2975 
Q 2616 2975 2980 2561 
Q 3344 2147 3344 1450 
Q 3344 797 2987 367 
Q 2631 -63 1903 -63 
Q 1350 -63 947 248 
Q 544 559 481 1197 
L 1031 1197 
Q 1141 413 1903 413 
Q 2313 413 2538 691 
Q 2763 969 2763 1444 
Q 2763 1872 2527 2164 
Q 2291 2456 1853 2456 
Q 1563 2456 1413 2378 
Q 1263 2300 1109 2166 
z
" transform="scale(0.015625)"/>
       </defs>
       <use xlink:href="#Roboto-Regular-35"/>
       <use xlink:href="#Roboto-Regular-30" transform="translate(56.201172 0)"/>
      </g>
     </g>
    </g>
    <g id="xtick_14">
     <g id="line2d_30">
      <path d="M 436.599935 779.46 
L 436.599935 440.838 
" clip-path="url(#p4955863c69)" style="fill: none; stroke: #cccccc; stroke-width: 0.8; stroke-linecap: round"/>
     </g>
     <g id="text_14">
      <!-- 60 -->
      <g style="fill: #262626" transform="translate(426.708185 800.96) scale(0.176 -0.176)">
       <defs>
        <path id="Roboto-Regular-36" d="M 3291 1484 
Q 3291 838 2930 387 
Q 2569 -63 1878 -63 
Q 1388 -63 1063 198 
Q 738 459 577 861 
Q 416 1263 416 1684 
L 416 1956 
Q 416 2597 595 3194 
Q 775 3791 1247 4173 
Q 1719 4556 2597 4556 
L 2647 4556 
L 2647 4066 
Q 2041 4066 1705 3853 
Q 1369 3641 1205 3302 
Q 1041 2963 1006 2575 
Q 1369 2984 1984 2984 
Q 2438 2984 2727 2765 
Q 3016 2547 3153 2201 
Q 3291 1856 3291 1484 
z
M 997 1666 
Q 997 1059 1267 737 
Q 1538 416 1878 416 
Q 2278 416 2498 708 
Q 2719 1000 2719 1456 
Q 2719 1863 2516 2184 
Q 2313 2506 1891 2506 
Q 1588 2506 1341 2325 
Q 1094 2144 997 1884 
L 997 1666 
z
" transform="scale(0.015625)"/>
       </defs>
       <use xlink:href="#Roboto-Regular-36"/>
       <use xlink:href="#Roboto-Regular-30" transform="translate(56.201172 0)"/>
      </g>
     </g>
    </g>
    <g id="xtick_15">
     <g id="line2d_31">
      <path d="M 527.065067 779.46 
L 527.065067 440.838 
" clip-path="url(#p4955863c69)" style="fill: none; stroke: #cccccc; stroke-width: 0.8; stroke-linecap: round"/>
     </g>
     <g id="text_15">
      <!-- 70 -->
      <g style="fill: #262626" transform="translate(517.173317 800.96) scale(0.176 -0.176)">
       <defs>
        <path id="Roboto-Regular-37" d="M 3319 4550 
L 3319 4225 
L 1434 0 
L 825 0 
L 2706 4075 
L 244 4075 
L 244 4550 
L 3319 4550 
z
" transform="scale(0.015625)"/>
       </defs>
       <use xlink:href="#Roboto-Regular-37"/>
       <use xlink:href="#Roboto-Regular-30" transform="translate(56.201172 0)"/>
      </g>
     </g>
    </g>
    <g id="xtick_16">
     <g id="line2d_32">
      <path d="M 617.530198 779.46 
L 617.530198 440.838 
" clip-path="url(#p4955863c69)" style="fill: none; stroke: #cccccc; stroke-width: 0.8; stroke-linecap: round"/>
     </g>
     <g id="text_16">
      <!-- 80 -->
      <g style="fill: #262626" transform="translate(607.638448 800.96) scale(0.176 -0.176)">
       <defs>
        <path id="Roboto-Regular-38" d="M 3244 1231 
Q 3244 606 2826 271 
Q 2409 -63 1796 -63 
Q 1184 -63 767 271 
Q 350 606 350 1231 
Q 350 1613 554 1905 
Q 759 2197 1109 2347 
Q 806 2494 629 2762 
Q 453 3031 453 3366 
Q 453 3963 833 4288 
Q 1213 4613 1794 4613 
Q 2378 4613 2758 4288 
Q 3138 3963 3138 3366 
Q 3138 3028 2956 2761 
Q 2775 2494 2472 2347 
Q 2825 2197 3034 1903 
Q 3244 1609 3244 1231 
z
M 2559 3356 
Q 2559 3697 2346 3917 
Q 2134 4138 1793 4138 
Q 1453 4138 1243 3927 
Q 1034 3716 1034 3356 
Q 1034 3003 1243 2790 
Q 1453 2578 1797 2578 
Q 2138 2578 2348 2790 
Q 2559 3003 2559 3356 
z
M 2663 1244 
Q 2663 1625 2420 1865 
Q 2178 2106 1791 2106 
Q 1394 2106 1161 1865 
Q 928 1625 928 1244 
Q 928 850 1161 631 
Q 1394 413 1797 413 
Q 2200 413 2431 631 
Q 2663 850 2663 1244 
z
" transform="scale(0.015625)"/>
       </defs>
       <use xlink:href="#Roboto-Regular-38"/>
       <use xlink:href="#Roboto-Regular-30" transform="translate(56.201172 0)"/>
      </g>
     </g>
    </g>
    <g id="xtick_17">
     <g id="line2d_33">
      <path d="M 707.995329 779.46 
L 707.995329 440.838 
" clip-path="url(#p4955863c69)" style="fill: none; stroke: #cccccc; stroke-width: 0.8; stroke-linecap: round"/>
     </g>
     <g id="text_17">
      <!-- 90 -->
      <g style="fill: #262626" transform="translate(698.103579 800.96) scale(0.176 -0.176)">
       <defs>
        <path id="Roboto-Regular-39" d="M 3175 2563 
Q 3175 2119 3098 1667 
Q 3022 1216 2801 836 
Q 2581 456 2151 225 
Q 1722 -6 953 -6 
L 953 484 
Q 1644 484 1980 700 
Q 2316 916 2448 1264 
Q 2581 1613 2597 2006 
Q 2416 1791 2162 1656 
Q 1909 1522 1613 1522 
Q 1163 1522 875 1747 
Q 588 1972 450 2320 
Q 313 2669 313 3041 
Q 313 3691 670 4152 
Q 1028 4613 1725 4613 
Q 2244 4613 2564 4344 
Q 2884 4075 3029 3653 
Q 3175 3231 3175 2772 
L 3175 2563 
z
M 881 3072 
Q 881 2666 1086 2334 
Q 1291 2003 1706 2003 
Q 2003 2003 2245 2181 
Q 2488 2359 2600 2622 
L 2600 2850 
Q 2600 3472 2336 3803 
Q 2072 4134 1725 4134 
Q 1322 4134 1101 3829 
Q 881 3525 881 3072 
z
" transform="scale(0.015625)"/>
       </defs>
       <use xlink:href="#Roboto-Regular-39"/>
       <use xlink:href="#Roboto-Regular-30" transform="translate(56.201172 0)"/>
      </g>
     </g>
    </g>
    <g id="xtick_18">
     <g id="line2d_34">
      <path d="M 798.460461 779.46 
L 798.460461 440.838 
" clip-path="url(#p4955863c69)" style="fill: none; stroke: #cccccc; stroke-width: 0.8; stroke-linecap: round"/>
     </g>
     <g id="text_18">
      <!-- 100 -->
      <g style="fill: #262626" transform="translate(783.622836 800.96) scale(0.176 -0.176)">
       <use xlink:href="#Roboto-Regular-31"/>
       <use xlink:href="#Roboto-Regular-30" transform="translate(56.201172 0)"/>
       <use xlink:href="#Roboto-Regular-30" transform="translate(112.402344 0)"/>
      </g>
     </g>
    </g>
    <g id="text_19">
     <!-- Week -->
     <g style="fill: #262626" transform="translate(426.604705 822.935) scale(0.192 -0.192)">
      <defs>
       <path id="Roboto-Regular-57" d="M 5541 4550 
L 4441 0 
L 3894 0 
L 2956 3316 
L 2884 3663 
L 2813 3316 
L 1841 0 
L 1294 0 
L 191 4550 
L 791 4550 
L 1509 1438 
L 1600 834 
L 1725 1375 
L 2628 4550 
L 3131 4550 
L 4009 1375 
L 4138 822 
L 4234 1441 
L 4938 4550 
L 5541 4550 
z
" transform="scale(0.015625)"/>
       <path id="Roboto-Regular-6b" d="M 2559 0 
L 1388 1569 
L 1022 1191 
L 1022 0 
L 441 0 
L 441 4800 
L 1022 4800 
L 1022 1900 
L 1331 2269 
L 2381 3381 
L 3088 3381 
L 1769 1972 
L 3241 0 
L 2559 0 
z
" transform="scale(0.015625)"/>
      </defs>
      <use xlink:href="#Roboto-Regular-57"/>
      <use xlink:href="#Roboto-Regular-65" transform="translate(88.720703 0)"/>
      <use xlink:href="#Roboto-Regular-65" transform="translate(141.748047 0)"/>
      <use xlink:href="#Roboto-Regular-6b" transform="translate(194.775391 0)"/>
     </g>
    </g>
   </g>
   <g id="matplotlib.axis_4">
    <g id="ytick_4">
     <g id="line2d_35">
      <path d="M 74.73941 779.46 
L 825.6 779.46 
" clip-path="url(#p4955863c69)" style="fill: none; stroke: #cccccc; stroke-width: 0.8; stroke-linecap: round"/>
     </g>
     <g id="text_20">
      <!-- $\mathdefault{0}$ -->
      <g style="fill: #262626" transform="translate(56.40741 786.06) scale(0.176 -0.176)">
       <use xlink:href="#Roboto-Regular-30" transform="translate(0 0.921875)"/>
      </g>
     </g>
    </g>
    <g id="ytick_5">
     <g id="line2d_36">
      <path d="M 74.73941 705.846522 
L 825.6 705.846522 
" clip-path="url(#p4955863c69)" style="fill: none; stroke: #cccccc; stroke-width: 0.8; stroke-linecap: round"/>
     </g>
     <g id="text_21">
      <!-- $\mathdefault{10^{0}}$ -->
      <g style="fill: #262626" transform="translate(38.98341 712.446522) scale(0.176 -0.176)">
       <use xlink:href="#Roboto-Regular-31" transform="translate(0 0.565625)"/>
       <use xlink:href="#Roboto-Regular-30" transform="translate(56.201172 0.565625)"/>
       <use xlink:href="#Roboto-Regular-30" transform="translate(113.326836 37.545313) scale(0.7)"/>
      </g>
     </g>
    </g>
    <g id="ytick_6">
     <g id="line2d_37">
      <path d="M 74.73941 639.594391 
L 825.6 639.594391 
" clip-path="url(#p4955863c69)" style="fill: none; stroke: #cccccc; stroke-width: 0.8; stroke-linecap: round"/>
     </g>
     <g id="text_22">
      <!-- $\mathdefault{10^{1}}$ -->
      <g style="fill: #262626" transform="translate(38.98341 646.194391) scale(0.176 -0.176)">
       <use xlink:href="#Roboto-Regular-31" transform="translate(0 0.98125)"/>
       <use xlink:href="#Roboto-Regular-30" transform="translate(56.201172 0.98125)"/>
       <use xlink:href="#Roboto-Regular-31" transform="translate(113.326836 37.960938) scale(0.7)"/>
      </g>
     </g>
    </g>
    <g id="ytick_7">
     <g id="line2d_38">
      <path d="M 74.73941 573.342261 
L 825.6 573.342261 
" clip-path="url(#p4955863c69)" style="fill: none; stroke: #cccccc; stroke-width: 0.8; stroke-linecap: round"/>
     </g>
     <g id="text_23">
      <!-- $\mathdefault{10^{2}}$ -->
      <g style="fill: #262626" transform="translate(38.98341 579.942261) scale(0.176 -0.176)">
       <use xlink:href="#Roboto-Regular-31" transform="translate(0 0.565625)"/>
       <use xlink:href="#Roboto-Regular-30" transform="translate(56.201172 0.565625)"/>
       <use xlink:href="#Roboto-Regular-32" transform="translate(113.326836 37.545313) scale(0.7)"/>
      </g>
     </g>
    </g>
    <g id="ytick_8">
     <g id="line2d_39">
      <path d="M 74.73941 507.09013 
L 825.6 507.09013 
" clip-path="url(#p4955863c69)" style="fill: none; stroke: #cccccc; stroke-width: 0.8; stroke-linecap: round"/>
     </g>
     <g id="text_24">
      <!-- $\mathdefault{10^{3}}$ -->
      <g style="fill: #262626" transform="translate(38.98341 513.69013) scale(0.176 -0.176)">
       <use xlink:href="#Roboto-Regular-31" transform="translate(0 0.565625)"/>
       <use xlink:href="#Roboto-Regular-30" transform="translate(56.201172 0.565625)"/>
       <use xlink:href="#Roboto-Regular-33" transform="translate(113.326836 37.545313) scale(0.7)"/>
      </g>
     </g>
    </g>
    <g id="ytick_9">
     <g id="line2d_40">
      <path d="M 74.73941 440.838 
L 825.6 440.838 
" clip-path="url(#p4955863c69)" style="fill: none; stroke: #cccccc; stroke-width: 0.8; stroke-linecap: round"/>
     </g>
     <g id="text_25">
      <!-- $\mathdefault{10^{4}}$ -->
      <g style="fill: #262626" transform="translate(38.98341 447.438) scale(0.176 -0.176)">
       <use xlink:href="#Roboto-Regular-31" transform="translate(0 0.254688)"/>
       <use xlink:href="#Roboto-Regular-30" transform="translate(56.201172 0.254688)"/>
       <use xlink:href="#Roboto-Regular-34" transform="translate(113.326836 37.234375) scale(0.7)"/>
      </g>
     </g>
    </g>
   </g>
   <g id="line2d_41">
    <path d="M 11.413818 579.762756 
L 20.460332 600.435102 
L 29.506845 614.404587 
L 38.553358 612.101523 
L 47.599871 619.650513 
L 56.646384 599.706634 
L 65.692897 583.196712 
L 74.73941 602.738165 
L 83.785923 578.70351 
L 92.832437 589.01566 
L 101.87895 589.516072 
L 110.925463 649.856976 
L 119.971976 611.015623 
L 129.018489 573.923552 
L 138.065002 598.996155 
L 147.111515 578.70351 
L 156.158029 619.650513 
L 165.204542 627.92797 
L 174.251055 591.071744 
L 183.297568 573.923552 
L 192.344081 613.230018 
L 201.390594 627.92797 
L 210.437107 573.342261 
L 219.48362 577.020402 
L 228.530134 574.218662 
L 237.576647 614.404587 
L 246.62316 622.682044 
L 255.669673 580.491223 
L 264.716186 591.071744 
L 273.762699 579.762756 
L 282.809212 578.018407 
L 291.855725 685.902643 
L 300.902239 594.460708 
L 309.948752 601.182493 
L 318.995265 557.737999 
L 328.041778 541.924423 
L 337.088291 516.662294 
L 346.134804 501.653021 
L 355.181317 584.438902 
L 364.22783 603.548724 
L 373.274344 584.438902 
L 382.320857 574.516829 
L 391.36737 601.949817 
L 400.413883 575.430333 
L 409.460396 632.045401 
L 418.506909 578.018407 
L 427.553422 577.020402 
L 436.599935 608.959539 
L 445.646449 627.92797 
L 454.692962 583.604846 
L 463.739475 603.548724 
L 472.785988 582.397413 
L 481.832501 608.959539 
L 490.879014 575.122598 
L 499.925527 642.625923 
L 508.972041 618.246677 
L 518.018554 674.236222 
L 527.065067 581.238614 
L 536.11158 579.405323 
L 545.158093 685.902643 
L 554.204606 607.040632 
L 563.251119 593.867431 
L 572.297632 649.856976 
L 581.344146 632.045401 
L 590.390659 590.025341 
L 599.437172 581.238614 
L 608.483685 587.564617 
L 617.530198 598.996155 
L 626.576711 575.430333 
L 635.623224 599.706634 
L 644.669737 588.523803 
L 653.716251 596.317671 
L 662.762764 588.040213 
L 671.809277 632.045401 
L 680.85579 578.018407 
L 689.902303 592.157644 
L 698.948816 596.964281 
L 707.995329 581.619718 
L 717.041842 634.348465 
L 726.088356 591.071744 
L 735.134869 587.096754 
L 744.181382 581.238614 
L 753.227895 579.405323 
L 762.274408 590.025341 
L 771.320921 600.435102 
L 780.367434 553.112082 
L 789.413947 530.58166 
L 798.460461 521.836078 
L 807.506974 516.944582 
L 816.553487 579.405323 
L 825.6 590.025341 
" clip-path="url(#p4955863c69)" style="fill: none; stroke-dasharray: 1.2,1.98; stroke-dashoffset: 0; stroke: #4c72b0; stroke-width: 1.2"/>
   </g>
   <g id="line2d_42">
    <path d="M 757.751152 779.46 
L 757.751152 440.838 
" clip-path="url(#p4955863c69)" style="fill: none; stroke-dasharray: 4.44,1.92; stroke-dashoffset: 0; stroke: #ff0000; stroke-width: 1.2"/>
   </g>
   <g id="line2d_43">
    <path d="M 11.413818 619.033428 
L 20.460332 579.251723 
L 29.506845 599.396437 
L 38.553358 612.735296 
L 47.599871 610.557256 
L 56.646384 617.658678 
L 65.692897 598.693485 
L 74.73941 582.621544 
L 83.785923 601.614615 
L 92.832437 578.210791 
L 101.87895 588.313136 
L 110.925463 588.801374 
L 119.971976 644.4963 
L 129.018489 609.527098 
L 138.065002 573.505705 
L 147.111515 598.007297 
L 156.158029 578.210791 
L 165.204542 617.658678 
L 174.251055 625.301697 
L 183.297568 590.317857 
L 192.344081 573.505705 
L 201.390594 611.625672 
L 210.437107 625.301697 
L 219.48362 572.932711 
L 228.530134 576.555454 
L 237.576647 573.796538 
L 246.62316 612.735296 
L 255.669673 620.477172 
L 264.716186 579.967206 
L 273.762699 590.317857 
L 282.809212 579.251723 
L 291.855725 577.537186 
L 300.902239 670.352239 
L 309.948752 593.613959 
L 318.995265 600.116995 
L 328.041778 557.49918 
L 337.088291 541.786337 
L 346.134804 516.604822 
L 355.181317 501.618895 
L 364.22783 583.838622 
L 373.274344 602.393708 
L 382.320857 583.838622 
L 391.36737 574.090341 
L 400.413883 600.856065 
L 409.460396 574.990191 
L 418.506909 629.035546 
L 427.553422 577.537186 
L 436.599935 576.555454 
L 445.646449 607.571235 
L 454.692962 625.301697 
L 463.739475 583.021544 
L 472.785988 602.393708 
L 481.832501 581.83785 
L 490.879014 607.571235 
L 499.925527 574.687104 
L 508.972041 638.373181 
L 518.018554 616.346629 
L 527.065067 662.997739 
L 536.11158 580.700935 
L 545.158093 578.900545 
L 554.204606 670.352239 
L 563.251119 605.739903 
L 572.297632 593.037715 
L 581.344146 644.496303 
L 590.390659 629.035546 
L 599.437172 589.29804 
L 608.483685 580.700935 
L 617.530198 586.896246 
L 626.576711 598.007297 
L 635.623224 574.990191 
L 644.669737 598.693485 
L 653.716251 587.833046 
L 662.762764 595.415348 
L 671.809277 587.360832 
L 680.85579 629.035553 
L 689.902303 577.537186 
L 698.948816 591.375154 
L 707.995329 596.041775 
L 717.041842 581.074937 
L 726.088356 631.101441 
L 735.134869 590.317857 
L 744.181382 586.439039 
L 753.227895 580.700935 
L 762.274408 578.900545 
L 771.320921 589.298038 
L 780.367434 599.396437 
L 789.413947 552.908606 
L 798.460461 530.488491 
L 807.506974 521.767297 
L 816.553487 516.886544 
L 825.6 578.900545 
" clip-path="url(#p4955863c69)" style="fill: none; stroke: #dd8452; stroke-width: 1.2; stroke-linecap: round"/>
   </g>
   <g id="line2d_44">
    <path d="M 11.413818 610.037314 
L 20.460332 585.386452 
L 29.506845 592.262993 
L 38.553358 608.88413 
L 47.599871 614.682866 
L 56.646384 616.304925 
L 65.692897 606.39235 
L 74.73941 591.504952 
L 83.785923 596.88574 
L 92.832437 581.04865 
L 101.87895 583.493529 
L 110.925463 587.759478 
L 119.971976 612.979742 
L 129.018489 611.580895 
L 138.065002 582.660957 
L 147.111515 592.734713 
L 156.158029 582.302142 
L 165.204542 596.064585 
L 174.251055 615.314828 
L 183.297568 603.725314 
L 192.344081 581.212777 
L 201.390594 592.741887 
L 210.437107 611.585775 
L 219.48362 584.300383 
L 228.530134 577.840784 
L 237.576647 572.139154 
L 246.62316 589.296485 
L 255.669673 614.019327 
L 264.716186 590.863016 
L 273.762699 588.797261 
L 282.809212 582.05112 
L 291.855725 579.816314 
L 300.902239 608.466447 
L 309.948752 598.901881 
L 318.995265 602.446217 
L 328.041778 567.609052 
L 337.088291 546.361219 
L 346.134804 521.238629 
L 355.181317 504.032905 
L 364.22783 524.400209 
L 373.274344 549.500591 
L 382.320857 574.415255 
L 391.36737 592.421796 
L 400.413883 779.46 
L 409.460396 629.63346 
L 418.506909 779.46 
L 427.553422 621.419967 
L 436.599935 600.117248 
L 445.646449 624.131068 
L 454.692962 664.992491 
L 463.739475 604.316098 
L 472.785988 616.56913 
L 481.832501 594.106913 
L 490.879014 601.684649 
L 499.925527 582.543877 
L 508.972041 611.123055 
L 518.018554 624.210169 
L 527.065067 655.512442 
L 536.11158 594.949086 
L 545.158093 584.845157 
L 554.204606 611.579285 
L 563.251119 607.082807 
L 572.297632 598.577172 
L 581.344146 631.484161 
L 590.390659 645.468696 
L 599.437172 598.972575 
L 608.483685 584.84297 
L 617.530198 586.131484 
L 626.576711 591.94487 
L 635.623224 577.45382 
L 644.669737 587.120199 
L 653.716251 589.54386 
L 662.762764 593.820183 
L 671.809277 587.847565 
L 680.85579 608.836152 
L 689.902303 588.747513 
L 698.948816 590.391428 
L 707.995329 591.699388 
L 717.041842 584.269121 
L 726.088356 610.384633 
L 735.134869 599.105577 
L 744.181382 588.781183 
L 753.227895 582.621562 
L 762.274408 580.691542 
L 771.320921 585.080675 
L 780.367434 591.251639 
L 789.413947 560.717511 
L 798.460461 536.096776 
L 807.506974 522.949849 
L 816.553487 515.320893 
L 825.6 534.616983 
" clip-path="url(#p4955863c69)" style="fill: none; stroke: #55a868; stroke-width: 1.2; stroke-linecap: round"/>
   </g>
   <g id="line2d_45">
    <path d="M 11.413818 602.91247 
L 20.460332 588.401816 
L 29.506845 590.115709 
L 38.553358 601.164671 
L 47.599871 606.683308 
L 56.646384 604.632207 
L 65.692897 602.259802 
L 74.73941 599.161282 
L 83.785923 601.5316 
L 92.832437 587.250876 
L 101.87895 585.93797 
L 110.925463 589.722216 
L 119.971976 600.926425 
L 129.018489 598.93724 
L 138.065002 586.708929 
L 147.111515 593.77155 
L 156.158029 587.958926 
L 165.204542 590.563494 
L 174.251055 597.836374 
L 183.297568 601.13137 
L 192.344081 589.49997 
L 201.390594 590.861515 
L 210.437107 598.102601 
L 219.48362 590.766838 
L 228.530134 585.328416 
L 237.576647 577.29387 
L 246.62316 583.573196 
L 255.669673 596.33876 
L 264.716186 591.111299 
L 273.762699 587.284905 
L 282.809212 583.363666 
L 291.855725 583.733823 
L 300.902239 596.405407 
L 309.948752 592.099888 
L 318.995265 594.556487 
L 328.041778 578.32942 
L 337.088291 559.122863 
L 346.134804 534.470652 
L 355.181317 516.323782 
L 364.22783 524.140503 
L 373.274344 532.930227 
L 382.320857 540.497479 
L 391.36737 547.787875 
L 400.413883 560.160092 
L 409.460396 567.916947 
L 418.506909 581.922913 
L 427.553422 587.689506 
L 436.599935 596.64877 
L 445.646449 620.787963 
L 454.692962 651.383643 
L 463.739475 631.744407 
L 472.785988 779.46 
L 481.832501 643.702986 
L 490.879014 634.455552 
L 499.925527 605.001884 
L 508.972041 638.935884 
L 518.018554 664.265196 
L 527.065067 668.901023 
L 536.11158 613.928547 
L 545.158093 604.902472 
L 554.204606 622.386429 
L 563.251119 611.063027 
L 572.297632 604.132077 
L 581.344146 627.213208 
L 590.390659 640.504717 
L 599.437172 607.136254 
L 608.483685 594.2454 
L 617.530198 595.22786 
L 626.576711 596.744173 
L 635.623224 583.290845 
L 644.669737 585.715901 
L 653.716251 589.157673 
L 662.762764 591.586027 
L 671.809277 586.077957 
L 680.85579 593.770711 
L 689.902303 590.913516 
L 698.948816 591.891085 
L 707.995329 589.229402 
L 717.041842 585.139308 
L 726.088356 599.343213 
L 735.134869 598.07698 
L 744.181382 589.891467 
L 753.227895 585.416118 
L 762.274408 585.654041 
L 771.320921 587.203239 
L 780.367434 586.979729 
L 789.413947 569.172221 
L 798.460461 548.89116 
L 807.506974 534.46567 
L 816.553487 524.350259 
L 825.6 531.237359 
" clip-path="url(#p4955863c69)" style="fill: none; stroke: #c44e52; stroke-width: 1.2; stroke-linecap: round"/>
   </g>
   <g id="line2d_46">
    <path d="M 11.413818 779.46 
L 20.460332 565.793271 
L 29.506845 779.46 
L 38.553358 619.650513 
L 47.599871 590.29125 
L 56.646384 779.46 
L 65.692897 550.173839 
L 74.73941 779.46 
L 83.785923 603.275994 
L 92.832437 553.546988 
L 101.87895 779.46 
L 110.925463 526.673434 
L 119.971976 779.46 
L 129.018489 575.950659 
L 138.065002 531.601623 
L 147.111515 779.46 
L 156.158029 497.90983 
L 165.204542 779.46 
L 174.251055 529.955909 
L 183.297568 515.642086 
L 192.344081 779.46 
L 201.390594 472.073087 
L 210.437107 779.46 
L 219.48362 482.877714 
L 228.530134 507.876496 
L 237.576647 779.46 
L 246.62316 445.363523 
L 255.669673 779.46 
L 264.716186 445.553654 
L 273.762699 779.46 
L 282.809212 779.46 
L 291.855725 418.809245 
L 300.902239 779.46 
L 309.948752 411.029412 
L 318.995265 779.46 
L 328.041778 779.46 
L 337.088291 392.928992 
L 346.134804 779.46 
L 355.181317 377.901573 
L 364.22783 779.46 
L 373.274344 779.46 
L 382.320857 368.575609 
L 391.36737 779.46 
L 400.413883 347.063498 
L 409.460396 779.46 
L 418.506909 779.46 
L 427.553422 345.578952 
L 436.599935 779.46 
L 445.646449 316.994828 
L 454.692962 779.46 
L 463.739475 359.286806 
L 472.785988 325.275165 
L 481.832501 779.46 
L 490.879014 287.783986 
L 499.925527 779.46 
L 508.972041 309.242628 
L 518.018554 310.120245 
L 527.065067 779.46 
L 536.11158 259.367032 
L 545.158093 779.46 
L 554.204606 268.916191 
L 563.251119 311.024049 
L 572.297632 779.46 
L 581.344146 231.749264 
L 590.390659 779.46 
L 599.437172 232.590531 
L 608.483685 779.46 
L 617.530198 779.46 
L 626.576711 204.997828 
L 635.623224 779.46 
L 644.669737 198.566802 
L 653.716251 779.46 
L 662.762764 779.46 
L 671.809277 179.256174 
L 680.85579 779.46 
L 689.902303 166.110124 
L 698.948816 779.46 
L 707.995329 779.46 
L 717.041842 154.780263 
L 726.088356 779.46 
L 735.134869 134.845665 
L 744.181382 779.46 
L 753.227895 779.46 
L 762.274408 132.039083 
L 771.320921 779.46 
L 780.367434 104.568419 
L 789.413947 779.46 
L 798.460461 144.508294 
L 807.506974 111.993716 
L 816.553487 779.46 
L 825.6 75.169533 
" clip-path="url(#p4955863c69)" style="fill: none; stroke: #8172b3; stroke-width: 1.2; stroke-linecap: round"/>
   </g>
   <g id="line2d_47">
    <path d="M 11.413818 619.033428 
L 20.460332 579.251723 
L 29.506845 599.396437 
L 38.553358 612.735296 
L 47.599871 610.557256 
L 56.646384 617.658678 
L 65.692897 598.693485 
L 74.73941 582.621544 
L 83.785923 601.614615 
L 92.832437 578.210791 
L 101.87895 588.313136 
L 110.925463 588.801374 
L 119.971976 644.4963 
L 129.018489 609.527098 
L 138.065002 573.505705 
L 147.111515 598.007297 
L 156.158029 578.210791 
L 165.204542 617.658678 
L 174.251055 625.301697 
L 183.297568 590.317857 
L 192.344081 573.505705 
L 201.390594 611.625672 
L 210.437107 625.301697 
L 219.48362 572.932711 
L 228.530134 576.555454 
L 237.576647 573.796538 
L 246.62316 612.735296 
L 255.669673 620.477172 
L 264.716186 579.967206 
L 273.762699 590.317857 
L 282.809212 579.251723 
L 291.855725 577.537186 
L 300.902239 670.352239 
L 309.948752 593.613959 
L 318.995265 600.116995 
L 328.041778 557.49918 
L 337.088291 541.786339 
L 346.134804 516.604822 
L 355.181317 501.618895 
L 364.22783 583.838622 
L 373.274344 602.393708 
L 382.320857 583.838622 
L 391.36737 574.090341 
L 400.413883 600.856062 
L 409.460396 574.990191 
L 418.506909 629.035546 
L 427.553422 577.537186 
L 436.599935 576.555454 
L 445.646449 607.571235 
L 454.692962 625.301697 
L 463.739475 583.021544 
L 472.785988 602.393708 
L 481.832501 581.83785 
L 490.879014 607.571235 
L 499.925527 574.687104 
L 508.972041 638.373178 
L 518.018554 616.346629 
L 527.065067 662.997739 
L 536.11158 580.700935 
L 545.158093 578.900545 
L 554.204606 670.352239 
L 563.251119 605.739903 
L 572.297632 593.037715 
L 581.344146 644.4963 
L 590.390659 629.035546 
L 599.437172 589.29804 
L 608.483685 580.700935 
L 617.530198 586.896244 
L 626.576711 598.007297 
L 635.623224 574.990191 
L 644.669737 598.693485 
L 653.716251 587.833044 
L 662.762764 595.415348 
L 671.809277 587.360832 
L 680.85579 629.035546 
L 689.902303 577.537186 
L 698.948816 591.375152 
L 707.995329 596.041775 
L 717.041842 581.074937 
L 726.088356 631.101441 
L 735.134869 590.317857 
L 744.181382 586.439039 
L 753.227895 580.700935 
L 762.274408 578.900545 
L 771.320921 589.29804 
L 780.367434 599.396437 
L 789.413947 552.908606 
L 798.460461 530.488491 
L 807.506974 521.767297 
L 816.553487 516.886544 
L 825.6 578.900545 
" clip-path="url(#p4955863c69)" style="fill: none; stroke: #937860; stroke-width: 1.2; stroke-linecap: round"/>
   </g>
   <g id="patch_9">
    <path d="M 74.73941 779.46 
L 74.73941 440.838 
" style="fill: none; stroke: #cccccc; stroke-linejoin: miter; stroke-linecap: square"/>
   </g>
   <g id="patch_10">
    <path d="M 825.6 779.46 
L 825.6 440.838 
" style="fill: none; stroke: #cccccc; stroke-linejoin: miter; stroke-linecap: square"/>
   </g>
   <g id="patch_11">
    <path d="M 74.73941 779.46 
L 825.6 779.46 
" style="fill: none; stroke: #cccccc; stroke-linejoin: miter; stroke-linecap: square"/>
   </g>
   <g id="patch_12">
    <path d="M 74.73941 440.838 
L 825.6 440.838 
" style="fill: none; stroke: #cccccc; stroke-linejoin: miter; stroke-linecap: square"/>
   </g>
  </g>
 </g>
 <defs>
  <clipPath id="pa855ec8d08">
   <rect x="74.73941" y="45.672" width="750.86059" height="338.622"/>
  </clipPath>
  <clipPath id="p4955863c69">
   <rect x="74.73941" y="440.838" width="750.86059" height="338.622"/>
  </clipPath>
 </defs>
</svg>
