<?xml version="1.0" encoding="utf-8" standalone="no"?>
<!DOCTYPE svg PUBLIC "-//W3C//DTD SVG 1.1//EN"
  "http://www.w3.org/Graphics/SVG/1.1/DTD/svg11.dtd">
<svg xmlns:xlink="http://www.w3.org/1999/xlink" width="864pt" height="864pt" viewBox="0 0 864 864" xmlns="http://www.w3.org/2000/svg" version="1.1">
 <metadata>
  <rdf:RDF xmlns:dc="http://purl.org/dc/elements/1.1/" xmlns:cc="http://creativecommons.org/ns#" xmlns:rdf="http://www.w3.org/1999/02/22-rdf-syntax-ns#">
   <cc:Work>
    <dc:type rdf:resource="http://purl.org/dc/dcmitype/StillImage"/>
    <dc:date>2025-05-06T11:21:14.042321</dc:date>
    <dc:format>image/svg+xml</dc:format>
    <dc:creator>
     <cc:Agent>
      <dc:title>Matplotlib v3.10.1, https://matplotlib.org/</dc:title>
     </cc:Agent>
    </dc:creator>
   </cc:Work>
  </rdf:RDF>
 </metadata>
 <defs>
  <style type="text/css">*{stroke-linejoin: round; stroke-linecap: butt}</style>
 </defs>
 <g id="figure_1">
  <g id="patch_1">
   <path d="M 0 864 
L 864 864 
L 864 0 
L 0 0 
z
" style="fill: #ffffff"/>
  </g>
  <g id="axes_1">
   <g id="patch_2">
    <path d="M 74.73941 384.294 
L 825.6 384.294 
L 825.6 45.672 
L 74.73941 45.672 
z
" style="fill: #ffffff"/>
   </g>
   <g id="matplotlib.axis_1">
    <g id="xtick_1">
     <g id="line2d_1">
      <path d="M 74.73941 384.294 
L 74.73941 45.672 
" clip-path="url(#p8ac9528120)" style="fill: none; stroke: #cccccc; stroke-width: 0.8; stroke-linecap: round"/>
     </g>
    </g>
    <g id="xtick_2">
     <g id="line2d_2">
      <path d="M 165.204542 384.294 
L 165.204542 45.672 
" clip-path="url(#p8ac9528120)" style="fill: none; stroke: #cccccc; stroke-width: 0.8; stroke-linecap: round"/>
     </g>
    </g>
    <g id="xtick_3">
     <g id="line2d_3">
      <path d="M 255.669673 384.294 
L 255.669673 45.672 
" clip-path="url(#p8ac9528120)" style="fill: none; stroke: #cccccc; stroke-width: 0.8; stroke-linecap: round"/>
     </g>
    </g>
    <g id="xtick_4">
     <g id="line2d_4">
      <path d="M 346.134804 384.294 
L 346.134804 45.672 
" clip-path="url(#p8ac9528120)" style="fill: none; stroke: #cccccc; stroke-width: 0.8; stroke-linecap: round"/>
     </g>
    </g>
    <g id="xtick_5">
     <g id="line2d_5">
      <path d="M 436.599935 384.294 
L 436.599935 45.672 
" clip-path="url(#p8ac9528120)" style="fill: none; stroke: #cccccc; stroke-width: 0.8; stroke-linecap: round"/>
     </g>
    </g>
    <g id="xtick_6">
     <g id="line2d_6">
      <path d="M 527.065067 384.294 
L 527.065067 45.672 
" clip-path="url(#p8ac9528120)" style="fill: none; stroke: #cccccc; stroke-width: 0.8; stroke-linecap: round"/>
     </g>
    </g>
    <g id="xtick_7">
     <g id="line2d_7">
      <path d="M 617.530198 384.294 
L 617.530198 45.672 
" clip-path="url(#p8ac9528120)" style="fill: none; stroke: #cccccc; stroke-width: 0.8; stroke-linecap: round"/>
     </g>
    </g>
    <g id="xtick_8">
     <g id="line2d_8">
      <path d="M 707.995329 384.294 
L 707.995329 45.672 
" clip-path="url(#p8ac9528120)" style="fill: none; stroke: #cccccc; stroke-width: 0.8; stroke-linecap: round"/>
     </g>
    </g>
    <g id="xtick_9">
     <g id="line2d_9">
      <path d="M 798.460461 384.294 
L 798.460461 45.672 
" clip-path="url(#p8ac9528120)" style="fill: none; stroke: #cccccc; stroke-width: 0.8; stroke-linecap: round"/>
     </g>
    </g>
   </g>
   <g id="matplotlib.axis_2">
    <g id="ytick_1">
     <g id="line2d_10">
      <path d="M 74.73941 384.294 
L 825.6 384.294 
" clip-path="url(#p8ac9528120)" style="fill: none; stroke: #cccccc; stroke-width: 0.8; stroke-linecap: round"/>
     </g>
     <g id="text_1">
      <!-- $\mathdefault{10^{1}}$ -->
      <g style="fill: #262626" transform="translate(38.98341 390.894) scale(0.176 -0.176)">
       <defs>
        <path id="Roboto-Regular-31" d="M 2278 4575 
L 2278 0 
L 1700 0 
L 1700 3853 
L 534 3428 
L 534 3950 
L 2188 4575 
L 2278 4575 
z
" transform="scale(0.015625)"/>
        <path id="Roboto-Regular-30" d="M 3234 1944 
Q 3234 825 2848 381 
Q 2463 -63 1800 -63 
Q 1156 -63 764 368 
Q 372 800 359 1872 
L 359 2638 
Q 359 3753 750 4183 
Q 1141 4613 1794 4613 
Q 2447 4613 2834 4195 
Q 3222 3778 3234 2709 
L 3234 1944 
z
M 2653 2734 
Q 2653 3503 2434 3822 
Q 2216 4141 1794 4141 
Q 1388 4141 1167 3831 
Q 947 3522 941 2778 
L 941 1850 
Q 941 1088 1164 750 
Q 1388 413 1800 413 
Q 2222 413 2436 745 
Q 2650 1078 2653 1825 
L 2653 2734 
z
" transform="scale(0.015625)"/>
       </defs>
       <use xlink:href="#Roboto-Regular-31" transform="translate(0 0.98125)"/>
       <use xlink:href="#Roboto-Regular-30" transform="translate(56.201172 0.98125)"/>
       <use xlink:href="#Roboto-Regular-31" transform="translate(113.326836 37.960938) scale(0.7)"/>
      </g>
     </g>
    </g>
    <g id="ytick_2">
     <g id="line2d_11">
      <path d="M 74.73941 214.983 
L 825.6 214.983 
" clip-path="url(#p8ac9528120)" style="fill: none; stroke: #cccccc; stroke-width: 0.8; stroke-linecap: round"/>
     </g>
     <g id="text_2">
      <!-- $\mathdefault{10^{2}}$ -->
      <g style="fill: #262626" transform="translate(38.98341 221.583) scale(0.176 -0.176)">
       <defs>
        <path id="Roboto-Regular-32" d="M 3359 475 
L 3359 0 
L 381 0 
L 381 416 
L 1925 2134 
Q 2306 2566 2439 2819 
Q 2572 3072 2572 3328 
Q 2572 3663 2364 3900 
Q 2156 4138 1778 4138 
Q 1322 4138 1097 3878 
Q 872 3619 872 3213 
L 294 3213 
Q 294 3788 672 4200 
Q 1050 4613 1778 4613 
Q 2422 4613 2786 4278 
Q 3150 3944 3150 3397 
Q 3150 2997 2903 2592 
Q 2656 2188 2297 1797 
L 1078 475 
L 3359 475 
z
" transform="scale(0.015625)"/>
       </defs>
       <use xlink:href="#Roboto-Regular-31" transform="translate(0 0.565625)"/>
       <use xlink:href="#Roboto-Regular-30" transform="translate(56.201172 0.565625)"/>
       <use xlink:href="#Roboto-Regular-32" transform="translate(113.326836 37.545313) scale(0.7)"/>
      </g>
     </g>
    </g>
    <g id="ytick_3">
     <g id="line2d_12">
      <path d="M 74.73941 45.672 
L 825.6 45.672 
" clip-path="url(#p8ac9528120)" style="fill: none; stroke: #cccccc; stroke-width: 0.8; stroke-linecap: round"/>
     </g>
     <g id="text_3">
      <!-- $\mathdefault{10^{3}}$ -->
      <g style="fill: #262626" transform="translate(38.98341 52.272) scale(0.176 -0.176)">
       <defs>
        <path id="Roboto-Regular-33" d="M 1222 2084 
L 1222 2559 
L 1647 2559 
Q 2094 2563 2312 2784 
Q 2531 3006 2531 3338 
Q 2531 4138 1738 4138 
Q 1369 4138 1141 3927 
Q 913 3716 913 3359 
L 334 3359 
Q 334 3881 720 4247 
Q 1106 4613 1738 4613 
Q 2353 4613 2733 4286 
Q 3113 3959 3113 3325 
Q 3113 3072 2942 2784 
Q 2772 2497 2397 2338 
Q 2850 2191 3015 1884 
Q 3181 1578 3181 1269 
Q 3181 631 2768 284 
Q 2356 -63 1741 -63 
Q 1147 -63 722 267 
Q 297 597 297 1203 
L 875 1203 
Q 875 844 1108 628 
Q 1341 413 1741 413 
Q 2138 413 2369 622 
Q 2600 831 2600 1256 
Q 2600 1681 2337 1882 
Q 2075 2084 1634 2084 
L 1222 2084 
z
" transform="scale(0.015625)"/>
       </defs>
       <use xlink:href="#Roboto-Regular-31" transform="translate(0 0.565625)"/>
       <use xlink:href="#Roboto-Regular-30" transform="translate(56.201172 0.565625)"/>
       <use xlink:href="#Roboto-Regular-33" transform="translate(113.326836 37.545313) scale(0.7)"/>
      </g>
     </g>
    </g>
   </g>
   <g id="line2d_13">
    <path d="M -1 271.367189 
L 2.367305 273.697936 
L 11.413818 292.177295 
L 20.460332 292.177295 
L 29.506845 314.034447 
L 38.553358 296.503886 
L 47.599871 284.22026 
L 56.646384 270.50044 
L 65.692897 273.697936 
L 74.73941 301.10106 
L 83.785923 329.738729 
L 92.832437 277.040822 
L 101.87895 273.697936 
L 110.925463 303.512123 
L 119.971976 333.32631 
L 129.018489 298.766552 
L 138.065002 303.512123 
L 147.111515 292.177295 
L 156.158029 277.040822 
L 165.204542 333.32631 
L 174.251055 303.512123 
L 183.297568 316.918379 
L 192.344081 319.920054 
L 201.390594 292.177295 
L 210.437107 294.308773 
L 219.48362 277.040822 
L 228.530134 275.350384 
L 237.576647 319.920054 
L 246.62316 267.436211 
L 255.669673 314.034447 
L 264.716186 296.503886 
L 273.762699 296.503886 
L 282.809212 326.318073 
L 291.855725 268.952365 
L 300.902239 333.32631 
L 309.948752 265.95069 
L 318.995265 252.544434 
L 328.041778 204.706188 
L 337.088291 145.576813 
L 346.134804 76.448356 
L 355.181317 275.350384 
L 364.22783 270.50044 
L 373.274344 270.50044 
L 382.320857 284.22026 
L 391.36737 326.318073 
L 400.413883 301.10106 
L 409.460396 314.034447 
L 418.506909 306.004933 
L 427.553422 288.091198 
L 436.599935 265.95069 
L 445.646449 308.585227 
L 454.692962 301.10106 
L 463.739475 301.10106 
L 472.785988 294.308773 
L 481.832501 296.503886 
L 490.879014 294.308773 
L 499.925527 282.358621 
L 508.972041 329.738729 
L 518.018554 270.50044 
L 527.065067 292.177295 
L 536.11158 288.091198 
L 545.158093 282.358621 
L 554.204606 268.952365 
L 563.251119 280.542952 
L 572.297632 316.918379 
L 581.344146 280.542952 
L 590.390659 270.50044 
L 599.437172 301.10106 
L 608.483685 286.130259 
L 617.530198 268.952365 
L 626.576711 277.040822 
L 635.623224 284.22026 
L 644.669737 275.350384 
L 653.716251 277.040822 
L 662.762764 303.512123 
L 671.809277 294.308773 
L 680.85579 294.308773 
L 689.902303 286.130259 
L 698.948816 270.50044 
L 707.995329 316.918379 
L 717.041842 275.350384 
L 726.088356 270.50044 
L 735.134869 268.952365 
L 744.181382 326.318073 
L 753.227895 333.32631 
L 762.274408 273.697936 
L 771.320921 280.542952 
L 780.367434 263.066758 
L 789.413947 237.123508 
L 798.460461 219.53275 
L 807.506974 219.53275 
L 816.553487 280.542952 
L 825.6 316.918379 
" clip-path="url(#p8ac9528120)" style="fill: none; stroke-dasharray: 1.2,1.98; stroke-dashoffset: 0; stroke: #4c72b0; stroke-width: 1.2"/>
   </g>
   <g id="line2d_14">
    <path d="M 757.751152 384.294 
L 757.751152 45.672 
" clip-path="url(#p8ac9528120)" style="fill: none; stroke-dasharray: 1.2,1.98; stroke-dashoffset: 0; stroke: #ff0000; stroke-width: 1.2"/>
   </g>
   <g id="line2d_15">
    <path d="M -1 282.920952 
L 2.367305 262.771276 
L 11.413818 322.732452 
L 20.460332 247.855628 
L 29.506845 337.712304 
L 38.553358 332.638315 
L 47.599871 395.961624 
L 56.646384 364.931195 
L 65.692897 324.727536 
L 74.73941 296.603479 
L 83.785923 275.979284 
L 92.832437 275.697246 
L 101.87895 290.873516 
L 110.925463 400.920685 
L 119.971976 296.890859 
L 129.018489 355.895778 
L 138.065002 325.45876 
L 147.111515 366.882611 
L 156.158029 362.277582 
L 165.204542 298.77431 
L 174.251055 280.732656 
L 183.297568 288.86717 
L 192.344081 284.818124 
L 201.390594 330.220933 
L 210.437107 286.468282 
L 219.48362 291.090851 
L 228.530134 286.798733 
L 237.576647 287.813907 
L 246.62316 306.363834 
L 255.669673 259.507645 
L 264.716186 288.438073 
L 273.762699 265.146973 
L 282.809212 260.696381 
L 291.855725 282.429811 
L 300.902239 280.995967 
L 309.948752 287.409258 
L 318.995265 252.158678 
L 328.041778 237.02066 
L 337.088291 226.372779 
L 346.134804 191.166763 
L 355.181317 149.169543 
L 364.22783 270.947399 
L 373.274344 255.301385 
L 382.320857 265.182472 
L 391.36737 246.036244 
L 400.413883 290.42339 
L 409.460396 265.208325 
L 418.506909 274.453898 
L 427.553422 252.09393 
L 436.599935 268.518432 
L 445.646449 234.794711 
L 454.692962 252.859203 
L 463.739475 241.034567 
L 472.785988 238.953002 
L 481.832501 234.605161 
L 490.879014 253.490726 
L 499.925527 228.887168 
L 508.972041 224.769317 
L 518.018554 237.883156 
L 527.065067 244.324522 
L 536.11158 229.418058 
L 545.158093 253.121427 
L 554.204606 247.670568 
L 563.251119 241.689667 
L 572.297632 256.353614 
L 581.344146 280.394268 
L 590.390659 258.430297 
L 599.437172 261.71385 
L 608.483685 250.994051 
L 617.530198 276.777262 
L 626.576711 245.769482 
L 635.623224 272.302214 
L 644.669737 267.520329 
L 653.716251 372.491175 
L 662.762764 276.324093 
L 671.809277 302.44798 
L 680.85579 296.393199 
L 689.902303 307.979946 
L 698.948816 318.97442 
L 707.995329 275.99327 
L 717.041842 281.269703 
L 726.088356 269.07347 
L 735.134869 273.2396 
L 744.181382 291.597236 
L 753.227895 318.630928 
L 762.274408 275.135086 
L 771.320921 298.217029 
L 780.367434 259.604688 
L 789.413947 273.094005 
L 798.460461 252.379485 
L 807.506974 269.669501 
L 816.553487 242.174523 
L 825.6 304.366736 
" clip-path="url(#p8ac9528120)" style="fill: none; stroke: #dd8452; stroke-width: 1.2; stroke-linecap: round"/>
   </g>
   <g id="line2d_16">
    <path d="M -1 313.055025 
L 2.367305 308.930754 
L 11.413818 315.088143 
L 20.460332 314.420551 
L 29.506845 311.742747 
L 38.553358 314.00835 
L 47.599871 310.239449 
L 56.646384 310.555413 
L 65.692897 309.19795 
L 74.73941 310.337011 
L 83.785923 311.916082 
L 92.832437 310.689477 
L 101.87895 304.831325 
L 110.925463 309.07969 
L 119.971976 310.676077 
L 129.018489 308.866723 
L 138.065002 305.051953 
L 147.111515 308.207302 
L 156.158029 305.683441 
L 165.204542 304.627772 
L 174.251055 310.218719 
L 183.297568 302.711303 
L 192.344081 306.660741 
L 201.390594 305.077245 
L 210.437107 302.555605 
L 219.48362 304.480538 
L 228.530134 301.348922 
L 237.576647 302.337982 
L 246.62316 305.403223 
L 255.669673 296.590475 
L 264.716186 306.386848 
L 273.762699 299.051828 
L 282.809212 301.071207 
L 291.855725 302.532167 
L 300.902239 295.40158 
L 309.948752 305.565773 
L 318.995265 293.262667 
L 328.041778 297.611328 
L 337.088291 288.022054 
L 346.134804 273.946153 
L 355.181317 243.44395 
L 364.22783 741.728333 
L 373.274344 262.968692 
L 382.320857 288.615914 
L 391.36737 296.421059 
L 400.413883 297.650427 
L 409.460396 293.449207 
L 418.506909 296.505977 
L 427.553422 294.470914 
L 436.599935 293.44469 
L 445.646449 292.05246 
L 454.692962 297.084628 
L 463.739475 291.838243 
L 472.785988 293.088542 
L 481.832501 292.28584 
L 490.879014 292.597316 
L 499.925527 291.790235 
L 508.972041 290.568426 
L 518.018554 294.336135 
L 527.065067 286.45151 
L 536.11158 292.963504 
L 545.158093 289.098888 
L 554.204606 288.959648 
L 563.251119 287.75804 
L 572.297632 289.49001 
L 581.344146 290.110083 
L 590.390659 285.237962 
L 599.437172 287.21417 
L 608.483685 289.573142 
L 617.530198 285.261842 
L 626.576711 285.27949 
L 635.623224 286.817388 
L 644.669737 285.713134 
L 653.716251 284.18502 
L 662.762764 284.976925 
L 671.809277 286.255712 
L 680.85579 283.430414 
L 689.902303 284.368397 
L 698.948816 283.382095 
L 707.995329 282.278498 
L 717.041842 286.368033 
L 726.088356 279.68369 
L 735.134869 282.499236 
L 744.181382 281.722914 
L 753.227895 285.004223 
L 762.274408 281.310681 
L 771.320921 278.52323 
L 780.367434 282.532595 
L 789.413947 278.80182 
L 798.460461 276.902699 
L 807.506974 276.19544 
L 816.553487 277.240822 
L 825.6 283.230416 
" clip-path="url(#p8ac9528120)" style="fill: none; stroke: #55a868; stroke-width: 1.2; stroke-linecap: round"/>
   </g>
   <g id="line2d_17">
    <path d="M -1 318.802785 
L 2.367305 318.060134 
L 11.413818 316.842252 
L 20.460332 317.128002 
L 29.506845 315.323889 
L 38.553358 316.232695 
L 47.599871 316.143023 
L 56.646384 315.722664 
L 65.692897 314.992455 
L 74.73941 313.856762 
L 83.785923 313.533329 
L 92.832437 313.366962 
L 101.87895 312.589999 
L 110.925463 313.278419 
L 119.971976 313.289862 
L 129.018489 312.014186 
L 138.065002 311.587603 
L 147.111515 312.68335 
L 156.158029 312.081601 
L 165.204542 310.468057 
L 174.251055 311.259422 
L 183.297568 309.763741 
L 192.344081 310.170579 
L 201.390594 310.903537 
L 210.437107 309.467003 
L 219.48362 309.392937 
L 228.530134 307.998955 
L 237.576647 306.838785 
L 246.62316 307.192337 
L 255.669673 305.022604 
L 264.716186 306.570243 
L 273.762699 306.11901 
L 282.809212 305.188695 
L 291.855725 306.498384 
L 300.902239 304.374039 
L 309.948752 305.802021 
L 318.995265 303.557859 
L 328.041778 302.152446 
L 337.088291 299.181146 
L 346.134804 289.72147 
L 355.181317 270.760628 
L 364.22783 283.850202 
L 373.274344 268.878748 
L 382.320857 270.992512 
L 391.36737 299.780209 
L 400.413883 300.168418 
L 409.460396 299.878234 
L 418.506909 300.882308 
L 427.553422 301.036393 
L 436.599935 299.958107 
L 445.646449 299.050543 
L 454.692962 299.191359 
L 463.739475 297.926033 
L 472.785988 297.74531 
L 481.832501 298.36109 
L 490.879014 297.905541 
L 499.925527 297.425196 
L 508.972041 296.635651 
L 518.018554 297.207226 
L 527.065067 295.463201 
L 536.11158 295.917432 
L 545.158093 295.552314 
L 554.204606 294.146305 
L 563.251119 293.956981 
L 572.297632 293.649498 
L 581.344146 293.62208 
L 590.390659 292.56551 
L 599.437172 292.82249 
L 608.483685 293.401317 
L 617.530198 291.811061 
L 626.576711 291.330962 
L 635.623224 291.657205 
L 644.669737 290.801439 
L 653.716251 289.966117 
L 662.762764 290.065206 
L 671.809277 290.352456 
L 680.85579 289.730779 
L 689.902303 289.934519 
L 698.948816 289.960448 
L 707.995329 289.042136 
L 717.041842 289.509839 
L 726.088356 288.013087 
L 735.134869 287.791548 
L 744.181382 287.825184 
L 753.227895 287.578835 
L 762.274408 287.388312 
L 771.320921 286.951692 
L 780.367434 288.000797 
L 789.413947 286.422691 
L 798.460461 284.124436 
L 807.506974 282.67817 
L 816.553487 281.004717 
L 825.6 281.155463 
" clip-path="url(#p8ac9528120)" style="fill: none; stroke: #c44e52; stroke-width: 1.2; stroke-linecap: round"/>
   </g>
   <g id="line2d_18">
    <path d="M -1 309.298519 
L 2.367305 308.139437 
L 11.413818 316.675388 
L 20.460332 309.192117 
L 29.506845 301.096129 
L 38.553358 302.352265 
L 47.599871 304.315022 
L 56.646384 309.690733 
L 65.692897 311.050519 
L 74.73941 314.608744 
L 83.785923 319.004148 
L 92.832437 305.743418 
L 101.87895 295.287831 
L 110.925463 302.870051 
L 119.971976 306.486827 
L 129.018489 305.650557 
L 138.065002 304.799756 
L 147.111515 301.330925 
L 156.158029 307.558799 
L 165.204542 313.37019 
L 174.251055 310.197812 
L 183.297568 305.617519 
L 192.344081 299.783084 
L 201.390594 301.154275 
L 210.437107 305.132614 
L 219.48362 304.121885 
L 228.530134 300.527024 
L 237.576647 300.486616 
L 246.62316 304.952618 
L 255.669673 302.783755 
L 264.716186 301.443485 
L 273.762699 305.311068 
L 282.809212 301.149467 
L 291.855725 295.264843 
L 300.902239 297.422605 
L 309.948752 302.907673 
L 318.995265 304.693711 
L 328.041778 303.841698 
L 337.088291 298.300094 
L 346.134804 284.997216 
L 355.181317 278.926124 
L 364.22783 263.886966 
L 373.274344 273.698148 
L 382.320857 291.607279 
L 391.36737 292.328021 
L 400.413883 291.202318 
L 409.460396 297.81155 
L 418.506909 299.310247 
L 427.553422 296.646509 
L 436.599935 300.06108 
L 445.646449 299.086726 
L 454.692962 294.371945 
L 463.739475 298.762239 
L 472.785988 297.771102 
L 481.832501 290.007276 
L 490.879014 294.136979 
L 499.925527 301.947534 
L 508.972041 293.67916 
L 518.018554 288.670404 
L 527.065067 294.848413 
L 536.11158 290.884224 
L 545.158093 288.56302 
L 554.204606 293.59062 
L 563.251119 291.315356 
L 572.297632 287.747226 
L 581.344146 288.650785 
L 590.390659 292.96433 
L 599.437172 294.621408 
L 608.483685 289.805663 
L 617.530198 289.551153 
L 626.576711 292.943749 
L 635.623224 288.125798 
L 644.669737 280.601244 
L 653.716251 285.985075 
L 662.762764 291.782726 
L 671.809277 290.283458 
L 680.85579 288.366943 
L 689.902303 286.035955 
L 698.948816 289.920272 
L 707.995329 291.708064 
L 717.041842 290.462973 
L 726.088356 289.231538 
L 735.134869 282.5731 
L 744.181382 283.097775 
L 753.227895 288.016305 
L 762.274408 286.142322 
L 771.320921 288.0404 
L 780.367434 289.729206 
L 789.413947 284.476152 
L 798.460461 281.290828 
L 807.506974 284.005892 
L 816.553487 279.78529 
L 825.6 276.473553 
" clip-path="url(#p8ac9528120)" style="fill: none; stroke: #8172b3; stroke-width: 1.2; stroke-linecap: round"/>
   </g>
   <g id="line2d_19">
    <path d="M -1 311.932645 
L 2.367305 310.664143 
L 11.413818 310.685529 
L 20.460332 308.961569 
L 29.506845 305.269616 
L 38.553358 311.13453 
L 47.599871 312.148184 
L 56.646384 312.887693 
L 65.692897 309.118867 
L 74.73941 304.985592 
L 83.785923 301.592052 
L 92.832437 298.024396 
L 101.87895 297.904813 
L 110.925463 304.295585 
L 119.971976 307.203377 
L 129.018489 304.29327 
L 138.065002 304.202844 
L 147.111515 303.485602 
L 156.158029 303.715307 
L 165.204542 301.896121 
L 174.251055 298.214506 
L 183.297568 295.267827 
L 192.344081 296.71861 
L 201.390594 298.962957 
L 210.437107 301.455381 
L 219.48362 300.411851 
L 228.530134 298.951677 
L 237.576647 298.69788 
L 246.62316 299.588429 
L 255.669673 297.295911 
L 264.716186 297.024707 
L 273.762699 297.220752 
L 282.809212 296.501778 
L 291.855725 296.826229 
L 300.902239 298.535679 
L 309.948752 301.569633 
L 318.995265 298.228828 
L 328.041778 295.619328 
L 337.088291 290.757082 
L 346.134804 283.451564 
L 355.181317 268.29363 
L 364.22783 275.572606 
L 373.274344 268.555046 
L 382.320857 286.319063 
L 391.36737 293.329293 
L 400.413883 295.107699 
L 409.460396 298.647008 
L 418.506909 298.67648 
L 427.553422 296.807049 
L 436.599935 295.594615 
L 445.646449 294.432321 
L 454.692962 292.223263 
L 463.739475 292.940858 
L 472.785988 293.1909 
L 481.832501 292.519762 
L 490.879014 294.724041 
L 499.925527 296.965545 
L 508.972041 293.452689 
L 518.018554 293.641764 
L 527.065067 295.871886 
L 536.11158 297.136616 
L 545.158093 295.166186 
L 554.204606 297.364515 
L 563.251119 295.347733 
L 572.297632 293.63036 
L 581.344146 294.27052 
L 590.390659 294.007657 
L 599.437172 292.107493 
L 608.483685 289.487507 
L 617.530198 287.59887 
L 626.576711 288.345024 
L 635.623224 286.20457 
L 644.669737 285.669167 
L 653.716251 287.462267 
L 662.762764 289.319843 
L 671.809277 285.288757 
L 680.85579 283.462106 
L 689.902303 282.517667 
L 698.948816 282.630765 
L 707.995329 281.40105 
L 717.041842 279.396457 
L 726.088356 277.659331 
L 735.134869 277.419607 
L 744.181382 278.332549 
L 753.227895 280.777364 
L 762.274408 280.055955 
L 771.320921 279.133318 
L 780.367434 279.705825 
L 789.413947 276.510291 
L 798.460461 275.766485 
L 807.506974 275.313756 
L 816.553487 274.166843 
L 825.6 273.433938 
" clip-path="url(#p8ac9528120)" style="fill: none; stroke: #937860; stroke-width: 1.2; stroke-linecap: round"/>
   </g>
   <g id="patch_3">
    <path d="M 74.73941 384.294 
L 74.73941 45.672 
" style="fill: none; stroke: #cccccc; stroke-linejoin: miter; stroke-linecap: square"/>
   </g>
   <g id="patch_4">
    <path d="M 825.6 384.294 
L 825.6 45.672 
" style="fill: none; stroke: #cccccc; stroke-linejoin: miter; stroke-linecap: square"/>
   </g>
   <g id="patch_5">
    <path d="M 74.73941 384.294 
L 825.6 384.294 
" style="fill: none; stroke: #cccccc; stroke-linejoin: miter; stroke-linecap: square"/>
   </g>
   <g id="patch_6">
    <path d="M 74.73941 45.672 
L 825.6 45.672 
" style="fill: none; stroke: #cccccc; stroke-linejoin: miter; stroke-linecap: square"/>
   </g>
   <g id="legend_1">
    <g id="patch_7">
     <path d="M 87.05941 215.9685 
L 271.52666 215.9685 
Q 275.04666 215.9685 275.04666 212.4485 
L 275.04666 57.992 
Q 275.04666 54.472 271.52666 54.472 
L 87.05941 54.472 
Q 83.53941 54.472 83.53941 57.992 
L 83.53941 212.4485 
Q 83.53941 215.9685 87.05941 215.9685 
z
" style="fill: #ffffff; opacity: 0.8; stroke: #cccccc; stroke-width: 0.8; stroke-linejoin: miter"/>
    </g>
    <g id="line2d_20">
     <path d="M 90.57941 68.552 
L 108.17941 68.552 
L 125.77941 68.552 
" style="fill: none; stroke-dasharray: 1.2,1.98; stroke-dashoffset: 0; stroke: #4c72b0; stroke-width: 1.2"/>
    </g>
    <g id="text_4">
     <!-- Reference -->
     <g style="fill: #262626" transform="translate(139.85941 74.712) scale(0.176 -0.176)">
      <defs>
       <path id="Roboto-Regular-52" d="M 3188 0 
L 2200 1844 
L 1131 1844 
L 1131 0 
L 528 0 
L 528 4550 
L 2034 4550 
Q 2800 4550 3214 4200 
Q 3628 3850 3628 3184 
Q 3628 2759 3398 2442 
Q 3169 2125 2763 1969 
L 3831 38 
L 3831 0 
L 3188 0 
z
M 1131 4056 
L 1131 2334 
L 2053 2334 
Q 2538 2334 2783 2582 
Q 3028 2831 3028 3184 
Q 3028 3578 2792 3817 
Q 2556 4056 2034 4056 
L 1131 4056 
z
" transform="scale(0.015625)"/>
       <path id="Roboto-Regular-65" d="M 3116 591 
Q 2950 341 2647 139 
Q 2344 -63 1844 -63 
Q 1138 -63 714 396 
Q 291 856 291 1572 
L 291 1703 
Q 291 2256 502 2645 
Q 713 3034 1050 3239 
Q 1388 3444 1769 3444 
Q 2494 3444 2826 2970 
Q 3159 2497 3159 1788 
L 3159 1528 
L 872 1528 
Q 884 1063 1148 736 
Q 1413 409 1875 409 
Q 2181 409 2393 534 
Q 2606 659 2766 869 
L 3116 591 
z
M 1769 2969 
Q 1425 2969 1187 2719 
Q 950 2469 891 2000 
L 2581 2000 
L 2581 2044 
Q 2559 2381 2386 2675 
Q 2213 2969 1769 2969 
z
" transform="scale(0.015625)"/>
       <path id="Roboto-Regular-66" d="M 2022 2938 
L 1303 2938 
L 1303 0 
L 725 0 
L 725 2938 
L 191 2938 
L 191 3381 
L 725 3381 
L 725 3759 
Q 731 4297 1026 4581 
Q 1322 4866 1834 4866 
Q 2025 4866 2234 4816 
L 2203 4344 
Q 2072 4372 1891 4372 
Q 1313 4372 1303 3756 
L 1303 3381 
L 2022 3381 
L 2022 2938 
z
" transform="scale(0.015625)"/>
       <path id="Roboto-Regular-72" d="M 1791 2888 
Q 1225 2888 1019 2400 
L 1019 0 
L 441 0 
L 441 3381 
L 1003 3381 
L 1016 2994 
Q 1294 3444 1819 3444 
Q 1981 3444 2075 3400 
L 2072 2863 
Q 1944 2888 1791 2888 
z
" transform="scale(0.015625)"/>
       <path id="Roboto-Regular-6e" d="M 1844 2956 
Q 1566 2956 1353 2806 
Q 1141 2656 1019 2416 
L 1019 0 
L 441 0 
L 441 3381 
L 988 3381 
L 1006 2959 
Q 1391 3444 2016 3444 
Q 2513 3444 2805 3166 
Q 3097 2888 3100 2231 
L 3100 0 
L 2519 0 
L 2519 2222 
Q 2519 2619 2345 2787 
Q 2172 2956 1844 2956 
z
" transform="scale(0.015625)"/>
       <path id="Roboto-Regular-63" d="M 1794 413 
Q 2103 413 2336 597 
Q 2569 781 2591 1069 
L 3141 1069 
Q 3119 616 2725 276 
Q 2331 -63 1794 -63 
Q 1031 -63 661 440 
Q 291 944 291 1625 
L 291 1756 
Q 291 2438 661 2941 
Q 1031 3444 1794 3444 
Q 2388 3444 2753 3092 
Q 3119 2741 3141 2219 
L 2591 2219 
Q 2569 2531 2355 2750 
Q 2141 2969 1794 2969 
Q 1438 2969 1236 2787 
Q 1034 2606 951 2328 
Q 869 2050 869 1756 
L 869 1625 
Q 869 1328 950 1050 
Q 1031 772 1232 592 
Q 1434 413 1794 413 
z
" transform="scale(0.015625)"/>
      </defs>
      <use xlink:href="#Roboto-Regular-52"/>
      <use xlink:href="#Roboto-Regular-65" transform="translate(61.621094 0)"/>
      <use xlink:href="#Roboto-Regular-66" transform="translate(114.648438 0)"/>
      <use xlink:href="#Roboto-Regular-65" transform="translate(149.414062 0)"/>
      <use xlink:href="#Roboto-Regular-72" transform="translate(202.441406 0)"/>
      <use xlink:href="#Roboto-Regular-65" transform="translate(236.328125 0)"/>
      <use xlink:href="#Roboto-Regular-6e" transform="translate(289.355469 0)"/>
      <use xlink:href="#Roboto-Regular-63" transform="translate(344.580078 0)"/>
      <use xlink:href="#Roboto-Regular-65" transform="translate(396.923828 0)"/>
     </g>
    </g>
    <g id="line2d_21">
     <path d="M 90.57941 94.127 
L 108.17941 94.127 
L 125.77941 94.127 
" style="fill: none; stroke: #dd8452; stroke-width: 1.2; stroke-linecap: round"/>
    </g>
    <g id="text_5">
     <!-- MSE -->
     <g style="fill: #262626" transform="translate(139.85941 100.287) scale(0.176 -0.176)">
      <defs>
       <path id="Roboto-Regular-4d" d="M 2794 841 
L 4281 4550 
L 5056 4550 
L 5056 0 
L 4456 0 
L 4456 1775 
L 4516 3678 
L 3019 0 
L 2563 0 
L 1069 3684 
L 1128 1775 
L 1128 0 
L 528 0 
L 528 4550 
L 1303 4550 
L 2794 841 
z
" transform="scale(0.015625)"/>
       <path id="Roboto-Regular-53" d="M 2953 1150 
Q 2953 1463 2742 1650 
Q 2531 1838 1856 2036 
Q 1181 2234 789 2542 
Q 397 2850 397 3375 
Q 397 3906 820 4259 
Q 1244 4613 1944 4613 
Q 2713 4613 3130 4191 
Q 3547 3769 3547 3238 
L 2947 3238 
Q 2947 3619 2700 3869 
Q 2453 4119 1944 4119 
Q 1463 4119 1231 3908 
Q 1000 3697 1000 3381 
Q 1000 3097 1245 2908 
Q 1491 2719 2044 2563 
Q 2834 2341 3196 2014 
Q 3559 1688 3559 1156 
Q 3559 600 3125 268 
Q 2691 -63 1972 -63 
Q 1553 -63 1158 93 
Q 763 250 508 558 
Q 253 866 253 1319 
L 853 1319 
Q 853 853 1193 640 
Q 1534 428 1972 428 
Q 2444 428 2698 623 
Q 2953 819 2953 1150 
z
" transform="scale(0.015625)"/>
       <path id="Roboto-Regular-45" d="M 528 0 
L 528 4550 
L 3388 4550 
L 3388 4056 
L 1131 4056 
L 1131 2594 
L 3100 2594 
L 3100 2103 
L 1131 2103 
L 1131 491 
L 3419 491 
L 3419 0 
L 528 0 
z
" transform="scale(0.015625)"/>
      </defs>
      <use xlink:href="#Roboto-Regular-4d"/>
      <use xlink:href="#Roboto-Regular-53" transform="translate(87.304688 0)"/>
      <use xlink:href="#Roboto-Regular-45" transform="translate(146.679688 0)"/>
     </g>
    </g>
    <g id="line2d_22">
     <path d="M 90.57941 119.702 
L 108.17941 119.702 
L 125.77941 119.702 
" style="fill: none; stroke: #55a868; stroke-width: 1.2; stroke-linecap: round"/>
    </g>
    <g id="text_6">
     <!-- MAAPE -->
     <g style="fill: #262626" transform="translate(139.85941 125.862) scale(0.176 -0.176)">
      <defs>
       <path id="Roboto-Regular-41" d="M 91 0 
L 1825 4550 
L 2353 4550 
L 4094 0 
L 3475 0 
L 3041 1191 
L 1138 1191 
L 706 0 
L 91 0 
z
M 1319 1684 
L 2863 1684 
L 2091 3806 
L 1319 1684 
z
" transform="scale(0.015625)"/>
       <path id="Roboto-Regular-50" d="M 1131 1784 
L 1131 0 
L 528 0 
L 528 4550 
L 2206 4550 
Q 2981 4550 3392 4159 
Q 3803 3769 3803 3163 
Q 3803 2503 3392 2143 
Q 2981 1784 2206 1784 
L 1131 1784 
z
M 1131 4056 
L 1131 2275 
L 2206 2275 
Q 2738 2275 2969 2522 
Q 3200 2769 3200 3156 
Q 3200 3506 2969 3781 
Q 2738 4056 2206 4056 
L 1131 4056 
z
" transform="scale(0.015625)"/>
      </defs>
      <use xlink:href="#Roboto-Regular-4d"/>
      <use xlink:href="#Roboto-Regular-41" transform="translate(87.304688 0)"/>
      <use xlink:href="#Roboto-Regular-41" transform="translate(152.539062 0)"/>
      <use xlink:href="#Roboto-Regular-50" transform="translate(217.773438 0)"/>
      <use xlink:href="#Roboto-Regular-45" transform="translate(280.859375 0)"/>
     </g>
    </g>
    <g id="line2d_23">
     <path d="M 90.57941 145.277 
L 108.17941 145.277 
L 125.77941 145.277 
" style="fill: none; stroke: #c44e52; stroke-width: 1.2; stroke-linecap: round"/>
    </g>
    <g id="text_7">
     <!-- MASPE -->
     <g style="fill: #262626" transform="translate(139.85941 151.437) scale(0.176 -0.176)">
      <use xlink:href="#Roboto-Regular-4d"/>
      <use xlink:href="#Roboto-Regular-41" transform="translate(87.304688 0)"/>
      <use xlink:href="#Roboto-Regular-53" transform="translate(152.539062 0)"/>
      <use xlink:href="#Roboto-Regular-50" transform="translate(211.914062 0)"/>
      <use xlink:href="#Roboto-Regular-45" transform="translate(275 0)"/>
     </g>
    </g>
    <g id="line2d_24">
     <path d="M 90.57941 171.7705 
L 108.17941 171.7705 
L 125.77941 171.7705 
" style="fill: none; stroke: #8172b3; stroke-width: 1.2; stroke-linecap: round"/>
    </g>
    <g id="text_8">
     <!-- SMASPE (tight) -->
     <g style="fill: #262626" transform="translate(139.85941 177.9305) scale(0.176 -0.176)">
      <defs>
       <path id="Roboto-Regular-20" transform="scale(0.015625)"/>
       <path id="Roboto-Regular-28" d="M 419 1850 
Q 419 2756 678 3434 
Q 938 4113 1294 4541 
Q 1650 4969 1947 5134 
L 2069 4753 
Q 1700 4475 1348 3761 
Q 997 3047 997 1813 
Q 997 625 1348 -97 
Q 1700 -819 2069 -1119 
L 1947 -1469 
Q 1650 -1306 1294 -878 
Q 938 -450 678 226 
Q 419 903 419 1850 
z
" transform="scale(0.015625)"/>
       <path id="Roboto-Regular-74" d="M 1872 0 
Q 1675 -63 1425 -63 
Q 1103 -63 875 134 
Q 647 331 647 841 
L 647 2938 
L 28 2938 
L 28 3381 
L 647 3381 
L 647 4203 
L 1225 4203 
L 1225 3381 
L 1856 3381 
L 1856 2938 
L 1225 2938 
L 1225 838 
Q 1225 578 1337 506 
Q 1450 434 1597 434 
Q 1706 434 1869 472 
L 1872 0 
z
" transform="scale(0.015625)"/>
       <path id="Roboto-Regular-69" d="M 444 4278 
Q 444 4419 530 4516 
Q 616 4613 784 4613 
Q 950 4613 1039 4516 
Q 1128 4419 1128 4278 
Q 1128 4144 1039 4048 
Q 950 3953 784 3953 
Q 616 3953 530 4048 
Q 444 4144 444 4278 
z
M 1069 3381 
L 1069 0 
L 488 0 
L 488 3381 
L 1069 3381 
z
" transform="scale(0.015625)"/>
       <path id="Roboto-Regular-67" d="M 1725 -1334 
Q 1463 -1334 1081 -1206 
Q 700 -1078 472 -747 
L 775 -403 
Q 1150 -859 1681 -859 
Q 2091 -859 2334 -629 
Q 2578 -400 2578 44 
L 2578 341 
Q 2234 -63 1631 -63 
Q 1022 -63 662 425 
Q 303 913 303 1653 
L 303 1719 
Q 303 2494 661 2969 
Q 1019 3444 1638 3444 
Q 2259 3444 2603 3006 
L 2631 3381 
L 3156 3381 
L 3156 72 
Q 3156 -600 2756 -967 
Q 2356 -1334 1725 -1334 
z
M 881 1653 
Q 881 1150 1092 789 
Q 1303 428 1772 428 
Q 2322 428 2578 928 
L 2578 2469 
Q 2469 2678 2275 2817 
Q 2081 2956 1778 2956 
Q 1306 2956 1093 2589 
Q 881 2222 881 1719 
L 881 1653 
z
" transform="scale(0.015625)"/>
       <path id="Roboto-Regular-68" d="M 1844 2956 
Q 1566 2956 1353 2806 
Q 1141 2656 1019 2416 
L 1019 0 
L 441 0 
L 441 4800 
L 1019 4800 
L 1019 2978 
Q 1403 3444 2016 3444 
Q 2513 3444 2805 3166 
Q 3097 2888 3100 2231 
L 3100 0 
L 2519 0 
L 2519 2222 
Q 2519 2619 2345 2787 
Q 2172 2956 1844 2956 
z
" transform="scale(0.015625)"/>
       <path id="Roboto-Regular-29" d="M 1772 1819 
Q 1772 906 1512 228 
Q 1253 -450 895 -878 
Q 538 -1306 244 -1469 
L 122 -1119 
Q 488 -841 841 -109 
Q 1194 622 1194 1856 
Q 1194 2647 1019 3236 
Q 844 3825 594 4212 
Q 344 4600 122 4781 
L 244 5134 
Q 538 4969 895 4541 
Q 1253 4113 1512 3436 
Q 1772 2759 1772 1819 
z
" transform="scale(0.015625)"/>
      </defs>
      <use xlink:href="#Roboto-Regular-53"/>
      <use xlink:href="#Roboto-Regular-4d" transform="translate(59.375 0)"/>
      <use xlink:href="#Roboto-Regular-41" transform="translate(146.679688 0)"/>
      <use xlink:href="#Roboto-Regular-53" transform="translate(211.914062 0)"/>
      <use xlink:href="#Roboto-Regular-50" transform="translate(271.289062 0)"/>
      <use xlink:href="#Roboto-Regular-45" transform="translate(334.375 0)"/>
      <use xlink:href="#Roboto-Regular-20" transform="translate(391.210938 0)"/>
      <use xlink:href="#Roboto-Regular-28" transform="translate(416.015625 0)"/>
      <use xlink:href="#Roboto-Regular-74" transform="translate(450.244141 0)"/>
      <use xlink:href="#Roboto-Regular-69" transform="translate(482.958984 0)"/>
      <use xlink:href="#Roboto-Regular-67" transform="translate(507.275391 0)"/>
      <use xlink:href="#Roboto-Regular-68" transform="translate(563.427734 0)"/>
      <use xlink:href="#Roboto-Regular-74" transform="translate(618.505859 0)"/>
      <use xlink:href="#Roboto-Regular-29" transform="translate(651.220703 0)"/>
     </g>
    </g>
    <g id="line2d_25">
     <path d="M 90.57941 198.72875 
L 108.17941 198.72875 
L 125.77941 198.72875 
" style="fill: none; stroke: #937860; stroke-width: 1.2; stroke-linecap: round"/>
    </g>
    <g id="text_9">
     <!-- SMASPE (loose) -->
     <g style="fill: #262626" transform="translate(139.85941 204.88875) scale(0.176 -0.176)">
      <defs>
       <path id="Roboto-Regular-6c" d="M 1069 4800 
L 1069 0 
L 488 0 
L 488 4800 
L 1069 4800 
z
" transform="scale(0.015625)"/>
       <path id="Roboto-Regular-6f" d="M 288 1725 
Q 288 2459 700 2951 
Q 1113 3444 1822 3444 
Q 2531 3444 2943 2961 
Q 3356 2478 3366 1756 
L 3366 1653 
Q 3366 919 2952 428 
Q 2538 -63 1828 -63 
Q 1116 -63 702 428 
Q 288 919 288 1653 
L 288 1725 
z
M 866 1653 
Q 866 1150 1105 781 
Q 1344 413 1828 413 
Q 2300 413 2540 777 
Q 2781 1141 2784 1644 
L 2784 1725 
Q 2784 2222 2543 2595 
Q 2303 2969 1822 2969 
Q 1344 2969 1105 2595 
Q 866 2222 866 1725 
L 866 1653 
z
" transform="scale(0.015625)"/>
       <path id="Roboto-Regular-73" d="M 2409 897 
Q 2409 1081 2273 1229 
Q 2138 1378 1647 1478 
Q 1081 1594 747 1814 
Q 413 2034 413 2456 
Q 413 2856 755 3150 
Q 1097 3444 1666 3444 
Q 2272 3444 2612 3134 
Q 2953 2825 2953 2388 
L 2375 2388 
Q 2375 2597 2190 2783 
Q 2006 2969 1666 2969 
Q 1306 2969 1150 2812 
Q 994 2656 994 2472 
Q 994 2288 1139 2173 
Q 1284 2059 1756 1953 
Q 2378 1813 2683 1584 
Q 2988 1356 2988 941 
Q 2988 494 2630 215 
Q 2272 -63 1681 -63 
Q 1009 -63 653 281 
Q 297 625 297 1044 
L 878 1044 
Q 897 684 1155 548 
Q 1413 413 1681 413 
Q 2034 413 2221 550 
Q 2409 688 2409 897 
z
" transform="scale(0.015625)"/>
      </defs>
      <use xlink:href="#Roboto-Regular-53"/>
      <use xlink:href="#Roboto-Regular-4d" transform="translate(59.375 0)"/>
      <use xlink:href="#Roboto-Regular-41" transform="translate(146.679688 0)"/>
      <use xlink:href="#Roboto-Regular-53" transform="translate(211.914062 0)"/>
      <use xlink:href="#Roboto-Regular-50" transform="translate(271.289062 0)"/>
      <use xlink:href="#Roboto-Regular-45" transform="translate(334.375 0)"/>
      <use xlink:href="#Roboto-Regular-20" transform="translate(391.210938 0)"/>
      <use xlink:href="#Roboto-Regular-28" transform="translate(416.015625 0)"/>
      <use xlink:href="#Roboto-Regular-6c" transform="translate(450.244141 0)"/>
      <use xlink:href="#Roboto-Regular-6f" transform="translate(474.560547 0)"/>
      <use xlink:href="#Roboto-Regular-6f" transform="translate(531.591797 0)"/>
      <use xlink:href="#Roboto-Regular-73" transform="translate(588.623047 0)"/>
      <use xlink:href="#Roboto-Regular-65" transform="translate(640.234375 0)"/>
      <use xlink:href="#Roboto-Regular-29" transform="translate(693.261719 0)"/>
     </g>
    </g>
   </g>
  </g>
  <g id="axes_2">
   <g id="patch_8">
    <path d="M 74.73941 779.46 
L 825.6 779.46 
L 825.6 440.838 
L 74.73941 440.838 
z
" style="fill: #ffffff"/>
   </g>
   <g id="matplotlib.axis_3">
    <g id="xtick_10">
     <g id="line2d_26">
      <path d="M 74.73941 779.46 
L 74.73941 440.838 
" clip-path="url(#p98e372517b)" style="fill: none; stroke: #cccccc; stroke-width: 0.8; stroke-linecap: round"/>
     </g>
     <g id="text_10">
      <!-- 20 -->
      <g style="fill: #262626" transform="translate(64.84766 800.96) scale(0.176 -0.176)">
       <use xlink:href="#Roboto-Regular-32"/>
       <use xlink:href="#Roboto-Regular-30" transform="translate(56.201172 0)"/>
      </g>
     </g>
    </g>
    <g id="xtick_11">
     <g id="line2d_27">
      <path d="M 165.204542 779.46 
L 165.204542 440.838 
" clip-path="url(#p98e372517b)" style="fill: none; stroke: #cccccc; stroke-width: 0.8; stroke-linecap: round"/>
     </g>
     <g id="text_11">
      <!-- 30 -->
      <g style="fill: #262626" transform="translate(155.312792 800.96) scale(0.176 -0.176)">
       <use xlink:href="#Roboto-Regular-33"/>
       <use xlink:href="#Roboto-Regular-30" transform="translate(56.201172 0)"/>
      </g>
     </g>
    </g>
    <g id="xtick_12">
     <g id="line2d_28">
      <path d="M 255.669673 779.46 
L 255.669673 440.838 
" clip-path="url(#p98e372517b)" style="fill: none; stroke: #cccccc; stroke-width: 0.8; stroke-linecap: round"/>
     </g>
     <g id="text_12">
      <!-- 40 -->
      <g style="fill: #262626" transform="translate(245.777923 800.96) scale(0.176 -0.176)">
       <defs>
        <path id="Roboto-Regular-34" d="M 166 1397 
L 2203 4550 
L 2819 4550 
L 2819 1531 
L 3453 1531 
L 3453 1056 
L 2819 1056 
L 2819 0 
L 2241 0 
L 2241 1056 
L 166 1056 
L 166 1397 
z
M 822 1531 
L 2241 1531 
L 2241 3766 
L 2169 3638 
L 822 1531 
z
" transform="scale(0.015625)"/>
       </defs>
       <use xlink:href="#Roboto-Regular-34"/>
       <use xlink:href="#Roboto-Regular-30" transform="translate(56.201172 0)"/>
      </g>
     </g>
    </g>
    <g id="xtick_13">
     <g id="line2d_29">
      <path d="M 346.134804 779.46 
L 346.134804 440.838 
" clip-path="url(#p98e372517b)" style="fill: none; stroke: #cccccc; stroke-width: 0.8; stroke-linecap: round"/>
     </g>
     <g id="text_13">
      <!-- 50 -->
      <g style="fill: #262626" transform="translate(336.243054 800.96) scale(0.176 -0.176)">
       <defs>
        <path id="Roboto-Regular-35" d="M 1109 2166 
L 647 2284 
L 875 4550 
L 3209 4550 
L 3209 4016 
L 1366 4016 
L 1228 2778 
Q 1572 2975 1988 2975 
Q 2616 2975 2980 2561 
Q 3344 2147 3344 1450 
Q 3344 797 2987 367 
Q 2631 -63 1903 -63 
Q 1350 -63 947 248 
Q 544 559 481 1197 
L 1031 1197 
Q 1141 413 1903 413 
Q 2313 413 2538 691 
Q 2763 969 2763 1444 
Q 2763 1872 2527 2164 
Q 2291 2456 1853 2456 
Q 1563 2456 1413 2378 
Q 1263 2300 1109 2166 
z
" transform="scale(0.015625)"/>
       </defs>
       <use xlink:href="#Roboto-Regular-35"/>
       <use xlink:href="#Roboto-Regular-30" transform="translate(56.201172 0)"/>
      </g>
     </g>
    </g>
    <g id="xtick_14">
     <g id="line2d_30">
      <path d="M 436.599935 779.46 
L 436.599935 440.838 
" clip-path="url(#p98e372517b)" style="fill: none; stroke: #cccccc; stroke-width: 0.8; stroke-linecap: round"/>
     </g>
     <g id="text_14">
      <!-- 60 -->
      <g style="fill: #262626" transform="translate(426.708185 800.96) scale(0.176 -0.176)">
       <defs>
        <path id="Roboto-Regular-36" d="M 3291 1484 
Q 3291 838 2930 387 
Q 2569 -63 1878 -63 
Q 1388 -63 1063 198 
Q 738 459 577 861 
Q 416 1263 416 1684 
L 416 1956 
Q 416 2597 595 3194 
Q 775 3791 1247 4173 
Q 1719 4556 2597 4556 
L 2647 4556 
L 2647 4066 
Q 2041 4066 1705 3853 
Q 1369 3641 1205 3302 
Q 1041 2963 1006 2575 
Q 1369 2984 1984 2984 
Q 2438 2984 2727 2765 
Q 3016 2547 3153 2201 
Q 3291 1856 3291 1484 
z
M 997 1666 
Q 997 1059 1267 737 
Q 1538 416 1878 416 
Q 2278 416 2498 708 
Q 2719 1000 2719 1456 
Q 2719 1863 2516 2184 
Q 2313 2506 1891 2506 
Q 1588 2506 1341 2325 
Q 1094 2144 997 1884 
L 997 1666 
z
" transform="scale(0.015625)"/>
       </defs>
       <use xlink:href="#Roboto-Regular-36"/>
       <use xlink:href="#Roboto-Regular-30" transform="translate(56.201172 0)"/>
      </g>
     </g>
    </g>
    <g id="xtick_15">
     <g id="line2d_31">
      <path d="M 527.065067 779.46 
L 527.065067 440.838 
" clip-path="url(#p98e372517b)" style="fill: none; stroke: #cccccc; stroke-width: 0.8; stroke-linecap: round"/>
     </g>
     <g id="text_15">
      <!-- 70 -->
      <g style="fill: #262626" transform="translate(517.173317 800.96) scale(0.176 -0.176)">
       <defs>
        <path id="Roboto-Regular-37" d="M 3319 4550 
L 3319 4225 
L 1434 0 
L 825 0 
L 2706 4075 
L 244 4075 
L 244 4550 
L 3319 4550 
z
" transform="scale(0.015625)"/>
       </defs>
       <use xlink:href="#Roboto-Regular-37"/>
       <use xlink:href="#Roboto-Regular-30" transform="translate(56.201172 0)"/>
      </g>
     </g>
    </g>
    <g id="xtick_16">
     <g id="line2d_32">
      <path d="M 617.530198 779.46 
L 617.530198 440.838 
" clip-path="url(#p98e372517b)" style="fill: none; stroke: #cccccc; stroke-width: 0.8; stroke-linecap: round"/>
     </g>
     <g id="text_16">
      <!-- 80 -->
      <g style="fill: #262626" transform="translate(607.638448 800.96) scale(0.176 -0.176)">
       <defs>
        <path id="Roboto-Regular-38" d="M 3244 1231 
Q 3244 606 2826 271 
Q 2409 -63 1796 -63 
Q 1184 -63 767 271 
Q 350 606 350 1231 
Q 350 1613 554 1905 
Q 759 2197 1109 2347 
Q 806 2494 629 2762 
Q 453 3031 453 3366 
Q 453 3963 833 4288 
Q 1213 4613 1794 4613 
Q 2378 4613 2758 4288 
Q 3138 3963 3138 3366 
Q 3138 3028 2956 2761 
Q 2775 2494 2472 2347 
Q 2825 2197 3034 1903 
Q 3244 1609 3244 1231 
z
M 2559 3356 
Q 2559 3697 2346 3917 
Q 2134 4138 1793 4138 
Q 1453 4138 1243 3927 
Q 1034 3716 1034 3356 
Q 1034 3003 1243 2790 
Q 1453 2578 1797 2578 
Q 2138 2578 2348 2790 
Q 2559 3003 2559 3356 
z
M 2663 1244 
Q 2663 1625 2420 1865 
Q 2178 2106 1791 2106 
Q 1394 2106 1161 1865 
Q 928 1625 928 1244 
Q 928 850 1161 631 
Q 1394 413 1797 413 
Q 2200 413 2431 631 
Q 2663 850 2663 1244 
z
" transform="scale(0.015625)"/>
       </defs>
       <use xlink:href="#Roboto-Regular-38"/>
       <use xlink:href="#Roboto-Regular-30" transform="translate(56.201172 0)"/>
      </g>
     </g>
    </g>
    <g id="xtick_17">
     <g id="line2d_33">
      <path d="M 707.995329 779.46 
L 707.995329 440.838 
" clip-path="url(#p98e372517b)" style="fill: none; stroke: #cccccc; stroke-width: 0.8; stroke-linecap: round"/>
     </g>
     <g id="text_17">
      <!-- 90 -->
      <g style="fill: #262626" transform="translate(698.103579 800.96) scale(0.176 -0.176)">
       <defs>
        <path id="Roboto-Regular-39" d="M 3175 2563 
Q 3175 2119 3098 1667 
Q 3022 1216 2801 836 
Q 2581 456 2151 225 
Q 1722 -6 953 -6 
L 953 484 
Q 1644 484 1980 700 
Q 2316 916 2448 1264 
Q 2581 1613 2597 2006 
Q 2416 1791 2162 1656 
Q 1909 1522 1613 1522 
Q 1163 1522 875 1747 
Q 588 1972 450 2320 
Q 313 2669 313 3041 
Q 313 3691 670 4152 
Q 1028 4613 1725 4613 
Q 2244 4613 2564 4344 
Q 2884 4075 3029 3653 
Q 3175 3231 3175 2772 
L 3175 2563 
z
M 881 3072 
Q 881 2666 1086 2334 
Q 1291 2003 1706 2003 
Q 2003 2003 2245 2181 
Q 2488 2359 2600 2622 
L 2600 2850 
Q 2600 3472 2336 3803 
Q 2072 4134 1725 4134 
Q 1322 4134 1101 3829 
Q 881 3525 881 3072 
z
" transform="scale(0.015625)"/>
       </defs>
       <use xlink:href="#Roboto-Regular-39"/>
       <use xlink:href="#Roboto-Regular-30" transform="translate(56.201172 0)"/>
      </g>
     </g>
    </g>
    <g id="xtick_18">
     <g id="line2d_34">
      <path d="M 798.460461 779.46 
L 798.460461 440.838 
" clip-path="url(#p98e372517b)" style="fill: none; stroke: #cccccc; stroke-width: 0.8; stroke-linecap: round"/>
     </g>
     <g id="text_18">
      <!-- 100 -->
      <g style="fill: #262626" transform="translate(783.622836 800.96) scale(0.176 -0.176)">
       <use xlink:href="#Roboto-Regular-31"/>
       <use xlink:href="#Roboto-Regular-30" transform="translate(56.201172 0)"/>
       <use xlink:href="#Roboto-Regular-30" transform="translate(112.402344 0)"/>
      </g>
     </g>
    </g>
    <g id="text_19">
     <!-- Week -->
     <g style="fill: #262626" transform="translate(426.604705 822.935) scale(0.192 -0.192)">
      <defs>
       <path id="Roboto-Regular-57" d="M 5541 4550 
L 4441 0 
L 3894 0 
L 2956 3316 
L 2884 3663 
L 2813 3316 
L 1841 0 
L 1294 0 
L 191 4550 
L 791 4550 
L 1509 1438 
L 1600 834 
L 1725 1375 
L 2628 4550 
L 3131 4550 
L 4009 1375 
L 4138 822 
L 4234 1441 
L 4938 4550 
L 5541 4550 
z
" transform="scale(0.015625)"/>
       <path id="Roboto-Regular-6b" d="M 2559 0 
L 1388 1569 
L 1022 1191 
L 1022 0 
L 441 0 
L 441 4800 
L 1022 4800 
L 1022 1900 
L 1331 2269 
L 2381 3381 
L 3088 3381 
L 1769 1972 
L 3241 0 
L 2559 0 
z
" transform="scale(0.015625)"/>
      </defs>
      <use xlink:href="#Roboto-Regular-57"/>
      <use xlink:href="#Roboto-Regular-65" transform="translate(88.720703 0)"/>
      <use xlink:href="#Roboto-Regular-65" transform="translate(141.748047 0)"/>
      <use xlink:href="#Roboto-Regular-6b" transform="translate(194.775391 0)"/>
     </g>
    </g>
   </g>
   <g id="matplotlib.axis_4">
    <g id="ytick_4">
     <g id="line2d_35">
      <path d="M 74.73941 779.46 
L 825.6 779.46 
" clip-path="url(#p98e372517b)" style="fill: none; stroke: #cccccc; stroke-width: 0.8; stroke-linecap: round"/>
     </g>
     <g id="text_20">
      <!-- $\mathdefault{0}$ -->
      <g style="fill: #262626" transform="translate(56.40741 786.06) scale(0.176 -0.176)">
       <use xlink:href="#Roboto-Regular-30" transform="translate(0 0.921875)"/>
      </g>
     </g>
    </g>
    <g id="ytick_5">
     <g id="line2d_36">
      <path d="M 74.73941 705.846522 
L 825.6 705.846522 
" clip-path="url(#p98e372517b)" style="fill: none; stroke: #cccccc; stroke-width: 0.8; stroke-linecap: round"/>
     </g>
     <g id="text_21">
      <!-- $\mathdefault{10^{0}}$ -->
      <g style="fill: #262626" transform="translate(38.98341 712.446522) scale(0.176 -0.176)">
       <use xlink:href="#Roboto-Regular-31" transform="translate(0 0.565625)"/>
       <use xlink:href="#Roboto-Regular-30" transform="translate(56.201172 0.565625)"/>
       <use xlink:href="#Roboto-Regular-30" transform="translate(113.326836 37.545313) scale(0.7)"/>
      </g>
     </g>
    </g>
    <g id="ytick_6">
     <g id="line2d_37">
      <path d="M 74.73941 639.594391 
L 825.6 639.594391 
" clip-path="url(#p98e372517b)" style="fill: none; stroke: #cccccc; stroke-width: 0.8; stroke-linecap: round"/>
     </g>
     <g id="text_22">
      <!-- $\mathdefault{10^{1}}$ -->
      <g style="fill: #262626" transform="translate(38.98341 646.194391) scale(0.176 -0.176)">
       <use xlink:href="#Roboto-Regular-31" transform="translate(0 0.98125)"/>
       <use xlink:href="#Roboto-Regular-30" transform="translate(56.201172 0.98125)"/>
       <use xlink:href="#Roboto-Regular-31" transform="translate(113.326836 37.960938) scale(0.7)"/>
      </g>
     </g>
    </g>
    <g id="ytick_7">
     <g id="line2d_38">
      <path d="M 74.73941 573.342261 
L 825.6 573.342261 
" clip-path="url(#p98e372517b)" style="fill: none; stroke: #cccccc; stroke-width: 0.8; stroke-linecap: round"/>
     </g>
     <g id="text_23">
      <!-- $\mathdefault{10^{2}}$ -->
      <g style="fill: #262626" transform="translate(38.98341 579.942261) scale(0.176 -0.176)">
       <use xlink:href="#Roboto-Regular-31" transform="translate(0 0.565625)"/>
       <use xlink:href="#Roboto-Regular-30" transform="translate(56.201172 0.565625)"/>
       <use xlink:href="#Roboto-Regular-32" transform="translate(113.326836 37.545313) scale(0.7)"/>
      </g>
     </g>
    </g>
    <g id="ytick_8">
     <g id="line2d_39">
      <path d="M 74.73941 507.09013 
L 825.6 507.09013 
" clip-path="url(#p98e372517b)" style="fill: none; stroke: #cccccc; stroke-width: 0.8; stroke-linecap: round"/>
     </g>
     <g id="text_24">
      <!-- $\mathdefault{10^{3}}$ -->
      <g style="fill: #262626" transform="translate(38.98341 513.69013) scale(0.176 -0.176)">
       <use xlink:href="#Roboto-Regular-31" transform="translate(0 0.565625)"/>
       <use xlink:href="#Roboto-Regular-30" transform="translate(56.201172 0.565625)"/>
       <use xlink:href="#Roboto-Regular-33" transform="translate(113.326836 37.545313) scale(0.7)"/>
      </g>
     </g>
    </g>
    <g id="ytick_9">
     <g id="line2d_40">
      <path d="M 74.73941 440.838 
L 825.6 440.838 
" clip-path="url(#p98e372517b)" style="fill: none; stroke: #cccccc; stroke-width: 0.8; stroke-linecap: round"/>
     </g>
     <g id="text_25">
      <!-- $\mathdefault{10^{4}}$ -->
      <g style="fill: #262626" transform="translate(38.98341 447.438) scale(0.176 -0.176)">
       <use xlink:href="#Roboto-Regular-31" transform="translate(0 0.254688)"/>
       <use xlink:href="#Roboto-Regular-30" transform="translate(56.201172 0.254688)"/>
       <use xlink:href="#Roboto-Regular-34" transform="translate(113.326836 37.234375) scale(0.7)"/>
      </g>
     </g>
    </g>
   </g>
   <g id="line2d_41">
    <path d="M -1 693.326181 
L 2.367305 685.902643 
L 11.413818 705.846522 
L 20.460332 705.846522 
L 29.506845 705.846522 
L 38.553358 705.846522 
L 47.599871 779.46 
L 56.646384 705.846522 
L 65.692897 705.846522 
L 74.73941 779.46 
L 83.785923 685.902643 
L 92.832437 705.846522 
L 101.87895 685.902643 
L 110.925463 779.46 
L 119.971976 705.846522 
L 129.018489 705.846522 
L 138.065002 779.46 
L 147.111515 779.46 
L 156.158029 779.46 
L 165.204542 685.902643 
L 174.251055 705.846522 
L 183.297568 685.902643 
L 192.344081 685.902643 
L 201.390594 705.846522 
L 210.437107 705.846522 
L 219.48362 685.902643 
L 228.530134 674.236222 
L 237.576647 705.846522 
L 246.62316 685.902643 
L 255.669673 779.46 
L 264.716186 705.846522 
L 273.762699 685.902643 
L 282.809212 779.46 
L 291.855725 705.846522 
L 300.902239 685.902643 
L 309.948752 705.846522 
L 318.995265 649.856976 
L 328.041778 636.852038 
L 337.088291 634.348465 
L 346.134804 603.548724 
L 355.181317 685.902643 
L 364.22783 606.127129 
L 373.274344 604.382781 
L 382.320857 615.629152 
L 391.36737 607.040632 
L 400.413883 611.015623 
L 409.460396 608.959539 
L 418.506909 618.246677 
L 427.553422 615.629152 
L 436.599935 629.913098 
L 445.646449 614.404587 
L 454.692962 614.404587 
L 463.739475 603.548724 
L 472.785988 649.856976 
L 481.832501 618.246677 
L 490.879014 659.53827 
L 499.925527 626.071008 
L 508.972041 612.101523 
L 518.018554 705.846522 
L 527.065067 611.015623 
L 536.11158 615.629152 
L 545.158093 616.908159 
L 554.204606 629.913098 
L 563.251119 705.846522 
L 572.297632 636.852038 
L 581.344146 685.902643 
L 590.390659 674.236222 
L 599.437172 665.958765 
L 608.483685 607.984092 
L 617.530198 636.852038 
L 626.576711 654.292344 
L 635.623224 607.984092 
L 644.669737 619.650513 
L 653.716251 654.292344 
L 662.762764 603.548724 
L 671.809277 621.126371 
L 680.85579 646.014886 
L 689.902303 616.908159 
L 698.948816 622.682044 
L 707.995329 636.852038 
L 717.041842 665.958765 
L 726.088356 619.650513 
L 735.134869 622.682044 
L 744.181382 611.015623 
L 753.227895 622.682044 
L 762.274408 607.040632 
L 771.320921 611.015623 
L 780.367434 589.516072 
L 789.413947 569.825701 
L 798.460461 545.960271 
L 807.506974 542.707408 
L 816.553487 618.246677 
L 825.6 608.959539 
" clip-path="url(#p98e372517b)" style="fill: none; stroke-dasharray: 1.2,1.98; stroke-dashoffset: 0; stroke: #4c72b0; stroke-width: 1.2"/>
   </g>
   <g id="line2d_42">
    <path d="M 757.751152 779.46 
L 757.751152 440.838 
" clip-path="url(#p98e372517b)" style="fill: none; stroke-dasharray: 4.44,1.92; stroke-dashoffset: 0; stroke: #ff0000; stroke-width: 1.2"/>
   </g>
   <g id="line2d_43">
    <path d="M -1 676.38385 
L 2.367305 666.135989 
L 11.413818 779.46 
L 20.460332 644.877452 
L 29.506845 779.46 
L 38.553358 681.709657 
L 47.599871 741.450547 
L 56.646384 688.838156 
L 65.692897 678.432772 
L 74.73941 681.178267 
L 83.785923 672.629069 
L 92.832437 664.191037 
L 101.87895 711.185596 
L 110.925463 779.46 
L 119.971976 658.833842 
L 129.018489 694.35083 
L 138.065002 675.91924 
L 147.111515 692.980831 
L 156.158029 729.569571 
L 165.204542 676.3324 
L 174.251055 664.923308 
L 183.297568 683.930965 
L 192.344081 667.65279 
L 201.390594 744.826518 
L 210.437107 664.250576 
L 219.48362 670.648795 
L 228.530134 668.300668 
L 237.576647 671.029831 
L 246.62316 669.9765 
L 255.669673 651.374102 
L 264.716186 678.901861 
L 273.762699 663.057672 
L 282.809212 660.778362 
L 291.855725 668.457347 
L 300.902239 676.721553 
L 309.948752 666.486167 
L 318.995265 653.351536 
L 328.041778 650.138624 
L 337.088291 648.440674 
L 346.134804 633.922344 
L 355.181317 637.752617 
L 364.22783 622.626297 
L 373.274344 616.989707 
L 382.320857 624.227028 
L 391.36737 610.236984 
L 400.413883 616.571482 
L 409.460396 615.893591 
L 418.506909 613.542101 
L 427.553422 613.452258 
L 436.599935 619.627911 
L 445.646449 617.654956 
L 454.692962 622.070554 
L 463.739475 621.963897 
L 472.785988 614.145597 
L 481.832501 614.815886 
L 490.879014 621.746118 
L 499.925527 627.953596 
L 508.972041 621.708469 
L 518.018554 628.966314 
L 527.065067 626.768607 
L 536.11158 616.986152 
L 545.158093 630.283086 
L 554.204606 614.479114 
L 563.251119 616.811608 
L 572.297632 624.978472 
L 581.344146 635.827745 
L 590.390659 640.017924 
L 599.437172 637.874867 
L 608.483685 639.225367 
L 617.530198 640.17529 
L 626.576711 624.0736 
L 635.623224 621.932042 
L 644.669737 626.560521 
L 653.716251 634.713713 
L 662.762764 614.668532 
L 671.809277 623.61039 
L 680.85579 622.146371 
L 689.902303 617.000703 
L 698.948816 629.773007 
L 707.995329 625.478344 
L 717.041842 621.926393 
L 726.088356 629.636092 
L 735.134869 633.038615 
L 744.181382 635.921728 
L 753.227895 621.470009 
L 762.274408 616.225907 
L 771.320921 619.576274 
L 780.367434 614.563957 
L 789.413947 608.923853 
L 798.460461 597.62845 
L 807.506974 579.194663 
L 816.553487 562.927279 
L 825.6 560.090602 
" clip-path="url(#p98e372517b)" style="fill: none; stroke: #dd8452; stroke-width: 1.2; stroke-linecap: round"/>
   </g>
   <g id="line2d_44">
    <path d="M -1 637.988339 
L 2.367305 636.794486 
L 11.413818 632.242707 
L 20.460332 629.667724 
L 29.506845 627.076058 
L 38.553358 625.077258 
L 47.599871 623.286558 
L 56.646384 621.947971 
L 65.692897 619.923398 
L 74.73941 618.474982 
L 83.785923 617.286519 
L 92.832437 614.800333 
L 101.87895 613.668742 
L 110.925463 611.607316 
L 119.971976 610.865807 
L 129.018489 609.542425 
L 138.065002 608.534876 
L 147.111515 607.746468 
L 156.158029 606.715921 
L 165.204542 605.945406 
L 174.251055 604.456239 
L 183.297568 603.399599 
L 192.344081 601.838927 
L 201.390594 600.743645 
L 210.437107 600.046194 
L 219.48362 599.228691 
L 228.530134 598.328242 
L 237.576647 597.261169 
L 246.62316 596.629046 
L 255.669673 595.617145 
L 264.716186 595.509854 
L 273.762699 594.853927 
L 282.809212 594.044673 
L 291.855725 593.652901 
L 300.902239 592.73434 
L 309.948752 592.002647 
L 318.995265 591.461574 
L 328.041778 589.570892 
L 337.088291 587.648552 
L 346.134804 585.743331 
L 355.181317 580.758034 
L 364.22783 582.744408 
L 373.274344 578.186331 
L 382.320857 577.432249 
L 391.36737 577.016952 
L 400.413883 574.686018 
L 409.460396 575.182093 
L 418.506909 574.655637 
L 427.553422 575.050618 
L 436.599935 575.018151 
L 445.646449 576.230406 
L 454.692962 575.532873 
L 463.739475 575.258859 
L 472.785988 573.202186 
L 481.832501 574.737539 
L 490.879014 573.666898 
L 499.925527 576.275289 
L 508.972041 575.806754 
L 518.018554 574.356945 
L 527.065067 575.964687 
L 536.11158 572.859262 
L 545.158093 573.0295 
L 554.204606 571.96949 
L 563.251119 571.663815 
L 572.297632 573.455179 
L 581.344146 573.601821 
L 590.390659 575.198982 
L 599.437172 575.037422 
L 608.483685 574.830533 
L 617.530198 571.948497 
L 626.576711 571.8879 
L 635.623224 570.969266 
L 644.669737 569.017657 
L 653.716251 569.502371 
L 662.762764 569.42688 
L 671.809277 567.037066 
L 680.85579 568.062188 
L 689.902303 568.028835 
L 698.948816 567.105816 
L 707.995329 567.881595 
L 717.041842 567.855304 
L 726.088356 568.304112 
L 735.134869 567.617383 
L 744.181382 567.47457 
L 753.227895 565.671022 
L 762.274408 565.269139 
L 771.320921 563.885317 
L 780.367434 563.62828 
L 789.413947 560.862537 
L 798.460461 555.788596 
L 807.506974 545.732229 
L 816.553487 539.125022 
L 825.6 542.727175 
" clip-path="url(#p98e372517b)" style="fill: none; stroke: #55a868; stroke-width: 1.2; stroke-linecap: round"/>
   </g>
   <g id="line2d_45">
    <path d="M -1 710.349991 
L 2.367305 714.341584 
L 11.413818 692.506952 
L 20.460332 698.316222 
L 29.506845 696.242372 
L 38.553358 694.765566 
L 47.599871 694.760029 
L 56.646384 699.77622 
L 65.692897 695.589397 
L 74.73941 712.975402 
L 83.785923 733.840862 
L 92.832437 703.540088 
L 101.87895 751.741111 
L 110.925463 690.166921 
L 119.971976 701.466507 
L 129.018489 693.305138 
L 138.065002 707.75821 
L 147.111515 724.440458 
L 156.158029 712.676538 
L 165.204542 739.754374 
L 174.251055 718.502849 
L 183.297568 754.265805 
L 192.344081 697.381388 
L 201.390594 697.269687 
L 210.437107 694.569917 
L 219.48362 693.808959 
L 228.530134 694.079699 
L 237.576647 689.545691 
L 246.62316 693.76339 
L 255.669673 683.724437 
L 264.716186 718.889107 
L 273.762699 696.551457 
L 282.809212 704.255392 
L 291.855725 737.505781 
L 300.902239 694.417777 
L 309.948752 696.121434 
L 318.995265 701.40373 
L 328.041778 671.080211 
L 337.088291 663.39803 
L 346.134804 651.583453 
L 355.181317 625.845435 
L 364.22783 652.103374 
L 373.274344 614.963994 
L 382.320857 627.475474 
L 391.36737 621.58812 
L 400.413883 613.82642 
L 409.460396 619.653773 
L 418.506909 616.473649 
L 427.553422 621.16553 
L 436.599935 619.839328 
L 445.646449 628.949101 
L 454.692962 623.482952 
L 463.739475 628.250414 
L 472.785988 618.311613 
L 481.832501 632.802206 
L 490.879014 618.434402 
L 499.925527 647.427059 
L 508.972041 631.629928 
L 518.018554 633.555694 
L 527.065067 650.659505 
L 536.11158 620.488566 
L 545.158093 637.449788 
L 554.204606 624.13506 
L 563.251119 627.401592 
L 572.297632 638.892719 
L 581.344146 637.445994 
L 590.390659 674.730122 
L 599.437172 657.644836 
L 608.483685 670.987548 
L 617.530198 636.044075 
L 626.576711 655.568234 
L 635.623224 633.000411 
L 644.669737 625.648057 
L 653.716251 639.426859 
L 662.762764 631.740637 
L 671.809277 618.387944 
L 680.85579 638.831805 
L 689.902303 628.135737 
L 698.948816 625.033675 
L 707.995329 638.577769 
L 717.041842 635.425106 
L 726.088356 642.592085 
L 735.134869 635.571078 
L 744.181382 645.425294 
L 753.227895 626.052066 
L 762.274408 630.535275 
L 771.320921 618.801092 
L 780.367434 623.961949 
L 789.413947 607.643912 
L 798.460461 594.15163 
L 807.506974 571.65769 
L 816.553487 564.09389 
L 825.6 572.435451 
" clip-path="url(#p98e372517b)" style="fill: none; stroke: #c44e52; stroke-width: 1.2; stroke-linecap: round"/>
   </g>
   <g id="line2d_46">
    <path d="M -1 493.387775 
L 2.367305 463.060046 
L 11.413818 420.398038 
L 20.460332 439.289694 
L 29.506845 452.634774 
L 38.553358 439.229411 
L 47.599871 402.366069 
L 56.646384 382.624481 
L 65.692897 371.377012 
L 74.73941 365.735932 
L 83.785923 365.732227 
L 92.832437 373.194562 
L 101.87895 385.317211 
L 110.925463 385.958612 
L 119.971976 381.075624 
L 129.018489 374.803766 
L 138.065002 371.462025 
L 147.111515 368.340788 
L 156.158029 363.308715 
L 165.204542 359.775496 
L 174.251055 360.144531 
L 183.297568 364.327251 
L 192.344081 371.369008 
L 201.390594 374.756262 
L 210.437107 376.123823 
L 219.48362 375.583396 
L 228.530134 375.78257 
L 237.576647 374.742175 
L 246.62316 372.946699 
L 255.669673 373.838404 
L 264.716186 375.250741 
L 273.762699 378.380531 
L 282.809212 384.042801 
L 291.855725 393.421608 
L 300.902239 394.793543 
L 309.948752 387.991812 
L 318.995265 385.56224 
L 328.041778 387.080582 
L 337.088291 395.626481 
L 346.134804 424.276164 
L 355.181317 408.310669 
L 364.22783 410.26385 
L 373.274344 396.350255 
L 382.320857 385.690366 
L 391.36737 415.285282 
L 400.413883 412.147558 
L 409.460396 401.142692 
L 418.506909 394.870783 
L 427.553422 392.498526 
L 436.599935 388.536678 
L 445.646449 391.226259 
L 454.692962 394.870872 
L 463.739475 399.539032 
L 472.785988 417.347939 
L 481.832501 779.46 
L 490.879014 779.46 
L 499.925527 779.46 
L 508.972041 779.46 
L 518.018554 779.46 
L 527.065067 779.46 
L 536.11158 779.46 
L 545.158093 779.46 
L 554.204606 779.46 
L 563.251119 779.46 
L 572.297632 497.449729 
L 581.344146 403.367549 
L 590.390659 385.377257 
L 599.437172 377.666126 
L 608.483685 372.343885 
L 617.530198 366.540122 
L 626.576711 367.142183 
L 635.623224 369.822771 
L 644.669737 363.728356 
L 653.716251 358.771889 
L 662.762764 356.310924 
L 671.809277 348.495587 
L 680.85579 346.806968 
L 689.902303 347.984451 
L 698.948816 343.761284 
L 707.995329 342.344226 
L 717.041842 343.413288 
L 726.088356 344.586609 
L 735.134869 345.429559 
L 744.181382 345.71722 
L 753.227895 345.221345 
L 762.274408 345.00369 
L 771.320921 344.067246 
L 780.367434 343.743486 
L 789.413947 343.525726 
L 798.460461 341.155263 
L 807.506974 335.493264 
L 816.553487 336.050494 
L 825.6 358.725359 
" clip-path="url(#p98e372517b)" style="fill: none; stroke: #8172b3; stroke-width: 1.2; stroke-linecap: round"/>
   </g>
   <g id="line2d_47">
    <path d="M -1 719.661537 
L 2.367305 704.984429 
L 11.413818 694.835107 
L 20.460332 682.596105 
L 29.506845 727.606477 
L 38.553358 735.340904 
L 47.599871 763.240295 
L 56.646384 761.543455 
L 65.692897 730.813345 
L 74.73941 731.541055 
L 83.785923 695.945693 
L 92.832437 701.234519 
L 101.87895 779.46 
L 110.925463 728.987218 
L 119.971976 706.620294 
L 129.018489 705.134384 
L 138.065002 779.46 
L 147.111515 779.46 
L 156.158029 779.46 
L 165.204542 768.013214 
L 174.251055 704.871639 
L 183.297568 767.953805 
L 192.344081 695.617058 
L 201.390594 726.235389 
L 210.437107 689.980582 
L 219.48362 692.252423 
L 228.530134 701.812434 
L 237.576647 691.880339 
L 246.62316 688.327707 
L 255.669673 674.839107 
L 264.716186 710.305948 
L 273.762699 682.437607 
L 282.809212 696.261338 
L 291.855725 732.140828 
L 300.902239 694.054572 
L 309.948752 693.05534 
L 318.995265 684.01303 
L 328.041778 659.807383 
L 337.088291 656.788329 
L 346.134804 642.920226 
L 355.181317 622.064 
L 364.22783 636.857955 
L 373.274344 606.299109 
L 382.320857 624.834296 
L 391.36737 609.929425 
L 400.413883 606.564996 
L 409.460396 612.494082 
L 418.506909 608.12732 
L 427.553422 612.401916 
L 436.599935 611.456512 
L 445.646449 619.424654 
L 454.692962 615.427384 
L 463.739475 620.233307 
L 472.785988 609.698616 
L 481.832501 620.026794 
L 490.879014 609.200032 
L 499.925527 637.480793 
L 508.972041 620.480024 
L 518.018554 628.493808 
L 527.065067 633.036336 
L 536.11158 612.14872 
L 545.158093 634.491071 
L 554.204606 612.952898 
L 563.251119 618.052091 
L 572.297632 627.724596 
L 581.344146 632.192908 
L 590.390659 668.653931 
L 599.437172 645.325973 
L 608.483685 665.473798 
L 617.530198 634.118946 
L 626.576711 643.011542 
L 635.623224 620.652583 
L 644.669737 624.071277 
L 653.716251 636.673194 
L 662.762764 619.201029 
L 671.809277 614.668176 
L 680.85579 634.724197 
L 689.902303 616.548542 
L 698.948816 621.598721 
L 707.995329 633.977055 
L 717.041842 624.509824 
L 726.088356 633.529299 
L 735.134869 632.888253 
L 744.181382 643.288099 
L 753.227895 618.858589 
L 762.274408 622.640231 
L 771.320921 612.126589 
L 780.367434 617.133383 
L 789.413947 601.697179 
L 798.460461 590.052034 
L 807.506974 567.350921 
L 816.553487 557.384373 
L 825.6 558.252047 
" clip-path="url(#p98e372517b)" style="fill: none; stroke: #937860; stroke-width: 1.2; stroke-linecap: round"/>
   </g>
   <g id="patch_9">
    <path d="M 74.73941 779.46 
L 74.73941 440.838 
" style="fill: none; stroke: #cccccc; stroke-linejoin: miter; stroke-linecap: square"/>
   </g>
   <g id="patch_10">
    <path d="M 825.6 779.46 
L 825.6 440.838 
" style="fill: none; stroke: #cccccc; stroke-linejoin: miter; stroke-linecap: square"/>
   </g>
   <g id="patch_11">
    <path d="M 74.73941 779.46 
L 825.6 779.46 
" style="fill: none; stroke: #cccccc; stroke-linejoin: miter; stroke-linecap: square"/>
   </g>
   <g id="patch_12">
    <path d="M 74.73941 440.838 
L 825.6 440.838 
" style="fill: none; stroke: #cccccc; stroke-linejoin: miter; stroke-linecap: square"/>
   </g>
  </g>
 </g>
 <defs>
  <clipPath id="p8ac9528120">
   <rect x="74.73941" y="45.672" width="750.86059" height="338.622"/>
  </clipPath>
  <clipPath id="p98e372517b">
   <rect x="74.73941" y="440.838" width="750.86059" height="338.622"/>
  </clipPath>
 </defs>
</svg>
