<?xml version="1.0" encoding="utf-8" standalone="no"?>
<!DOCTYPE svg PUBLIC "-//W3C//DTD SVG 1.1//EN"
  "http://www.w3.org/Graphics/SVG/1.1/DTD/svg11.dtd">
<svg xmlns:xlink="http://www.w3.org/1999/xlink" width="864pt" height="864pt" viewBox="0 0 864 864" xmlns="http://www.w3.org/2000/svg" version="1.1">
 <metadata>
  <rdf:RDF xmlns:dc="http://purl.org/dc/elements/1.1/" xmlns:cc="http://creativecommons.org/ns#" xmlns:rdf="http://www.w3.org/1999/02/22-rdf-syntax-ns#">
   <cc:Work>
    <dc:type rdf:resource="http://purl.org/dc/dcmitype/StillImage"/>
    <dc:date>2025-01-14T12:40:00.328667</dc:date>
    <dc:format>image/svg+xml</dc:format>
    <dc:creator>
     <cc:Agent>
      <dc:title>Matplotlib v3.10.0, https://matplotlib.org/</dc:title>
     </cc:Agent>
    </dc:creator>
   </cc:Work>
  </rdf:RDF>
 </metadata>
 <defs>
  <style type="text/css">*{stroke-linejoin: round; stroke-linecap: butt}</style>
 </defs>
 <g id="figure_1">
  <g id="patch_1">
   <path d="M 0 864 
L 864 864 
L 864 0 
L 0 0 
L 0 864 
z
" style="fill: none"/>
  </g>
  <g id="axes_1">
   <g id="patch_2">
    <path d="M 74.73941 384.294 
L 825.6 384.294 
L 825.6 45.672 
L 74.73941 45.672 
L 74.73941 384.294 
z
" style="fill: none"/>
   </g>
   <g id="matplotlib.axis_1">
    <g id="xtick_1">
     <g id="line2d_1">
      <path d="M 74.73941 384.294 
L 74.73941 45.672 
" clip-path="url(#p73cb30d271)" style="fill: none; stroke: #cccccc; stroke-width: 0.8; stroke-linecap: round"/>
     </g>
    </g>
    <g id="xtick_2">
     <g id="line2d_2">
      <path d="M 165.204542 384.294 
L 165.204542 45.672 
" clip-path="url(#p73cb30d271)" style="fill: none; stroke: #cccccc; stroke-width: 0.8; stroke-linecap: round"/>
     </g>
    </g>
    <g id="xtick_3">
     <g id="line2d_3">
      <path d="M 255.669673 384.294 
L 255.669673 45.672 
" clip-path="url(#p73cb30d271)" style="fill: none; stroke: #cccccc; stroke-width: 0.8; stroke-linecap: round"/>
     </g>
    </g>
    <g id="xtick_4">
     <g id="line2d_4">
      <path d="M 346.134804 384.294 
L 346.134804 45.672 
" clip-path="url(#p73cb30d271)" style="fill: none; stroke: #cccccc; stroke-width: 0.8; stroke-linecap: round"/>
     </g>
    </g>
    <g id="xtick_5">
     <g id="line2d_5">
      <path d="M 436.599935 384.294 
L 436.599935 45.672 
" clip-path="url(#p73cb30d271)" style="fill: none; stroke: #cccccc; stroke-width: 0.8; stroke-linecap: round"/>
     </g>
    </g>
    <g id="xtick_6">
     <g id="line2d_6">
      <path d="M 527.065067 384.294 
L 527.065067 45.672 
" clip-path="url(#p73cb30d271)" style="fill: none; stroke: #cccccc; stroke-width: 0.8; stroke-linecap: round"/>
     </g>
    </g>
    <g id="xtick_7">
     <g id="line2d_7">
      <path d="M 617.530198 384.294 
L 617.530198 45.672 
" clip-path="url(#p73cb30d271)" style="fill: none; stroke: #cccccc; stroke-width: 0.8; stroke-linecap: round"/>
     </g>
    </g>
    <g id="xtick_8">
     <g id="line2d_8">
      <path d="M 707.995329 384.294 
L 707.995329 45.672 
" clip-path="url(#p73cb30d271)" style="fill: none; stroke: #cccccc; stroke-width: 0.8; stroke-linecap: round"/>
     </g>
    </g>
    <g id="xtick_9">
     <g id="line2d_9">
      <path d="M 798.460461 384.294 
L 798.460461 45.672 
" clip-path="url(#p73cb30d271)" style="fill: none; stroke: #cccccc; stroke-width: 0.8; stroke-linecap: round"/>
     </g>
    </g>
   </g>
   <g id="matplotlib.axis_2">
    <g id="ytick_1">
     <g id="line2d_10">
      <path d="M 74.73941 384.294 
L 825.6 384.294 
" clip-path="url(#p73cb30d271)" style="fill: none; stroke: #cccccc; stroke-width: 0.8; stroke-linecap: round"/>
     </g>
     <g id="text_1">
      <!-- $\mathdefault{10^{1}}$ -->
      <g style="fill: #262626" transform="translate(38.98341 390.894) scale(0.176 -0.176)">
       <defs>
        <path id="Roboto-Regular-31" d="M 2278 4575 
L 2278 0 
L 1700 0 
L 1700 3853 
L 534 3428 
L 534 3950 
L 2188 4575 
L 2278 4575 
z
" transform="scale(0.015625)"/>
        <path id="Roboto-Regular-30" d="M 3234 1944 
Q 3234 825 2848 381 
Q 2463 -63 1800 -63 
Q 1156 -63 764 368 
Q 372 800 359 1872 
L 359 2638 
Q 359 3753 750 4183 
Q 1141 4613 1794 4613 
Q 2447 4613 2834 4195 
Q 3222 3778 3234 2709 
L 3234 1944 
z
M 2653 2734 
Q 2653 3503 2434 3822 
Q 2216 4141 1794 4141 
Q 1388 4141 1167 3831 
Q 947 3522 941 2778 
L 941 1850 
Q 941 1088 1164 750 
Q 1388 413 1800 413 
Q 2222 413 2436 745 
Q 2650 1078 2653 1825 
L 2653 2734 
z
" transform="scale(0.015625)"/>
       </defs>
       <use xlink:href="#Roboto-Regular-31" transform="translate(0 0.98125)"/>
       <use xlink:href="#Roboto-Regular-30" transform="translate(56.201172 0.98125)"/>
       <use xlink:href="#Roboto-Regular-31" transform="translate(113.326836 37.960938) scale(0.7)"/>
      </g>
     </g>
    </g>
    <g id="ytick_2">
     <g id="line2d_11">
      <path d="M 74.73941 214.983 
L 825.6 214.983 
" clip-path="url(#p73cb30d271)" style="fill: none; stroke: #cccccc; stroke-width: 0.8; stroke-linecap: round"/>
     </g>
     <g id="text_2">
      <!-- $\mathdefault{10^{2}}$ -->
      <g style="fill: #262626" transform="translate(38.98341 221.583) scale(0.176 -0.176)">
       <defs>
        <path id="Roboto-Regular-32" d="M 3359 475 
L 3359 0 
L 381 0 
L 381 416 
L 1925 2134 
Q 2306 2566 2439 2819 
Q 2572 3072 2572 3328 
Q 2572 3663 2364 3900 
Q 2156 4138 1778 4138 
Q 1322 4138 1097 3878 
Q 872 3619 872 3213 
L 294 3213 
Q 294 3788 672 4200 
Q 1050 4613 1778 4613 
Q 2422 4613 2786 4278 
Q 3150 3944 3150 3397 
Q 3150 2997 2903 2592 
Q 2656 2188 2297 1797 
L 1078 475 
L 3359 475 
z
" transform="scale(0.015625)"/>
       </defs>
       <use xlink:href="#Roboto-Regular-31" transform="translate(0 0.565625)"/>
       <use xlink:href="#Roboto-Regular-30" transform="translate(56.201172 0.565625)"/>
       <use xlink:href="#Roboto-Regular-32" transform="translate(113.326836 37.545313) scale(0.7)"/>
      </g>
     </g>
    </g>
    <g id="ytick_3">
     <g id="line2d_12">
      <path d="M 74.73941 45.672 
L 825.6 45.672 
" clip-path="url(#p73cb30d271)" style="fill: none; stroke: #cccccc; stroke-width: 0.8; stroke-linecap: round"/>
     </g>
     <g id="text_3">
      <!-- $\mathdefault{10^{3}}$ -->
      <g style="fill: #262626" transform="translate(38.98341 52.272) scale(0.176 -0.176)">
       <defs>
        <path id="Roboto-Regular-33" d="M 1222 2084 
L 1222 2559 
L 1647 2559 
Q 2094 2563 2312 2784 
Q 2531 3006 2531 3338 
Q 2531 4138 1738 4138 
Q 1369 4138 1141 3927 
Q 913 3716 913 3359 
L 334 3359 
Q 334 3881 720 4247 
Q 1106 4613 1738 4613 
Q 2353 4613 2733 4286 
Q 3113 3959 3113 3325 
Q 3113 3072 2942 2784 
Q 2772 2497 2397 2338 
Q 2850 2191 3015 1884 
Q 3181 1578 3181 1269 
Q 3181 631 2768 284 
Q 2356 -63 1741 -63 
Q 1147 -63 722 267 
Q 297 597 297 1203 
L 875 1203 
Q 875 844 1108 628 
Q 1341 413 1741 413 
Q 2138 413 2369 622 
Q 2600 831 2600 1256 
Q 2600 1681 2337 1882 
Q 2075 2084 1634 2084 
L 1222 2084 
z
" transform="scale(0.015625)"/>
       </defs>
       <use xlink:href="#Roboto-Regular-31" transform="translate(0 0.565625)"/>
       <use xlink:href="#Roboto-Regular-30" transform="translate(56.201172 0.565625)"/>
       <use xlink:href="#Roboto-Regular-33" transform="translate(113.326836 37.545313) scale(0.7)"/>
      </g>
     </g>
    </g>
   </g>
   <g id="line2d_13">
    <path d="M -1 308.596427 
L 2.367305 323.049498 
L 11.413818 280.542952 
L 20.460332 288.091198 
L 29.506845 298.766552 
L 38.553358 267.436211 
L 47.599871 316.918379 
L 56.646384 316.918379 
L 65.692897 268.952365 
L 74.73941 265.95069 
L 83.785923 292.177295 
L 92.832437 316.918379 
L 101.87895 296.503886 
L 110.925463 303.512123 
L 119.971976 290.105867 
L 129.018489 298.766552 
L 138.065002 314.034447 
L 147.111515 294.308773 
L 156.158029 286.130259 
L 165.204542 323.049498 
L 174.251055 333.32631 
L 183.297568 286.130259 
L 192.344081 296.503886 
L 201.390594 284.22026 
L 210.437107 333.32631 
L 219.48362 294.308773 
L 228.530134 280.542952 
L 237.576647 284.22026 
L 246.62316 316.918379 
L 255.669673 278.771039 
L 264.716186 284.22026 
L 273.762699 314.034447 
L 282.809212 288.091198 
L 291.855725 306.004933 
L 300.902239 314.034447 
L 309.948752 306.004933 
L 318.995265 255.037243 
L 328.041778 224.382694 
L 337.088291 165.126629 
L 346.134804 103.736216 
L 355.181317 277.040822 
L 364.22783 286.130259 
L 373.274344 286.130259 
L 382.320857 268.952365 
L 391.36737 272.081809 
L 400.413883 268.952365 
L 409.460396 323.049498 
L 418.506909 308.585227 
L 427.553422 268.952365 
L 436.599935 314.034447 
L 445.646449 286.130259 
L 454.692962 277.040822 
L 463.739475 272.081809 
L 472.785988 280.542952 
L 481.832501 275.350384 
L 490.879014 282.358621 
L 499.925527 308.585227 
L 508.972041 314.034447 
L 518.018554 303.512123 
L 527.065067 268.952365 
L 536.11158 284.22026 
L 545.158093 286.130259 
L 554.204606 303.512123 
L 563.251119 267.436211 
L 572.297632 329.738729 
L 581.344146 301.10106 
L 590.390659 314.034447 
L 599.437172 267.436211 
L 608.483685 294.308773 
L 617.530198 288.091198 
L 626.576711 265.95069 
L 635.623224 292.177295 
L 644.669737 282.358621 
L 653.716251 303.512123 
L 662.762764 288.091198 
L 671.809277 333.32631 
L 680.85579 286.130259 
L 689.902303 292.177295 
L 698.948816 329.738729 
L 707.995329 273.697936 
L 717.041842 265.95069 
L 726.088356 268.952365 
L 735.134869 273.697936 
L 744.181382 270.50044 
L 753.227895 277.040822 
L 762.274408 267.436211 
L 771.320921 319.920054 
L 780.367434 261.666128 
L 789.413947 242.267622 
L 798.460461 232.31586 
L 807.506974 210.008003 
L 816.553487 282.358621 
L 825.6 316.918379 
" clip-path="url(#p73cb30d271)" style="fill: none; stroke-dasharray: 1.2,1.98; stroke-dashoffset: 0; stroke: #4c72b0; stroke-width: 1.2"/>
   </g>
   <g id="line2d_14">
    <path d="M 757.751152 384.294 
L 757.751152 45.672 
" clip-path="url(#p73cb30d271)" style="fill: none; stroke-dasharray: 1.2,1.98; stroke-dashoffset: 0; stroke: #ff0000; stroke-width: 1.2"/>
   </g>
   <g id="line2d_15">
    <path d="M -1 259.727586 
L 2.367305 261.428196 
L 11.413818 261.529531 
L 20.460332 255.215391 
L 29.506845 262.36205 
L 38.553358 256.424286 
L 47.599871 247.564407 
L 56.646384 265.101696 
L 65.692897 265.279096 
L 74.73941 255.58581 
L 83.785923 245.921692 
L 92.832437 256.858286 
L 101.87895 271.757835 
L 110.925463 262.018142 
L 119.971976 256.319497 
L 129.018489 255.648164 
L 138.065002 256.572372 
L 147.111515 254.124432 
L 156.158029 263.089482 
L 165.204542 265.853869 
L 174.251055 283.353401 
L 183.297568 276.249828 
L 192.344081 249.825698 
L 201.390594 253.104627 
L 210.437107 256.254054 
L 219.48362 281.023459 
L 228.530134 277.144517 
L 237.576647 267.494521 
L 246.62316 270.820743 
L 255.669673 273.003083 
L 264.716186 263.13664 
L 273.762699 287.139888 
L 282.809212 276.273729 
L 291.855725 263.404367 
L 300.902239 294.143778 
L 309.948752 288.912241 
L 318.995265 276.168386 
L 328.041778 254.042685 
L 337.088291 253.528586 
L 346.134804 213.285197 
L 355.181317 163.199398 
L 364.22783 276.609562 
L 373.274344 282.058952 
L 382.320857 297.571473 
L 391.36737 253.366613 
L 400.413883 249.391629 
L 409.460396 254.462156 
L 418.506909 261.160818 
L 427.553422 253.918143 
L 436.599935 253.283224 
L 445.646449 265.081729 
L 454.692962 253.218446 
L 463.739475 246.045453 
L 472.785988 244.585464 
L 481.832501 251.112748 
L 490.879014 253.342062 
L 499.925527 265.703767 
L 508.972041 268.622731 
L 518.018554 252.02611 
L 527.065067 255.929912 
L 536.11158 248.476034 
L 545.158093 259.341591 
L 554.204606 262.715976 
L 563.251119 266.249516 
L 572.297632 257.245946 
L 581.344146 267.627892 
L 590.390659 248.170619 
L 599.437172 265.834123 
L 608.483685 266.556179 
L 617.530198 269.26013 
L 626.576711 252.363231 
L 635.623224 250.097738 
L 644.669737 259.930219 
L 653.716251 250.510716 
L 662.762764 265.448266 
L 671.809277 267.761506 
L 680.85579 276.853376 
L 689.902303 251.786882 
L 698.948816 269.398162 
L 707.995329 277.426951 
L 717.041842 250.207586 
L 726.088356 251.647693 
L 735.134869 252.407165 
L 744.181382 252.936186 
L 753.227895 240.2451 
L 762.274408 237.178415 
L 771.320921 246.860059 
L 780.367434 265.635715 
L 789.413947 250.441868 
L 798.460461 236.858265 
L 807.506974 226.352969 
L 816.553487 221.542974 
L 825.6 237.811809 
" clip-path="url(#p73cb30d271)" style="fill: none; stroke: #dd8452; stroke-width: 1.2; stroke-linecap: round"/>
   </g>
   <g id="line2d_16">
    <path d="M -1 278.574379 
L 2.367305 278.663154 
L 11.413818 281.95228 
L 20.460332 278.496331 
L 29.506845 279.734821 
L 38.553358 281.242472 
L 47.599871 278.331566 
L 56.646384 282.43172 
L 65.692897 282.209106 
L 74.73941 278.578789 
L 83.785923 280.396856 
L 92.832437 282.412475 
L 101.87895 282.453645 
L 110.925463 281.428645 
L 119.971976 283.252864 
L 129.018489 282.907862 
L 138.065002 283.669638 
L 147.111515 285.22273 
L 156.158029 283.831198 
L 165.204542 283.989356 
L 174.251055 286.263188 
L 183.297568 286.1169 
L 192.344081 284.00179 
L 201.390594 286.445439 
L 210.437107 285.906806 
L 219.48362 288.25295 
L 228.530134 286.06994 
L 237.576647 285.612465 
L 246.62316 286.948587 
L 255.669673 288.788904 
L 264.716186 285.987941 
L 273.762699 286.830808 
L 282.809212 289.957735 
L 291.855725 287.589232 
L 300.902239 289.215148 
L 309.948752 290.289956 
L 318.995265 289.472836 
L 328.041778 286.047441 
L 337.088291 282.028313 
L 346.134804 268.068728 
L 355.181317 242.889559 
L 364.22783 291.863967 
L 373.274344 275.455339 
L 382.320857 269.330324 
L 391.36737 287.384791 
L 400.413883 288.555368 
L 409.460396 288.005249 
L 418.506909 291.975358 
L 427.553422 291.112862 
L 436.599935 288.397449 
L 445.646449 293.797082 
L 454.692962 290.968199 
L 463.739475 290.154059 
L 472.785988 291.25341 
L 481.832501 291.817026 
L 490.879014 291.254541 
L 499.925527 291.749979 
L 508.972041 293.979777 
L 518.018554 294.696252 
L 527.065067 294.624391 
L 536.11158 293.061194 
L 545.158093 295.156028 
L 554.204606 294.872967 
L 563.251119 295.502642 
L 572.297632 292.742542 
L 581.344146 298.467353 
L 590.390659 297.220761 
L 599.437172 297.774941 
L 608.483685 295.073546 
L 617.530198 297.73938 
L 626.576711 297.35503 
L 635.623224 294.292638 
L 644.669737 298.374377 
L 653.716251 297.478252 
L 662.762764 299.012948 
L 671.809277 298.522993 
L 680.85579 301.734101 
L 689.902303 299.368768 
L 698.948816 299.835135 
L 707.995329 303.252854 
L 717.041842 297.79692 
L 726.088356 297.880386 
L 735.134869 298.871235 
L 744.181382 297.697149 
L 753.227895 297.644384 
L 762.274408 299.303995 
L 771.320921 298.379103 
L 780.367434 303.104597 
L 789.413947 297.085793 
L 798.460461 295.152849 
L 807.506974 295.024595 
L 816.553487 288.639954 
L 825.6 299.989824 
" clip-path="url(#p73cb30d271)" style="fill: none; stroke: #55a868; stroke-width: 1.2; stroke-linecap: round"/>
   </g>
   <g id="line2d_17">
    <path d="M -1 288.457505 
L 2.367305 288.891154 
L 11.413818 294.824449 
L 20.460332 292.740652 
L 29.506845 297.978524 
L 38.553358 292.708913 
L 47.599871 292.50998 
L 56.646384 303.053098 
L 65.692897 301.899981 
L 74.73941 292.113201 
L 83.785923 292.166221 
L 92.832437 300.89165 
L 101.87895 305.031805 
L 110.925463 291.846723 
L 119.971976 291.364632 
L 129.018489 299.739548 
L 138.065002 301.127559 
L 147.111515 303.435503 
L 156.158029 314.980641 
L 165.204542 311.368741 
L 174.251055 301.289234 
L 183.297568 291.267918 
L 192.344081 283.541719 
L 201.390594 303.638573 
L 210.437107 320.802232 
L 219.48362 320.31861 
L 228.530134 310.433862 
L 237.576647 295.455031 
L 246.62316 299.961795 
L 255.669673 300.127823 
L 264.716186 301.24453 
L 273.762699 311.454293 
L 282.809212 298.042986 
L 291.855725 293.430536 
L 300.902239 315.734201 
L 309.948752 301.627767 
L 318.995265 288.119647 
L 328.041778 294.235641 
L 337.088291 299.760051 
L 346.134804 283.164579 
L 355.181317 255.75619 
L 364.22783 290.564451 
L 373.274344 299.889755 
L 382.320857 259.414138 
L 391.36737 292.81675 
L 400.413883 295.532717 
L 409.460396 302.194918 
L 418.506909 300.697367 
L 427.553422 300.114457 
L 436.599935 308.573397 
L 445.646449 307.925226 
L 454.692962 297.566609 
L 463.739475 295.301259 
L 472.785988 308.331993 
L 481.832501 316.102167 
L 490.879014 314.741971 
L 499.925527 311.824369 
L 508.972041 300.830796 
L 518.018554 291.751373 
L 527.065067 308.597089 
L 536.11158 318.612475 
L 545.158093 315.749626 
L 554.204606 314.76978 
L 563.251119 302.605237 
L 572.297632 302.218709 
L 581.344146 300.997575 
L 590.390659 303.178788 
L 599.437172 321.317876 
L 608.483685 327.633343 
L 617.530198 298.167489 
L 626.576711 293.307194 
L 635.623224 301.543772 
L 644.669737 314.900576 
L 653.716251 309.342363 
L 662.762764 318.439126 
L 671.809277 321.08334 
L 680.85579 305.643564 
L 689.902303 301.062864 
L 698.948816 312.127383 
L 707.995329 313.831012 
L 717.041842 290.356005 
L 726.088356 300.814665 
L 735.134869 306.052096 
L 744.181382 296.339223 
L 753.227895 293.668674 
L 762.274408 304.68877 
L 771.320921 329.967885 
L 780.367434 323.573244 
L 789.413947 301.152853 
L 798.460461 288.569513 
L 807.506974 291.22903 
L 816.553487 295.693169 
L 825.6 298.578447 
" clip-path="url(#p73cb30d271)" style="fill: none; stroke: #c44e52; stroke-width: 1.2; stroke-linecap: round"/>
   </g>
   <g id="line2d_18">
    <path d="M -1 277.020593 
L 2.367305 275.567312 
L 11.413818 283.079269 
L 20.460332 284.856136 
L 29.506845 281.459825 
L 38.553358 287.584775 
L 47.599871 282.864799 
L 56.646384 290.815953 
L 65.692897 294.507891 
L 74.73941 282.616577 
L 83.785923 285.03423 
L 92.832437 291.104624 
L 101.87895 290.027058 
L 110.925463 285.977481 
L 119.971976 280.172726 
L 129.018489 284.715138 
L 138.065002 292.961179 
L 147.111515 306.151925 
L 156.158029 310.316352 
L 165.204542 314.650698 
L 174.251055 295.732784 
L 183.297568 277.465966 
L 192.344081 278.310405 
L 201.390594 292.006614 
L 210.437107 327.40948 
L 219.48362 335.855434 
L 228.530134 317.288309 
L 237.576647 302.548111 
L 246.62316 294.666617 
L 255.669673 302.041968 
L 264.716186 309.800055 
L 273.762699 303.263336 
L 282.809212 309.108721 
L 291.855725 302.422605 
L 300.902239 301.315202 
L 309.948752 308.268686 
L 318.995265 287.154227 
L 328.041778 287.356474 
L 337.088291 290.750684 
L 346.134804 278.926747 
L 355.181317 259.128065 
L 364.22783 278.818432 
L 373.274344 290.137625 
L 382.320857 256.867636 
L 391.36737 278.361101 
L 400.413883 280.443546 
L 409.460396 282.011931 
L 418.506909 286.169303 
L 427.553422 289.74116 
L 436.599935 287.299633 
L 445.646449 292.306919 
L 454.692962 281.581811 
L 463.739475 279.034799 
L 472.785988 292.339281 
L 481.832501 305.220569 
L 490.879014 310.646755 
L 499.925527 297.435491 
L 508.972041 285.098742 
L 518.018554 282.507618 
L 527.065067 287.179067 
L 536.11158 308.853033 
L 545.158093 313.515924 
L 554.204606 301.951264 
L 563.251119 295.978635 
L 572.297632 284.112506 
L 581.344146 285.778876 
L 590.390659 297.44162 
L 599.437172 307.138352 
L 608.483685 310.597762 
L 617.530198 291.958488 
L 626.576711 277.948654 
L 635.623224 281.91682 
L 644.669737 296.578656 
L 653.716251 309.348831 
L 662.762764 306.547107 
L 671.809277 309.069535 
L 680.85579 297.050093 
L 689.902303 292.004911 
L 698.948816 289.517236 
L 707.995329 289.22621 
L 717.041842 281.185968 
L 726.088356 270.805849 
L 735.134869 279.430648 
L 744.181382 271.295825 
L 753.227895 270.139045 
L 762.274408 284.705045 
L 771.320921 298.027346 
L 780.367434 302.202261 
L 789.413947 276.880565 
L 798.460461 260.040327 
L 807.506974 260.722261 
L 816.553487 258.452924 
L 825.6 267.950533 
" clip-path="url(#p73cb30d271)" style="fill: none; stroke: #8172b3; stroke-width: 1.2; stroke-linecap: round"/>
   </g>
   <g id="line2d_19">
    <path d="M -1 265.239286 
L 2.367305 263.984489 
L 11.413818 269.703859 
L 20.460332 265.953169 
L 29.506845 264.939324 
L 38.553358 268.520849 
L 47.599871 266.845157 
L 56.646384 268.939463 
L 65.692897 270.133701 
L 74.73941 264.650841 
L 83.785923 269.492791 
L 92.832437 271.547122 
L 101.87895 269.170295 
L 110.925463 267.399596 
L 119.971976 269.840522 
L 129.018489 270.507667 
L 138.065002 272.106173 
L 147.111515 277.897443 
L 156.158029 276.380969 
L 165.204542 277.172285 
L 174.251055 274.899758 
L 183.297568 273.714955 
L 192.344081 274.58931 
L 201.390594 279.968465 
L 210.437107 284.891925 
L 219.48362 284.869493 
L 228.530134 283.70729 
L 237.576647 282.696393 
L 246.62316 284.372253 
L 255.669673 288.374485 
L 264.716186 288.298801 
L 273.762699 283.236086 
L 282.809212 291.340422 
L 291.855725 291.108107 
L 300.902239 287.489534 
L 309.948752 289.304705 
L 318.995265 286.60042 
L 328.041778 287.518045 
L 337.088291 279.606036 
L 346.134804 269.906891 
L 355.181317 249.208841 
L 364.22783 285.01483 
L 373.274344 282.408791 
L 382.320857 246.131753 
L 391.36737 275.929791 
L 400.413883 278.079667 
L 409.460396 275.818402 
L 418.506909 279.16405 
L 427.553422 280.603695 
L 436.599935 276.271186 
L 445.646449 279.651557 
L 454.692962 278.414677 
L 463.739475 277.455922 
L 472.785988 282.169836 
L 481.832501 284.024417 
L 490.879014 284.816398 
L 499.925527 281.162141 
L 508.972041 281.191179 
L 518.018554 285.374977 
L 527.065067 285.043495 
L 536.11158 288.689662 
L 545.158093 289.140456 
L 554.204606 290.087255 
L 563.251119 287.783039 
L 572.297632 284.931551 
L 581.344146 287.816264 
L 590.390659 296.380316 
L 599.437172 292.543325 
L 608.483685 290.276436 
L 617.530198 287.781363 
L 626.576711 291.972673 
L 635.623224 287.171138 
L 644.669737 291.739191 
L 653.716251 296.673077 
L 662.762764 295.095723 
L 671.809277 295.469202 
L 680.85579 294.01391 
L 689.902303 299.262775 
L 698.948816 291.616106 
L 707.995329 294.370319 
L 717.041842 289.72881 
L 726.088356 286.232727 
L 735.134869 287.142424 
L 744.181382 281.41441 
L 753.227895 283.688001 
L 762.274408 288.793864 
L 771.320921 287.726607 
L 780.367434 287.784126 
L 789.413947 280.211203 
L 798.460461 275.211668 
L 807.506974 277.306712 
L 816.553487 269.426094 
L 825.6 276.286751 
" clip-path="url(#p73cb30d271)" style="fill: none; stroke: #937860; stroke-width: 1.2; stroke-linecap: round"/>
   </g>
   <g id="patch_3">
    <path d="M 74.73941 384.294 
L 74.73941 45.672 
" style="fill: none; stroke: #cccccc; stroke-linejoin: miter; stroke-linecap: square"/>
   </g>
   <g id="patch_4">
    <path d="M 825.6 384.294 
L 825.6 45.672 
" style="fill: none; stroke: #cccccc; stroke-linejoin: miter; stroke-linecap: square"/>
   </g>
   <g id="patch_5">
    <path d="M 74.73941 384.294 
L 825.6 384.294 
" style="fill: none; stroke: #cccccc; stroke-linejoin: miter; stroke-linecap: square"/>
   </g>
   <g id="patch_6">
    <path d="M 74.73941 45.672 
L 825.6 45.672 
" style="fill: none; stroke: #cccccc; stroke-linejoin: miter; stroke-linecap: square"/>
   </g>
   <g id="legend_1">
    <g id="patch_7">
     <path d="M 87.05941 215.9685 
L 271.52666 215.9685 
Q 275.04666 215.9685 275.04666 212.4485 
L 275.04666 57.992 
Q 275.04666 54.472 271.52666 54.472 
L 87.05941 54.472 
Q 83.53941 54.472 83.53941 57.992 
L 83.53941 212.4485 
Q 83.53941 215.9685 87.05941 215.9685 
z
" style="fill: #ffffff; opacity: 0.8; stroke: #cccccc; stroke-width: 0.8; stroke-linejoin: miter"/>
    </g>
    <g id="line2d_20">
     <path d="M 90.57941 68.552 
L 108.17941 68.552 
L 125.77941 68.552 
" style="fill: none; stroke-dasharray: 1.2,1.98; stroke-dashoffset: 0; stroke: #4c72b0; stroke-width: 1.2"/>
    </g>
    <g id="text_4">
     <!-- Reference -->
     <g style="fill: #262626" transform="translate(139.85941 74.712) scale(0.176 -0.176)">
      <defs>
       <path id="Roboto-Regular-52" d="M 3188 0 
L 2200 1844 
L 1131 1844 
L 1131 0 
L 528 0 
L 528 4550 
L 2034 4550 
Q 2800 4550 3214 4200 
Q 3628 3850 3628 3184 
Q 3628 2759 3398 2442 
Q 3169 2125 2763 1969 
L 3831 38 
L 3831 0 
L 3188 0 
z
M 1131 4056 
L 1131 2334 
L 2053 2334 
Q 2538 2334 2783 2582 
Q 3028 2831 3028 3184 
Q 3028 3578 2792 3817 
Q 2556 4056 2034 4056 
L 1131 4056 
z
" transform="scale(0.015625)"/>
       <path id="Roboto-Regular-65" d="M 3116 591 
Q 2950 341 2647 139 
Q 2344 -63 1844 -63 
Q 1138 -63 714 396 
Q 291 856 291 1572 
L 291 1703 
Q 291 2256 502 2645 
Q 713 3034 1050 3239 
Q 1388 3444 1769 3444 
Q 2494 3444 2826 2970 
Q 3159 2497 3159 1788 
L 3159 1528 
L 872 1528 
Q 884 1063 1148 736 
Q 1413 409 1875 409 
Q 2181 409 2393 534 
Q 2606 659 2766 869 
L 3116 591 
z
M 1769 2969 
Q 1425 2969 1187 2719 
Q 950 2469 891 2000 
L 2581 2000 
L 2581 2044 
Q 2559 2381 2386 2675 
Q 2213 2969 1769 2969 
z
" transform="scale(0.015625)"/>
       <path id="Roboto-Regular-66" d="M 2022 2938 
L 1303 2938 
L 1303 0 
L 725 0 
L 725 2938 
L 191 2938 
L 191 3381 
L 725 3381 
L 725 3759 
Q 731 4297 1026 4581 
Q 1322 4866 1834 4866 
Q 2025 4866 2234 4816 
L 2203 4344 
Q 2072 4372 1891 4372 
Q 1313 4372 1303 3756 
L 1303 3381 
L 2022 3381 
L 2022 2938 
z
" transform="scale(0.015625)"/>
       <path id="Roboto-Regular-72" d="M 1791 2888 
Q 1225 2888 1019 2400 
L 1019 0 
L 441 0 
L 441 3381 
L 1003 3381 
L 1016 2994 
Q 1294 3444 1819 3444 
Q 1981 3444 2075 3400 
L 2072 2863 
Q 1944 2888 1791 2888 
z
" transform="scale(0.015625)"/>
       <path id="Roboto-Regular-6e" d="M 1844 2956 
Q 1566 2956 1353 2806 
Q 1141 2656 1019 2416 
L 1019 0 
L 441 0 
L 441 3381 
L 988 3381 
L 1006 2959 
Q 1391 3444 2016 3444 
Q 2513 3444 2805 3166 
Q 3097 2888 3100 2231 
L 3100 0 
L 2519 0 
L 2519 2222 
Q 2519 2619 2345 2787 
Q 2172 2956 1844 2956 
z
" transform="scale(0.015625)"/>
       <path id="Roboto-Regular-63" d="M 1794 413 
Q 2103 413 2336 597 
Q 2569 781 2591 1069 
L 3141 1069 
Q 3119 616 2725 276 
Q 2331 -63 1794 -63 
Q 1031 -63 661 440 
Q 291 944 291 1625 
L 291 1756 
Q 291 2438 661 2941 
Q 1031 3444 1794 3444 
Q 2388 3444 2753 3092 
Q 3119 2741 3141 2219 
L 2591 2219 
Q 2569 2531 2355 2750 
Q 2141 2969 1794 2969 
Q 1438 2969 1236 2787 
Q 1034 2606 951 2328 
Q 869 2050 869 1756 
L 869 1625 
Q 869 1328 950 1050 
Q 1031 772 1232 592 
Q 1434 413 1794 413 
z
" transform="scale(0.015625)"/>
      </defs>
      <use xlink:href="#Roboto-Regular-52"/>
      <use xlink:href="#Roboto-Regular-65" transform="translate(61.621094 0)"/>
      <use xlink:href="#Roboto-Regular-66" transform="translate(114.648438 0)"/>
      <use xlink:href="#Roboto-Regular-65" transform="translate(149.414062 0)"/>
      <use xlink:href="#Roboto-Regular-72" transform="translate(202.441406 0)"/>
      <use xlink:href="#Roboto-Regular-65" transform="translate(236.328125 0)"/>
      <use xlink:href="#Roboto-Regular-6e" transform="translate(289.355469 0)"/>
      <use xlink:href="#Roboto-Regular-63" transform="translate(344.580078 0)"/>
      <use xlink:href="#Roboto-Regular-65" transform="translate(396.923828 0)"/>
     </g>
    </g>
    <g id="line2d_21">
     <path d="M 90.57941 94.127 
L 108.17941 94.127 
L 125.77941 94.127 
" style="fill: none; stroke: #dd8452; stroke-width: 1.2; stroke-linecap: round"/>
    </g>
    <g id="text_5">
     <!-- MSE -->
     <g style="fill: #262626" transform="translate(139.85941 100.287) scale(0.176 -0.176)">
      <defs>
       <path id="Roboto-Regular-4d" d="M 2794 841 
L 4281 4550 
L 5056 4550 
L 5056 0 
L 4456 0 
L 4456 1775 
L 4516 3678 
L 3019 0 
L 2563 0 
L 1069 3684 
L 1128 1775 
L 1128 0 
L 528 0 
L 528 4550 
L 1303 4550 
L 2794 841 
z
" transform="scale(0.015625)"/>
       <path id="Roboto-Regular-53" d="M 2953 1150 
Q 2953 1463 2742 1650 
Q 2531 1838 1856 2036 
Q 1181 2234 789 2542 
Q 397 2850 397 3375 
Q 397 3906 820 4259 
Q 1244 4613 1944 4613 
Q 2713 4613 3130 4191 
Q 3547 3769 3547 3238 
L 2947 3238 
Q 2947 3619 2700 3869 
Q 2453 4119 1944 4119 
Q 1463 4119 1231 3908 
Q 1000 3697 1000 3381 
Q 1000 3097 1245 2908 
Q 1491 2719 2044 2563 
Q 2834 2341 3196 2014 
Q 3559 1688 3559 1156 
Q 3559 600 3125 268 
Q 2691 -63 1972 -63 
Q 1553 -63 1158 93 
Q 763 250 508 558 
Q 253 866 253 1319 
L 853 1319 
Q 853 853 1193 640 
Q 1534 428 1972 428 
Q 2444 428 2698 623 
Q 2953 819 2953 1150 
z
" transform="scale(0.015625)"/>
       <path id="Roboto-Regular-45" d="M 528 0 
L 528 4550 
L 3388 4550 
L 3388 4056 
L 1131 4056 
L 1131 2594 
L 3100 2594 
L 3100 2103 
L 1131 2103 
L 1131 491 
L 3419 491 
L 3419 0 
L 528 0 
z
" transform="scale(0.015625)"/>
      </defs>
      <use xlink:href="#Roboto-Regular-4d"/>
      <use xlink:href="#Roboto-Regular-53" transform="translate(87.304688 0)"/>
      <use xlink:href="#Roboto-Regular-45" transform="translate(146.679688 0)"/>
     </g>
    </g>
    <g id="line2d_22">
     <path d="M 90.57941 119.702 
L 108.17941 119.702 
L 125.77941 119.702 
" style="fill: none; stroke: #55a868; stroke-width: 1.2; stroke-linecap: round"/>
    </g>
    <g id="text_6">
     <!-- MAAPE -->
     <g style="fill: #262626" transform="translate(139.85941 125.862) scale(0.176 -0.176)">
      <defs>
       <path id="Roboto-Regular-41" d="M 91 0 
L 1825 4550 
L 2353 4550 
L 4094 0 
L 3475 0 
L 3041 1191 
L 1138 1191 
L 706 0 
L 91 0 
z
M 1319 1684 
L 2863 1684 
L 2091 3806 
L 1319 1684 
z
" transform="scale(0.015625)"/>
       <path id="Roboto-Regular-50" d="M 1131 1784 
L 1131 0 
L 528 0 
L 528 4550 
L 2206 4550 
Q 2981 4550 3392 4159 
Q 3803 3769 3803 3163 
Q 3803 2503 3392 2143 
Q 2981 1784 2206 1784 
L 1131 1784 
z
M 1131 4056 
L 1131 2275 
L 2206 2275 
Q 2738 2275 2969 2522 
Q 3200 2769 3200 3156 
Q 3200 3506 2969 3781 
Q 2738 4056 2206 4056 
L 1131 4056 
z
" transform="scale(0.015625)"/>
      </defs>
      <use xlink:href="#Roboto-Regular-4d"/>
      <use xlink:href="#Roboto-Regular-41" transform="translate(87.304688 0)"/>
      <use xlink:href="#Roboto-Regular-41" transform="translate(152.539062 0)"/>
      <use xlink:href="#Roboto-Regular-50" transform="translate(217.773438 0)"/>
      <use xlink:href="#Roboto-Regular-45" transform="translate(280.859375 0)"/>
     </g>
    </g>
    <g id="line2d_23">
     <path d="M 90.57941 145.277 
L 108.17941 145.277 
L 125.77941 145.277 
" style="fill: none; stroke: #c44e52; stroke-width: 1.2; stroke-linecap: round"/>
    </g>
    <g id="text_7">
     <!-- MASPE -->
     <g style="fill: #262626" transform="translate(139.85941 151.437) scale(0.176 -0.176)">
      <use xlink:href="#Roboto-Regular-4d"/>
      <use xlink:href="#Roboto-Regular-41" transform="translate(87.304688 0)"/>
      <use xlink:href="#Roboto-Regular-53" transform="translate(152.539062 0)"/>
      <use xlink:href="#Roboto-Regular-50" transform="translate(211.914062 0)"/>
      <use xlink:href="#Roboto-Regular-45" transform="translate(275 0)"/>
     </g>
    </g>
    <g id="line2d_24">
     <path d="M 90.57941 171.7705 
L 108.17941 171.7705 
L 125.77941 171.7705 
" style="fill: none; stroke: #8172b3; stroke-width: 1.2; stroke-linecap: round"/>
    </g>
    <g id="text_8">
     <!-- SMASPE (tight) -->
     <g style="fill: #262626" transform="translate(139.85941 177.9305) scale(0.176 -0.176)">
      <defs>
       <path id="Roboto-Regular-20" transform="scale(0.015625)"/>
       <path id="Roboto-Regular-28" d="M 419 1850 
Q 419 2756 678 3434 
Q 938 4113 1294 4541 
Q 1650 4969 1947 5134 
L 2069 4753 
Q 1700 4475 1348 3761 
Q 997 3047 997 1813 
Q 997 625 1348 -97 
Q 1700 -819 2069 -1119 
L 1947 -1469 
Q 1650 -1306 1294 -878 
Q 938 -450 678 226 
Q 419 903 419 1850 
z
" transform="scale(0.015625)"/>
       <path id="Roboto-Regular-74" d="M 1872 0 
Q 1675 -63 1425 -63 
Q 1103 -63 875 134 
Q 647 331 647 841 
L 647 2938 
L 28 2938 
L 28 3381 
L 647 3381 
L 647 4203 
L 1225 4203 
L 1225 3381 
L 1856 3381 
L 1856 2938 
L 1225 2938 
L 1225 838 
Q 1225 578 1337 506 
Q 1450 434 1597 434 
Q 1706 434 1869 472 
L 1872 0 
z
" transform="scale(0.015625)"/>
       <path id="Roboto-Regular-69" d="M 444 4278 
Q 444 4419 530 4516 
Q 616 4613 784 4613 
Q 950 4613 1039 4516 
Q 1128 4419 1128 4278 
Q 1128 4144 1039 4048 
Q 950 3953 784 3953 
Q 616 3953 530 4048 
Q 444 4144 444 4278 
z
M 1069 3381 
L 1069 0 
L 488 0 
L 488 3381 
L 1069 3381 
z
" transform="scale(0.015625)"/>
       <path id="Roboto-Regular-67" d="M 1725 -1334 
Q 1463 -1334 1081 -1206 
Q 700 -1078 472 -747 
L 775 -403 
Q 1150 -859 1681 -859 
Q 2091 -859 2334 -629 
Q 2578 -400 2578 44 
L 2578 341 
Q 2234 -63 1631 -63 
Q 1022 -63 662 425 
Q 303 913 303 1653 
L 303 1719 
Q 303 2494 661 2969 
Q 1019 3444 1638 3444 
Q 2259 3444 2603 3006 
L 2631 3381 
L 3156 3381 
L 3156 72 
Q 3156 -600 2756 -967 
Q 2356 -1334 1725 -1334 
z
M 881 1653 
Q 881 1150 1092 789 
Q 1303 428 1772 428 
Q 2322 428 2578 928 
L 2578 2469 
Q 2469 2678 2275 2817 
Q 2081 2956 1778 2956 
Q 1306 2956 1093 2589 
Q 881 2222 881 1719 
L 881 1653 
z
" transform="scale(0.015625)"/>
       <path id="Roboto-Regular-68" d="M 1844 2956 
Q 1566 2956 1353 2806 
Q 1141 2656 1019 2416 
L 1019 0 
L 441 0 
L 441 4800 
L 1019 4800 
L 1019 2978 
Q 1403 3444 2016 3444 
Q 2513 3444 2805 3166 
Q 3097 2888 3100 2231 
L 3100 0 
L 2519 0 
L 2519 2222 
Q 2519 2619 2345 2787 
Q 2172 2956 1844 2956 
z
" transform="scale(0.015625)"/>
       <path id="Roboto-Regular-29" d="M 1772 1819 
Q 1772 906 1512 228 
Q 1253 -450 895 -878 
Q 538 -1306 244 -1469 
L 122 -1119 
Q 488 -841 841 -109 
Q 1194 622 1194 1856 
Q 1194 2647 1019 3236 
Q 844 3825 594 4212 
Q 344 4600 122 4781 
L 244 5134 
Q 538 4969 895 4541 
Q 1253 4113 1512 3436 
Q 1772 2759 1772 1819 
z
" transform="scale(0.015625)"/>
      </defs>
      <use xlink:href="#Roboto-Regular-53"/>
      <use xlink:href="#Roboto-Regular-4d" transform="translate(59.375 0)"/>
      <use xlink:href="#Roboto-Regular-41" transform="translate(146.679688 0)"/>
      <use xlink:href="#Roboto-Regular-53" transform="translate(211.914062 0)"/>
      <use xlink:href="#Roboto-Regular-50" transform="translate(271.289062 0)"/>
      <use xlink:href="#Roboto-Regular-45" transform="translate(334.375 0)"/>
      <use xlink:href="#Roboto-Regular-20" transform="translate(391.210938 0)"/>
      <use xlink:href="#Roboto-Regular-28" transform="translate(416.015625 0)"/>
      <use xlink:href="#Roboto-Regular-74" transform="translate(450.244141 0)"/>
      <use xlink:href="#Roboto-Regular-69" transform="translate(482.958984 0)"/>
      <use xlink:href="#Roboto-Regular-67" transform="translate(507.275391 0)"/>
      <use xlink:href="#Roboto-Regular-68" transform="translate(563.427734 0)"/>
      <use xlink:href="#Roboto-Regular-74" transform="translate(618.505859 0)"/>
      <use xlink:href="#Roboto-Regular-29" transform="translate(651.220703 0)"/>
     </g>
    </g>
    <g id="line2d_25">
     <path d="M 90.57941 198.72875 
L 108.17941 198.72875 
L 125.77941 198.72875 
" style="fill: none; stroke: #937860; stroke-width: 1.2; stroke-linecap: round"/>
    </g>
    <g id="text_9">
     <!-- SMASPE (loose) -->
     <g style="fill: #262626" transform="translate(139.85941 204.88875) scale(0.176 -0.176)">
      <defs>
       <path id="Roboto-Regular-6c" d="M 1069 4800 
L 1069 0 
L 488 0 
L 488 4800 
L 1069 4800 
z
" transform="scale(0.015625)"/>
       <path id="Roboto-Regular-6f" d="M 288 1725 
Q 288 2459 700 2951 
Q 1113 3444 1822 3444 
Q 2531 3444 2943 2961 
Q 3356 2478 3366 1756 
L 3366 1653 
Q 3366 919 2952 428 
Q 2538 -63 1828 -63 
Q 1116 -63 702 428 
Q 288 919 288 1653 
L 288 1725 
z
M 866 1653 
Q 866 1150 1105 781 
Q 1344 413 1828 413 
Q 2300 413 2540 777 
Q 2781 1141 2784 1644 
L 2784 1725 
Q 2784 2222 2543 2595 
Q 2303 2969 1822 2969 
Q 1344 2969 1105 2595 
Q 866 2222 866 1725 
L 866 1653 
z
" transform="scale(0.015625)"/>
       <path id="Roboto-Regular-73" d="M 2409 897 
Q 2409 1081 2273 1229 
Q 2138 1378 1647 1478 
Q 1081 1594 747 1814 
Q 413 2034 413 2456 
Q 413 2856 755 3150 
Q 1097 3444 1666 3444 
Q 2272 3444 2612 3134 
Q 2953 2825 2953 2388 
L 2375 2388 
Q 2375 2597 2190 2783 
Q 2006 2969 1666 2969 
Q 1306 2969 1150 2812 
Q 994 2656 994 2472 
Q 994 2288 1139 2173 
Q 1284 2059 1756 1953 
Q 2378 1813 2683 1584 
Q 2988 1356 2988 941 
Q 2988 494 2630 215 
Q 2272 -63 1681 -63 
Q 1009 -63 653 281 
Q 297 625 297 1044 
L 878 1044 
Q 897 684 1155 548 
Q 1413 413 1681 413 
Q 2034 413 2221 550 
Q 2409 688 2409 897 
z
" transform="scale(0.015625)"/>
      </defs>
      <use xlink:href="#Roboto-Regular-53"/>
      <use xlink:href="#Roboto-Regular-4d" transform="translate(59.375 0)"/>
      <use xlink:href="#Roboto-Regular-41" transform="translate(146.679688 0)"/>
      <use xlink:href="#Roboto-Regular-53" transform="translate(211.914062 0)"/>
      <use xlink:href="#Roboto-Regular-50" transform="translate(271.289062 0)"/>
      <use xlink:href="#Roboto-Regular-45" transform="translate(334.375 0)"/>
      <use xlink:href="#Roboto-Regular-20" transform="translate(391.210938 0)"/>
      <use xlink:href="#Roboto-Regular-28" transform="translate(416.015625 0)"/>
      <use xlink:href="#Roboto-Regular-6c" transform="translate(450.244141 0)"/>
      <use xlink:href="#Roboto-Regular-6f" transform="translate(474.560547 0)"/>
      <use xlink:href="#Roboto-Regular-6f" transform="translate(531.591797 0)"/>
      <use xlink:href="#Roboto-Regular-73" transform="translate(588.623047 0)"/>
      <use xlink:href="#Roboto-Regular-65" transform="translate(640.234375 0)"/>
      <use xlink:href="#Roboto-Regular-29" transform="translate(693.261719 0)"/>
     </g>
    </g>
   </g>
  </g>
  <g id="axes_2">
   <g id="patch_8">
    <path d="M 74.73941 779.46 
L 825.6 779.46 
L 825.6 440.838 
L 74.73941 440.838 
L 74.73941 779.46 
z
" style="fill: none"/>
   </g>
   <g id="matplotlib.axis_3">
    <g id="xtick_10">
     <g id="line2d_26">
      <path d="M 74.73941 779.46 
L 74.73941 440.838 
" clip-path="url(#p67a509c9c2)" style="fill: none; stroke: #cccccc; stroke-width: 0.8; stroke-linecap: round"/>
     </g>
     <g id="text_10">
      <!-- 20 -->
      <g style="fill: #262626" transform="translate(64.84766 800.96) scale(0.176 -0.176)">
       <use xlink:href="#Roboto-Regular-32"/>
       <use xlink:href="#Roboto-Regular-30" transform="translate(56.201172 0)"/>
      </g>
     </g>
    </g>
    <g id="xtick_11">
     <g id="line2d_27">
      <path d="M 165.204542 779.46 
L 165.204542 440.838 
" clip-path="url(#p67a509c9c2)" style="fill: none; stroke: #cccccc; stroke-width: 0.8; stroke-linecap: round"/>
     </g>
     <g id="text_11">
      <!-- 30 -->
      <g style="fill: #262626" transform="translate(155.312792 800.96) scale(0.176 -0.176)">
       <use xlink:href="#Roboto-Regular-33"/>
       <use xlink:href="#Roboto-Regular-30" transform="translate(56.201172 0)"/>
      </g>
     </g>
    </g>
    <g id="xtick_12">
     <g id="line2d_28">
      <path d="M 255.669673 779.46 
L 255.669673 440.838 
" clip-path="url(#p67a509c9c2)" style="fill: none; stroke: #cccccc; stroke-width: 0.8; stroke-linecap: round"/>
     </g>
     <g id="text_12">
      <!-- 40 -->
      <g style="fill: #262626" transform="translate(245.777923 800.96) scale(0.176 -0.176)">
       <defs>
        <path id="Roboto-Regular-34" d="M 166 1397 
L 2203 4550 
L 2819 4550 
L 2819 1531 
L 3453 1531 
L 3453 1056 
L 2819 1056 
L 2819 0 
L 2241 0 
L 2241 1056 
L 166 1056 
L 166 1397 
z
M 822 1531 
L 2241 1531 
L 2241 3766 
L 2169 3638 
L 822 1531 
z
" transform="scale(0.015625)"/>
       </defs>
       <use xlink:href="#Roboto-Regular-34"/>
       <use xlink:href="#Roboto-Regular-30" transform="translate(56.201172 0)"/>
      </g>
     </g>
    </g>
    <g id="xtick_13">
     <g id="line2d_29">
      <path d="M 346.134804 779.46 
L 346.134804 440.838 
" clip-path="url(#p67a509c9c2)" style="fill: none; stroke: #cccccc; stroke-width: 0.8; stroke-linecap: round"/>
     </g>
     <g id="text_13">
      <!-- 50 -->
      <g style="fill: #262626" transform="translate(336.243054 800.96) scale(0.176 -0.176)">
       <defs>
        <path id="Roboto-Regular-35" d="M 1109 2166 
L 647 2284 
L 875 4550 
L 3209 4550 
L 3209 4016 
L 1366 4016 
L 1228 2778 
Q 1572 2975 1988 2975 
Q 2616 2975 2980 2561 
Q 3344 2147 3344 1450 
Q 3344 797 2987 367 
Q 2631 -63 1903 -63 
Q 1350 -63 947 248 
Q 544 559 481 1197 
L 1031 1197 
Q 1141 413 1903 413 
Q 2313 413 2538 691 
Q 2763 969 2763 1444 
Q 2763 1872 2527 2164 
Q 2291 2456 1853 2456 
Q 1563 2456 1413 2378 
Q 1263 2300 1109 2166 
z
" transform="scale(0.015625)"/>
       </defs>
       <use xlink:href="#Roboto-Regular-35"/>
       <use xlink:href="#Roboto-Regular-30" transform="translate(56.201172 0)"/>
      </g>
     </g>
    </g>
    <g id="xtick_14">
     <g id="line2d_30">
      <path d="M 436.599935 779.46 
L 436.599935 440.838 
" clip-path="url(#p67a509c9c2)" style="fill: none; stroke: #cccccc; stroke-width: 0.8; stroke-linecap: round"/>
     </g>
     <g id="text_14">
      <!-- 60 -->
      <g style="fill: #262626" transform="translate(426.708185 800.96) scale(0.176 -0.176)">
       <defs>
        <path id="Roboto-Regular-36" d="M 3291 1484 
Q 3291 838 2930 387 
Q 2569 -63 1878 -63 
Q 1388 -63 1063 198 
Q 738 459 577 861 
Q 416 1263 416 1684 
L 416 1956 
Q 416 2597 595 3194 
Q 775 3791 1247 4173 
Q 1719 4556 2597 4556 
L 2647 4556 
L 2647 4066 
Q 2041 4066 1705 3853 
Q 1369 3641 1205 3302 
Q 1041 2963 1006 2575 
Q 1369 2984 1984 2984 
Q 2438 2984 2727 2765 
Q 3016 2547 3153 2201 
Q 3291 1856 3291 1484 
z
M 997 1666 
Q 997 1059 1267 737 
Q 1538 416 1878 416 
Q 2278 416 2498 708 
Q 2719 1000 2719 1456 
Q 2719 1863 2516 2184 
Q 2313 2506 1891 2506 
Q 1588 2506 1341 2325 
Q 1094 2144 997 1884 
L 997 1666 
z
" transform="scale(0.015625)"/>
       </defs>
       <use xlink:href="#Roboto-Regular-36"/>
       <use xlink:href="#Roboto-Regular-30" transform="translate(56.201172 0)"/>
      </g>
     </g>
    </g>
    <g id="xtick_15">
     <g id="line2d_31">
      <path d="M 527.065067 779.46 
L 527.065067 440.838 
" clip-path="url(#p67a509c9c2)" style="fill: none; stroke: #cccccc; stroke-width: 0.8; stroke-linecap: round"/>
     </g>
     <g id="text_15">
      <!-- 70 -->
      <g style="fill: #262626" transform="translate(517.173317 800.96) scale(0.176 -0.176)">
       <defs>
        <path id="Roboto-Regular-37" d="M 3319 4550 
L 3319 4225 
L 1434 0 
L 825 0 
L 2706 4075 
L 244 4075 
L 244 4550 
L 3319 4550 
z
" transform="scale(0.015625)"/>
       </defs>
       <use xlink:href="#Roboto-Regular-37"/>
       <use xlink:href="#Roboto-Regular-30" transform="translate(56.201172 0)"/>
      </g>
     </g>
    </g>
    <g id="xtick_16">
     <g id="line2d_32">
      <path d="M 617.530198 779.46 
L 617.530198 440.838 
" clip-path="url(#p67a509c9c2)" style="fill: none; stroke: #cccccc; stroke-width: 0.8; stroke-linecap: round"/>
     </g>
     <g id="text_16">
      <!-- 80 -->
      <g style="fill: #262626" transform="translate(607.638448 800.96) scale(0.176 -0.176)">
       <defs>
        <path id="Roboto-Regular-38" d="M 3244 1231 
Q 3244 606 2826 271 
Q 2409 -63 1796 -63 
Q 1184 -63 767 271 
Q 350 606 350 1231 
Q 350 1613 554 1905 
Q 759 2197 1109 2347 
Q 806 2494 629 2762 
Q 453 3031 453 3366 
Q 453 3963 833 4288 
Q 1213 4613 1794 4613 
Q 2378 4613 2758 4288 
Q 3138 3963 3138 3366 
Q 3138 3028 2956 2761 
Q 2775 2494 2472 2347 
Q 2825 2197 3034 1903 
Q 3244 1609 3244 1231 
z
M 2559 3356 
Q 2559 3697 2346 3917 
Q 2134 4138 1793 4138 
Q 1453 4138 1243 3927 
Q 1034 3716 1034 3356 
Q 1034 3003 1243 2790 
Q 1453 2578 1797 2578 
Q 2138 2578 2348 2790 
Q 2559 3003 2559 3356 
z
M 2663 1244 
Q 2663 1625 2420 1865 
Q 2178 2106 1791 2106 
Q 1394 2106 1161 1865 
Q 928 1625 928 1244 
Q 928 850 1161 631 
Q 1394 413 1797 413 
Q 2200 413 2431 631 
Q 2663 850 2663 1244 
z
" transform="scale(0.015625)"/>
       </defs>
       <use xlink:href="#Roboto-Regular-38"/>
       <use xlink:href="#Roboto-Regular-30" transform="translate(56.201172 0)"/>
      </g>
     </g>
    </g>
    <g id="xtick_17">
     <g id="line2d_33">
      <path d="M 707.995329 779.46 
L 707.995329 440.838 
" clip-path="url(#p67a509c9c2)" style="fill: none; stroke: #cccccc; stroke-width: 0.8; stroke-linecap: round"/>
     </g>
     <g id="text_17">
      <!-- 90 -->
      <g style="fill: #262626" transform="translate(698.103579 800.96) scale(0.176 -0.176)">
       <defs>
        <path id="Roboto-Regular-39" d="M 3175 2563 
Q 3175 2119 3098 1667 
Q 3022 1216 2801 836 
Q 2581 456 2151 225 
Q 1722 -6 953 -6 
L 953 484 
Q 1644 484 1980 700 
Q 2316 916 2448 1264 
Q 2581 1613 2597 2006 
Q 2416 1791 2162 1656 
Q 1909 1522 1613 1522 
Q 1163 1522 875 1747 
Q 588 1972 450 2320 
Q 313 2669 313 3041 
Q 313 3691 670 4152 
Q 1028 4613 1725 4613 
Q 2244 4613 2564 4344 
Q 2884 4075 3029 3653 
Q 3175 3231 3175 2772 
L 3175 2563 
z
M 881 3072 
Q 881 2666 1086 2334 
Q 1291 2003 1706 2003 
Q 2003 2003 2245 2181 
Q 2488 2359 2600 2622 
L 2600 2850 
Q 2600 3472 2336 3803 
Q 2072 4134 1725 4134 
Q 1322 4134 1101 3829 
Q 881 3525 881 3072 
z
" transform="scale(0.015625)"/>
       </defs>
       <use xlink:href="#Roboto-Regular-39"/>
       <use xlink:href="#Roboto-Regular-30" transform="translate(56.201172 0)"/>
      </g>
     </g>
    </g>
    <g id="xtick_18">
     <g id="line2d_34">
      <path d="M 798.460461 779.46 
L 798.460461 440.838 
" clip-path="url(#p67a509c9c2)" style="fill: none; stroke: #cccccc; stroke-width: 0.8; stroke-linecap: round"/>
     </g>
     <g id="text_18">
      <!-- 100 -->
      <g style="fill: #262626" transform="translate(783.622836 800.96) scale(0.176 -0.176)">
       <use xlink:href="#Roboto-Regular-31"/>
       <use xlink:href="#Roboto-Regular-30" transform="translate(56.201172 0)"/>
       <use xlink:href="#Roboto-Regular-30" transform="translate(112.402344 0)"/>
      </g>
     </g>
    </g>
    <g id="text_19">
     <!-- Week -->
     <g style="fill: #262626" transform="translate(426.604705 822.935) scale(0.192 -0.192)">
      <defs>
       <path id="Roboto-Regular-57" d="M 5541 4550 
L 4441 0 
L 3894 0 
L 2956 3316 
L 2884 3663 
L 2813 3316 
L 1841 0 
L 1294 0 
L 191 4550 
L 791 4550 
L 1509 1438 
L 1600 834 
L 1725 1375 
L 2628 4550 
L 3131 4550 
L 4009 1375 
L 4138 822 
L 4234 1441 
L 4938 4550 
L 5541 4550 
z
" transform="scale(0.015625)"/>
       <path id="Roboto-Regular-6b" d="M 2559 0 
L 1388 1569 
L 1022 1191 
L 1022 0 
L 441 0 
L 441 4800 
L 1022 4800 
L 1022 1900 
L 1331 2269 
L 2381 3381 
L 3088 3381 
L 1769 1972 
L 3241 0 
L 2559 0 
z
" transform="scale(0.015625)"/>
      </defs>
      <use xlink:href="#Roboto-Regular-57"/>
      <use xlink:href="#Roboto-Regular-65" transform="translate(88.720703 0)"/>
      <use xlink:href="#Roboto-Regular-65" transform="translate(141.748047 0)"/>
      <use xlink:href="#Roboto-Regular-6b" transform="translate(194.775391 0)"/>
     </g>
    </g>
   </g>
   <g id="matplotlib.axis_4">
    <g id="ytick_4">
     <g id="line2d_35">
      <path d="M 74.73941 779.46 
L 825.6 779.46 
" clip-path="url(#p67a509c9c2)" style="fill: none; stroke: #cccccc; stroke-width: 0.8; stroke-linecap: round"/>
     </g>
     <g id="text_20">
      <!-- $\mathdefault{0}$ -->
      <g style="fill: #262626" transform="translate(56.40741 786.06) scale(0.176 -0.176)">
       <use xlink:href="#Roboto-Regular-30" transform="translate(0 0.921875)"/>
      </g>
     </g>
    </g>
    <g id="ytick_5">
     <g id="line2d_36">
      <path d="M 74.73941 705.846522 
L 825.6 705.846522 
" clip-path="url(#p67a509c9c2)" style="fill: none; stroke: #cccccc; stroke-width: 0.8; stroke-linecap: round"/>
     </g>
     <g id="text_21">
      <!-- $\mathdefault{10^{0}}$ -->
      <g style="fill: #262626" transform="translate(38.98341 712.446522) scale(0.176 -0.176)">
       <use xlink:href="#Roboto-Regular-31" transform="translate(0 0.565625)"/>
       <use xlink:href="#Roboto-Regular-30" transform="translate(56.201172 0.565625)"/>
       <use xlink:href="#Roboto-Regular-30" transform="translate(113.326836 37.545313) scale(0.7)"/>
      </g>
     </g>
    </g>
    <g id="ytick_6">
     <g id="line2d_37">
      <path d="M 74.73941 639.594391 
L 825.6 639.594391 
" clip-path="url(#p67a509c9c2)" style="fill: none; stroke: #cccccc; stroke-width: 0.8; stroke-linecap: round"/>
     </g>
     <g id="text_22">
      <!-- $\mathdefault{10^{1}}$ -->
      <g style="fill: #262626" transform="translate(38.98341 646.194391) scale(0.176 -0.176)">
       <use xlink:href="#Roboto-Regular-31" transform="translate(0 0.98125)"/>
       <use xlink:href="#Roboto-Regular-30" transform="translate(56.201172 0.98125)"/>
       <use xlink:href="#Roboto-Regular-31" transform="translate(113.326836 37.960938) scale(0.7)"/>
      </g>
     </g>
    </g>
    <g id="ytick_7">
     <g id="line2d_38">
      <path d="M 74.73941 573.342261 
L 825.6 573.342261 
" clip-path="url(#p67a509c9c2)" style="fill: none; stroke: #cccccc; stroke-width: 0.8; stroke-linecap: round"/>
     </g>
     <g id="text_23">
      <!-- $\mathdefault{10^{2}}$ -->
      <g style="fill: #262626" transform="translate(38.98341 579.942261) scale(0.176 -0.176)">
       <use xlink:href="#Roboto-Regular-31" transform="translate(0 0.565625)"/>
       <use xlink:href="#Roboto-Regular-30" transform="translate(56.201172 0.565625)"/>
       <use xlink:href="#Roboto-Regular-32" transform="translate(113.326836 37.545313) scale(0.7)"/>
      </g>
     </g>
    </g>
    <g id="ytick_8">
     <g id="line2d_39">
      <path d="M 74.73941 507.09013 
L 825.6 507.09013 
" clip-path="url(#p67a509c9c2)" style="fill: none; stroke: #cccccc; stroke-width: 0.8; stroke-linecap: round"/>
     </g>
     <g id="text_24">
      <!-- $\mathdefault{10^{3}}$ -->
      <g style="fill: #262626" transform="translate(38.98341 513.69013) scale(0.176 -0.176)">
       <use xlink:href="#Roboto-Regular-31" transform="translate(0 0.565625)"/>
       <use xlink:href="#Roboto-Regular-30" transform="translate(56.201172 0.565625)"/>
       <use xlink:href="#Roboto-Regular-33" transform="translate(113.326836 37.545313) scale(0.7)"/>
      </g>
     </g>
    </g>
    <g id="ytick_9">
     <g id="line2d_40">
      <path d="M 74.73941 440.838 
L 825.6 440.838 
" clip-path="url(#p67a509c9c2)" style="fill: none; stroke: #cccccc; stroke-width: 0.8; stroke-linecap: round"/>
     </g>
     <g id="text_25">
      <!-- $\mathdefault{10^{4}}$ -->
      <g style="fill: #262626" transform="translate(38.98341 447.438) scale(0.176 -0.176)">
       <use xlink:href="#Roboto-Regular-31" transform="translate(0 0.254688)"/>
       <use xlink:href="#Roboto-Regular-30" transform="translate(56.201172 0.254688)"/>
       <use xlink:href="#Roboto-Regular-34" transform="translate(113.326836 37.234375) scale(0.7)"/>
      </g>
     </g>
    </g>
   </g>
   <g id="line2d_41">
    <path d="M -1 603.17514 
L 2.367305 601.949817 
L 11.413818 588.523803 
L 20.460332 580.124684 
L 29.506845 593.867431 
L 38.553358 582.397413 
L 47.599871 593.867431 
L 56.646384 665.958765 
L 65.692897 616.908159 
L 74.73941 607.040632 
L 83.785923 582.397413 
L 92.832437 575.430333 
L 101.87895 577.020402 
L 110.925463 576.373792 
L 119.971976 590.025341 
L 129.018489 674.236222 
L 138.065002 586.183251 
L 147.111515 582.397413 
L 156.158029 575.741394 
L 165.204542 601.949817 
L 174.251055 609.969219 
L 183.297568 573.923552 
L 192.344081 612.101523 
L 201.390594 607.040632 
L 210.437107 611.015623 
L 219.48362 575.741394 
L 228.530134 705.846522 
L 237.576647 607.040632 
L 246.62316 586.636377 
L 255.669673 579.762756 
L 264.716186 613.230018 
L 273.762699 639.594391 
L 282.809212 685.902643 
L 291.855725 598.996155 
L 300.902239 613.230018 
L 309.948752 589.516072 
L 318.995265 552.828603 
L 328.041778 540.328125 
L 337.088291 519.796562 
L 346.134804 498.285238 
L 355.181317 665.958765 
L 364.22783 584.018852 
L 373.274344 626.071008 
L 382.320857 592.157644 
L 391.36737 594.460708 
L 400.413883 589.516072 
L 409.460396 582.005938 
L 418.506909 581.238614 
L 427.553422 591.071744 
L 436.599935 654.292344 
L 445.646449 621.126371 
L 454.692962 582.794287 
L 463.739475 598.996155 
L 472.785988 605.241738 
L 481.832501 618.246677 
L 490.879014 577.349239 
L 499.925527 593.867431 
L 508.972041 576.055856 
L 518.018554 576.695281 
L 527.065067 615.629152 
L 536.11158 581.238614 
L 545.158093 598.996155 
L 554.204606 615.629152 
L 563.251119 654.292344 
L 572.297632 587.096754 
L 581.344146 596.317671 
L 590.390659 577.349239 
L 599.437172 601.949817 
L 608.483685 588.040213 
L 617.530198 574.818119 
L 626.576711 582.794287 
L 635.623224 605.241738 
L 644.669737 580.124684 
L 653.716251 576.373792 
L 662.762764 586.183251 
L 671.809277 634.348465 
L 680.85579 642.625923 
L 689.902303 576.695281 
L 698.948816 595.066476 
L 707.995329 586.183251 
L 717.041842 582.794287 
L 726.088356 590.025341 
L 735.134869 627.92797 
L 744.181382 588.523803 
L 753.227895 591.071744 
L 762.274408 576.373792 
L 771.320921 626.071008 
L 780.367434 556.111977 
L 789.413947 544.657123 
L 798.460461 513.474682 
L 807.506974 483.616963 
L 816.553487 626.071008 
L 825.6 582.397413 
" clip-path="url(#p67a509c9c2)" style="fill: none; stroke-dasharray: 1.2,1.98; stroke-dashoffset: 0; stroke: #4c72b0; stroke-width: 1.2"/>
   </g>
   <g id="line2d_42">
    <path d="M 757.751152 779.46 
L 757.751152 440.838 
" clip-path="url(#p67a509c9c2)" style="fill: none; stroke-dasharray: 4.44,1.92; stroke-dashoffset: 0; stroke: #ff0000; stroke-width: 1.2"/>
   </g>
   <g id="line2d_43">
    <path d="M -1 575.457495 
L 2.367305 582.220857 
L 11.413818 565.028393 
L 20.460332 578.627189 
L 29.506845 571.555131 
L 38.553358 568.91693 
L 47.599871 568.030364 
L 56.646384 577.724895 
L 65.692897 582.028439 
L 74.73941 583.895834 
L 83.785923 565.893377 
L 92.832437 574.052925 
L 101.87895 573.030186 
L 110.925463 569.246059 
L 119.971976 564.772295 
L 129.018489 574.64945 
L 138.065002 576.21251 
L 147.111515 566.975854 
L 156.158029 582.483479 
L 165.204542 573.055139 
L 174.251055 604.663651 
L 183.297568 573.756041 
L 192.344081 559.549036 
L 201.390594 570.152062 
L 210.437107 577.575177 
L 219.48362 603.223463 
L 228.530134 579.001741 
L 237.576647 581.803047 
L 246.62316 586.356006 
L 255.669673 568.123458 
L 264.716186 571.89136 
L 273.762699 624.94758 
L 282.809212 571.597479 
L 291.855725 581.731316 
L 300.902239 606.259209 
L 309.948752 581.468731 
L 318.995265 574.57999 
L 328.041778 555.461393 
L 337.088291 563.062424 
L 346.134804 538.225417 
L 355.181317 520.874573 
L 364.22783 571.55193 
L 373.274344 779.46 
L 382.320857 779.46 
L 391.36737 571.674799 
L 400.413883 567.725972 
L 409.460396 579.536246 
L 418.506909 564.035509 
L 427.553422 567.737918 
L 436.599935 579.420187 
L 445.646449 586.221769 
L 454.692962 575.906673 
L 463.739475 563.342717 
L 472.785988 569.775376 
L 481.832501 575.462103 
L 490.879014 582.760294 
L 499.925527 585.130474 
L 508.972041 574.09316 
L 518.018554 558.007542 
L 527.065067 571.975051 
L 536.11158 572.098811 
L 545.158093 587.17275 
L 554.204606 577.662307 
L 563.251119 582.331698 
L 572.297632 585.053137 
L 581.344146 570.190448 
L 590.390659 559.97644 
L 599.437172 581.949485 
L 608.483685 597.143211 
L 617.530198 579.74656 
L 626.576711 560.012435 
L 635.623224 571.099822 
L 644.669737 576.401235 
L 653.716251 566.438924 
L 662.762764 578.833218 
L 671.809277 580.021667 
L 680.85579 590.689135 
L 689.902303 567.195659 
L 698.948816 594.19469 
L 707.995329 572.900546 
L 717.041842 567.436384 
L 726.088356 573.334717 
L 735.134869 572.864949 
L 744.181382 581.132772 
L 753.227895 559.544755 
L 762.274408 563.029538 
L 771.320921 576.007306 
L 780.367434 588.948596 
L 789.413947 567.64102 
L 798.460461 550.537519 
L 807.506974 530.382514 
L 816.553487 507.037543 
L 825.6 555.292236 
" clip-path="url(#p67a509c9c2)" style="fill: none; stroke: #dd8452; stroke-width: 1.2; stroke-linecap: round"/>
   </g>
   <g id="line2d_44">
    <path d="M -1 583.755714 
L 2.367305 589.076473 
L 11.413818 580.876205 
L 20.460332 587.213083 
L 29.506845 579.139483 
L 38.553358 588.327845 
L 47.599871 588.088088 
L 56.646384 595.764026 
L 65.692897 596.630037 
L 74.73941 588.743627 
L 83.785923 580.532906 
L 92.832437 573.095597 
L 101.87895 577.995932 
L 110.925463 586.812524 
L 119.971976 598.570202 
L 129.018489 614.561766 
L 138.065002 621.619361 
L 147.111515 588.416104 
L 156.158029 582.379968 
L 165.204542 579.482562 
L 174.251055 606.402784 
L 183.297568 603.615382 
L 192.344081 585.812713 
L 201.390594 593.948476 
L 210.437107 590.913536 
L 219.48362 598.009193 
L 228.530134 576.278184 
L 237.576647 596.770958 
L 246.62316 587.246258 
L 255.669673 587.68861 
L 264.716186 577.850929 
L 273.762699 597.401122 
L 282.809212 602.802505 
L 291.855725 596.114315 
L 300.902239 577.960515 
L 309.948752 580.616221 
L 318.995265 578.445787 
L 328.041778 571.576256 
L 337.088291 574.468566 
L 346.134804 570.889453 
L 355.181317 563.861061 
L 364.22783 779.46 
L 373.274344 779.46 
L 382.320857 779.46 
L 391.36737 582.276276 
L 400.413883 593.413003 
L 409.460396 585.746878 
L 418.506909 591.325224 
L 427.553422 594.321868 
L 436.599935 605.652403 
L 445.646449 625.046949 
L 454.692962 600.895869 
L 463.739475 582.767835 
L 472.785988 586.177187 
L 481.832501 593.265143 
L 490.879014 603.437349 
L 499.925527 582.657073 
L 508.972041 593.758468 
L 518.018554 588.771662 
L 527.065067 608.534363 
L 536.11158 629.553491 
L 545.158093 607.077202 
L 554.204606 613.813451 
L 563.251119 599.065087 
L 572.297632 609.576601 
L 581.344146 584.29533 
L 590.390659 588.287824 
L 599.437172 584.506063 
L 608.483685 615.606359 
L 617.530198 600.693588 
L 626.576711 600.631864 
L 635.623224 602.664948 
L 644.669737 635.281122 
L 653.716251 610.537451 
L 662.762764 601.420635 
L 671.809277 607.978443 
L 680.85579 779.46 
L 689.902303 627.429999 
L 698.948816 586.145497 
L 707.995329 592.495911 
L 717.041842 595.077723 
L 726.088356 615.467534 
L 735.134869 609.616055 
L 744.181382 636.358346 
L 753.227895 602.661825 
L 762.274408 599.840435 
L 771.320921 589.942399 
L 780.367434 647.763172 
L 789.413947 584.16421 
L 798.460461 590.853963 
L 807.506974 557.946879 
L 816.553487 536.228083 
L 825.6 779.46 
" clip-path="url(#p67a509c9c2)" style="fill: none; stroke: #55a868; stroke-width: 1.2; stroke-linecap: round"/>
   </g>
   <g id="line2d_45">
    <path d="M -1 589.913866 
L 2.367305 596.634155 
L 11.413818 577.906644 
L 20.460332 595.846616 
L 29.506845 585.393336 
L 38.553358 590.047711 
L 47.599871 592.322791 
L 56.646384 602.177473 
L 65.692897 590.284665 
L 74.73941 589.263301 
L 83.785923 584.641508 
L 92.832437 577.548729 
L 101.87895 585.615936 
L 110.925463 592.225243 
L 119.971976 607.469289 
L 129.018489 620.230395 
L 138.065002 607.860686 
L 147.111515 595.388665 
L 156.158029 593.065139 
L 165.204542 583.691149 
L 174.251055 605.618813 
L 183.297568 598.80778 
L 192.344081 600.583502 
L 201.390594 595.466697 
L 210.437107 585.703262 
L 219.48362 604.641131 
L 228.530134 583.270085 
L 237.576647 593.70653 
L 246.62316 583.00254 
L 255.669673 601.510373 
L 264.716186 582.869002 
L 273.762699 593.920709 
L 282.809212 595.59629 
L 291.855725 596.145384 
L 300.902239 581.169134 
L 309.948752 582.387398 
L 318.995265 580.254452 
L 328.041778 591.468036 
L 337.088291 619.6073 
L 346.134804 779.46 
L 355.181317 779.46 
L 364.22783 779.46 
L 373.274344 779.46 
L 382.320857 779.46 
L 391.36737 581.468361 
L 400.413883 602.238511 
L 409.460396 587.413037 
L 418.506909 598.937106 
L 427.553422 601.611076 
L 436.599935 607.44902 
L 445.646449 611.027203 
L 454.692962 599.327616 
L 463.739475 592.294307 
L 472.785988 588.309223 
L 481.832501 589.462205 
L 490.879014 603.854003 
L 499.925527 590.788869 
L 508.972041 599.326576 
L 518.018554 592.023659 
L 527.065067 638.71345 
L 536.11158 612.739685 
L 545.158093 615.525776 
L 554.204606 630.800893 
L 563.251119 592.400169 
L 572.297632 606.051535 
L 581.344146 590.092394 
L 590.390659 593.233766 
L 599.437172 588.337564 
L 608.483685 619.218919 
L 617.530198 600.161999 
L 626.576711 626.257434 
L 635.623224 609.044266 
L 644.669737 619.191317 
L 653.716251 627.122857 
L 662.762764 624.382459 
L 671.809277 608.603614 
L 680.85579 634.980307 
L 689.902303 617.062506 
L 698.948816 599.524235 
L 707.995329 597.209421 
L 717.041842 592.911047 
L 726.088356 642.486378 
L 735.134869 612.09666 
L 744.181382 618.965574 
L 753.227895 608.90612 
L 762.274408 610.481778 
L 771.320921 595.522334 
L 780.367434 630.797093 
L 789.413947 603.023953 
L 798.460461 779.46 
L 807.506974 779.46 
L 816.553487 779.46 
L 825.6 779.46 
" clip-path="url(#p67a509c9c2)" style="fill: none; stroke: #c44e52; stroke-width: 1.2; stroke-linecap: round"/>
   </g>
   <g id="line2d_46">
    <path d="M -1 670.198584 
L 2.367305 779.46 
L 11.413818 554.728756 
L 20.460332 511.930967 
L 29.506845 525.00105 
L 38.553358 779.46 
L 47.599871 504.063032 
L 56.646384 779.46 
L 65.692897 779.46 
L 74.73941 537.079749 
L 83.785923 779.46 
L 92.832437 544.054784 
L 101.87895 546.521607 
L 110.925463 550.236589 
L 119.971976 511.209715 
L 129.018489 586.853284 
L 138.065002 779.46 
L 147.111515 497.709659 
L 156.158029 779.46 
L 165.204542 558.656926 
L 174.251055 779.46 
L 183.297568 779.46 
L 192.344081 495.548748 
L 201.390594 779.46 
L 210.437107 779.46 
L 219.48362 779.46 
L 228.530134 520.36498 
L 237.576647 779.46 
L 246.62316 581.560071 
L 255.669673 779.46 
L 264.716186 779.46 
L 273.762699 779.46 
L 282.809212 779.46 
L 291.855725 779.46 
L 300.902239 779.46 
L 309.948752 779.46 
L 318.995265 779.46 
L 328.041778 478.92599 
L 337.088291 475.079924 
L 346.134804 438.080646 
L 355.181317 413.851525 
L 364.22783 779.46 
L 373.274344 424.4205 
L 382.320857 446.447988 
L 391.36737 779.46 
L 400.413883 779.46 
L 409.460396 779.46 
L 418.506909 779.46 
L 427.553422 779.46 
L 436.599935 779.46 
L 445.646449 779.46 
L 454.692962 779.46 
L 463.739475 779.46 
L 472.785988 779.46 
L 481.832501 779.46 
L 490.879014 779.46 
L 499.925527 779.46 
L 508.972041 779.46 
L 518.018554 779.46 
L 527.065067 779.46 
L 536.11158 779.46 
L 545.158093 538.895228 
L 554.204606 779.46 
L 563.251119 779.46 
L 572.297632 779.46 
L 581.344146 779.46 
L 590.390659 779.46 
L 599.437172 779.46 
L 608.483685 779.46 
L 617.530198 779.46 
L 626.576711 779.46 
L 635.623224 779.46 
L 644.669737 779.46 
L 653.716251 779.46 
L 662.762764 779.46 
L 671.809277 779.46 
L 680.85579 779.46 
L 689.902303 779.46 
L 698.948816 779.46 
L 707.995329 779.46 
L 717.041842 779.46 
L 726.088356 779.46 
L 735.134869 779.46 
L 744.181382 779.46 
L 753.227895 779.46 
L 762.274408 779.46 
L 771.320921 779.46 
L 780.367434 779.46 
L 789.413947 486.788885 
L 798.460461 508.931366 
L 807.506974 431.820815 
L 816.553487 398.587157 
L 825.6 779.46 
" clip-path="url(#p67a509c9c2)" style="fill: none; stroke: #8172b3; stroke-width: 1.2; stroke-linecap: round"/>
   </g>
   <g id="line2d_47">
    <path d="M -1 587.469511 
L 2.367305 593.635053 
L 11.413818 578.429034 
L 20.460332 593.329323 
L 29.506845 581.312502 
L 38.553358 586.570447 
L 47.599871 587.842114 
L 56.646384 597.290272 
L 65.692897 593.659316 
L 74.73941 594.157487 
L 83.785923 587.557429 
L 92.832437 576.716851 
L 101.87895 580.349263 
L 110.925463 584.47759 
L 119.971976 594.678528 
L 129.018489 607.763509 
L 138.065002 613.433789 
L 147.111515 596.229208 
L 156.158029 589.403194 
L 165.204542 579.115434 
L 174.251055 601.445923 
L 183.297568 601.764741 
L 192.344081 595.231021 
L 201.390594 594.645915 
L 210.437107 588.747243 
L 219.48362 611.179481 
L 228.530134 581.665723 
L 237.576647 597.109008 
L 246.62316 587.766613 
L 255.669673 602.233456 
L 264.716186 580.788228 
L 273.762699 595.14824 
L 282.809212 604.179361 
L 291.855725 609.48824 
L 300.902239 586.020478 
L 309.948752 586.761223 
L 318.995265 582.304846 
L 328.041778 578.745778 
L 337.088291 575.271058 
L 346.134804 566.250851 
L 355.181317 558.797519 
L 364.22783 779.46 
L 373.274344 779.46 
L 382.320857 779.46 
L 391.36737 584.789407 
L 400.413883 605.392711 
L 409.460396 588.903711 
L 418.506909 597.385576 
L 427.553422 597.974561 
L 436.599935 606.234152 
L 445.646449 626.658697 
L 454.692962 613.922053 
L 463.739475 595.43631 
L 472.785988 590.96046 
L 481.832501 594.884766 
L 490.879014 617.429362 
L 499.925527 592.040911 
L 508.972041 600.327726 
L 518.018554 590.43908 
L 527.065067 620.589157 
L 536.11158 618.824979 
L 545.158093 618.853726 
L 554.204606 640.912582 
L 563.251119 600.881322 
L 572.297632 631.641313 
L 581.344146 596.616038 
L 590.390659 598.21156 
L 599.437172 588.804926 
L 608.483685 626.244539 
L 617.530198 605.191279 
L 626.576711 620.189624 
L 635.623224 606.065448 
L 644.669737 630.96168 
L 653.716251 632.975957 
L 662.762764 617.9631 
L 671.809277 608.125032 
L 680.85579 779.46 
L 689.902303 725.422005 
L 698.948816 605.24088 
L 707.995329 601.483922 
L 717.041842 597.033538 
L 726.088356 649.291719 
L 735.134869 617.995019 
L 744.181382 656.900117 
L 753.227895 624.579401 
L 762.274408 621.264422 
L 771.320921 596.804352 
L 780.367434 681.351852 
L 789.413947 594.139753 
L 798.460461 605.907891 
L 807.506974 559.305607 
L 816.553487 539.07491 
L 825.6 779.46 
" clip-path="url(#p67a509c9c2)" style="fill: none; stroke: #937860; stroke-width: 1.2; stroke-linecap: round"/>
   </g>
   <g id="patch_9">
    <path d="M 74.73941 779.46 
L 74.73941 440.838 
" style="fill: none; stroke: #cccccc; stroke-linejoin: miter; stroke-linecap: square"/>
   </g>
   <g id="patch_10">
    <path d="M 825.6 779.46 
L 825.6 440.838 
" style="fill: none; stroke: #cccccc; stroke-linejoin: miter; stroke-linecap: square"/>
   </g>
   <g id="patch_11">
    <path d="M 74.73941 779.46 
L 825.6 779.46 
" style="fill: none; stroke: #cccccc; stroke-linejoin: miter; stroke-linecap: square"/>
   </g>
   <g id="patch_12">
    <path d="M 74.73941 440.838 
L 825.6 440.838 
" style="fill: none; stroke: #cccccc; stroke-linejoin: miter; stroke-linecap: square"/>
   </g>
  </g>
 </g>
 <defs>
  <clipPath id="p73cb30d271">
   <rect x="74.73941" y="45.672" width="750.86059" height="338.622"/>
  </clipPath>
  <clipPath id="p67a509c9c2">
   <rect x="74.73941" y="440.838" width="750.86059" height="338.622"/>
  </clipPath>
 </defs>
</svg>
