<?xml version="1.0" encoding="utf-8" standalone="no"?>
<!DOCTYPE svg PUBLIC "-//W3C//DTD SVG 1.1//EN"
  "http://www.w3.org/Graphics/SVG/1.1/DTD/svg11.dtd">
<svg xmlns:xlink="http://www.w3.org/1999/xlink" width="864pt" height="432pt" viewBox="0 0 864 432" xmlns="http://www.w3.org/2000/svg" version="1.1">
 <metadata>
  <rdf:RDF xmlns:dc="http://purl.org/dc/elements/1.1/" xmlns:cc="http://creativecommons.org/ns#" xmlns:rdf="http://www.w3.org/1999/02/22-rdf-syntax-ns#">
   <cc:Work>
    <dc:type rdf:resource="http://purl.org/dc/dcmitype/StillImage"/>
    <dc:date>2025-04-30T16:54:45.927064</dc:date>
    <dc:format>image/svg+xml</dc:format>
    <dc:creator>
     <cc:Agent>
      <dc:title>Matplotlib v3.10.1, https://matplotlib.org/</dc:title>
     </cc:Agent>
    </dc:creator>
   </cc:Work>
  </rdf:RDF>
 </metadata>
 <defs>
  <style type="text/css">*{stroke-linejoin: round; stroke-linecap: butt}</style>
 </defs>
 <g id="figure_1">
  <g id="patch_1">
   <path d="M 0 432 
L 864 432 
L 864 0 
L 0 0 
L 0 432 
z
" style="fill: none"/>
  </g>
  <g id="axes_1">
   <g id="patch_2">
    <path d="M 66.5 393.6 
L 825.6 393.6 
L 825.6 38.4 
L 66.5 38.4 
L 66.5 393.6 
z
" style="fill: none"/>
   </g>
   <g id="matplotlib.axis_1">
    <g id="xtick_1">
     <g id="line2d_1">
      <path d="M 212.185859 393.6 
L 212.185859 38.4 
" clip-path="url(#p524dff4cee)" style="fill: none; stroke: #cccccc; stroke-width: 0.8; stroke-linecap: round"/>
     </g>
    </g>
    <g id="xtick_2">
     <g id="line2d_2">
      <path d="M 365.539394 393.6 
L 365.539394 38.4 
" clip-path="url(#p524dff4cee)" style="fill: none; stroke: #cccccc; stroke-width: 0.8; stroke-linecap: round"/>
     </g>
    </g>
    <g id="xtick_3">
     <g id="line2d_3">
      <path d="M 518.892929 393.6 
L 518.892929 38.4 
" clip-path="url(#p524dff4cee)" style="fill: none; stroke: #cccccc; stroke-width: 0.8; stroke-linecap: round"/>
     </g>
    </g>
    <g id="xtick_4">
     <g id="line2d_4">
      <path d="M 672.246465 393.6 
L 672.246465 38.4 
" clip-path="url(#p524dff4cee)" style="fill: none; stroke: #cccccc; stroke-width: 0.8; stroke-linecap: round"/>
     </g>
    </g>
    <g id="xtick_5">
     <g id="line2d_5">
      <path d="M 825.6 393.6 
L 825.6 38.4 
" clip-path="url(#p524dff4cee)" style="fill: none; stroke: #cccccc; stroke-width: 0.8; stroke-linecap: round"/>
     </g>
    </g>
   </g>
   <g id="matplotlib.axis_2">
    <g id="ytick_1">
     <g id="line2d_6">
      <path d="M 66.5 346.39683 
L 825.6 346.39683 
" clip-path="url(#p524dff4cee)" style="fill: none; stroke: #cccccc; stroke-width: 0.8; stroke-linecap: round"/>
     </g>
     <g id="text_1">
      <!-- 2 -->
      <g style="fill: #262626" transform="translate(48.30825 352.99683) scale(0.176 -0.176)">
       <defs>
        <path id="Roboto-Regular-32" d="M 3359 475 
L 3359 0 
L 381 0 
L 381 416 
L 1925 2134 
Q 2306 2566 2439 2819 
Q 2572 3072 2572 3328 
Q 2572 3663 2364 3900 
Q 2156 4138 1778 4138 
Q 1322 4138 1097 3878 
Q 872 3619 872 3213 
L 294 3213 
Q 294 3788 672 4200 
Q 1050 4613 1778 4613 
Q 2422 4613 2786 4278 
Q 3150 3944 3150 3397 
Q 3150 2997 2903 2592 
Q 2656 2188 2297 1797 
L 1078 475 
L 3359 475 
z
" transform="scale(0.015625)"/>
       </defs>
       <use xlink:href="#Roboto-Regular-32"/>
      </g>
     </g>
    </g>
    <g id="ytick_2">
     <g id="line2d_7">
      <path d="M 66.5 284.281399 
L 825.6 284.281399 
" clip-path="url(#p524dff4cee)" style="fill: none; stroke: #cccccc; stroke-width: 0.8; stroke-linecap: round"/>
     </g>
     <g id="text_2">
      <!-- 4 -->
      <g style="fill: #262626" transform="translate(48.30825 290.881399) scale(0.176 -0.176)">
       <defs>
        <path id="Roboto-Regular-34" d="M 166 1397 
L 2203 4550 
L 2819 4550 
L 2819 1531 
L 3453 1531 
L 3453 1056 
L 2819 1056 
L 2819 0 
L 2241 0 
L 2241 1056 
L 166 1056 
L 166 1397 
z
M 822 1531 
L 2241 1531 
L 2241 3766 
L 2169 3638 
L 822 1531 
z
" transform="scale(0.015625)"/>
       </defs>
       <use xlink:href="#Roboto-Regular-34"/>
      </g>
     </g>
    </g>
    <g id="ytick_3">
     <g id="line2d_8">
      <path d="M 66.5 222.165969 
L 825.6 222.165969 
" clip-path="url(#p524dff4cee)" style="fill: none; stroke: #cccccc; stroke-width: 0.8; stroke-linecap: round"/>
     </g>
     <g id="text_3">
      <!-- 6 -->
      <g style="fill: #262626" transform="translate(48.30825 228.765969) scale(0.176 -0.176)">
       <defs>
        <path id="Roboto-Regular-36" d="M 3291 1484 
Q 3291 838 2930 387 
Q 2569 -63 1878 -63 
Q 1388 -63 1063 198 
Q 738 459 577 861 
Q 416 1263 416 1684 
L 416 1956 
Q 416 2597 595 3194 
Q 775 3791 1247 4173 
Q 1719 4556 2597 4556 
L 2647 4556 
L 2647 4066 
Q 2041 4066 1705 3853 
Q 1369 3641 1205 3302 
Q 1041 2963 1006 2575 
Q 1369 2984 1984 2984 
Q 2438 2984 2727 2765 
Q 3016 2547 3153 2201 
Q 3291 1856 3291 1484 
z
M 997 1666 
Q 997 1059 1267 737 
Q 1538 416 1878 416 
Q 2278 416 2498 708 
Q 2719 1000 2719 1456 
Q 2719 1863 2516 2184 
Q 2313 2506 1891 2506 
Q 1588 2506 1341 2325 
Q 1094 2144 997 1884 
L 997 1666 
z
" transform="scale(0.015625)"/>
       </defs>
       <use xlink:href="#Roboto-Regular-36"/>
      </g>
     </g>
    </g>
    <g id="ytick_4">
     <g id="line2d_9">
      <path d="M 66.5 160.050538 
L 825.6 160.050538 
" clip-path="url(#p524dff4cee)" style="fill: none; stroke: #cccccc; stroke-width: 0.8; stroke-linecap: round"/>
     </g>
     <g id="text_4">
      <!-- 8 -->
      <g style="fill: #262626" transform="translate(48.30825 166.650538) scale(0.176 -0.176)">
       <defs>
        <path id="Roboto-Regular-38" d="M 3244 1231 
Q 3244 606 2826 271 
Q 2409 -63 1796 -63 
Q 1184 -63 767 271 
Q 350 606 350 1231 
Q 350 1613 554 1905 
Q 759 2197 1109 2347 
Q 806 2494 629 2762 
Q 453 3031 453 3366 
Q 453 3963 833 4288 
Q 1213 4613 1794 4613 
Q 2378 4613 2758 4288 
Q 3138 3963 3138 3366 
Q 3138 3028 2956 2761 
Q 2775 2494 2472 2347 
Q 2825 2197 3034 1903 
Q 3244 1609 3244 1231 
z
M 2559 3356 
Q 2559 3697 2346 3917 
Q 2134 4138 1793 4138 
Q 1453 4138 1243 3927 
Q 1034 3716 1034 3356 
Q 1034 3003 1243 2790 
Q 1453 2578 1797 2578 
Q 2138 2578 2348 2790 
Q 2559 3003 2559 3356 
z
M 2663 1244 
Q 2663 1625 2420 1865 
Q 2178 2106 1791 2106 
Q 1394 2106 1161 1865 
Q 928 1625 928 1244 
Q 928 850 1161 631 
Q 1394 413 1797 413 
Q 2200 413 2431 631 
Q 2663 850 2663 1244 
z
" transform="scale(0.015625)"/>
       </defs>
       <use xlink:href="#Roboto-Regular-38"/>
      </g>
     </g>
    </g>
    <g id="ytick_5">
     <g id="line2d_10">
      <path d="M 66.5 97.935107 
L 825.6 97.935107 
" clip-path="url(#p524dff4cee)" style="fill: none; stroke: #cccccc; stroke-width: 0.8; stroke-linecap: round"/>
     </g>
     <g id="text_5">
      <!-- 10 -->
      <g style="fill: #262626" transform="translate(38.4165 104.535107) scale(0.176 -0.176)">
       <defs>
        <path id="Roboto-Regular-31" d="M 2278 4575 
L 2278 0 
L 1700 0 
L 1700 3853 
L 534 3428 
L 534 3950 
L 2188 4575 
L 2278 4575 
z
" transform="scale(0.015625)"/>
        <path id="Roboto-Regular-30" d="M 3234 1944 
Q 3234 825 2848 381 
Q 2463 -63 1800 -63 
Q 1156 -63 764 368 
Q 372 800 359 1872 
L 359 2638 
Q 359 3753 750 4183 
Q 1141 4613 1794 4613 
Q 2447 4613 2834 4195 
Q 3222 3778 3234 2709 
L 3234 1944 
z
M 2653 2734 
Q 2653 3503 2434 3822 
Q 2216 4141 1794 4141 
Q 1388 4141 1167 3831 
Q 947 3522 941 2778 
L 941 1850 
Q 941 1088 1164 750 
Q 1388 413 1800 413 
Q 2222 413 2436 745 
Q 2650 1078 2653 1825 
L 2653 2734 
z
" transform="scale(0.015625)"/>
       </defs>
       <use xlink:href="#Roboto-Regular-31"/>
       <use xlink:href="#Roboto-Regular-30" transform="translate(56.201172 0)"/>
      </g>
     </g>
    </g>
   </g>
   <g id="line2d_11">
    <path d="M 66.5 372.193351 
L 74.167677 377.454545 
L 81.835354 365.549142 
L 89.50303 342.304683 
L 97.170707 351.86367 
L 104.838384 363.793472 
L 112.506061 106.495558 
L 120.173737 375.565862 
L 127.841414 377.159804 
L 135.509091 377.454545 
L 143.176768 347.039847 
L 150.844444 369.040495 
L 158.512121 177.025079 
L 166.179798 93.84432 
L 173.847475 71.319146 
L 181.515152 348.53501 
L 189.182828 257.798315 
L 196.850505 260.998955 
L 204.518182 377.454545 
L 212.185859 377.454545 
L 219.853535 367.439062 
L 227.521212 374.782215 
L 235.188889 167.856767 
L 242.856566 356.217093 
L 250.524242 352.718313 
L 258.191919 345.071374 
L 265.859596 211.02423 
L 273.527273 364.388378 
L 281.194949 372.545926 
L 288.862626 372.029782 
L 296.530303 376.204668 
L 304.19798 360.164199 
L 311.865657 343.864257 
L 319.533333 335.284815 
L 327.20101 340.936167 
L 334.868687 75.515422 
L 342.536364 335.164012 
L 350.20404 352.732679 
L 357.871717 377.454545 
L 365.539394 373.151767 
L 373.207071 371.416687 
L 380.874747 268.652945 
L 388.542424 355.945308 
L 396.210101 345.034728 
L 403.877778 337.663166 
L 411.545455 86.297184 
L 419.213131 354.507949 
L 426.880808 357.998177 
L 434.548485 372.867306 
L 442.216162 374.915472 
L 449.883838 369.435139 
L 457.551515 356.48678 
L 465.219192 347.669235 
L 472.886869 346.015756 
L 480.554545 344.460548 
L 488.222222 360.218943 
L 495.889899 354.875851 
L 503.557576 291.678119 
L 511.225253 377.454545 
L 518.892929 374.424047 
L 526.560606 375.002095 
L 534.228283 363.764473 
L 541.89596 361.959506 
L 549.563636 338.704953 
L 557.231313 59.509754 
L 564.89899 338.824515 
L 572.566667 351.93627 
L 580.234343 365.688557 
L 587.90202 376.930972 
L 595.569697 377.307762 
L 603.237374 370.26303 
L 610.905051 362.351322 
L 618.572727 366.34232 
L 626.240404 340.262263 
L 633.908081 348.389878 
L 641.575758 58.383294 
L 649.243434 362.503099 
L 656.911111 256.914779 
L 664.578788 377.454545 
L 672.246465 376.851916 
L 679.914141 376.009798 
L 687.581818 368.51439 
L 695.249495 194.094681 
L 702.917172 350.725201 
L 710.584848 362.614871 
L 718.252525 341.584989 
L 725.920202 140.375909 
L 733.587879 279.342073 
L 741.255556 377.454545 
L 748.923232 377.454545 
L 756.590909 339.166878 
L 764.258586 362.80349 
L 771.926263 359.442068 
L 779.593939 54.545455 
L 787.261616 356.100634 
L 794.929293 354.798165 
L 802.59697 157.496731 
L 810.264646 272.143356 
L 817.932323 377.454545 
L 825.6 377.454545 
" clip-path="url(#p524dff4cee)" style="fill: none; stroke: #4c72b0; stroke-width: 2; stroke-linecap: round"/>
   </g>
   <g id="line2d_12">
    <path d="M 66.5 361.925688 
L 74.167677 361.925688 
L 81.835354 361.925688 
L 89.50303 361.925688 
L 97.170707 361.925688 
L 104.838384 361.925688 
L 112.506061 174.179159 
L 120.173737 361.925688 
L 127.841414 361.925688 
L 135.509091 377.454545 
L 143.176768 347.797066 
L 150.844444 361.925688 
L 158.512121 174.179159 
L 166.179798 96.534871 
L 173.847475 66.877392 
L 181.515152 361.925688 
L 189.182828 174.179159 
L 196.850505 270.152778 
L 204.518182 361.925688 
L 212.185859 361.925688 
L 219.853535 361.925688 
L 227.521212 361.925688 
L 235.188889 174.179159 
L 242.856566 361.925688 
L 250.524242 361.925688 
L 258.191919 361.925688 
L 265.859596 174.179159 
L 273.527273 361.925688 
L 281.194949 361.925688 
L 288.862626 361.925688 
L 296.530303 361.925688 
L 304.19798 361.925688 
L 311.865657 361.925688 
L 319.533333 361.925688 
L 327.20101 361.925688 
L 334.868687 96.534871 
L 342.536364 361.925688 
L 350.20404 361.925688 
L 357.871717 361.925688 
L 365.539394 361.925688 
L 373.207071 361.925688 
L 380.874747 270.152778 
L 388.542424 361.925688 
L 396.210101 361.925688 
L 403.877778 361.925688 
L 411.545455 96.534871 
L 419.213131 361.925688 
L 426.880808 361.925688 
L 434.548485 361.925688 
L 442.216162 361.925688 
L 449.883838 361.925688 
L 457.551515 361.925688 
L 465.219192 361.925688 
L 472.886869 361.925688 
L 480.554545 361.925688 
L 488.222222 361.925688 
L 495.889899 361.925688 
L 503.557576 270.152778 
L 511.225253 361.925688 
L 518.892929 361.925688 
L 526.560606 361.925688 
L 534.228283 361.925688 
L 541.89596 361.925688 
L 549.563636 361.925688 
L 557.231313 66.877392 
L 564.89899 361.925688 
L 572.566667 361.925688 
L 580.234343 361.925688 
L 587.90202 361.925688 
L 595.569697 361.925688 
L 603.237374 361.925688 
L 610.905051 361.925688 
L 618.572727 361.925688 
L 626.240404 361.925688 
L 633.908081 361.925688 
L 641.575758 96.534871 
L 649.243434 361.925688 
L 656.911111 270.152778 
L 664.578788 361.925688 
L 672.246465 361.925688 
L 679.914141 361.925688 
L 687.581818 361.925688 
L 695.249495 174.179159 
L 702.917172 361.925688 
L 710.584848 361.925688 
L 718.252525 361.925688 
L 725.920202 174.179159 
L 733.587879 270.152778 
L 741.255556 361.925688 
L 748.923232 361.925688 
L 756.590909 347.797066 
L 764.258586 361.925688 
L 771.926263 361.925688 
L 779.593939 96.534871 
L 787.261616 361.925688 
L 794.929293 361.925688 
L 802.59697 174.179159 
L 810.264646 270.152778 
L 817.932323 361.925688 
L 825.6 377.454545 
" clip-path="url(#p524dff4cee)" style="fill: none; stroke: #dd8452; stroke-width: 2; stroke-linecap: round"/>
   </g>
   <g id="line2d_13">
    <path d="M 66.5 374.488798 
L 74.167677 366.724369 
L 81.835354 357.127007 
L 89.50303 349.362578 
L 97.170707 346.39683 
L 104.838384 349.362578 
L 112.506061 174.179159 
L 120.173737 366.724369 
L 127.841414 374.488798 
L 135.509091 377.454545 
L 143.176768 347.797066 
L 150.844444 366.724369 
L 158.512121 174.179159 
L 166.179798 96.534871 
L 173.847475 66.877392 
L 181.515152 349.362578 
L 189.182828 174.179159 
L 196.850505 270.152778 
L 204.518182 374.488798 
L 212.185859 377.454545 
L 219.853535 374.488798 
L 227.521212 366.724369 
L 235.188889 174.179159 
L 242.856566 349.362578 
L 250.524242 346.39683 
L 258.191919 349.362578 
L 265.859596 174.179159 
L 273.527273 366.724369 
L 281.194949 374.488798 
L 288.862626 377.454545 
L 296.530303 374.488798 
L 304.19798 366.724369 
L 311.865657 357.127007 
L 319.533333 349.362578 
L 327.20101 346.39683 
L 334.868687 96.534871 
L 342.536364 357.127007 
L 350.20404 366.724369 
L 357.871717 374.488798 
L 365.539394 377.454545 
L 373.207071 374.488798 
L 380.874747 270.152778 
L 388.542424 357.127007 
L 396.210101 349.362578 
L 403.877778 346.39683 
L 411.545455 96.534871 
L 419.213131 357.127007 
L 426.880808 366.724369 
L 434.548485 374.488798 
L 442.216162 377.454545 
L 449.883838 374.488798 
L 457.551515 366.724369 
L 465.219192 357.127007 
L 472.886869 349.362578 
L 480.554545 346.39683 
L 488.222222 349.362578 
L 495.889899 357.127007 
L 503.557576 270.152778 
L 511.225253 374.488798 
L 518.892929 377.454545 
L 526.560606 374.488798 
L 534.228283 366.724369 
L 541.89596 357.127007 
L 549.563636 349.362578 
L 557.231313 66.877392 
L 564.89899 349.362578 
L 572.566667 357.127007 
L 580.234343 366.724369 
L 587.90202 374.488798 
L 595.569697 377.454545 
L 603.237374 374.488798 
L 610.905051 366.724369 
L 618.572727 357.127007 
L 626.240404 349.362578 
L 633.908081 346.39683 
L 641.575758 96.534871 
L 649.243434 357.127007 
L 656.911111 270.152778 
L 664.578788 374.488798 
L 672.246465 377.454545 
L 679.914141 374.488798 
L 687.581818 366.724369 
L 695.249495 174.179159 
L 702.917172 349.362578 
L 710.584848 346.39683 
L 718.252525 349.362578 
L 725.920202 174.179159 
L 733.587879 270.152778 
L 741.255556 374.488798 
L 748.923232 377.454545 
L 756.590909 347.797066 
L 764.258586 366.724369 
L 771.926263 357.127007 
L 779.593939 96.534871 
L 787.261616 346.39683 
L 794.929293 349.362578 
L 802.59697 174.179159 
L 810.264646 270.152778 
L 817.932323 374.488798 
L 825.6 377.454545 
" clip-path="url(#p524dff4cee)" style="fill: none; stroke-dasharray: 11.1,4.8; stroke-dashoffset: 0; stroke: #55a868; stroke-width: 3"/>
   </g>
   <g id="patch_3">
    <path d="M 66.5 393.6 
L 66.5 38.4 
" style="fill: none; stroke: #cccccc; stroke-linejoin: miter; stroke-linecap: square"/>
   </g>
   <g id="patch_4">
    <path d="M 825.6 393.6 
L 825.6 38.4 
" style="fill: none; stroke: #cccccc; stroke-linejoin: miter; stroke-linecap: square"/>
   </g>
   <g id="patch_5">
    <path d="M 66.5 393.6 
L 825.6 393.6 
" style="fill: none; stroke: #cccccc; stroke-linejoin: miter; stroke-linecap: square"/>
   </g>
   <g id="patch_6">
    <path d="M 66.5 38.4 
L 825.6 38.4 
" style="fill: none; stroke: #cccccc; stroke-linejoin: miter; stroke-linecap: square"/>
   </g>
   <g id="legend_1">
    <g id="patch_7">
     <path d="M 728.272 135.552 
L 813.28 135.552 
Q 816.8 135.552 816.8 132.032 
L 816.8 50.72 
Q 816.8 47.2 813.28 47.2 
L 728.272 47.2 
Q 724.752 47.2 724.752 50.72 
L 724.752 132.032 
Q 724.752 135.552 728.272 135.552 
z
" style="fill: #ffffff; opacity: 0.8; stroke: #cccccc; stroke-width: 0.8; stroke-linejoin: miter"/>
    </g>
    <g id="line2d_14">
     <path d="M 731.792 64.272 
L 749.392 64.272 
L 766.992 64.272 
" style="fill: none; stroke: #4c72b0; stroke-width: 2; stroke-linecap: round"/>
    </g>
    <g id="text_6">
     <!-- $\hat{y}^{(1)}$ -->
     <g style="fill: #262626" transform="translate(781.072 70.432) scale(0.176 -0.176)">
      <defs>
       <path id="DejaVuSans-302" d="M -1831 5119 
L -1369 5119 
L -603 3944 
L -1038 3944 
L -1600 4709 
L -2163 3944 
L -2597 3944 
L -1831 5119 
z
M -1600 3584 
L -1600 3584 
z
" transform="scale(0.015625)"/>
       <path id="DejaVuSans-Oblique-79" d="M 1588 -325 
Q 1188 -997 936 -1164 
Q 684 -1331 294 -1331 
L -159 -1331 
L -63 -850 
L 269 -850 
Q 509 -850 678 -719 
Q 847 -588 1056 -206 
L 1234 128 
L 459 3500 
L 1069 3500 
L 1650 819 
L 3256 3500 
L 3859 3500 
L 1588 -325 
z
" transform="scale(0.015625)"/>
       <path id="DejaVuSans-28" d="M 1984 4856 
Q 1566 4138 1362 3434 
Q 1159 2731 1159 2009 
Q 1159 1288 1364 580 
Q 1569 -128 1984 -844 
L 1484 -844 
Q 1016 -109 783 600 
Q 550 1309 550 2009 
Q 550 2706 781 3412 
Q 1013 4119 1484 4856 
L 1984 4856 
z
" transform="scale(0.015625)"/>
       <path id="DejaVuSans-31" d="M 794 531 
L 1825 531 
L 1825 4091 
L 703 3866 
L 703 4441 
L 1819 4666 
L 2450 4666 
L 2450 531 
L 3481 531 
L 3481 0 
L 794 0 
L 794 531 
z
" transform="scale(0.015625)"/>
       <path id="DejaVuSans-29" d="M 513 4856 
L 1013 4856 
Q 1481 4119 1714 3412 
Q 1947 2706 1947 2009 
Q 1947 1309 1714 600 
Q 1481 -109 1013 -844 
L 513 -844 
Q 928 -128 1133 580 
Q 1338 1288 1338 2009 
Q 1338 2731 1133 3434 
Q 928 4138 513 4856 
z
" transform="scale(0.015625)"/>
      </defs>
      <use xlink:href="#DejaVuSans-302" transform="translate(62.373047 11.79375)"/>
      <use xlink:href="#DejaVuSans-Oblique-79" transform="translate(0 0.60625)"/>
      <use xlink:href="#DejaVuSans-28" transform="translate(60.136719 38.8875) scale(0.7)"/>
      <use xlink:href="#DejaVuSans-31" transform="translate(87.446289 38.8875) scale(0.7)"/>
      <use xlink:href="#DejaVuSans-29" transform="translate(131.982422 38.8875) scale(0.7)"/>
     </g>
    </g>
    <g id="line2d_15">
     <path d="M 731.792 92.96 
L 749.392 92.96 
L 766.992 92.96 
" style="fill: none; stroke: #dd8452; stroke-width: 2; stroke-linecap: round"/>
    </g>
    <g id="text_7">
     <!-- $\hat{y}^{(2)}$ -->
     <g style="fill: #262626" transform="translate(781.072 99.12) scale(0.176 -0.176)">
      <defs>
       <path id="DejaVuSans-32" d="M 1228 531 
L 3431 531 
L 3431 0 
L 469 0 
L 469 531 
Q 828 903 1448 1529 
Q 2069 2156 2228 2338 
Q 2531 2678 2651 2914 
Q 2772 3150 2772 3378 
Q 2772 3750 2511 3984 
Q 2250 4219 1831 4219 
Q 1534 4219 1204 4116 
Q 875 4013 500 3803 
L 500 4441 
Q 881 4594 1212 4672 
Q 1544 4750 1819 4750 
Q 2544 4750 2975 4387 
Q 3406 4025 3406 3419 
Q 3406 3131 3298 2873 
Q 3191 2616 2906 2266 
Q 2828 2175 2409 1742 
Q 1991 1309 1228 531 
z
" transform="scale(0.015625)"/>
      </defs>
      <use xlink:href="#DejaVuSans-302" transform="translate(62.373047 11.79375)"/>
      <use xlink:href="#DejaVuSans-Oblique-79" transform="translate(0 0.60625)"/>
      <use xlink:href="#DejaVuSans-28" transform="translate(60.136719 38.8875) scale(0.7)"/>
      <use xlink:href="#DejaVuSans-32" transform="translate(87.446289 38.8875) scale(0.7)"/>
      <use xlink:href="#DejaVuSans-29" transform="translate(131.982422 38.8875) scale(0.7)"/>
     </g>
    </g>
    <g id="line2d_16">
     <path d="M 731.792 118.656 
L 749.392 118.656 
L 766.992 118.656 
" style="fill: none; stroke-dasharray: 11.1,4.8; stroke-dashoffset: 0; stroke: #55a868; stroke-width: 3"/>
    </g>
    <g id="text_8">
     <!-- $y$ -->
     <g style="fill: #262626" transform="translate(781.072 124.816) scale(0.176 -0.176)">
      <use xlink:href="#DejaVuSans-Oblique-79" transform="translate(0 0.3125)"/>
     </g>
    </g>
   </g>
  </g>
 </g>
 <defs>
  <clipPath id="p524dff4cee">
   <rect x="66.5" y="38.4" width="759.1" height="355.2"/>
  </clipPath>
 </defs>
</svg>
