<?xml version="1.0" encoding="utf-8" standalone="no"?>
<!DOCTYPE svg PUBLIC "-//W3C//DTD SVG 1.1//EN"
  "http://www.w3.org/Graphics/SVG/1.1/DTD/svg11.dtd">
<svg xmlns:xlink="http://www.w3.org/1999/xlink" width="864pt" height="432pt" viewBox="0 0 864 432" xmlns="http://www.w3.org/2000/svg" version="1.1">
 <metadata>
  <rdf:RDF xmlns:dc="http://purl.org/dc/elements/1.1/" xmlns:cc="http://creativecommons.org/ns#" xmlns:rdf="http://www.w3.org/1999/02/22-rdf-syntax-ns#">
   <cc:Work>
    <dc:type rdf:resource="http://purl.org/dc/dcmitype/StillImage"/>
    <dc:date>2025-01-02T13:58:59.062124</dc:date>
    <dc:format>image/svg+xml</dc:format>
    <dc:creator>
     <cc:Agent>
      <dc:title>Matplotlib v3.10.0, https://matplotlib.org/</dc:title>
     </cc:Agent>
    </dc:creator>
   </cc:Work>
  </rdf:RDF>
 </metadata>
 <defs>
  <style type="text/css">*{stroke-linejoin: round; stroke-linecap: butt}</style>
 </defs>
 <g id="figure_1">
  <g id="patch_1">
   <path d="M 0 432 
L 864 432 
L 864 0 
L 0 0 
L 0 432 
z
" style="fill: none"/>
  </g>
  <g id="axes_1">
   <g id="patch_2">
    <path d="M 71.18 186.72 
L 825.6 186.72 
L 825.6 38.4 
L 71.18 38.4 
L 71.18 186.72 
z
" style="fill: none"/>
   </g>
   <g id="matplotlib.axis_1">
    <g id="xtick_1">
     <g id="line2d_1">
      <path d="M 215.967677 186.72 
L 215.967677 38.4 
" clip-path="url(#pcf46a63071)" style="fill: none; stroke: #cccccc; stroke-width: 0.8; stroke-linecap: round"/>
     </g>
    </g>
    <g id="xtick_2">
     <g id="line2d_2">
      <path d="M 368.375758 186.72 
L 368.375758 38.4 
" clip-path="url(#pcf46a63071)" style="fill: none; stroke: #cccccc; stroke-width: 0.8; stroke-linecap: round"/>
     </g>
    </g>
    <g id="xtick_3">
     <g id="line2d_3">
      <path d="M 520.783838 186.72 
L 520.783838 38.4 
" clip-path="url(#pcf46a63071)" style="fill: none; stroke: #cccccc; stroke-width: 0.8; stroke-linecap: round"/>
     </g>
    </g>
    <g id="xtick_4">
     <g id="line2d_4">
      <path d="M 673.191919 186.72 
L 673.191919 38.4 
" clip-path="url(#pcf46a63071)" style="fill: none; stroke: #cccccc; stroke-width: 0.8; stroke-linecap: round"/>
     </g>
    </g>
    <g id="xtick_5">
     <g id="line2d_5">
      <path d="M 825.6 186.72 
L 825.6 38.4 
" clip-path="url(#pcf46a63071)" style="fill: none; stroke: #cccccc; stroke-width: 0.8; stroke-linecap: round"/>
     </g>
    </g>
   </g>
   <g id="matplotlib.axis_2">
    <g id="ytick_1">
     <g id="line2d_6">
      <path d="M 71.18 186.72 
L 825.6 186.72 
" clip-path="url(#pcf46a63071)" style="fill: none; stroke: #cccccc; stroke-width: 0.8; stroke-linecap: round"/>
     </g>
     <g id="text_1">
      <!-- 0 -->
      <g style="fill: #262626" transform="translate(52.98825 193.32) scale(0.176 -0.176)">
       <defs>
        <path id="Roboto-Regular-30" d="M 3234 1944 
Q 3234 825 2848 381 
Q 2463 -63 1800 -63 
Q 1156 -63 764 368 
Q 372 800 359 1872 
L 359 2638 
Q 359 3753 750 4183 
Q 1141 4613 1794 4613 
Q 2447 4613 2834 4195 
Q 3222 3778 3234 2709 
L 3234 1944 
z
M 2653 2734 
Q 2653 3503 2434 3822 
Q 2216 4141 1794 4141 
Q 1388 4141 1167 3831 
Q 947 3522 941 2778 
L 941 1850 
Q 941 1088 1164 750 
Q 1388 413 1800 413 
Q 2222 413 2436 745 
Q 2650 1078 2653 1825 
L 2653 2734 
z
" transform="scale(0.015625)"/>
       </defs>
       <use xlink:href="#Roboto-Regular-30"/>
      </g>
     </g>
    </g>
    <g id="ytick_2">
     <g id="line2d_7">
      <path d="M 71.18 145.79797 
L 825.6 145.79797 
" clip-path="url(#pcf46a63071)" style="fill: none; stroke: #cccccc; stroke-width: 0.8; stroke-linecap: round"/>
     </g>
     <g id="text_2">
      <!-- 2 -->
      <g style="fill: #262626" transform="translate(52.98825 152.39797) scale(0.176 -0.176)">
       <defs>
        <path id="Roboto-Regular-32" d="M 3359 475 
L 3359 0 
L 381 0 
L 381 416 
L 1925 2134 
Q 2306 2566 2439 2819 
Q 2572 3072 2572 3328 
Q 2572 3663 2364 3900 
Q 2156 4138 1778 4138 
Q 1322 4138 1097 3878 
Q 872 3619 872 3213 
L 294 3213 
Q 294 3788 672 4200 
Q 1050 4613 1778 4613 
Q 2422 4613 2786 4278 
Q 3150 3944 3150 3397 
Q 3150 2997 2903 2592 
Q 2656 2188 2297 1797 
L 1078 475 
L 3359 475 
z
" transform="scale(0.015625)"/>
       </defs>
       <use xlink:href="#Roboto-Regular-32"/>
      </g>
     </g>
    </g>
    <g id="ytick_3">
     <g id="line2d_8">
      <path d="M 71.18 104.875939 
L 825.6 104.875939 
" clip-path="url(#pcf46a63071)" style="fill: none; stroke: #cccccc; stroke-width: 0.8; stroke-linecap: round"/>
     </g>
     <g id="text_3">
      <!-- 4 -->
      <g style="fill: #262626" transform="translate(52.98825 111.475939) scale(0.176 -0.176)">
       <defs>
        <path id="Roboto-Regular-34" d="M 166 1397 
L 2203 4550 
L 2819 4550 
L 2819 1531 
L 3453 1531 
L 3453 1056 
L 2819 1056 
L 2819 0 
L 2241 0 
L 2241 1056 
L 166 1056 
L 166 1397 
z
M 822 1531 
L 2241 1531 
L 2241 3766 
L 2169 3638 
L 822 1531 
z
" transform="scale(0.015625)"/>
       </defs>
       <use xlink:href="#Roboto-Regular-34"/>
      </g>
     </g>
    </g>
    <g id="ytick_4">
     <g id="line2d_9">
      <path d="M 71.18 63.953909 
L 825.6 63.953909 
" clip-path="url(#pcf46a63071)" style="fill: none; stroke: #cccccc; stroke-width: 0.8; stroke-linecap: round"/>
     </g>
     <g id="text_4">
      <!-- 6 -->
      <g style="fill: #262626" transform="translate(52.98825 70.553909) scale(0.176 -0.176)">
       <defs>
        <path id="Roboto-Regular-36" d="M 3291 1484 
Q 3291 838 2930 387 
Q 2569 -63 1878 -63 
Q 1388 -63 1063 198 
Q 738 459 577 861 
Q 416 1263 416 1684 
L 416 1956 
Q 416 2597 595 3194 
Q 775 3791 1247 4173 
Q 1719 4556 2597 4556 
L 2647 4556 
L 2647 4066 
Q 2041 4066 1705 3853 
Q 1369 3641 1205 3302 
Q 1041 2963 1006 2575 
Q 1369 2984 1984 2984 
Q 2438 2984 2727 2765 
Q 3016 2547 3153 2201 
Q 3291 1856 3291 1484 
z
M 997 1666 
Q 997 1059 1267 737 
Q 1538 416 1878 416 
Q 2278 416 2498 708 
Q 2719 1000 2719 1456 
Q 2719 1863 2516 2184 
Q 2313 2506 1891 2506 
Q 1588 2506 1341 2325 
Q 1094 2144 997 1884 
L 997 1666 
z
" transform="scale(0.015625)"/>
       </defs>
       <use xlink:href="#Roboto-Regular-36"/>
      </g>
     </g>
    </g>
   </g>
   <g id="line2d_10">
    <path d="M 71.18 186.608231 
L 78.800404 184.277684 
L 86.420808 185.21536 
L 94.041212 185.663332 
L 101.661616 186.086041 
L 109.28202 182.302519 
L 116.902424 89.544881 
L 124.522828 185.06179 
L 132.143232 186.568665 
L 139.763636 186.72 
L 147.38404 186.707837 
L 155.004444 186.606208 
L 162.624848 186.548196 
L 170.245253 186.566443 
L 177.865657 186.301498 
L 185.486061 186.705472 
L 193.106465 38.4 
L 200.726869 184.942567 
L 208.347273 186.533424 
L 215.967677 186.72 
L 223.588081 185.665774 
L 231.208485 185.342708 
L 238.828889 185.872087 
L 246.449293 185.723352 
L 254.069697 185.872331 
L 261.690101 186.329387 
L 269.310505 157.923019 
L 276.930909 186.604247 
L 284.551313 186.639929 
L 292.171717 186.095763 
L 299.792121 186.657546 
L 307.412525 185.80711 
L 315.032929 182.988741 
L 322.653333 182.51607 
L 330.273737 186.087473 
L 337.894141 177.348032 
L 345.514545 176.487746 
L 353.134949 182.56732 
L 360.755354 186.533424 
L 368.375758 186.327277 
L 375.996162 186.519801 
L 383.616566 186.672283 
L 391.23697 186.690379 
L 398.857374 186.322687 
L 406.477778 185.10199 
L 414.098182 184.496732 
L 421.718586 186.574495 
L 429.33899 185.104758 
L 436.959394 186.664228 
L 444.579798 186.583246 
L 452.200202 186.178249 
L 459.820606 184.496774 
L 467.44101 184.82257 
L 475.061414 186.482396 
L 482.681818 186.640471 
L 490.302222 184.219902 
L 497.922626 186.612502 
L 505.54303 176.891478 
L 513.163434 186.533424 
L 520.783838 186.525188 
L 528.404242 186.714411 
L 536.024646 186.534159 
L 543.645051 186.224628 
L 551.265455 184.310599 
L 558.885859 185.568551 
L 566.506263 184.364355 
L 574.126667 186.148461 
L 581.747071 186.697241 
L 589.367475 186.593485 
L 596.987879 186.719543 
L 604.608283 186.341209 
L 612.228687 186.314345 
L 619.849091 184.918607 
L 627.469495 184.963286 
L 635.089899 186.63574 
L 642.710303 155.84456 
L 650.330707 186.106914 
L 657.951111 183.002655 
L 665.571515 186.533424 
L 673.191919 186.712296 
L 680.812323 186.670926 
L 688.432727 186.652032 
L 696.053131 178.3066 
L 703.673535 186.680614 
L 711.293939 181.140633 
L 718.914343 185.436848 
L 726.534747 162.481537 
L 734.155152 184.928765 
L 741.775556 186.533424 
L 749.39596 186.72 
L 757.016364 185.140103 
L 764.636768 186.393897 
L 772.257172 186.606312 
L 779.877576 149.320323 
L 787.49798 184.722567 
L 795.118384 186.093269 
L 802.738788 180.816539 
L 810.359192 186.635948 
L 817.979596 186.533424 
L 825.6 186.72 
" clip-path="url(#pcf46a63071)" style="fill: none; stroke: #4c72b0; stroke-width: 1.2; stroke-linecap: round"/>
   </g>
   <g id="line2d_11">
    <path d="M 71.18 183.372023 
L 78.800404 186.231537 
L 86.420808 186.231537 
L 94.041212 183.372023 
L 101.661616 181.604746 
L 109.28202 183.372023 
L 116.902424 186.72 
L 124.522828 186.231537 
L 132.143232 183.372023 
L 139.763636 186.72 
L 147.38404 186.72 
L 155.004444 186.231537 
L 162.624848 186.72 
L 170.245253 186.72 
L 177.865657 186.72 
L 185.486061 183.372023 
L 193.106465 186.72 
L 200.726869 186.72 
L 208.347273 183.372023 
L 215.967677 181.604746 
L 223.588081 183.372023 
L 231.208485 186.231537 
L 238.828889 186.72 
L 246.449293 183.372023 
L 254.069697 181.604746 
L 261.690101 183.372023 
L 269.310505 186.72 
L 276.930909 186.231537 
L 284.551313 183.372023 
L 292.171717 181.604746 
L 299.792121 183.372023 
L 307.412525 186.231537 
L 315.032929 186.231537 
L 322.653333 183.372023 
L 330.273737 181.604746 
L 337.894141 186.72 
L 345.514545 186.231537 
L 353.134949 186.231537 
L 360.755354 183.372023 
L 368.375758 181.604746 
L 375.996162 183.372023 
L 383.616566 186.72 
L 391.23697 186.231537 
L 398.857374 183.372023 
L 406.477778 181.604746 
L 414.098182 186.72 
L 421.718586 186.231537 
L 429.33899 186.231537 
L 436.959394 183.372023 
L 444.579798 181.604746 
L 452.200202 183.372023 
L 459.820606 186.231537 
L 467.44101 186.231537 
L 475.061414 183.372023 
L 482.681818 181.604746 
L 490.302222 183.372023 
L 497.922626 186.231537 
L 505.54303 186.72 
L 513.163434 183.372023 
L 520.783838 181.604746 
L 528.404242 183.372023 
L 536.024646 186.231537 
L 543.645051 186.231537 
L 551.265455 183.372023 
L 558.885859 186.72 
L 566.506263 183.372023 
L 574.126667 186.231537 
L 581.747071 186.231537 
L 589.367475 183.372023 
L 596.987879 181.604746 
L 604.608283 183.372023 
L 612.228687 186.231537 
L 619.849091 186.231537 
L 627.469495 183.372023 
L 635.089899 181.604746 
L 642.710303 186.72 
L 650.330707 186.231537 
L 657.951111 186.72 
L 665.571515 183.372023 
L 673.191919 181.604746 
L 680.812323 183.372023 
L 688.432727 186.231537 
L 696.053131 186.72 
L 703.673535 183.372023 
L 711.293939 181.604746 
L 718.914343 183.372023 
L 726.534747 186.72 
L 734.155152 186.72 
L 741.775556 183.372023 
L 749.39596 181.604746 
L 757.016364 186.72 
L 764.636768 186.231537 
L 772.257172 186.231537 
L 779.877576 186.72 
L 787.49798 181.604746 
L 795.118384 183.372023 
L 802.738788 186.72 
L 810.359192 186.72 
L 817.979596 183.372023 
L 825.6 186.72 
" clip-path="url(#pcf46a63071)" style="fill: none; stroke: #dd8452; stroke-width: 1.2; stroke-linecap: round"/>
   </g>
   <g id="patch_3">
    <path d="M 71.18 186.72 
L 71.18 38.4 
" style="fill: none; stroke: #cccccc; stroke-linejoin: miter; stroke-linecap: square"/>
   </g>
   <g id="patch_4">
    <path d="M 825.6 186.72 
L 825.6 38.4 
" style="fill: none; stroke: #cccccc; stroke-linejoin: miter; stroke-linecap: square"/>
   </g>
   <g id="patch_5">
    <path d="M 71.18 186.72 
L 825.6 186.72 
" style="fill: none; stroke: #cccccc; stroke-linejoin: miter; stroke-linecap: square"/>
   </g>
   <g id="patch_6">
    <path d="M 71.18 38.4 
L 825.6 38.4 
" style="fill: none; stroke: #cccccc; stroke-linejoin: miter; stroke-linecap: square"/>
   </g>
   <g id="legend_1">
    <g id="patch_7">
     <path d="M 674.064 109.856 
L 813.28 109.856 
Q 816.8 109.856 816.8 106.336 
L 816.8 50.72 
Q 816.8 47.2 813.28 47.2 
L 674.064 47.2 
Q 670.544 47.2 670.544 50.72 
L 670.544 106.336 
Q 670.544 109.856 674.064 109.856 
z
" style="fill: #ffffff; opacity: 0.8; stroke: #cccccc; stroke-width: 0.8; stroke-linejoin: miter"/>
    </g>
    <g id="line2d_12">
     <path d="M 677.584 64.272 
L 695.184 64.272 
L 712.784 64.272 
" style="fill: none; stroke: #4c72b0; stroke-width: 1.2; stroke-linecap: round"/>
    </g>
    <g id="text_5">
     <!-- $(y-\hat{y}^{(1)})^2$ -->
     <g style="fill: #262626" transform="translate(726.864 70.432) scale(0.176 -0.176)">
      <defs>
       <path id="DejaVuSans-28" d="M 1984 4856 
Q 1566 4138 1362 3434 
Q 1159 2731 1159 2009 
Q 1159 1288 1364 580 
Q 1569 -128 1984 -844 
L 1484 -844 
Q 1016 -109 783 600 
Q 550 1309 550 2009 
Q 550 2706 781 3412 
Q 1013 4119 1484 4856 
L 1984 4856 
z
" transform="scale(0.015625)"/>
       <path id="DejaVuSans-Oblique-79" d="M 1588 -325 
Q 1188 -997 936 -1164 
Q 684 -1331 294 -1331 
L -159 -1331 
L -63 -850 
L 269 -850 
Q 509 -850 678 -719 
Q 847 -588 1056 -206 
L 1234 128 
L 459 3500 
L 1069 3500 
L 1650 819 
L 3256 3500 
L 3859 3500 
L 1588 -325 
z
" transform="scale(0.015625)"/>
       <path id="DejaVuSans-2212" d="M 678 2272 
L 4684 2272 
L 4684 1741 
L 678 1741 
L 678 2272 
z
" transform="scale(0.015625)"/>
       <path id="DejaVuSans-302" d="M -1831 5119 
L -1369 5119 
L -603 3944 
L -1038 3944 
L -1600 4709 
L -2163 3944 
L -2597 3944 
L -1831 5119 
z
M -1600 3584 
L -1600 3584 
z
" transform="scale(0.015625)"/>
       <path id="DejaVuSans-31" d="M 794 531 
L 1825 531 
L 1825 4091 
L 703 3866 
L 703 4441 
L 1819 4666 
L 2450 4666 
L 2450 531 
L 3481 531 
L 3481 0 
L 794 0 
L 794 531 
z
" transform="scale(0.015625)"/>
       <path id="DejaVuSans-29" d="M 513 4856 
L 1013 4856 
Q 1481 4119 1714 3412 
Q 1947 2706 1947 2009 
Q 1947 1309 1714 600 
Q 1481 -109 1013 -844 
L 513 -844 
Q 928 -128 1133 580 
Q 1338 1288 1338 2009 
Q 1338 2731 1133 3434 
Q 928 4138 513 4856 
z
" transform="scale(0.015625)"/>
       <path id="DejaVuSans-32" d="M 1228 531 
L 3431 531 
L 3431 0 
L 469 0 
L 469 531 
Q 828 903 1448 1529 
Q 2069 2156 2228 2338 
Q 2531 2678 2651 2914 
Q 2772 3150 2772 3378 
Q 2772 3750 2511 3984 
Q 2250 4219 1831 4219 
Q 1534 4219 1204 4116 
Q 875 4013 500 3803 
L 500 4441 
Q 881 4594 1212 4672 
Q 1544 4750 1819 4750 
Q 2544 4750 2975 4387 
Q 3406 4025 3406 3419 
Q 3406 3131 3298 2873 
Q 3191 2616 2906 2266 
Q 2828 2175 2409 1742 
Q 1991 1309 1228 531 
z
" transform="scale(0.015625)"/>
      </defs>
      <use xlink:href="#DejaVuSans-28" transform="translate(0 0.60625)"/>
      <use xlink:href="#DejaVuSans-Oblique-79" transform="translate(39.013672 0.60625)"/>
      <use xlink:href="#DejaVuSans-2212" transform="translate(117.675781 0.60625)"/>
      <use xlink:href="#DejaVuSans-302" transform="translate(283.320312 11.79375)"/>
      <use xlink:href="#DejaVuSans-Oblique-79" transform="translate(220.947266 0.60625)"/>
      <use xlink:href="#DejaVuSans-28" transform="translate(281.083984 38.8875) scale(0.7)"/>
      <use xlink:href="#DejaVuSans-31" transform="translate(308.393555 38.8875) scale(0.7)"/>
      <use xlink:href="#DejaVuSans-29" transform="translate(352.929688 38.8875) scale(0.7)"/>
      <use xlink:href="#DejaVuSans-29" transform="translate(382.973633 0.60625)"/>
      <use xlink:href="#DejaVuSans-32" transform="translate(422.944336 38.8875) scale(0.7)"/>
     </g>
    </g>
    <g id="line2d_13">
     <path d="M 677.584 92.96 
L 695.184 92.96 
L 712.784 92.96 
" style="fill: none; stroke: #dd8452; stroke-width: 1.2; stroke-linecap: round"/>
    </g>
    <g id="text_6">
     <!-- $(y-\hat{y}^{(2)})^2$ -->
     <g style="fill: #262626" transform="translate(726.864 99.12) scale(0.176 -0.176)">
      <use xlink:href="#DejaVuSans-28" transform="translate(0 0.60625)"/>
      <use xlink:href="#DejaVuSans-Oblique-79" transform="translate(39.013672 0.60625)"/>
      <use xlink:href="#DejaVuSans-2212" transform="translate(117.675781 0.60625)"/>
      <use xlink:href="#DejaVuSans-302" transform="translate(283.320312 11.79375)"/>
      <use xlink:href="#DejaVuSans-Oblique-79" transform="translate(220.947266 0.60625)"/>
      <use xlink:href="#DejaVuSans-28" transform="translate(281.083984 38.8875) scale(0.7)"/>
      <use xlink:href="#DejaVuSans-32" transform="translate(308.393555 38.8875) scale(0.7)"/>
      <use xlink:href="#DejaVuSans-29" transform="translate(352.929688 38.8875) scale(0.7)"/>
      <use xlink:href="#DejaVuSans-29" transform="translate(382.973633 0.60625)"/>
      <use xlink:href="#DejaVuSans-32" transform="translate(422.944336 38.8875) scale(0.7)"/>
     </g>
    </g>
   </g>
  </g>
  <g id="axes_2">
   <g id="patch_8">
    <path d="M 71.18 383.52 
L 825.6 383.52 
L 825.6 235.2 
L 71.18 235.2 
L 71.18 383.52 
z
" style="fill: none"/>
   </g>
   <g id="matplotlib.axis_3">
    <g id="xtick_6">
     <g id="line2d_14">
      <path d="M 215.967677 383.52 
L 215.967677 235.2 
" clip-path="url(#p664ff1d444)" style="fill: none; stroke: #cccccc; stroke-width: 0.8; stroke-linecap: round"/>
     </g>
    </g>
    <g id="xtick_7">
     <g id="line2d_15">
      <path d="M 368.375758 383.52 
L 368.375758 235.2 
" clip-path="url(#p664ff1d444)" style="fill: none; stroke: #cccccc; stroke-width: 0.8; stroke-linecap: round"/>
     </g>
    </g>
    <g id="xtick_8">
     <g id="line2d_16">
      <path d="M 520.783838 383.52 
L 520.783838 235.2 
" clip-path="url(#p664ff1d444)" style="fill: none; stroke: #cccccc; stroke-width: 0.8; stroke-linecap: round"/>
     </g>
    </g>
    <g id="xtick_9">
     <g id="line2d_17">
      <path d="M 673.191919 383.52 
L 673.191919 235.2 
" clip-path="url(#p664ff1d444)" style="fill: none; stroke: #cccccc; stroke-width: 0.8; stroke-linecap: round"/>
     </g>
    </g>
    <g id="xtick_10">
     <g id="line2d_18">
      <path d="M 825.6 383.52 
L 825.6 235.2 
" clip-path="url(#p664ff1d444)" style="fill: none; stroke: #cccccc; stroke-width: 0.8; stroke-linecap: round"/>
     </g>
    </g>
   </g>
   <g id="matplotlib.axis_4">
    <g id="ytick_5">
     <g id="line2d_19">
      <path d="M 71.18 383.52 
L 825.6 383.52 
" clip-path="url(#p664ff1d444)" style="fill: none; stroke: #cccccc; stroke-width: 0.8; stroke-linecap: round"/>
     </g>
     <g id="text_7">
      <!-- 0.0 -->
      <g style="fill: #262626" transform="translate(38.4545 390.12) scale(0.176 -0.176)">
       <defs>
        <path id="Roboto-Regular-2e" d="M 450 306 
Q 450 453 542 554 
Q 634 656 809 656 
Q 984 656 1076 554 
Q 1169 453 1169 306 
Q 1169 163 1076 62 
Q 984 -38 809 -38 
Q 634 -38 542 62 
Q 450 163 450 306 
z
" transform="scale(0.015625)"/>
       </defs>
       <use xlink:href="#Roboto-Regular-30"/>
       <use xlink:href="#Roboto-Regular-2e" transform="translate(56.201172 0)"/>
       <use xlink:href="#Roboto-Regular-30" transform="translate(82.568359 0)"/>
      </g>
     </g>
    </g>
    <g id="ytick_6">
     <g id="line2d_20">
      <path d="M 71.18 324.192 
L 825.6 324.192 
" clip-path="url(#p664ff1d444)" style="fill: none; stroke: #cccccc; stroke-width: 0.8; stroke-linecap: round"/>
     </g>
     <g id="text_8">
      <!-- 0.2 -->
      <g style="fill: #262626" transform="translate(38.4545 330.792) scale(0.176 -0.176)">
       <use xlink:href="#Roboto-Regular-30"/>
       <use xlink:href="#Roboto-Regular-2e" transform="translate(56.201172 0)"/>
       <use xlink:href="#Roboto-Regular-32" transform="translate(82.568359 0)"/>
      </g>
     </g>
    </g>
    <g id="ytick_7">
     <g id="line2d_21">
      <path d="M 71.18 264.864 
L 825.6 264.864 
" clip-path="url(#p664ff1d444)" style="fill: none; stroke: #cccccc; stroke-width: 0.8; stroke-linecap: round"/>
     </g>
     <g id="text_9">
      <!-- 0.4 -->
      <g style="fill: #262626" transform="translate(38.4545 271.464) scale(0.176 -0.176)">
       <use xlink:href="#Roboto-Regular-30"/>
       <use xlink:href="#Roboto-Regular-2e" transform="translate(56.201172 0)"/>
       <use xlink:href="#Roboto-Regular-34" transform="translate(82.568359 0)"/>
      </g>
     </g>
    </g>
   </g>
   <g id="line2d_22">
    <path d="M 71.18 363.506718 
L 78.800404 307.34962 
L 86.420808 334.90017 
L 94.041212 348.12414 
L 101.661616 357.412421 
L 109.28202 311.148007 
L 116.902424 297.839986 
L 124.522828 320.756828 
L 132.143232 360.232327 
L 139.763636 383.52 
L 147.38404 379.820407 
L 155.004444 367.078497 
L 162.624848 379.917378 
L 170.245253 380.961721 
L 177.865657 379.663246 
L 185.486061 379.369687 
L 193.106465 277.667323 
L 200.726869 363.894385 
L 208.347273 357.662566 
L 215.967677 383.52 
L 223.588081 322.055544 
L 231.208485 326.319712 
L 238.828889 375.516544 
L 246.449293 349.144104 
L 254.069697 353.330967 
L 261.690101 361.999297 
L 269.310505 336.878182 
L 276.930909 366.937485 
L 284.551313 366.580708 
L 292.171717 331.706726 
L 299.792121 368.559857 
L 307.412525 336.951276 
L 315.032929 306.955968 
L 322.653333 312.918985 
L 330.273737 357.44192 
L 337.894141 363.533906 
L 345.514545 256.730652 
L 353.134949 284.197099 
L 360.755354 357.662566 
L 368.375758 342.423092 
L 375.996162 356.735222 
L 383.616566 380.304387 
L 391.23697 376.698216 
L 398.857374 361.815514 
L 406.477778 341.811297 
L 414.098182 373.785616 
L 421.718586 368.400539 
L 429.33899 321.575325 
L 436.959394 369.38272 
L 444.579798 359.26868 
L 452.200202 339.458722 
L 459.820606 310.846356 
L 467.44101 328.921587 
L 475.061414 366.735443 
L 482.681818 374.273044 
L 490.302222 329.074535 
L 497.922626 370.524385 
L 505.54303 337.370094 
L 513.163434 357.662566 
L 520.783838 354.574955 
L 528.404242 379.044718 
L 536.024646 362.508566 
L 543.645051 355.622649 
L 551.265455 330.071226 
L 558.885859 377.122713 
L 566.506263 330.67084 
L 574.126667 353.554592 
L 581.747071 376.167079 
L 589.367475 362.227444 
L 596.987879 382.118039 
L 604.608283 346.676845 
L 612.228687 352.477021 
L 619.849091 330.321265 
L 627.469495 337.881251 
L 635.089899 374.001952 
L 642.710303 347.244025 
L 650.330707 352.484562 
L 657.951111 355.137991 
L 665.571515 357.662566 
L 673.191919 377.764138 
L 680.812323 370.258866 
L 688.432727 370.813163 
L 696.053131 358.309134 
L 703.673535 376.686345 
L 711.293939 306.068719 
L 718.914343 344.51482 
L 726.534747 340.728794 
L 734.155152 363.818334 
L 741.775556 357.662566 
L 749.39596 383.52 
L 757.016364 341.354953 
L 764.636768 355.686828 
L 772.257172 370.155468 
L 779.877576 343.594861 
L 787.49798 337.178272 
L 795.118384 356.260134 
L 802.738788 362.401876 
L 810.359192 379.25224 
L 817.979596 357.662566 
L 825.6 383.52 
" clip-path="url(#p664ff1d444)" style="fill: none; stroke: #4c72b0; stroke-width: 1.2; stroke-linecap: round"/>
   </g>
   <g id="line2d_23">
    <path d="M 71.18 273.986151 
L 78.800404 349.45557 
L 86.420808 355.817875 
L 94.041212 320.515083 
L 101.661616 309.36 
L 109.28202 320.515083 
L 116.902424 383.52 
L 124.522828 349.45557 
L 132.143232 273.986151 
L 139.763636 383.52 
L 147.38404 383.52 
L 155.004444 349.45557 
L 162.624848 383.52 
L 170.245253 383.52 
L 177.865657 383.52 
L 185.486061 320.515083 
L 193.106465 383.52 
L 200.726869 383.52 
L 208.347273 273.986151 
L 215.967677 235.2 
L 223.588081 273.986151 
L 231.208485 349.45557 
L 238.828889 383.52 
L 246.449293 320.515083 
L 254.069697 309.36 
L 261.690101 320.515083 
L 269.310505 383.52 
L 276.930909 349.45557 
L 284.551313 273.986151 
L 292.171717 235.2 
L 299.792121 273.986151 
L 307.412525 349.45557 
L 315.032929 355.817875 
L 322.653333 320.515083 
L 330.273737 309.36 
L 337.894141 383.52 
L 345.514545 355.817875 
L 353.134949 349.45557 
L 360.755354 273.986151 
L 368.375758 235.2 
L 375.996162 273.986151 
L 383.616566 383.52 
L 391.23697 355.817875 
L 398.857374 320.515083 
L 406.477778 309.36 
L 414.098182 383.52 
L 421.718586 355.817875 
L 429.33899 349.45557 
L 436.959394 273.986151 
L 444.579798 235.2 
L 452.200202 273.986151 
L 459.820606 349.45557 
L 467.44101 355.817875 
L 475.061414 320.515083 
L 482.681818 309.36 
L 490.302222 320.515083 
L 497.922626 355.817875 
L 505.54303 383.52 
L 513.163434 273.986151 
L 520.783838 235.2 
L 528.404242 273.986151 
L 536.024646 349.45557 
L 543.645051 355.817875 
L 551.265455 320.515083 
L 558.885859 383.52 
L 566.506263 320.515083 
L 574.126667 355.817875 
L 581.747071 349.45557 
L 589.367475 273.986151 
L 596.987879 235.2 
L 604.608283 273.986151 
L 612.228687 349.45557 
L 619.849091 355.817875 
L 627.469495 320.515083 
L 635.089899 309.36 
L 642.710303 383.52 
L 650.330707 355.817875 
L 657.951111 383.52 
L 665.571515 273.986151 
L 673.191919 235.2 
L 680.812323 273.986151 
L 688.432727 349.45557 
L 696.053131 383.52 
L 703.673535 320.515083 
L 711.293939 309.36 
L 718.914343 320.515083 
L 726.534747 383.52 
L 734.155152 383.52 
L 741.775556 273.986151 
L 749.39596 235.2 
L 757.016364 383.52 
L 764.636768 349.45557 
L 772.257172 355.817875 
L 779.877576 383.52 
L 787.49798 309.36 
L 795.118384 320.515083 
L 802.738788 383.52 
L 810.359192 383.52 
L 817.979596 273.986151 
L 825.6 383.52 
" clip-path="url(#p664ff1d444)" style="fill: none; stroke: #dd8452; stroke-width: 1.2; stroke-linecap: round"/>
   </g>
   <g id="patch_9">
    <path d="M 71.18 383.52 
L 71.18 235.2 
" style="fill: none; stroke: #cccccc; stroke-linejoin: miter; stroke-linecap: square"/>
   </g>
   <g id="patch_10">
    <path d="M 825.6 383.52 
L 825.6 235.2 
" style="fill: none; stroke: #cccccc; stroke-linejoin: miter; stroke-linecap: square"/>
   </g>
   <g id="patch_11">
    <path d="M 71.18 383.52 
L 825.6 383.52 
" style="fill: none; stroke: #cccccc; stroke-linejoin: miter; stroke-linecap: square"/>
   </g>
   <g id="patch_12">
    <path d="M 71.18 235.2 
L 825.6 235.2 
" style="fill: none; stroke: #cccccc; stroke-linejoin: miter; stroke-linecap: square"/>
   </g>
   <g id="legend_2">
    <g id="patch_13">
     <path d="M 716.656 300.672 
L 813.28 300.672 
Q 816.8 300.672 816.8 297.152 
L 816.8 247.52 
Q 816.8 244 813.28 244 
L 716.656 244 
Q 713.136 244 713.136 247.52 
L 713.136 297.152 
Q 713.136 300.672 716.656 300.672 
z
" style="fill: #ffffff; opacity: 0.8; stroke: #cccccc; stroke-width: 0.8; stroke-linejoin: miter"/>
    </g>
    <g id="line2d_24">
     <path d="M 720.176 258.201 
L 737.776 258.201 
L 755.376 258.201 
" style="fill: none; stroke: #4c72b0; stroke-width: 1.2; stroke-linecap: round"/>
    </g>
    <g id="text_10">
     <!-- $\left| \bar{\delta}^{(1)} \right|$ -->
     <g style="fill: #262626" transform="translate(769.456 264.361) scale(0.176 -0.176)">
      <defs>
       <path id="DejaVuSans-7c" d="M 1344 4891 
L 1344 -1509 
L 813 -1509 
L 813 4891 
L 1344 4891 
z
" transform="scale(0.015625)"/>
       <path id="DejaVuSans-304" d="M -2522 4769 
L -653 4769 
L -653 4306 
L -2522 4306 
L -2522 4769 
z
" transform="scale(0.015625)"/>
       <path id="DejaVuSans-Oblique-3b4" d="M 3472 4053 
Q 3197 4272 2450 4272 
Q 1659 4272 1588 3906 
Q 1531 3619 2328 3469 
Q 2953 3353 3253 3003 
Q 3616 2581 3447 1716 
Q 3284 888 2763 400 
Q 2238 -91 1488 -91 
Q 741 -91 406 400 
Q 72 888 241 1747 
Q 363 2384 891 2900 
Q 1097 3100 1353 3213 
Q 913 3459 1000 3900 
Q 1166 4750 2544 4750 
Q 3234 4750 3566 4531 
L 3472 4053 
z
M 1753 3056 
Q 1525 2966 1306 2738 
Q 969 2384 847 1747 
Q 722 1113 919 756 
Q 1119 397 1584 397 
Q 2044 397 2381 759 
Q 2722 1122 2838 1716 
Q 2956 2338 2731 2638 
Q 2491 2959 2103 2994 
Q 1906 3013 1753 3056 
z
" transform="scale(0.015625)"/>
      </defs>
      <use xlink:href="#DejaVuSans-7c" transform="translate(0 21.125) scale(0.95375)"/>
      <use xlink:href="#DejaVuSans-304" transform="translate(94.834839 19.484375)"/>
      <use xlink:href="#DejaVuSans-Oblique-3b4" transform="translate(32.133179 0.046875)"/>
      <use xlink:href="#DejaVuSans-28" transform="translate(94.271851 38.328125) scale(0.7)"/>
      <use xlink:href="#DejaVuSans-31" transform="translate(121.581421 38.328125) scale(0.7)"/>
      <use xlink:href="#DejaVuSans-29" transform="translate(166.117554 38.328125) scale(0.7)"/>
      <use xlink:href="#DejaVuSans-7c" transform="translate(196.161499 21.125) scale(0.95375)"/>
     </g>
    </g>
    <g id="line2d_25">
     <path d="M 720.176 283.897 
L 737.776 283.897 
L 755.376 283.897 
" style="fill: none; stroke: #dd8452; stroke-width: 1.2; stroke-linecap: round"/>
    </g>
    <g id="text_11">
     <!-- $\left| \bar{\delta}^{(2)} \right|$ -->
     <g style="fill: #262626" transform="translate(769.456 290.057) scale(0.176 -0.176)">
      <use xlink:href="#DejaVuSans-7c" transform="translate(0 21.125) scale(0.95375)"/>
      <use xlink:href="#DejaVuSans-304" transform="translate(94.834839 19.484375)"/>
      <use xlink:href="#DejaVuSans-Oblique-3b4" transform="translate(32.133179 0.046875)"/>
      <use xlink:href="#DejaVuSans-28" transform="translate(94.271851 38.328125) scale(0.7)"/>
      <use xlink:href="#DejaVuSans-32" transform="translate(121.581421 38.328125) scale(0.7)"/>
      <use xlink:href="#DejaVuSans-29" transform="translate(166.117554 38.328125) scale(0.7)"/>
      <use xlink:href="#DejaVuSans-7c" transform="translate(196.161499 21.125) scale(0.95375)"/>
     </g>
    </g>
   </g>
  </g>
 </g>
 <defs>
  <clipPath id="pcf46a63071">
   <rect x="71.18" y="38.4" width="754.42" height="148.32"/>
  </clipPath>
  <clipPath id="p664ff1d444">
   <rect x="71.18" y="235.2" width="754.42" height="148.32"/>
  </clipPath>
 </defs>
</svg>
